<svg width="100%" height="100%" viewBox="0 0 29 29" version="1.1" xmlns="http://www.w3.org/2000/svg" xmlns:xlink="http://www.w3.org/1999/xlink" xml:space="preserve" xmlns:serif="http://www.serif.com/" style="fill-rule:evenodd;clip-rule:evenodd;stroke-linejoin:round;stroke-miterlimit:2;">
    <ellipse cx="14.053" cy="14.16" rx="14.053" ry="14.16" fill="#0075ff"/>
    <g fill="#FFF">
        <rect rx="0.4" height="2.4" x="15.463" y="22.728" width="3.43"/>
        <rect rx="0.4" height="2.4" x="14.958" y="19.128" width="5.677"/>
        <rect rx="0.4" height="2.4" x="22.688" y="19.128" width="2.035"/>
        <rect rx="0.4" height="2.4" x="14.394" y="15.528" width="8.008"/>
        <rect rx="0.4" height="2.4" x="0.081" y="15.528" width="2.033"/>
        <rect rx="0.4" height="2.4" x="9.999" y="11.928" width="14.501"/>
        <rect rx="0.4" height="2.4" x="7.088" y="8.328" width="14.689"/>
        <rect rx="0.4" height="2.4" x="22.935" y="8.328" width="3.535"/>
        <rect rx="0.4" height="2.4" x="8.88" y="4.728" width="12.147"/>
        <rect rx="0.4" height="2.4" x="22.365" y="4.728" width="3.316"/>
        <rect rx="0.4" height="2.4" x="9.376" y="1.128" width="2.397"/>
        <rect rx="0.4" height="2.4" x="13.519" y="1.128" width="4.634"/>
        <rect rx="0.4" height="2.4" x="19.626" y="1.128" width="2.441"/>
    </g>
</svg>
