<svg width="501" height="501" viewBox="0 0 501 501" fill="none" xmlns="http://www.w3.org/2000/svg">
<path d="M292.492 268.393C316.706 258 340.585 247.777 364.455 237.534C381.44 230.244 398.358 222.792 415.412 215.667C427.47 210.63 435.809 216.222 435.398 229.209C434.299 263.994 432.941 298.771 431.636 333.549C431.293 342.7 432.048 351.898 430.772 361.001C429.358 371.097 420.992 375.427 412.123 370.368C403.74 365.586 395.614 360.325 387.592 354.951C384.104 352.614 382.172 352.962 379.329 356.179C346.439 393.397 309.995 426.323 264.919 448.381C240.417 460.371 214.621 467.892 187.076 467.52C142.256 466.915 108.036 446.786 83.2728 409.964C69.252 389.115 63.3544 365.847 64.0557 340.876C65.5905 286.222 93.4882 248.27 140.735 224.135C172.889 207.711 206.247 193.642 239.069 178.526C241.641 177.341 244.262 176.25 246.45 174.385C249.706 171.609 251.043 168.238 249.207 164.165C247.559 160.51 242.438 158.253 237.661 159.008C225.18 160.981 212.745 163.277 200.23 164.988C181.077 167.605 161.772 169.978 142.667 165.369C128.606 161.977 115.698 156.289 110.218 141.003C107.946 134.666 107.322 128.299 109.612 121.96C126.681 74.7185 157.22 42.05 208.523 33.5074C269.637 23.3313 326.205 65.9424 334.54 123.116C341.298 169.47 325.326 207.41 290.518 238.04C275.421 251.325 257.562 259.882 239.686 268.486C220.481 277.728 201.136 286.708 182.22 296.512C164.997 305.438 154.241 319.982 150.166 338.944C146.826 354.481 153.106 367.153 164.307 377.355C175.191 387.269 187.932 390.569 202.262 385.394C230.068 375.351 255.527 361.181 278.546 342.574C289.841 333.444 300.583 323.747 310.583 313.23C315.976 307.558 315.896 306.902 309.189 302.458C303.219 298.503 297.108 294.761 291.089 290.881C280.583 284.109 281.055 274.417 292.492 268.393Z" fill="#EF7F2C"/>
<ellipse cx="164" cy="108.5" rx="11" ry="11.5" fill="#273D50"/>
</svg>
