<?xml version="1.0" encoding="UTF-8"?>
<svg id="Layer_1" data-name="Layer 1" xmlns="http://www.w3.org/2000/svg" viewBox="0 0 280 280">
  <defs>
    <linearGradient id='a' gradientUnits='objectBoundingBox' x1='0' y1='0' x2='1' y2='1'>
      <stop offset='0' stop-color='#ff00ff'>
         <animate attributeName="stop-color"
            values="#ff00ff;#af00ff;#5f00ff;#3000ff;#0099ff;#00ffff;#00ff00;#99ff00;#ffff00;#ff9900;#ff0000;#ff00ff;"
            dur="20s" repeatCount="indefinite">
         </animate>
      </stop>
      <stop offset='.5' stop-color='#af00ff'>
         <animate attributeName="stop-color"
            values="#af00ff;#5f00ff;#3000ff;#0099ff;#00ffff;#00ff00;#99ff00;#ffcf00;#ff9900;#ff0000;#ff00af;#ff00ff;"
            dur="20s" repeatCount="indefinite">
         </animate>
      </stop>
      <stop offset='1' stop-color="#3300ff;">
         <animate attributeName="stop-color"
            values="#3300ff;#0099ff;#00ffff;#00ff00;#99ff00;#ffcf00;#ff9900;#ff0000;#ff00af;#ff00ff;#af00ff;#3000ff;"
            dur="20s" repeatCount="indefinite">
         </animate>
      </stop>
      <animateTransform attributeName="gradientTransform" type="rotate" from="0 .5 .5"
         to="360 .5 .5" dur="20s" repeatCount="indefinite" />
   </linearGradient>
   <linearGradient id='b' gradientUnits='objectBoundingBox' x1='0' y1='1' x2='1' y2='1'>
      <stop offset='0' stop-color='#ff00ff'>
         <animate attributeName="stop-color"
            values="#ff00ff;#af00ff;#5f00ff;#3000ff;#0099ff;#00ffff;#00ff00;#99ff00;#ffcf00;#ff9900;#ff0000;#ff00af;"
            dur="30s" repeatCount="indefinite">
         </animate>
      </stop>
      <stop offset='1' stop-color='#af00ff' stop-opacity="0">
         <animate attributeName="stop-color"
            values="#99ff00;#ffcf00;#ff9900;#ff0000;#ff00af;#ff00ff;#af00ff;#5f00ff;#3300ff;#0099ff;#00ffff;#00ff99;#00ff00;"
            dur="25s" repeatCount="indefinite">
         </animate>
      </stop>
      <animateTransform attributeName="gradientTransform" type="rotate"
         values="360 .5 .5; 0 .5 .5" class="ignore" dur="10s" repeatCount="indefinite" />
   </linearGradient>
    <style>
      .cls-1 {
        fill: #000;
      }

      .cls-1, .cls-2, .cls-3, .cls-4, .cls-5, .cls-6 {
        stroke-width: 0px;
      }

      .cls-2 {
        fill: #fae742;
      }

      .cls-3 {
        fill: #0084ff;
      }

      .cls-7 {
        fill: #6e400c;
        stroke: #6e400c;
        stroke-miterlimit: 3.26;
        stroke-width: 2.36px;
      }

      .cls-8 {
        fill: url(#a);
        fill: url(#b)
        stroke: black;
        stroke-width: 50px;
        
      }

      .cls-4 {
        fill: #ffcb37;
      }

      .cls-5 {
        fill: #8d8d8d;
      }

      .cls-6 {
        fill: #925711;
      }
    </style>
  </defs>
  <g>
    <path class="cls-4" d="M131.37,113.53c5.23-.62,19-.95,23.6,0,.91.19,1.62.37,2.21.59-.52-.12-1.05-.18-1.61-.22-.77-.06-1.6-.09-2.43,0-.07,0-.14.02-.21.02.32.05.62.11.93.21.34.05.68.14,1,.25,1.12.41,2.47,1.25,3.33,2.16.82.88,1.42,2.01,1.75,3.15.34,1.16.34,2.45.23,3.73-.11,1.36-.38,3-.93,4.2-.13.29-.29.58-.46.86.26-.13.51-.28.76-.42-.43,3.84,1.36,12.36.41,16.62-.75,3.4-2.25,6.54-4.24,7.93-1.76,1.23-3.77.63-6.64.74-4.08.16-12.38-.66-16.22-.37-2.52.19-3.8,1.48-5.53,1.11-1.78-.38-3.71-1.55-4.98-3.5-1.67-2.57-2.47-7.92-2.95-11.8-.46-3.74-.33-7.92,0-11.06.27-2.58.59-4.58,1.48-6.64.89-2.07,2.12-4.46,3.87-5.72,1.75-1.26,3.44-1.46,6.64-1.84Z"/>
    <path class="cls-5" d="M73.52,34.37c2.23-.55,4.24-.18,5.87.49,1.5.62,2.88,1.73,3.67,3.18.88,1.63,1.35,4.55.98,6.36-.33,1.63-1.24,2.86-2.69,4.16-1.9,1.7-7.31,3.77-8.56,4.65-.51.36-.4.34-.73.73-.6.72-2.46,2.28-2.69,3.67-.24,1.45,1.6,2.96,1.47,4.89-.17,2.51-1.48,7.3-3.67,9.05-2.16,1.72-6.66,2.11-9.29,1.47-2.43-.59-4.92-2.54-6.11-4.65-1.23-2.18-1.36-5.4-.98-8.32.43-3.25,1.94-7.06,3.91-10.27,2.1-3.42,5.36-6.95,8.56-9.54,3.1-2.51,7.33-5.15,10.27-5.87ZM200.74,33.25c1.72-.1,4.61-.02,7.34,1.47,3.91,2.12,10.06,7.6,13.45,12.47,3.36,4.84,7.02,12.53,6.85,16.63-.13,2.94-1.98,5.3-4.16,6.6-2.43,1.45-7.39,1.41-10.27.98-2.42-.36-4.77-1.1-6.11-2.69-1.42-1.67-2.15-5.2-1.96-7.34.17-1.87,2.98-2.99,2.45-4.89-.83-2.94-10.18-7.78-12.23-10.76-1.29-1.87-1.69-3.14-1.47-4.89.26-2.04,2.43-5.43,3.67-6.6.81-.77,1.31-.91,2.45-.98ZM56.86,127.86c1.8.1,6.33,1.17,8.21,3.33,2.09,2.4,2.73,7.79,3.11,11.1.32,2.79-.78,4.19-.44,7.55.51,5.14,4.05,15.07,4.88,21.31.69,5.19.57,9.82.44,13.76-.11,3.25-1.71,6.21-.89,8.44.75,2.05,2.3,3.64,5.11,4.66,4.4,1.6,13.06.89,21.31.89,10.12,0,24.67-1.39,35.52-1.33,9.67.05,16.9,1.22,26.64,1.33,11.03.13,29.91-2.43,36.41-.89.71.17,1.33.36,1.86.58.31-1.4.98-2.85,1.94-3.87.86-.92,2.36-1.73,3.84-2.33,0-.49.05-.98.15-1.44.72-3.28,3.21-6.14,4-10.21.95-4.94-.24-12,.44-17.76.67-5.63,3.01-11.55,3.55-16.43.46-4.13-.8-8.04,0-11.1.68-2.61,2.57-5.32,3.77-6.44.76-.71,1.23-.76,2.22-.89,1.41-.19,4.21-.19,5.77.44,1.4.57,2.58,1.17,3.33,2.89,1.19,2.71,1.26,8.95.89,13.76-.4,5.21-2.8,10.45-3.55,16.43-.83,6.63.22,16-.89,21.76-.85,4.44-3.38,7.42-4,10.66-.52,2.74.81,4.81,0,7.55-1.02,3.43-4.65,9.15-6.88,11.32-1.51,1.47-2.5,1.8-4.44,2.22-2.59.56-7.68.63-10.21,0-.47-.12-.9-.24-1.31-.38-4.18,1.39-11.92.65-17.37.56-5.54-.09-10.36-1.24-15.98-1.33-6.03-.1-11.55.93-19.09.89-9.52-.05-24.4-1.81-34.19-1.78-8.04.02-14,1.34-20.87,1.33-6.75,0-15.87-.02-19.98-1.33-2.49-.79-3.52-2.19-4.66-3.33-.94-.94-1.08-1.86-2-2.89-1.16-1.3-3.43-2.61-4.66-4.22-1.2-1.58-2.23-3.51-2.66-5.33-.41-1.74-.07-2.83,0-5.33.11-4.04,1.44-12.06.89-17.76-.54-5.53-2.99-9.91-4-15.98-1.18-7.12-3.31-19.58-2.22-24.42.64-2.82,2.61-4.16,3.77-5.11.78-.64,1.15-.95,2.22-.89Z"/>
    <path class="cls-6" d="M75.09,126.47c5.41-.49,27.16,2.1,33.06,2.07,2.75-.01,3.39-.88,4.91-.52,1.54.36,3.28,1.65,4.26,2.71.84.91,1.29,1.99,1.55,3.1.27,1.13.22,2.45,0,3.62-.21,1.16-1.16,2.38-1.29,3.36-.11.78.34,1.28.26,2.07-.1.97-1.18,2.08-1.03,3.36.18,1.6.7,4.21,2.84,5.55,3.34,2.09,12.82,2.12,18.72,2.58,5.45.43,11.56.74,15.49.26,2.84-.35,5.19-.2,6.59-1.94,1.72-2.14,1.98-8.65,1.55-11.36-.31-1.91-1.96-2.8-2.32-4.13-.31-1.16-.26-2.23,0-3.36.29-1.23.72-2.74,1.81-3.74,1.31-1.21,3.75-2.12,6.07-2.58,2.63-.52,5.05-.21,9.04,0,5.93.31,19.3,2.74,24.27,2.32,2.79-.23,3.64-1.89,5.42-1.81,1.79.08,4.03,1.17,5.29,2.32,1.16,1.06,1.76,3.51,2.19,4.13.18.26.21.09.39.39.04.07.09.15.15.25-.22.36-.43.74-.6,1.16-.69,1.64-.86,4.05-1.03,6.2-.13,1.56-.24,3.48-.19,5.1-.22.07-.43.24-.65.73-1.75,3.98-2.78,31.35-4.65,38.48-.95,3.63-1.93,4.77-3.1,6.46-.98,1.4-1.99,2.43-3.23,3.23-1.22.79-1.67,1.18-4.13,1.55-5.48.82-22.89.65-32.54.26-8.29-.34-13.99-1.8-22.21-2.07-9.43-.3-21.24.83-31.51.77-9.95-.05-24.19-.28-29.18-1.03-2.27-.34-2.76-.64-3.87-1.29-1.07-.62-2-1.52-2.71-2.45-.7-.92-1.2-1.89-1.55-3.1-.4-1.4-.47-4.13-.52-4.91-.02-.31-.03-.32,0-.52.04-.23.27-.55.26-.77-.01-.2-.22-.34-.26-.52-.04-.17.02-.23,0-.52-.05-.64-.56-2.88-.52-3.62.02-.4.27-.55.26-.77-.01-.2-.22-.34-.26-.52-.04-.17,0-.17,0-.52-.02-1.01-.29-4.34-.26-7.49.04-4.35,1.27-12.46.77-16.79-.36-3.19-1.99-5.44-2.32-7.49-.25-1.55-.13-3.21,0-3.87.06-.31.32-.26.26-.52-.11-.52-1.63-1.46-2.07-2.58-.53-1.35-.93-3.54-.52-5.17.44-1.7,1.94-3.77,3.23-4.78,1.13-.88,1.53-1.08,3.87-1.29Z"/>
    <path class="cls-7" d="M59.19,68.21c1.2-.18,2.77-.11,4.04.22,1.27.34,2.16,1.5,3.59,1.8,1.69.35,3.67-.29,6.06-.22,3.01.08,7.58.99,10.78.9,2.76-.08,4.63-.92,7.41-1.12,3.24-.24,6.24-.17,11,0,6.86.24,20.31,1.73,27.39,1.8,5.11.05,8.18-.72,12.12-.67,3.83.04,7.62.91,11.22.9,3.42-.01,5.04-.66,9.88-.9,8.35-.41,29.68-1.01,38.84-.67,5.93.21,9.83,1.49,13.02,1.35,2.18-.1,3.3-1.29,4.94-1.12,1.69.17,3.9,1.18,5.05,2.24,1,.92,1.46,2.26,1.8,3.48.08.3.15.6.21.9-1.04,1.34-2,3.5-2.36,3.98-.15.19-.1.08-.25.25-.41.45-2.14,2.22-2.73,3.23-.43.74-.66,1.31-.79,2.07-.57.19-1.12.39-1.6.69-1.59.95-3.75,2.03-4.38,3.48-.6,1.38.62,3.38.45,4.94-.16,1.5-.72,3.2-1.35,4.27-.52.87-1.12,1.38-1.91,1.91-.87.58-2.08,1.13-3.14,1.35-1.03.21-1.99.39-3.14,0-.34-.11-.71-.27-1.11-.46.09-.26.17-.51.23-.74.3-1.1.21-2.11,0-3.14-.22-1.07-.58-2.2-1.35-3.14-.88-1.08-2.42-2.29-3.93-2.81-1.12-.38-2.44-.54-3.77-.45-.36-.08-.72-.16-1.07-.25-1.61-.41-3.58-.78-5.39-.67-1.86.11-3.34,1.09-5.61,1.35-2.92.32-6.74.32-10.77,0-4.77-.38-12.81-1.44-16.16-2.47-1.97-.6-2.37-1.83-3.82-2.02-1.59-.21-3.68,1.37-5.39,1.12-1.5-.22-2.56-1.67-4.17-2.36.08-.2.15-.39.21-.57.35-1.14.26-2.08,0-3.14-.28-1.18-.88-2.61-1.8-3.59-.96-1.03-2.32-1.9-3.93-2.36-1.9-.54-4.96-.6-6.96-.22-1.74.33-3.35.98-4.49,2.02-1.13,1.03-2,2.85-2.36,4.15-.3,1.1-.24,2.09,0,3.14.03.12.06.25.09.37-.15-.09-.16-.2-.39-.14-.65.18-1.93,1.98-3.14,2.47-1.25.5-2.83.77-4.27.45-.84-.19-1.9-.73-2.84-1.33-.22-1.47-.85-3.04-1.51-4.06-.79-1.22-1.87-2.06-3.26-2.58-1.61-.61-4.16-.42-6.06-.45-1.75-.03-3.47-.15-4.94.22-1.35.34-2.6.83-3.59,1.8-.5.49-1.02,1.17-1.46,1.91-.23-.01-.31,0-.48.22-.17.23-.21.64-.22,1.17-.19.45-.33.89-.42,1.3-.15.69-.14,1.44-.04,2.17-1.16,2.93-5.08,9.26-7.05,11.29-.08.08-.15.15-.23.23-.56,1.54-1.82,3.31-2.84,4.21-.95.84-2.08,1.13-3.14,1.35-1.03.21-2.02.32-3.14,0-1.36-.39-3.2-1.41-4.38-2.58-1.19-1.18-2.19-3.05-2.69-4.49-.18-.5-.33-.98-.43-1.44-1.7-2.6-4.22-7.66-5.71-9.39-.97-1.13-1.53-.93-2.47-1.91-1.39-1.43-3.94-4.27-4.94-6.51-.9-2.03-1.49-4.35-1.12-6.29.36-1.91,2.06-4.24,3.26-5.28.91-.79,1.83-.96,2.92-1.12Z"/>
    <path class="cls-6" d="M127.88,40.85c17.1-.16,53.97-2.12,65.87,1.09,6.37,1.72,6.08,5.94,8.7,8.63,2.19,2.25,3.4,5.03,4.23,7.39.72,2.05,1.27,3.94.84,5.91-.47,2.18-1.91,5.22-4.01,6.55-.68.43-1.48.72-2.37.91-3.96-.2-8.37-.21-10.88.02-3.13-.5-6.48-1.42-11.25-1.78-9.83-.74-25.27-.97-40.56-.84-18.08.14-51.95,4.05-61.68,2.11-4.23-.84-5.35-2.23-6.55-4.01-1.09-1.61-1.08-3.63-.85-5.91.3-2.88,1.79-7.41,3.38-10.14,1.4-2.4,3.41-4.16,5.28-5.7,1.74-1.43,3.55-2.83,5.49-3.38,1.87-.54,3.91-.2,5.92,0,2.08.21,3.01,1.12,6.34,1.27,6.32.28,19.07-1.99,32.11-2.11Z"/>
  </g>
  <g>
    <rect class="cls-1" x="67.48" y="200.3" width="5.8" height="5.8"/>
    <rect class="cls-1" x="206.7" y="200.3" width="5.8" height="5.8"/>
    <rect class="cls-1" x="218.31" y="133.59" width="5.8" height="5.8"/>
    <rect class="cls-1" x="55.88" y="136.49" width="5.8" height="5.8"/>
    <rect class="cls-1" x="105.19" y="139.39" width="5.8" height="5.8"/>
    <rect class="cls-1" x="137.09" y="127.79" width="5.8" height="11.6"/>
    <path class="cls-1" d="M128.39,148.09h23.2c1.6,0,2.9-1.3,2.9-2.9v-23.2c0-1.6-1.3-2.9-2.9-2.9h-23.2c-1.6,0-2.9,1.3-2.9,2.9v23.2c0,1.6,1.3,2.9,2.9,2.9ZM131.29,124.89h17.4v17.4h-17.4v-17.4Z"/>
    <rect class="cls-1" x="180.6" y="194.5" width="5.8" height="5.8"/>
    <path class="cls-1" d="M231.92,125.7l-11.57-11.57-4.1,4.1,6.65,6.65h-59.71v-5.8c0-4.81-3.9-8.7-8.7-8.7h-29c-4.81,0-8.7,3.9-8.7,8.7v5.8h-59.71l17.4-17.4-.98-4.74,1.05-.46-19.15-29.6h139.7v-5.8h-43.51v-11.6c10.55,0,24.56,0,34.81,0-.55.24-1.1.51-1.63.8-1.03.49-1.8,1.38-2.14,2.47-.19.86-.06,1.76.37,2.53.56.85,1.41,1.46,2.4,1.71,1.98.52,4.01.79,6.06.79l.81.03c6.43.27,8.38.34,14.11.36.11.92.2,1.88.25,2.9h-5.72v5.8h23.79l-16.88,27.44,4.94,3.04,19.63-31.92h-.02c.26-.45.44-.92.44-1.46,0-21.5-13.72-37.71-31.91-37.71h-.7c-3.65,0-6.69,2.46-7.65,5.8h-105.11c-.96-3.34-4-5.8-7.65-5.8h-.7c-18.19,0-31.91,16.21-31.91,37.71,0,.56.2,1.05.47,1.49l-.04.03,20.64,33.74.85-.37-21.07,21.07.03.03c-.59.59-.95,1.41-.86,2.31l7.14,71.35c1.01,10.39,9.76,18.3,20.2,18.27h130.93c10.44.04,19.2-7.88,20.22-18.27l7.14-71.35c.01-.1.01-.2.01-.3,0-.82-.35-1.55-.9-2.07ZM73.61,63.97c7.5-.02,13.63-.14,20.76-.52,2.13-.02,4.25-.39,6.26-1.1,1.01-.36,1.84-1.1,2.32-2.06.75-1.79.05-3.85-1.62-4.82-1.06-.74-2.17-1.41-3.31-2.01-.65-.36-1.28-.7-1.86-1.07h.68c9.45-.02,21.17-.03,31.56-.03v14.5h-55.03c.05-1.02.14-1.98.25-2.9ZM200.2,37.87h.7c14.08,0,24.88,12.28,26.01,29h-14.47c-.8-16.67-8.41-22.66-13.05-24.78-.82-.34-1.37-1.14-1.39-2.03,0-1.21.98-2.19,2.2-2.2ZM205.23,58.17c-4.18-.02-6.3-.09-10.73-.28,1.25-.71,2.13-1.94,2.38-3.35.1-2.36-1.62-4.42-3.96-4.75-1.14-.25-2.3-.35-3.46-.29h-.5c-10.38-.02-25.91-.02-37.37-.02v-5.8h41.57c.83,1.6,2.11,2.95,3.82,3.72,2.51,1.14,6.21,3.95,8.24,10.78ZM145.79,43.67v23.2h-11.6v-23.2h11.6ZM86.82,43.67h41.57v2.9c-10.39,0-22.11,0-31.57.02h-.5c-1.24-.07-2.49.07-3.67.43-2.28.65-3.82,2.77-3.75,5.14.2,1.44.96,2.75,2.11,3.65.83.7,1.72,1.32,2.66,1.86-6.46.34-12.19.46-18.91.49,2.03-6.82,5.73-9.63,8.24-10.77,1.71-.77,3-2.11,3.82-3.72ZM79.08,37.87h.71c1.21,0,2.2.99,2.19,2.2-.02.89-.56,1.69-1.39,2.03-4.64,2.11-12.26,8.1-13.05,24.77h-14.47c1.13-16.73,11.93-29,26.01-29ZM122.59,119.08c0-1.6,1.3-2.9,2.9-2.9h29c1.6,0,2.9,1.3,2.9,2.9v29.01c0,1.6-1.3,2.9-2.9,2.9h-29c-1.6,0-2.9-1.3-2.9-2.9v-29.01ZM116.79,130.69v17.4c0,4.81,3.9,8.7,8.7,8.7h29c4.81,0,8.7-3.9,8.7-8.7v-17.4h46.15l-.72,8.7h-39.62v5.8h39.14l-.73,8.75c-12.27.13-24.5,1.3-36.56,3.58-.2,0-.39.03-.58.06-2.72.45-4.57,3.02-4.12,5.74v.29c.11,2.81-2.82,5.29-4.08,6.22-6.05,3.88-12.99,6.18-20.17,6.67-1.74.22-3.48.41-5.22.61-6.07.46-12.07,1.55-17.92,3.24-8.6,2.81-15.12,7.91-18.3,14.15h-19.17c-3.01-.02-5.52-2.32-5.78-5.32l-.82-9.87c11.5-1.88,22.79-4.84,33.69-8.98,2.5-.88,4.83-2.17,6.89-3.83.65-.5,1.13-1.2,1.36-1.99.61-2.07-.57-4.24-2.64-4.85-7.53-3.01-15.51-4.73-23.61-5.08-6.11-.34-12.14-1.41-18.01-3.14l-.52-6.25h27.54v-5.8h-28.02l-.72-8.7h46.15ZM74.2,173.51l-1.32-15.91c5.53,1.48,11.2,2.42,16.92,2.76,6.46.36,12.84,1.52,19.02,3.45-.82.41-1.71.78-2.61,1.14-10.36,3.92-21.09,6.75-32,8.56ZM219.89,198.85c-.73,7.42-6.97,13.07-14.43,13.05H74.53c-7.46.02-13.7-5.63-14.43-13.05l-6.82-68.16h11.52l4.92,58.97c.53,6,5.54,10.61,11.56,10.64h93.51v-5.8h-67.48c3.92-5.05,10.26-7.66,13.24-8.63,5.47-1.57,11.08-2.57,16.75-2.99,1.78-.19,3.56-.39,5.33-.62,8.16-.63,16.02-3.3,22.88-7.77,3.86-2.39,6.27-6.55,6.44-11.08v-.21c11.54-2.17,23.24-3.3,34.97-3.44l-.72,8.71c-12.46.34-21.84,2.6-30.86,7.46-2.01,1.03-3.32,3.06-3.44,5.32-.18,3.5,2.51,6.49,6.02,6.67,9.65.73,17.34.78,26.59.79l-.04.48c-.27,3-2.77,5.3-5.78,5.32h-6.49v5.8h6.49c6.03-.03,11.04-4.64,11.58-10.64l4.91-58.97h11.53l-6.83,68.16ZM205.72,174.27l-.72,8.62c-9.35,0-17.04-.04-26.71-.77-.27,0-.52-.18-.58-.44-.08-.4.23-.56.5-.71,7.92-4.26,16.32-6.32,27.5-6.69Z"/>
  </g>
  <g>
    <path class="cls-3" d="M115.74,172.22c.6-.07,1.11.01,1.66.25.63.28,1.41.83,1.85,1.47.45.65.41,1.75.76,2.42.32.6.62.95,1.21,1.47.81.7,2.83,1.28,3.5,2.23.6.85.78,2.15.64,3.06-.14.84-.68,1.71-1.34,2.23-.7.55-1.8.95-2.8.89-1.14-.06-2.65-.94-3.7-1.53-.93-.52-1.6-.91-2.36-1.72-.93-1-2.18-2.73-2.68-4.08-.44-1.19-.59-2.56-.38-3.57.18-.88.72-1.71,1.34-2.23.6-.51,1.59-.81,2.29-.89ZM105.5,200.43c1.05-.22,3.22-.32,4.46,0,1.07.27,1.77,1.28,2.68,1.53.84.23,1.55.09,2.55,0,1.28-.11,3.02-.64,4.59-.76,1.61-.13,3.65-.16,4.97,0,1,.12,1.7.3,2.42.64.7.33,1.41.81,1.85,1.34.4.48.64,1.08.76,1.66.13.57.2,1.12,0,1.78-.27.88-.84,2.2-1.85,3-1.24.98-3.51,1.65-5.48,2.04-2.09.41-4.98.35-6.76.25-1.32-.07-2.15-.12-3.19-.51-1.11-.42-2.83-1.69-3.25-2.04-.16-.13-.07-.14-.19-.25-.23-.22-.71-.82-1.27-1.02-.69-.25-1.92.13-2.68-.13-.69-.23-1.29-.62-1.72-1.21-.48-.66-.97-1.78-.89-2.68.08-.95.88-2.27,1.47-2.87.45-.47.82-.61,1.53-.76ZM156.92,211.23c1.28-.09,3.5.03,5.35.76,2.21.87,5.84,3.17,6.95,4.65.72.97.8,1.9.64,2.8-.17.95-.96,2.18-1.72,2.74-.7.51-1.82.63-2.55.64-.59,0-.66-.29-1.53-.38-1.85-.2-8.37.19-10.45-.13-1.14-.17-1.61-.42-2.17-.76-.48-.29-.8-.67-1.08-1.08-.29-.41-.53-.89-.64-1.4-.12-.54-.15-1.15,0-1.78.18-.74.47-1.58,1.15-2.36.88-1.02,3.03-2.46,4.14-3.06.76-.41,1.05-.58,1.91-.64ZM198.27,228.77c1.48-.3,3.12-.25,4.21,0,.85.19,1.47.45,1.98,1.02.58.65,1.08,2.02,1.15,2.87.05.71-.21,1.36-.51,1.91-.29.53-.9,1.13-1.21,1.34-.18.12-.38,0-.45.13-.09.15.2.44.13.83-.13.67-.42,2.06-1.47,3-1.58,1.42-5.96,3.16-8.54,3.82-2.14.55-4.33.73-5.86.38-1.22-.27-2.29-.94-2.87-1.72-.54-.72-.81-1.71-.64-2.68.21-1.18,1.17-2.6,2.36-3.89,1.49-1.62,4.3-3.65,6.37-4.84,1.82-1.05,3.67-1.83,5.35-2.17ZM107.61,229.58c.99-.09,1.41-.09,2.29.25,1.23.49,3.39,1.96,4.4,3,.8.82,1.25,1.59,1.53,2.55.3,1.02.26,2.44.13,3.44-.12.87-.42,1.69-.76,2.29-.29.52-.54.91-1.08,1.21-.71.39-2.22.66-3.06.64-.66-.02-.87-.44-1.66-.51-1.26-.12-4.09.6-5.61.38-1.2-.17-2.09-.64-2.93-1.15-.78-.47-1.35-1.02-1.98-1.72-.7-.79-1.6-2.48-1.98-2.87-.15-.16-.19-.05-.32-.19-.23-.25-.72-.98-.89-1.53-.17-.55-.29-1.15-.13-1.78.19-.77.88-1.94,1.47-2.49.49-.45,1.11-.64,1.66-.76.51-.11,1.02-.11,1.53,0,.55.12.86.73,1.66.76,1.28.06,4.3-1.4,5.74-1.53Z"/>
    <path class="cls-2" d="M162.07,119.92c.88-.23,1.65-.25,2.55,0,1.09.31,2.72,1.29,3.51,2.02.62.57.71,1.78,1.17,1.81.49.03.99-1.39,1.7-1.91.76-.56,1.8-1.06,2.76-1.28.95-.21,1.83-.28,2.98,0,1.51.37,3.87,1.54,5.32,2.55,1.28.9,2.16,1.9,3.08,3.08.97,1.25,2.08,2.65,2.55,4.25.5,1.7.56,3.8.21,5.74-.37,2.09-1.39,4.37-2.55,6.38-1.2,2.07-2.66,4.14-4.57,5.85-2.04,1.83-5.08,3.92-7.44,4.68-2,.64-4.07.44-5.74.21-1.46-.2-2.66-.6-3.83-1.28-1.21-.69-2.09-1.43-3.3-2.87-1.75-2.09-4.84-7.11-5.95-9.36-.69-1.4-.87-1.94-1.06-3.19-.23-1.5-.57-3.28,0-5.32.77-2.74,3.7-7.88,5.42-9.68,1.1-1.15,2.17-1.44,3.19-1.7ZM165.52,154.04c1.39-.11,3.41,1.11,4.89,1.06,1.32-.04,2.36-1.17,3.62-1.06,1.39.12,3.35.94,4.36,2.02,1.01,1.08,1.57,3.11,1.7,4.47.11,1.16-.5,1.62-.64,3.19-.23,2.69-.08,7.81,0,12.55.1,5.61,1.43,15.42.64,19.14-.44,2.05-1.1,2.8-2.23,3.72-1.24,1.02-3.34,1.59-5.1,1.91-.91.17-1.88.27-2.84.28,2.25.55,3.01,1.76,4.6,2.11,1.58.34,3.53-.19,4.89,0,1.1.16,1.77.37,2.76.85,1.21.59,2.95,1.6,3.93,2.66.91.98,1.55,2.13,1.91,3.4.38,1.34.62,3,.21,4.47-.45,1.62-1.88,3.78-3.08,4.79-1.01.84-2.07,1.05-3.4,1.28-1.57.27-3.87.25-5.53,0-1.49-.22-3-.66-4.04-1.28-.89-.53-1.45-1.21-2.02-2.02-.61-.87-.81-2.39-1.49-3.08-.6-.61-1.01-.78-2.23-1.06-2.29-.53-8.58-1.29-11.91-.85-2.74.36-5.65,1.28-6.91,2.55-.98.99-.52,2.77-1.06,3.72-.46.81-.98,1.35-1.81,1.81-1.01.56-2.74,1.11-4.04,1.06-1.25-.05-2.02-1.39-3.62-1.28-2.43.18-6.75,3.54-10,4.25-2.98.66-5.67.49-8.72.21-3.3-.3-7.17-1.02-10.42-2.13-3.15-1.08-7.68-3.49-8.83-4.36-.45-.34-.33-.5-.53-.74-.22-.25-.45-.36-.74-.74-.46-.6-1.42-1.79-1.7-2.76-.27-.94-.23-2,0-2.98.24-1.04.8-2.31,1.49-3.08.65-.72,1.5-1.2,2.45-1.49,1.04-.32,2.37-.58,3.62-.21,1.49.44,3.1,2.4,4.68,3.19,1.47.73,2.49,1.07,4.47,1.49,2.83.59,8.38,1.7,11.49,1.28,2.48-.34,4.69-1.54,6.06-2.66,1.08-.88,1.37-2.4,2.02-3.08.47-.5.93-.52,1.38-.96.54-.51.85-1.49,1.59-2.02.85-.61,2.11-1.05,3.4-1.28,1.49-.26,3.7-.05,5.1,0,1.1.04,1.63.42,2.76.21,1.62-.29,3.36-2.17,6.17-2.55,2.97-.41,8.65,0,12.96.58-1.47-.53-2.97-1.32-3.77-2.22-.92-1.04-.95-1.47-1.28-3.83-.77-5.58-1.79-29.05-.64-34.88.53-2.68,1.43-3.42,2.45-4.36.85-.79,1.81-1.18,2.98-1.28ZM93.43,167.62c1.58-.24,7.32-.65,10,0,2.17.53,4.09,1.42,5.21,2.87,1.13,1.47.71,3.74,1.49,5.95.94,2.68,2.5,7.26,4.04,9.04,1.07,1.24,2.14,1.4,3.51,1.91,1.58.59,3.97.59,5.53,1.28,1.39.61,2.68,1.29,3.51,2.45.89,1.24,1.56,3.67,1.49,4.89-.06.89-.38,1.52-1.06,2.02-.89.65-2.4.91-4.36,1.06-2.92.23-9.82.06-12.12-.64-1.27-.38-1.59-.9-2.23-1.59-.69-.74-1.35-1.51-1.7-2.76-.48-1.71.4-4.63-.21-7.02-.68-2.64-3.34-5.98-4.04-8.08-.48-1.45.4-2.8-.53-3.51-1.32-1-6.69.33-8.51-.21-1.16-.34-1.75-.86-2.23-1.6-.5-.77-.82-2.05-.64-2.98.19-.95,1.25-2.18,1.81-2.66.37-.32.4-.33,1.06-.43ZM192.84,223.76c1.47-.1,2.19-.1,2.98.21.69.27,1.22.77,1.59,1.38.41.67.78,1.67.64,2.55-.16.99-1.01,2.35-1.81,3.08-.75.69-1.47.91-2.76,1.28-1.95.55-6.47-.05-8.4,1.28-1.73,1.19-2.59,5.02-3.08,5.74-.17.25-.16.14-.32.32-.32.34-.9,1.31-1.59,1.81-.78.56-1.69,1.03-2.98,1.28-1.73.33-5.27.14-6.81,0-.95-.09-1.48-.62-2.02-.43-.52.19-.37,1.14-1.17,1.49-1.44.63-4.62.47-8.29.43-5.49-.07-15.75-1.21-22.54-1.49-5.94-.24-13.2.49-16.16-.21-1.53-.36-1.88-.72-2.66-1.6-.53-.6-1.05-1.82-1.49-2.91.51-.1.99-.26,1.32-.43.54-.27.83-.65,1.12-1.13.33-.53.68-1.25.66-1.98-.02-.86-.31-1.96-1.06-2.91-1-1.25-3.36-3.01-5.1-3.64-1.56-.56-3.54-.49-4.76-.26-.94.17-1.64.53-2.18,1.06-.53.52-.96,1.27-1.06,2.05-.06.47,0,1.09.14,1.67-.56.03-1.14.06-1.74.08-2.26.07-6.2-.23-7.55.43-.8.39-.89,1.47-1.17,1.7-.13.11-.36,0-.32.11.12.28,3.33,1.32,4.04,2.34.61.88.65,2.27.43,3.19-.21.87-.77,1.75-1.59,2.23-.99.58-3.02.76-4.25.64-1.06-.11-1.81-.96-2.76-1.06-.96-.11-2.1.64-2.98.43-.85-.2-1.6-.73-2.23-1.6-.83-1.13-1.58-3.62-1.91-5.1-.27-1.2-.55-1.96-.21-3.19.47-1.7,2.25-4.87,3.72-6.06,1.19-.97,3.23-1.21,4.04-1.28.43-.03.22.18.85.21,2.12.12,13.9-1.15,18.08-.85,2.67.19,4.18,1.25,5.74,1.28,1.2.02,1.6-.58,2.98-.64,2.17-.09,7.66,1.13,9.36.85.86-.14.6-.66,1.49-.85,1.85-.4,5.47-.05,10.63,0,8.85.08,31.54,1.26,40.83.64,5.79-.39,9.73-1.95,12.33-2.13Z"/>
    <path class="cls-1" d="M195.37,219.41h-3.83c1.39-2.21,2.22-4.8,2.22-7.6,0-6.09-3.85-11.29-9.24-13.33v-48.35l5.02-6.87c2.01-2.75,3.07-5.99,3.07-9.4v-2.09c0-8.81-7.19-15.96-16.02-15.96h-12.76c-8.83,0-16.01,7.15-16.01,15.96v2.09c0,3.41,1.07,6.65,3.07,9.4l5.01,6.87v47.42h-23.07v-1.59c0-9.98-4.47-19.29-12.26-25.56-5.85-4.71-13.21-7.31-20.72-7.31h-6.69c-4.47,0-8.12,3.63-8.12,8.1s3.64,8.1,8.12,8.1c2.35,0,4.66.81,6.5,2.28l.3.26c2.71,2.17,4.26,5.4,4.26,8.87v7.07c-6.75,1.13-11.91,6.99-11.91,14.05,0,2.8.83,5.39,2.22,7.6h-3.83c-7.87,0-14.26,6.4-14.26,14.26s6.39,14.26,14.26,14.26h104.67c7.87,0,14.26-6.39,14.26-14.26s-6.39-14.26-14.26-14.26ZM154.48,133.86v-2.09c0-4.06,2.63-7.52,6.28-8.78v2.71c0,1.31,1.07,2.38,2.38,2.38s2.38-1.07,2.38-2.38v-3.23h2.32v6.16c0,1.31,1.07,2.38,2.38,2.38s2.38-1.07,2.38-2.38v-6.16h2.32v3.23c0,1.31,1.07,2.38,2.38,2.38s2.38-1.07,2.38-2.38v-2.71c3.64,1.27,6.28,4.72,6.28,8.78v2.09c0,1.98-.62,3.87-1.79,5.47l-6.38,8.73c-1.76,2.4-4.59,3.83-7.56,3.83s-5.81-1.44-7.56-3.83l-6.38-8.73c-1.17-1.6-1.79-3.49-1.79-5.47ZM164.93,172.35c.46.41,1.02.61,1.58.61.66,0,1.31-.28,1.78-.8l1.93-2.17,1.92,2.17c.47.52,1.12.8,1.78.8.56,0,1.12-.2,1.58-.61.98-.87,1.07-2.37.2-3.35l-3.1-3.49v-7.14c1.86-.28,3.63-.88,5.26-1.76v40.94h-15.29v-40.94c1.64.88,3.42,1.48,5.27,1.76v7.14l-3.1,3.49c-.88.98-.79,2.48.19,3.35ZM116.4,175.58c3.19,2.56,5.66,5.76,7.34,9.33l-1.16-.17c-4.5-.69-8.02-4.32-8.58-8.81l-.27-2.22c.92.57,1.83,1.18,2.67,1.86ZM104.14,176.62l-.31-.25c-3.01-2.43-6.79-3.76-10.67-3.76-.8,0-1.46-.65-1.46-1.44s.66-1.44,1.46-1.44h6.69c3,0,5.97.52,8.77,1.5l.65,5.26c.82,6.6,5.98,11.91,12.58,12.93l3.64.56c.45,1.93.69,3.93.69,5.96v1.59h-15.29v-6.86c0-5.49-2.46-10.61-6.75-14.06ZM106.59,204.2h22.87c-4.23,6.02-12.37,7.99-18.92,4.42l-6.97-3.8c.92-.4,1.95-.63,3.03-.63ZM99.87,208.25l8.39,4.57c2.94,1.59,6.12,2.35,9.25,2.35,6.5,0,12.82-3.26,16.47-9.14l1.12-1.82h44.38c4.2,0,7.61,3.41,7.61,7.6s-3.42,7.6-7.61,7.6h-5.38c-.85-3.68-3.2-6.93-6.56-8.85l-1.79-1.02c-3.46-1.98-7.62-2.35-11.39-1.03-4.83,1.7-8.27,5.94-9,10.89h-38.77c-4.2,0-7.61-3.41-7.61-7.6,0-1.28.32-2.5.89-3.56ZM169.13,219.41h-18.94c.69-2.92,2.83-5.38,5.75-6.4,2.46-.87,5.19-.63,7.45.67l1.79,1.03c1.87,1.07,3.24,2.75,3.96,4.71ZM114.86,239.01l-.86,2.26h-11.29l-3.83-3.54c-.54-.5-.86-1.21-.86-1.94,0-1.32,1-2.45,2.31-2.63l8.86-1.23c1.63-.22,3.3.33,4.47,1.49,1.46,1.46,1.93,3.64,1.2,5.58ZM179.17,241.27h-60.08l.23-.58c1.39-3.68.49-7.85-2.29-10.63-2.22-2.2-5.38-3.26-8.48-2.84l-8.86,1.22c-3.66.5-6.42,3.66-6.42,7.34,0,2.06.88,4.03,2.39,5.43l.06.05h-5.01c-4.2,0-7.6-3.41-7.6-7.6s3.41-7.6,7.6-7.6h104.67c1.01,0,1.97.2,2.84.56l-.54.11c-8.14,1.81-14.89,7.16-18.5,14.53ZM195.37,241.27h-10.76c3.15-4.99,8.17-8.56,14.09-9.88l3.62-.8c.42.94.66,1.98.66,3.07,0,4.2-3.41,7.6-7.6,7.6Z"/>
    <path class="cls-1" d="M164.89,136.64c0,1.49-1.22,2.71-2.72,2.71s-2.72-1.22-2.72-2.71,1.22-2.71,2.72-2.71,2.72,1.22,2.72,2.71Z"/>
    <path class="cls-1" d="M179.93,136.75c0,1.49-1.22,2.71-2.72,2.71s-2.72-1.22-2.72-2.71,1.22-2.71,2.72-2.71,2.72,1.22,2.72,2.71Z"/>
  </g>
  <path fill="url(#a)" stroke="black" stroke-width="8px" d="M76.38,104.46s7.89.53,9.99,0,6.05-3.94,3.68-7.1-1.48-7.04,1.1-7.33-8.46-.82-4.78-5.29,7.36-5.78,9.99-5.26,9.2.26,10.52.26,7.1,2.56,7.1,5.82c0,3.42-1.92,5.72-1.92,5.72l3.56.82s1.37.15,4.53.15c2.94,0,4.94-2.45,4.94-3.93s-1.41-2.46-1.41-4.96.41-5.98,8.96-5.98,10.57,4.43,10.57,5.98.4,3.59-1.36,3.75c-.77.56,3.16,4.73,5.52,3.42l2.37-1.31s1.31-3.94,2.37-1.84,6.57,7.1,11.31,7.36,15.66.28,15.66-1.1c0-2.76-3.3-3.29-3.3-6.53s3.37-3.42,8.41-3.42,12.36.67,12.36,4.47-3.07,6.49-3.42,7.36,15.59.09,18.48,6.25c1.97,4.19,5.03,10.3,6.23,12.42,1.31,2.3,6.57,9.34,6.57,9.34.79,1.06.07,2.58-1.25,2.65l-31.35-1.21s-3.16-7.63-12.62-8.41-16.04-.53-16.04-.53c0,0-.26-5.52-5.52-5.52h-31.03s-7.63.53-7.63,7.1c0,4.28-.13,8.55-.13,8.55,0,0-66.92.13-65.87.13s18.67-21.3,18.67-21.3l4.73-.53Z"/>
</svg>