ply
format ascii 1.0
comment VCGLIB generated
element vertex 110
property double x
property double y
property double z
property double nx
property double ny
property double nz
property uchar red
property uchar green
property uchar blue
property uchar alpha
element face 216
property list uchar int vertex_indices
end_header
-17.64960861206055 -6.840400695800781 0 -0.7890101961148435 -0.2613916891727517 -0.5560011647993482 255 0 0 255 
-18.55191040039062 -3.472969055175781 0 -0.8224135226803224 -0.1204104003657071 -0.5560011989162551 255 0 0 255 
1.144241333007812 0 0 0 0 -1 255 0 0 255 
-18.85576057434082 0 0 -0.8308281922440863 0.02422934963830896 -0.5560013071823917 255 0 0 255 
-18.55191040039062 3.47296142578125 0 -0.8139987906965348 0.1681328954700233 -0.5560011674497144 255 0 0 255 
-11.71150970458984 -15.32089042663574 0 -0.5526068531293761 -0.6208769965743635 -0.5560012778755514 255 0 0 255 
-14.17665100097656 -12.85574913024902 0 -0.6520254817928735 -0.5154855538959617 -0.5560012723163003 255 0 0 255 
-16.17626953125 -10 0 -0.7316330123717348 -0.3944309975996596 -0.5560011900530416 255 0 0 255 
-2.328720092773438 -19.69615936279297 0 -0.1681328954700233 -0.8139987906965348 -0.5560011674497144 255 0 0 255 
-5.696159362792969 -18.79384994506836 0 -0.3069282003317846 -0.7724362335921444 -0.5560012094187152 255 0 0 255 
-8.855758666992188 -17.32051086425781 0 -0.4363975049648427 -0.7074036197964715 -0.55600120176067 255 0 0 255 
7.984638214111328 -18.79384994506836 0 0.2613916891727517 -0.7890101961148435 -0.5560011647993482 255 0 0 255 
4.617198944091797 -19.69615936279297 0 0.1204104003657071 -0.8224135226803224 -0.5560011989162551 255 0 0 255 
1.144241333007812 -20 0 -0.02422934963830896 -0.8308281922440863 -0.5560013071823917 255 0 0 255 
16.46513366699219 -12.85574913024902 0 0.6208770948045689 -0.5526068279031167 -0.5560011932558181 255 0 0 255 
14 -15.32089042663574 0 0.5154851177308727 -0.6520258908658983 -0.5560011969757979 255 0 0 255 
11.14424133300781 -17.32051086425781 0 0.3944306943397193 -0.7316331814720397 -0.5560011826712139 255 0 0 255 
20.84039306640625 -3.472969055175781 0 0.8139988515949086 -0.1681325977140316 -0.5560011683333962 255 0 0 255 
19.93810272216797 -6.840400695800781 0 0.7724364187649987 -0.3069277260213215 -0.5560012139958728 255 0 0 255 
18.46475219726562 -10 0 0.7074038011308245 -0.436397208496453 -0.5560012037416504 255 0 0 255 
19.93810272216797 6.840400695800781 0 0.7890103076856027 0.2613910209352047 -0.5560013206282176 255 0 0 255 
20.84039306640625 3.47296142578125 0 0.8224134442581043 0.1204108086687662 -0.556001226490784 255 0 0 255 
21.14424133300781 0 0 0.8308281875945798 -0.02422958047071379 -0.5560013040708799 255 0 0 255 
14 15.32088851928711 0 0.5526068279031167 0.6208770948045689 -0.5560011932558181 255 0 0 255 
16.46513366699219 12.85575103759766 0 0.6520256446874136 0.5154853624963229 -0.5560012587413784 255 0 0 255 
18.46475219726562 10 0 0.7316332416742147 0.3944305181790356 -0.5560012284215725 255 0 0 255 
4.617198944091797 19.69615936279297 0 0.1681328954700233 0.8139987906965348 -0.5560011674497144 255 0 0 255 
7.984638214111328 18.79384994506836 0 0.3069282003317846 0.7724362335921444 -0.5560012094187152 255 0 0 255 
11.14424133300781 17.32051086425781 0 0.436397208496453 0.7074038011308245 -0.5560012037416504 255 0 0 255 
-5.696159362792969 18.79384994506836 0 -0.2613919327068031 0.789010063095463 -0.5560012390722665 255 0 0 255 
-2.328720092773438 19.69615936279297 0 -0.1204104003657071 0.8224135226803224 -0.5560011989162551 255 0 0 255 
1.144241333007812 20 0 0.02422928076089708 0.8308281936314305 -0.5560013081108208 255 0 0 255 
-14.17665100097656 12.85575103759766 0 -0.6208768094137237 0.5526071371697093 -0.556001204568239 255 0 0 255 
-11.71150970458984 15.32088851928711 0 -0.5154853624963229 0.6520256446874136 -0.5560012587413784 255 0 0 255 
-8.855758666992188 17.32051086425781 0 -0.3944312747164528 0.7316327947783394 -0.5560012797920437 255 0 0 255 
-17.64960861206055 6.840400695800781 0 -0.7724364187649987 0.3069277260213215 -0.5560012139958728 255 0 0 255 
-16.17626953125 10 0 -0.7074035234408637 0.4363976382725869 -0.5560012197230866 255 0 0 255 
-36.44346046447754 13.68080902099609 850.718017578125 -0.5755795823545119 0.2094938005280833 -0.7904558760088418 255 0 0 255 
-38.24806976318359 6.945930480957031 850.718017578125 -0.603213435229131 0.1063627983387314 -0.7904558853526397 255 0 0 255 
1.144241333007812 0 1000 -1.41237293860283e-07 1.348173981341435e-07 0.999999999999981 255 0 0 255 
-33.49678039550781 20 850.718017578125 -0.5304570108352684 0.3062595077221047 -0.7904558644133941 255 0 0 255 
-29.49753952026367 25.71150207519531 850.718017578125 -0.4692167871185405 0.3937196079661926 -0.7904558665663137 255 0 0 255 
-24.5672607421875 30.64177703857422 850.718017578125 -0.3937196079661926 0.4692167871185405 -0.7904558665663137 255 0 0 255 
-18.85576057434082 34.64100646972656 850.718017578125 -0.3062596081095978 0.5304569106448018 -0.7904558927541298 255 0 0 255 
-12.53657150268555 37.58770751953125 850.718017578125 -0.2094939929286213 0.5755795191381543 -0.7904558710487979 255 0 0 255 
-5.801689147949219 39.39231109619141 850.718017578125 -0.106362698752736 0.6032134793599697 -0.7904558650756374 255 0 0 255 
1.144241333007812 40 850.718017578125 0 0.6125190099724945 -0.7904558573521454 255 0 0 255 
8.090160369873047 39.39231109619141 850.718017578125 0.106362698752736 0.6032134793599697 -0.7904558650756374 255 0 0 255 
14.82504272460938 37.58770751953125 850.718017578125 0.2094938005280833 0.5755795823545119 -0.7904558760088418 255 0 0 255 
21.14424133300781 34.64100646972656 850.718017578125 0.3062595887431509 0.5304569963104345 -0.7904558427693402 255 0 0 255 
26.85574340820312 30.64177703857422 850.718017578125 0.3937197976009854 0.469216591398076 -0.7904558882909344 255 0 0 255 
31.7860107421875 25.71150207519531 850.718017578125 0.4692167008787713 0.393719700030753 -0.7904558719018637 255 0 0 255 
35.78526306152344 20 850.718017578125 0.5304569106448018 0.3062596081095978 -0.7904558927541298 255 0 0 255 
38.73194122314453 13.68080902099609 850.718017578125 0.5755795191381543 0.2094939929286213 -0.7904558710487979 255 0 0 255 
40.53655242919922 6.945930480957031 850.718017578125 0.603213422322436 0.1063629972286067 -0.7904558684395997 255 0 0 255 
41.14424133300781 0 850.718017578125 0.6125190099724945 0 -0.7904558573521454 255 0 0 255 
40.53655242919922 -6.945930480957031 850.718017578125 0.603213422322436 -0.1063629972286067 -0.7904558684395997 255 0 0 255 
38.73194122314453 -13.68081092834473 850.718017578125 0.5755795191381543 -0.2094939929286213 -0.7904558710487979 255 0 0 255 
35.78526306152344 -20 850.718017578125 0.5304569963104345 -0.3062595887431509 -0.7904558427693402 255 0 0 255 
31.7860107421875 -25.71150970458984 850.718017578125 0.4692167871185405 -0.3937196079661926 -0.7904558665663137 255 0 0 255 
26.85574340820312 -30.64177799224854 850.718017578125 0.3937197976009854 -0.469216591398076 -0.7904558882909344 255 0 0 255 
21.14424133300781 -34.64101696014404 850.718017578125 0.3062595077221047 -0.5304570108352684 -0.7904558644133941 255 0 0 255 
14.82504272460938 -37.58770704269409 850.718017578125 0.2094938005280833 -0.5755795823545119 -0.7904558760088418 255 0 0 255 
8.090160369873047 -39.39231199026108 850.718017578125 0.106362702576935 -0.6032134414434571 -0.7904558934959443 255 0 0 255 
1.144241333007812 -40 850.718017578125 0 -0.6125190099724945 -0.7904558573521454 255 0 0 255 
-5.801689147949219 -39.39231199026108 850.718017578125 -0.106362702576935 -0.6032134414434571 -0.7904558934959443 255 0 0 255 
-12.53657150268555 -37.58770704269409 850.718017578125 -0.2094939074455215 -0.5755795299188848 -0.7904558858542095 255 0 0 255 
-18.85576057434082 -34.64101696014404 850.718017578125 -0.3062595887431509 -0.5304569963104345 -0.7904558427693402 255 0 0 255 
-24.5672607421875 -30.64177799224854 850.718017578125 -0.3937196079661926 -0.4692167871185405 -0.7904558665663137 255 0 0 255 
-29.49753952026367 -25.71150970458984 850.718017578125 -0.4692167871185405 -0.3937196079661926 -0.7904558665663137 255 0 0 255 
-33.49678039550781 -20 850.718017578125 -0.5304570108352684 -0.3062595077221047 -0.7904558644133941 255 0 0 255 
-36.44346046447754 -13.68081092834473 850.718017578125 -0.5755795823545119 -0.2094938005280833 -0.7904558760088418 255 0 0 255 
-38.24806976318359 -6.945930480957031 850.718017578125 -0.603213435229131 -0.1063627983387314 -0.7904558853526397 255 0 0 255 
-38.8557596206665 0 850.718017578125 -0.6125190099724945 0 -0.7904558573521454 255 0 0 255 
19.93810272216797 6.840400695800781 850.718017578125 0.6560169792890465 0.2606681779410169 -0.7083034829036106 255 0 0 255 
20.84039306640625 3.47296142578125 850.718017578125 0.6913151240453015 0.1427921847422622 -0.7083034598551394 255 0 0 255 
21.14424133300781 0 850.718017578125 0.7056080789178938 0.0205778278559816 -0.708303460366056 255 0 0 255 
20.84039306640625 -3.472969055175781 850.718017578125 0.6984616042076958 -0.1022627867268823 -0.7083034024332118 255 0 0 255 
19.93810272216797 -6.840400695800781 850.718017578125 0.6700928435433797 -0.2219949837526819 -0.7083034718399975 255 0 0 255 
18.46475219726562 -10 850.718017578125 0.6213634296768829 -0.3349832402122318 -0.7083034074724586 255 0 0 255 
16.46513366699219 -12.85574913024902 850.718017578125 0.5537542854539342 -0.437792653642376 -0.7083034545716754 255 0 0 255 
14 -15.32089042663574 850.718017578125 0.469319363141664 -0.5273002532386923 -0.7083034507290742 255 0 0 255 
11.14424133300781 -17.32051086425781 850.718017578125 0.370624479876606 -0.6007859179120019 -0.7083034489220201 255 0 0 255 
7.984638214111328 -18.79384994506836 850.718017578125 0.2606686705404446 -0.656016824745643 -0.7083034447532508 255 0 0 255 
4.617198944091797 -19.69615936279297 850.718017578125 0.1427923891048913 -0.6913151034518609 -0.7083034387556369 255 0 0 255 
1.144241333007812 -20 850.718017578125 0.02057750947855386 -0.7056080835426188 -0.7083034650084472 255 0 0 255 
-2.328720092773438 -19.69615936279297 850.718017578125 -0.1022624844476566 -0.6984616260266253 -0.7083034245595849 255 0 0 255 
-5.696159362792969 -18.79384994506836 850.718017578125 -0.2219955734582026 -0.6700927198196853 -0.7083034040646851 255 0 0 255 
-8.855758666992188 -17.32051086425781 850.718017578125 -0.3349834750447933 -0.6213632398872062 -0.7083034629054051 255 0 0 255 
-11.71150970458984 -15.32089042663574 850.718017578125 -0.437792778903567 -0.5537541738995794 -0.7083034643630419 255 0 0 255 
-14.17665100097656 -12.85574913024902 850.718017578125 -0.5273000725164462 -0.4693195700594103 -0.7083034481656862 255 0 0 255 
-16.17626953125 -10 850.718017578125 -0.6007856212829117 -0.3706249575737479 -0.7083034505656199 255 0 0 255 
-17.64960861206055 -6.840400695800781 850.718017578125 -0.656016824745643 -0.2606686705404446 -0.7083034447532508 255 0 0 255 
-18.55191040039062 -3.472969055175781 850.718017578125 -0.6913151034518609 -0.1427923891048913 -0.7083034387556369 255 0 0 255 
-18.85576057434082 0 850.718017578125 -0.7056080835426188 -0.02057750947855386 -0.7083034650084472 255 0 0 255 
-18.55191040039062 3.47296142578125 850.718017578125 -0.6984616260266253 0.1022624844476566 -0.7083034245595849 255 0 0 255 
-17.64960861206055 6.840400695800781 850.718017578125 -0.6700928074331077 0.2219953938674736 -0.7083033774647988 255 0 0 255 
-16.17626953125 10 850.718017578125 -0.6213633564934099 0.3349832650252053 -0.7083034599381093 255 0 0 255 
-14.17665100097656 12.85575103759766 850.718017578125 -0.553753914665984 0.4377931498775445 -0.7083034377386545 255 0 0 255 
-11.71150970458984 15.32088851928711 850.718017578125 -0.4693194623567691 0.5273001450492768 -0.7083034655316639 255 0 0 255 
-8.855758666992188 17.32051086425781 850.718017578125 -0.3706249575737479 0.6007856212829117 -0.7083034505656199 255 0 0 255 
-5.696159362792969 18.79384994506836 850.718017578125 -0.2606690900004409 0.6560166515376509 -0.7083034508059879 255 0 0 255 
-2.328720092773438 19.69615936279297 850.718017578125 -0.1427923891048913 0.6913151034518609 -0.7083034387556369 255 0 0 255 
1.144241333007812 20 850.718017578125 -0.02057756905795603 0.7056080826771787 -0.7083034641397011 255 0 0 255 
4.617198944091797 19.69615936279297 850.718017578125 0.1022624844476566 0.6984616260266253 -0.7083034245595849 255 0 0 255 
7.984638214111328 18.79384994506836 850.718017578125 0.2219955734582026 0.6700927198196853 -0.7083034040646851 255 0 0 255 
11.14424133300781 17.32051086425781 850.718017578125 0.3349834239553121 0.6213633109625922 -0.7083034247162586 255 0 0 255 
14 15.32088851928711 850.718017578125 0.4377926038870457 0.5537543952130631 -0.7083033995146537 255 0 0 255 
16.46513366699219 12.85575103759766 850.718017578125 0.5273001450492768 0.4693194623567691 -0.7083034655316639 255 0 0 255 
18.46475219726562 10 850.718017578125 0.6007857638240447 0.3706246739439676 -0.7083034780729845 255 0 0 255 
3 0 1 2 
3 2 1 3 
3 2 3 4 
3 5 6 2 
3 2 6 7 
3 2 7 0 
3 8 9 2 
3 2 9 10 
3 2 10 5 
3 11 12 2 
3 2 12 13 
3 2 13 8 
3 14 15 2 
3 2 15 16 
3 2 16 11 
3 17 18 2 
3 2 18 19 
3 2 19 14 
3 20 21 2 
3 2 21 22 
3 2 22 17 
3 23 24 2 
3 2 24 25 
3 2 25 20 
3 26 27 2 
3 2 27 28 
3 2 28 23 
3 29 30 2 
3 2 30 31 
3 2 31 26 
3 32 33 2 
3 2 33 34 
3 2 34 29 
3 4 35 2 
3 2 35 36 
3 2 36 32 
3 37 38 39 
3 37 39 40 
3 41 40 39 
3 42 41 39 
3 43 42 39 
3 44 43 39 
3 45 44 39 
3 46 45 39 
3 47 46 39 
3 48 47 39 
3 49 48 39 
3 50 49 39 
3 51 50 39 
3 52 51 39 
3 53 52 39 
3 54 53 39 
3 55 54 39 
3 56 55 39 
3 57 56 39 
3 58 57 39 
3 59 58 39 
3 60 59 39 
3 61 60 39 
3 62 61 39 
3 63 62 39 
3 64 63 39 
3 65 64 39 
3 66 65 39 
3 67 66 39 
3 68 67 39 
3 69 68 39 
3 70 69 39 
3 71 70 39 
3 72 71 39 
3 73 72 39 
3 38 73 39 
3 74 53 75 
3 75 53 54 
3 75 54 76 
3 76 54 55 
3 76 55 77 
3 77 55 56 
3 77 56 78 
3 78 56 57 
3 78 57 79 
3 79 57 58 
3 79 58 80 
3 80 58 59 
3 80 59 81 
3 81 59 60 
3 81 60 82 
3 82 60 61 
3 82 61 83 
3 83 61 62 
3 83 62 84 
3 84 62 63 
3 84 63 85 
3 85 63 64 
3 85 64 86 
3 86 64 65 
3 86 65 87 
3 87 65 66 
3 87 66 88 
3 88 66 67 
3 88 67 89 
3 89 67 68 
3 89 68 90 
3 90 68 69 
3 90 69 91 
3 91 69 70 
3 91 70 92 
3 92 70 71 
3 92 71 93 
3 93 71 72 
3 93 72 94 
3 94 72 73 
3 94 73 95 
3 95 73 38 
3 95 38 96 
3 96 38 37 
3 96 37 97 
3 97 37 40 
3 97 40 98 
3 98 40 41 
3 98 41 99 
3 99 41 42 
3 99 42 100 
3 100 42 43 
3 100 43 101 
3 101 43 44 
3 101 44 102 
3 102 44 45 
3 102 45 103 
3 103 45 46 
3 103 46 104 
3 104 46 47 
3 104 47 105 
3 105 47 48 
3 105 48 106 
3 106 48 49 
3 106 49 107 
3 107 49 50 
3 107 50 108 
3 108 50 51 
3 108 51 109 
3 109 51 52 
3 109 52 74 
3 74 52 53 
3 3 95 4 
3 4 95 96 
3 4 96 35 
3 35 96 97 
3 35 97 36 
3 36 97 98 
3 36 98 32 
3 32 98 99 
3 32 99 33 
3 33 99 100 
3 33 100 34 
3 34 100 101 
3 34 101 29 
3 29 101 102 
3 29 102 30 
3 30 102 103 
3 30 103 31 
3 31 103 104 
3 31 104 26 
3 26 104 105 
3 26 105 27 
3 27 105 106 
3 27 106 28 
3 28 106 107 
3 28 107 23 
3 23 107 108 
3 23 108 24 
3 24 108 109 
3 24 109 25 
3 25 109 74 
3 25 74 20 
3 20 74 75 
3 20 75 21 
3 21 75 76 
3 21 76 22 
3 22 76 77 
3 22 77 17 
3 17 77 78 
3 17 78 18 
3 18 78 79 
3 18 79 19 
3 19 79 80 
3 19 80 14 
3 14 80 81 
3 14 81 15 
3 15 81 82 
3 15 82 16 
3 16 82 83 
3 16 83 11 
3 11 83 84 
3 11 84 12 
3 12 84 85 
3 12 85 13 
3 13 85 86 
3 13 86 8 
3 8 86 87 
3 8 87 9 
3 9 87 88 
3 9 88 10 
3 10 88 89 
3 10 89 5 
3 5 89 90 
3 5 90 6 
3 6 90 91 
3 6 91 7 
3 7 91 92 
3 7 92 0 
3 0 92 93 
3 0 93 1 
3 1 93 94 
3 1 94 3 
3 3 94 95 
