<?xml version="1.0" encoding="utf-8" standalone="no"?>
<!DOCTYPE svg PUBLIC "-//W3C//DTD SVG 1.0//EN"
	"http://www.w3.org/TR/2001/REC-SVG-20010904/DTD/svg10.dtd">
<svg width="63mm" height="63mm" viewBox="0 0 2520 2520" xmlns="http://www.w3.org/2000/svg" xmlns:xlink="http://www.w3.org/1999/xlink" xmlns:jsh="http://www.justsystem.co.jp/hanako13/svg">
<defs>
</defs>
<g visibility="hidden" jsh:type="region">
<rect fill="none" stroke="#444444" stroke-width="10" x="-40" y="-40" width="2600" height="2600" jsh:type="page"/>
<rect fill="none" stroke="#444444" stroke-width="10" stroke-dasharray="40 40" x="0" y="0" width="2520" height="2520" jsh:type="margin"/>
</g>
<g id="Fig_0" jsh:plane="A" jsh:type="component" jsh:subType="20" jsh:x="10" jsh:y="53" jsh:width="2499" jsh:height="2388" jsh:cx="2559" jsh:cy="2444" jsh:rx="78" jsh:ry="77">
<metadata>
<jsh:extInfo jsh:infoType="5">
<![CDATA[BQA0AAEAAAAAAAAAAAAAAAAAAAAQJwAAECcAAHgAAAABAAAA7AEAAAAAAACB8BIAAAAAAA==]]>
</jsh:extInfo>
</metadata>

<g id="Fig_0_0" jsh:type="fill">
<path fill="#FFFFFF" fill-rule="evenodd" fill-opacity="1" d="M 160,83 C 160,83 2359,83 2359,83 C 2425,83 2479,137 2479,203 C 2479,203 2479,2291 2479,2291 C 2479,2357 2425,2411 2359,2411 C 2359,2411 160,2411 160,2411 C 94,2411 40,2357 40,2291 C 40,2291 40,203 40,203 C 40,137 94,83 160,83 Z"/>
<path fill="none" stroke="#000000" stroke-width="40" d="M 160,83 C 160,83 2359,83 2359,83 C 2425,83 2479,137 2479,203 C 2479,203 2479,2291 2479,2291 C 2479,2357 2425,2411 2359,2411 C 2359,2411 160,2411 160,2411 C 94,2411 40,2357 40,2291 C 40,2291 40,203 40,203 C 40,137 94,83 160,83 Z" id="Fig_0_0_0" jsh:type="bezier">
</path>
</g>

</g>

<g id="Fig_1" jsh:plane="A" jsh:type="text" jsh:x="216" jsh:y="456" jsh:width="1976" jsh:height="988">
<text font-size="988" font-family="'Zen Maru Gothic'" jsh:wabunFont="Zen Maru Gothic" jsh:oubunFont="Zen Maru Gothic" jsh:lineAdjust="2" jsh:lineSpace="56" jsh:charSpace="0" jsh:fontSize="988">
<tspan xml:space="preserve" jsh:lineSpaceTop="198" jsh:lineSpace="198"><tspan font-size="988" fill="#000000" stroke="none" x="216,1204" y="1324,1324" jsh:fontSize="988">鳥座</tspan></tspan>
</text>
</g>
<path fill="none" stroke="#000000" stroke-width="32" stroke-linecap="round" d="M 174,1582 L 2350,1582" id="Fig_2" jsh:plane="A" jsh:type="line">
</path>
<g id="Fig_3" jsh:plane="A" jsh:type="text" jsh:x="497" jsh:y="1618" jsh:width="1808" jsh:height="452">
<text font-size="452" font-family="'Ubuntu'" jsh:wabunFont="Ubuntu" jsh:oubunFont="Ubuntu" jsh:lineAdjust="2" jsh:lineSpace="56" jsh:charSpace="0" jsh:fontSize="452">
<tspan xml:space="preserve"><tspan font-size="452" fill="#000000" stroke="none" font-family="'Ubuntu'" x="497,753,1020,1281,1540,1714" y="2015,2015,2015,2015,2015,2015" jsh:fontSize="452">Togura</tspan></tspan>
</text>
</g>
</svg>
