<?xml version="1.0" encoding="UTF-8" standalone="no"?>
<!-- Created with Inkscape (http://www.inkscape.org/) -->

<svg
   width="54.124371mm"
   height="52.887344mm"
   viewBox="0 0 54.12437 52.887346"
   version="1.1"
   id="svg5"
   xml:space="preserve"
   inkscape:export-filename="bitmap.svg"
   inkscape:export-xdpi="96"
   inkscape:export-ydpi="96"
   xmlns:inkscape="http://www.inkscape.org/namespaces/inkscape"
   xmlns:sodipodi="http://sodipodi.sourceforge.net/DTD/sodipodi-0.dtd"
   xmlns="http://www.w3.org/2000/svg"
   xmlns:svg="http://www.w3.org/2000/svg"><sodipodi:namedview
     id="namedview7"
     pagecolor="#ffffff"
     bordercolor="#000000"
     borderopacity="0.25"
     inkscape:showpageshadow="2"
     inkscape:pageopacity="0.0"
     inkscape:pagecheckerboard="0"
     inkscape:deskcolor="#d1d1d1"
     inkscape:document-units="mm"
     showgrid="false" /><defs
     id="defs2"><clipPath
       clipPathUnits="userSpaceOnUse"
       id="clipPath23"><path
         d="M 0,595.275 H 841.891 V 0 H 0 Z"
         id="path21" /></clipPath><clipPath
       clipPathUnits="userSpaceOnUse"
       id="clipPath31"><path
         d="m 107.473,863.083 c -0.838,0.023 -1.673,0.063 -2.517,0.063 -7.32,0 -14.431,-0.901 -21.247,-2.565 -0.666,1.657 -2.283,2.833 -4.18,2.833 -2.492,0 -4.511,-2.019 -4.511,-4.511 0,-0.303 0.032,-0.601 0.089,-0.887 -10.613,-3.762 -20.305,-9.471 -28.662,-16.694 -1.169,1.024 -2.681,1.664 -4.356,1.664 -3.668,0 -6.642,-2.973 -6.642,-6.643 0,-1.676 0.641,-3.191 1.667,-4.36 -6.293,-7.294 -11.432,-15.6 -15.133,-24.65 -0.197,0.037 -0.399,0.062 -0.607,0.062 -1.86,0 -3.369,-1.508 -3.369,-3.371 0,-1.249 0.689,-2.328 1.699,-2.909 -2.821,-8.695 -4.363,-17.962 -4.363,-27.584 0,-0.815 0.04,-1.62 0.062,-2.43 -2.637,-0.392 -4.665,-2.643 -4.665,-5.387 0,-3.021 2.448,-5.47 5.468,-5.47 0.043,0 0.082,0.013 0.125,0.013 1.131,-7.583 3.21,-14.861 6.122,-21.703 -0.898,-0.607 -1.488,-1.632 -1.488,-2.796 0,-1.862 1.508,-3.369 3.369,-3.369 0.339,0 0.66,0.064 0.969,0.159 3.814,-7.382 8.615,-14.166 14.241,-20.18 -0.935,-1.143 -1.518,-2.587 -1.518,-4.18 0,-3.667 2.973,-6.642 6.642,-6.642 1.786,0 3.398,0.713 4.592,1.858 7.013,-5.581 14.874,-10.132 23.361,-13.427 -0.032,-0.189 -0.058,-0.38 -0.058,-0.579 0,-1.861 1.509,-3.37 3.369,-3.37 1.279,0 2.377,0.72 2.949,1.77 6.908,-2.106 14.165,-3.403 21.663,-3.77 0.282,-1.577 1.653,-2.775 3.311,-2.775 1.638,0 2.999,1.171 3.303,2.72 8.321,0.202 16.368,1.523 23.983,3.855 1.042,-2.307 3.351,-3.918 6.045,-3.918 3.669,0 6.643,2.975 6.643,6.643 0,0.729 -0.146,1.419 -0.363,2.075 5.098,2.435 9.925,5.347 14.438,8.662 0.592,-0.515 1.356,-0.839 2.203,-0.839 1.861,0 3.369,1.51 3.369,3.369 0,0.574 -0.156,1.104 -0.407,1.575 6.149,5.253 11.597,11.304 16.143,18.019 0.612,-0.31 1.295,-0.502 2.028,-0.502 2.491,0 4.511,2.021 4.511,4.512 0,1.512 -0.751,2.842 -1.892,3.659 6.153,11.392 9.914,24.258 10.598,37.922 3.444,0.245 6.17,3.087 6.17,6.595 0,3.613 -2.891,6.541 -6.484,6.627 -1.791,18.502 -9.232,35.369 -20.57,48.862 1.107,1.187 1.799,2.768 1.799,4.519 0,3.669 -2.974,6.644 -6.644,6.644 -1.688,0 -3.213,-0.65 -4.384,-1.689 -13.128,11.644 -29.681,19.486 -47.94,21.827 -0.053,2.445 -2.043,4.412 -4.5,4.412 -2.22,0 -4.056,-1.607 -4.431,-3.719 m -26.39,-8.398 c 1.722,0.634 2.956,2.275 2.956,4.218 0,0.101 -0.023,0.198 -0.03,0.3 6.719,1.641 13.729,2.532 20.947,2.532 0.839,0 1.667,-0.04 2.5,-0.064 0.093,-0.672 0.321,-1.3 0.677,-1.845 L 85.778,839.661 c -0.573,0.42 -1.275,0.676 -2.041,0.676 -0.014,0 -0.027,-0.004 -0.041,-0.004 z m 33.576,4.06 c 0.728,0.566 1.269,1.344 1.543,2.25 17.971,-2.3 34.263,-10.015 47.186,-21.47 -0.546,-0.741 -0.951,-1.59 -1.15,-2.523 l -33.302,3.069 c -0.196,2.311 -2.111,4.134 -4.472,4.134 -0.543,0 -1.057,-0.113 -1.538,-0.288 z M 86.867,835.396 c 0.212,0.448 0.339,0.944 0.339,1.473 0,0.637 -0.184,1.228 -0.485,1.741 l 22.372,20.181 c 0.773,-0.623 1.742,-1.01 2.811,-1.01 0.536,0 1.042,0.11 1.519,0.281 l 8.27,-14.833 c -1.052,-0.826 -1.74,-2.095 -1.74,-3.536 0,-0.901 0.272,-1.736 0.727,-2.442 l -13.519,-12.297 c -0.664,0.583 -1.524,0.949 -2.477,0.949 -1.101,0 -2.082,-0.481 -2.77,-1.234 z m -39.46,4.894 c 8.226,7.102 17.765,12.712 28.209,16.409 0.774,-1.37 2.227,-2.306 3.913,-2.306 0.058,0 0.111,0.013 0.169,0.017 l 2.619,-14.384 c -1.006,-0.453 -1.759,-1.365 -1.98,-2.477 l -31.704,-0.221 c -0.164,1.101 -0.591,2.108 -1.226,2.962 m 79.389,-4.44 c 1.018,0.618 1.769,1.619 2.049,2.813 l 33.241,-3.064 c 0.003,-1.464 0.493,-2.803 1.296,-3.901 L 141.988,812.44 c -0.979,0.893 -2.269,1.45 -3.699,1.45 -0.6,0 -1.168,-0.119 -1.71,-0.299 z m -18.398,-13.197 c -0.059,0.423 -0.185,0.816 -0.369,1.18 l 13.602,12.375 c 0.777,-0.63 1.754,-1.025 2.833,-1.025 0.354,0 0.695,0.05 1.026,0.128 l 9.809,-22.312 c -0.223,-0.145 -0.425,-0.315 -0.624,-0.489 -7.347,5.774 -16.403,9.454 -26.277,10.143 m -61.019,9.71 c 0.756,1.004 1.225,2.221 1.311,3.554 l 31.658,0.222 c 0.184,-0.86 0.689,-1.597 1.382,-2.092 l -9.101,-20.759 c -0.651,0.213 -1.335,0.358 -2.059,0.358 -1.446,0 -2.773,-0.473 -3.863,-1.256 z m 38.635,1.908 15.157,-10.807 c -0.104,-0.272 -0.168,-0.561 -0.206,-0.86 -9.86,-0.828 -18.88,-4.633 -26.158,-10.523 -0.28,0.233 -0.574,0.444 -0.89,0.629 l 9.104,20.765 c 0.231,-0.049 0.47,-0.076 0.716,-0.076 0.876,0 1.667,0.335 2.277,0.872 m -45.434,-34.98 1.89,30.447 c 1.506,0.089 2.867,0.671 3.939,1.596 l 19.25,-19.892 c -1.066,-1.178 -1.732,-2.725 -1.732,-4.44 0,-0.564 0.092,-1.103 0.224,-1.627 l -21.498,-7.542 c -0.475,0.721 -1.211,1.247 -2.073,1.458 m -15.897,4.144 c 0.035,0.192 0.061,0.387 0.061,0.589 0,1.151 -0.579,2.163 -1.458,2.771 3.635,8.893 8.683,17.058 14.861,24.227 0.843,-0.625 1.831,-1.048 2.913,-1.217 L 39.169,799.34 c -0.896,-0.153 -1.67,-0.649 -2.191,-1.35 z m 118.794,3.135 c 0.198,0.569 0.328,1.17 0.328,1.806 0,1.106 -0.334,2.131 -0.895,2.995 l 21.427,19.289 c 0.897,-0.798 1.999,-1.359 3.23,-1.577 l -2.273,-29.761 c -1.422,-0.058 -2.668,-0.77 -3.453,-1.847 z m 26.145,-13.523 c 0.237,0.547 0.37,1.149 0.37,1.785 0,2.066 -1.399,3.791 -3.295,4.322 l 2.28,29.836 c 1.312,0.051 2.527,0.467 3.537,1.17 11.142,-13.272 18.456,-29.854 20.222,-48.042 -1.525,-0.291 -2.845,-1.116 -3.808,-2.256 z m -61.29,28.198 c 9.535,-0.674 18.283,-4.22 25.39,-9.78 -0.598,-0.882 -0.947,-1.944 -0.947,-3.089 0,-3.046 2.469,-5.515 5.514,-5.515 1.171,0 2.25,0.369 3.143,0.992 5.501,-6.857 9.116,-15.288 10.033,-24.504 -1.596,-0.327 -2.797,-1.739 -2.797,-3.432 0,-1.752 1.293,-3.192 2.974,-3.447 -0.457,-9.724 -3.904,-18.673 -9.438,-25.958 -1.061,0.765 -2.356,1.228 -3.764,1.228 -3.568,0 -6.46,-2.891 -6.46,-6.46 0,-1.41 0.463,-2.704 1.23,-3.765 -6.429,-4.888 -14.158,-8.143 -22.569,-9.159 -0.401,1.415 -1.686,2.456 -3.228,2.456 -1.661,0 -3.033,-1.202 -3.311,-2.783 -5.888,0.115 -11.51,1.319 -16.675,3.428 0.169,0.513 0.283,1.051 0.283,1.619 0,2.864 -2.321,5.186 -5.185,5.186 -1.638,0 -3.082,-0.775 -4.032,-1.96 -10.583,7.333 -17.995,18.923 -19.75,32.273 2.076,0.404 3.645,2.23 3.645,4.425 0,2.306 -1.737,4.186 -3.97,4.457 0.524,8.918 3.566,17.166 8.419,24.053 1.064,-0.724 2.348,-1.15 3.733,-1.15 3.668,0 6.643,2.974 6.643,6.642 0,1.539 -0.543,2.935 -1.419,4.06 7.037,5.666 15.744,9.33 25.257,10.133 0.42,-1.621 1.88,-2.824 3.633,-2.824 1.771,0 3.246,1.227 3.648,2.874 m 44.548,-41.897 c -0.925,9.587 -4.679,18.354 -10.412,25.467 0.136,0.159 0.28,0.31 0.397,0.482 l 18.344,-9.085 c -0.142,-0.439 -0.238,-0.897 -0.238,-1.38 0,-1.319 0.575,-2.495 1.477,-3.319 l -8.867,-12.393 c -0.223,0.097 -0.456,0.177 -0.701,0.228 m -110.4,14.458 c 0.46,0.588 0.745,1.319 0.745,2.125 0,0.199 -0.026,0.395 -0.059,0.586 l 21.481,7.537 c 0.296,-0.594 0.666,-1.141 1.118,-1.617 -5.07,-7.15 -8.242,-15.731 -8.764,-25.016 -0.179,-0.036 -0.347,-0.098 -0.518,-0.153 z m -18.325,8.319 12.228,-5.415 c -0.059,-0.251 -0.096,-0.509 -0.096,-0.779 0,-0.827 0.301,-1.575 0.782,-2.17 L 19.011,770.386 c -0.656,0.393 -1.4,0.644 -2.197,0.734 -0.022,0.804 -0.061,1.603 -0.061,2.411 0,9.474 1.519,18.596 4.296,27.157 0.109,-0.009 0.213,-0.032 0.325,-0.032 1.156,0 2.174,0.582 2.781,1.469 m 17.247,-9.231 13.791,-16.288 c -1.102,-0.822 -1.826,-2.126 -1.826,-3.606 0,-1.772 1.031,-3.291 2.517,-4.029 l -10.302,-16.86 c -0.424,0.164 -0.883,0.264 -1.368,0.264 -1.11,0 -2.099,-0.486 -2.793,-1.247 l -20.206,12.398 c 0.292,0.672 0.46,1.41 0.46,2.188 0,1.48 -0.594,2.818 -1.551,3.805 l 18.039,23.346 c 0.478,-0.25 1.015,-0.404 1.593,-0.404 0.599,0 1.154,0.166 1.646,0.433 m 127.451,-1.032 19.286,-13.17 c -0.493,-0.926 -0.798,-1.969 -0.798,-3.092 0,-1.261 0.37,-2.427 0.98,-3.43 L 168.34,757.317 c -0.594,0.521 -1.362,0.846 -2.213,0.846 -0.432,0 -0.841,-0.089 -1.221,-0.237 l -10.248,15.528 c 0.626,0.633 1.015,1.502 1.015,2.463 0,0.922 -0.364,1.754 -0.945,2.378 l 8.896,12.435 c 0.567,-0.258 1.194,-0.41 1.857,-0.41 1.348,0 2.545,0.604 3.372,1.542 m -25.605,-46.304 c 5.774,7.557 9.36,16.868 9.808,26.984 0.144,0.037 0.289,0.076 0.425,0.133 l 10.244,-15.523 c -0.596,-0.607 -0.966,-1.438 -0.966,-2.357 0,-0.279 0.043,-0.547 0.107,-0.807 l -18.985,-9.254 c -0.186,0.295 -0.403,0.565 -0.633,0.824 m 25.079,6.703 c 0.711,0.618 1.17,1.517 1.17,2.534 0,0.499 -0.115,0.969 -0.311,1.393 l 19.985,14.854 c 1.006,-1.063 2.356,-1.775 3.875,-1.991 -0.676,-13.457 -4.386,-26.128 -10.453,-37.347 -0.43,0.138 -0.879,0.231 -1.353,0.231 -0.555,0 -1.08,-0.116 -1.571,-0.298 z M 47.934,747.886 c 0.042,0.226 0.07,0.46 0.07,0.7 0,1.1 -0.476,2.083 -1.226,2.774 l 10.502,17.189 c 0.015,-0.002 0.029,-0.002 0.045,-0.004 1.604,-12.518 8.029,-23.547 17.362,-31.149 z m -30.21,12.597 c 1.101,0.322 2.051,0.97 2.747,1.844 L 40.68,749.926 c -0.158,-0.418 -0.256,-0.866 -0.256,-1.34 0,-0.51 0.105,-0.992 0.286,-1.436 l -13.949,-9.063 c -0.614,0.639 -1.472,1.04 -2.427,1.04 -0.193,0 -0.381,-0.026 -0.566,-0.057 -2.876,6.75 -4.929,13.93 -6.044,21.413 M 143.878,737.82 c 0.64,1.001 1.021,2.185 1.021,3.46 0,0.771 -0.157,1.499 -0.405,2.183 l 18.995,9.261 c 0.616,-0.786 1.563,-1.299 2.638,-1.299 0.337,0 0.656,0.065 0.962,0.156 l 11.354,-20.644 c -0.831,-0.662 -1.427,-1.598 -1.63,-2.684 l -19.317,0.68 c -0.279,1.578 -1.65,2.778 -3.309,2.778 -0.788,0 -1.504,-0.282 -2.078,-0.735 z M 45.333,714.764 44.966,744.87 c 1.032,0.208 1.906,0.841 2.449,1.701 l 30.216,-11.846 c -0.175,-0.521 -0.292,-1.069 -0.292,-1.649 0,-2.142 1.301,-3.981 3.156,-4.771 l -3.649,-12.609 c -0.213,0.031 -0.425,0.066 -0.647,0.066 -2.399,0 -4.341,-1.876 -4.484,-4.24 l -20.537,-2.004 c -0.573,2.816 -2.936,4.954 -5.845,5.246 m -18.795,18.465 c 0.709,0.619 1.165,1.515 1.165,2.529 0,0.396 -0.081,0.77 -0.206,1.124 l 13.986,9.087 c 0.544,-0.57 1.262,-0.964 2.072,-1.108 l 0.367,-30.104 c -1.271,-0.145 -2.425,-0.639 -3.375,-1.397 -5.534,5.921 -10.258,12.603 -14.009,19.869 m 116.467,3.482 8.204,-6.824 c -0.241,-0.465 -0.391,-0.986 -0.391,-1.545 0,-1.862 1.509,-3.369 3.369,-3.369 0.031,0 0.059,0.007 0.089,0.008 l 4.397,-18.122 c -1.142,-0.54 -1.935,-1.693 -1.935,-3.039 0,-0.503 0.118,-0.974 0.316,-1.405 -4.429,-3.253 -9.166,-6.108 -14.167,-8.501 -1.157,1.955 -3.264,3.282 -5.701,3.282 -0.917,0 -1.79,-0.184 -2.586,-0.521 l -7.083,12.627 c 1.043,0.826 1.725,2.089 1.725,3.521 0,1.531 -0.766,2.877 -1.931,3.694 l 8.981,18.698 c 0.675,-0.239 1.391,-0.394 2.148,-0.394 1.782,0 3.395,0.723 4.565,1.89 m -38.042,-48.922 2.944,36.335 c 1.461,0.218 2.607,1.361 2.825,2.823 8.741,1.039 16.768,4.428 23.433,9.524 0.268,-0.238 0.548,-0.459 0.853,-0.65 l -8.983,-18.701 c -0.415,0.127 -0.848,0.216 -1.304,0.216 -2.491,0 -4.511,-2.021 -4.511,-4.513 0,-1.239 0.501,-2.36 1.312,-3.176 L 105.401,687.6 c -0.141,0.072 -0.286,0.135 -0.438,0.189 m -18.137,42.389 c 5.364,-2.201 11.209,-3.454 17.332,-3.562 0.013,-0.054 0.032,-0.104 0.048,-0.157 L 79.831,713.902 c -0.426,0.582 -0.987,1.051 -1.636,1.373 l 3.669,12.681 c 0.219,-0.026 0.435,-0.064 0.661,-0.064 1.79,0 3.368,0.907 4.301,2.286 m 68.821,-4.86 c 0.886,0.428 1.552,1.229 1.797,2.203 l 19.344,-0.681 c 0.132,-1.014 0.581,-1.928 1.272,-2.612 -4.477,-6.618 -9.842,-12.58 -15.899,-17.754 -0.57,0.442 -1.277,0.716 -2.054,0.716 -0.021,0 -0.04,-0.005 -0.062,-0.005 z M 79.891,708.672 c 0.512,0.73 0.817,1.618 0.817,2.578 0,0.49 -0.097,0.951 -0.241,1.394 l 24.428,12.583 c 0.421,-0.48 0.972,-0.832 1.603,-1.01 l -2.939,-36.255 c -0.59,-0.053 -1.14,-0.241 -1.603,-0.56 z m -29.713,-4.196 c 0.702,1.041 1.11,2.292 1.126,3.635 l 20.546,2.006 c 0.443,-1.705 1.848,-3.011 3.61,-3.302 l -0.107,-14.107 c -0.917,-0.158 -1.707,-0.68 -2.21,-1.421 -8.342,3.238 -16.069,7.707 -22.965,13.189 m 56.313,-17.78 16.191,22.131 c 0.616,-0.316 1.307,-0.513 2.049,-0.513 0.55,0 1.069,0.112 1.557,0.292 l 7.084,-12.627 c -1.707,-1.202 -2.829,-3.178 -2.829,-5.426 0,-0.476 0.055,-0.938 0.15,-1.386 -7.483,-2.286 -15.389,-3.585 -23.563,-3.783 -0.114,0.488 -0.339,0.93 -0.639,1.312 m -27.214,2.455 c 0.006,0.084 0.025,0.161 0.025,0.247 0,1.573 -1.082,2.881 -2.538,3.253 l 0.107,14.157 c 0.758,0.115 1.449,0.413 2.034,0.854 l 22.084,-21.288 c -0.175,-0.286 -0.309,-0.601 -0.393,-0.936 -7.38,0.362 -14.521,1.64 -21.319,3.713"
         id="path29" /></clipPath><clipPath
       clipPathUnits="userSpaceOnUse"
       id="clipPath39"><path
         d="M 105.683,961.747 293.402,774.027 105.683,586.308 -82.037,774.027 Z"
         id="path37" /></clipPath><linearGradient
       x1="0"
       y1="0"
       x2="1"
       y2="0"
       gradientUnits="userSpaceOnUse"
       gradientTransform="matrix(132.34952,-132.34952,132.34952,132.34952,37.75,841.58984)"
       spreadMethod="pad"
       id="linearGradient51"><stop
         style="stop-opacity:1;stop-color:#18233e"
         offset="0"
         id="stop45" /><stop
         style="stop-opacity:1;stop-color:#18233e"
         offset="0.00107883"
         id="stop47" /><stop
         style="stop-opacity:1;stop-color:#4279bd"
         offset="1"
         id="stop49" /></linearGradient><clipPath
       clipPathUnits="userSpaceOnUse"
       id="clipPath61"><path
         d="m 413.322,562.568 c -2.562,0.075 -5.111,0.195 -7.688,0.195 v 0 c -22.351,0 -44.068,-2.753 -64.882,-7.836 v 0 c -2.034,5.062 -6.973,8.653 -12.764,8.653 v 0 c -7.61,0 -13.775,-6.168 -13.775,-13.773 v 0 c 0,-0.929 0.096,-1.837 0.272,-2.713 v 0 C 282.074,535.61 252.477,518.176 226.958,496.117 v 0 c -3.57,3.126 -8.186,5.081 -13.303,5.081 v 0 c -11.202,0 -20.282,-9.077 -20.282,-20.285 v 0 c 0,-5.119 1.957,-9.745 5.091,-13.312 v 0 c -19.217,-22.276 -34.91,-47.639 -46.212,-75.275 v 0 c -0.602,0.111 -1.219,0.185 -1.855,0.185 v 0 c -5.677,0 -10.288,-4.605 -10.288,-10.288 v 0 c 0,-3.818 2.105,-7.109 5.19,-8.887 v 0 c -8.616,-26.55 -13.325,-54.848 -13.325,-84.234 v 0 c 0,-2.487 0.123,-4.945 0.19,-7.419 v 0 c -8.051,-1.201 -14.245,-8.07 -14.245,-16.45 v 0 c 0,-9.227 7.476,-16.706 16.697,-16.706 v 0 c 0.131,0 0.25,0.042 0.381,0.042 v 0 c 3.454,-23.159 9.803,-45.382 18.696,-66.276 v 0 c -2.741,-1.855 -4.545,-4.986 -4.545,-8.54 v 0 c 0,-5.684 4.607,-10.288 10.289,-10.288 v 0 c 1.034,0 2.016,0.196 2.961,0.488 v 0 c 11.645,-22.545 26.306,-43.258 43.485,-61.624 v 0 c -2.854,-3.495 -4.634,-7.902 -4.634,-12.764 v 0 c 0,-11.201 9.078,-20.283 20.282,-20.283 v 0 c 5.453,0 10.377,2.177 14.022,5.672 v 0 c 21.419,-17.04 45.421,-30.937 71.339,-41.005 v 0 c -0.098,-0.572 -0.177,-1.157 -0.177,-1.765 v 0 c 0,-5.684 4.608,-10.289 10.289,-10.289 v 0 c 3.904,0 7.259,2.194 9.003,5.404 v 0 c 21.097,-6.43 43.257,-10.397 66.153,-11.512 v 0 c 0.864,-4.819 5.049,-8.475 10.113,-8.475 v 0 c 5.001,0 9.158,3.573 10.085,8.302 v 0 c 25.412,0.621 49.985,4.652 73.24,11.775 v 0 c 3.182,-7.045 10.231,-11.965 18.459,-11.965 v 0 c 11.204,0 20.285,9.083 20.285,20.284 v 0 c 0,2.231 -0.445,4.336 -1.11,6.341 v 0 c 15.571,7.437 30.311,16.324 44.091,26.452 v 0 c 1.808,-1.576 4.14,-2.565 6.729,-2.565 v 0 c 5.68,0 10.287,4.61 10.287,10.288 v 0 c 0,1.754 -0.476,3.369 -1.243,4.808 v 0 c 18.775,16.044 35.413,34.521 49.295,55.025 v 0 c 1.87,-0.941 3.954,-1.531 6.194,-1.531 v 0 c 7.608,0 13.774,6.171 13.774,13.776 v 0 c 0,4.617 -2.293,8.679 -5.775,11.177 v 0 c 18.79,34.783 30.274,74.077 32.362,115.804 v 0 c 10.517,0.745 18.841,9.423 18.841,20.136 v 0 c 0,11.036 -8.827,19.973 -19.8,20.236 v 0 c -5.468,56.5 -28.192,108.007 -62.815,149.215 v 0 c 3.383,3.627 5.493,8.452 5.493,13.801 v 0 c 0,11.202 -9.08,20.288 -20.287,20.288 v 0 c -5.157,0 -9.812,-1.989 -13.39,-5.156 v 0 c -40.09,35.553 -90.636,59.503 -146.394,66.651 v 0 c -0.161,7.468 -6.239,13.473 -13.742,13.473 v 0 c -6.778,0 -12.385,-4.908 -13.53,-11.359 m -80.589,-25.642 c 5.259,1.936 9.027,6.948 9.027,12.881 v 0 c 0,0.308 -0.069,0.603 -0.093,0.913 v 0 c 20.521,5.013 41.927,7.735 63.967,7.735 v 0 c 2.561,0 5.091,-0.125 7.634,-0.196 v 0 c 0.284,-2.055 0.981,-3.972 2.066,-5.637 v 0 l -68.263,-61.578 c -1.751,1.283 -3.896,2.067 -6.233,2.067 v 0 c -0.042,0 -0.085,-0.012 -0.125,-0.012 v 0 z m 102.531,12.396 c 2.226,1.726 3.877,4.106 4.713,6.871 v 0 c 54.877,-7.023 104.628,-30.582 144.094,-65.563 v 0 c -1.669,-2.263 -2.905,-4.855 -3.513,-7.703 v 0 L 478.863,492.3 c -0.599,7.056 -6.446,12.621 -13.657,12.621 v 0 c -1.658,0 -3.226,-0.343 -4.698,-0.878 v 0 z m -84.869,-71.301 c 0.648,1.369 1.034,2.885 1.034,4.498 v 0 c 0,1.946 -0.559,3.751 -1.477,5.32 v 0 l 68.315,61.624 c 2.362,-1.9 5.32,-3.085 8.585,-3.085 v 0 c 1.637,0 3.182,0.334 4.639,0.859 v 0 l 25.254,-45.299 c -3.212,-2.517 -5.314,-6.394 -5.314,-10.795 v 0 c 0,-2.753 0.832,-5.302 2.222,-7.455 v 0 l -41.286,-37.554 c -2.027,1.78 -4.651,2.901 -7.562,2.901 v 0 c -3.364,0 -6.358,-1.47 -8.46,-3.769 v 0 z m -120.499,14.944 c 25.118,21.689 54.248,38.821 86.142,50.108 v 0 c 2.365,-4.183 6.799,-7.043 11.95,-7.043 v 0 c 0.175,0 0.339,0.042 0.516,0.054 v 0 l 7.998,-43.921 c -3.071,-1.384 -5.371,-4.173 -6.048,-7.566 v 0 l -96.816,-0.677 c -0.497,3.364 -1.804,6.435 -3.742,9.045 m 242.43,-13.559 c 3.112,1.89 5.405,4.946 6.26,8.59 v 0 l 101.507,-9.354 c 0.008,-4.471 1.506,-8.559 3.957,-11.911 v 0 l -65.331,-58.808 c -2.99,2.723 -6.93,4.425 -11.295,4.425 v 0 c -1.831,0 -3.566,-0.364 -5.222,-0.912 v 0 z m -56.18,-40.296 c -0.181,1.289 -0.566,2.49 -1.126,3.603 v 0 l 41.534,37.79 c 2.374,-1.927 5.356,-3.131 8.652,-3.131 v 0 c 1.082,0 2.123,0.154 3.134,0.388 v 0 l 29.953,-68.134 c -0.679,-0.445 -1.298,-0.963 -1.905,-1.491 v 0 c -22.436,17.631 -50.089,28.87 -80.242,30.975 m -186.337,29.649 c 2.308,3.065 3.743,6.785 4.006,10.852 v 0 l 96.675,0.677 c 0.561,-2.625 2.102,-4.876 4.219,-6.385 v 0 l -27.794,-63.394 c -1.985,0.652 -4.076,1.093 -6.285,1.093 v 0 c -4.418,0 -8.47,-1.442 -11.798,-3.835 v 0 z m 117.983,5.827 46.283,-33 c -0.315,-0.829 -0.512,-1.713 -0.63,-2.631 v 0 c -30.107,-2.523 -57.653,-14.148 -79.876,-32.132 v 0 c -0.856,0.712 -1.754,1.357 -2.72,1.923 v 0 l 27.803,63.407 c 0.704,-0.147 1.434,-0.226 2.186,-0.226 v 0 c 2.675,0 5.09,1.018 6.954,2.659 m -138.744,-106.822 5.773,92.979 c 4.598,0.271 8.753,2.049 12.027,4.876 v 0 l 58.784,-60.744 c -3.256,-3.603 -5.29,-8.322 -5.29,-13.56 v 0 c 0,-1.72 0.283,-3.366 0.686,-4.967 v 0 l -65.65,-23.035 c -1.449,2.204 -3.697,3.808 -6.33,4.451 m -48.544,12.657 c 0.105,0.588 0.185,1.182 0.185,1.802 v 0 c 0,3.513 -1.769,6.602 -4.453,8.461 v 0 c 11.1,27.158 26.518,52.088 45.383,73.983 v 0 c 2.574,-1.909 5.591,-3.203 8.895,-3.722 v 0 l -5.775,-93.028 c -2.735,-0.468 -5.1,-1.982 -6.69,-4.124 v 0 z m 362.764,9.573 c 0.603,1.735 1.003,3.573 1.003,5.516 v 0 c 0,3.376 -1.021,6.507 -2.735,9.144 v 0 l 65.43,58.905 c 2.742,-2.434 6.105,-4.149 9.866,-4.817 v 0 l -6.942,-90.881 c -4.343,-0.18 -8.148,-2.35 -10.546,-5.642 v 0 z m 79.838,-41.293 c 0.725,1.67 1.131,3.509 1.131,5.448 v 0 c 0,6.309 -4.275,11.577 -10.062,13.199 v 0 l 6.964,91.111 c 4.004,0.154 7.715,1.425 10.801,3.572 v 0 c 34.023,-40.527 56.359,-91.164 61.75,-146.708 v 0 c -4.658,-0.887 -8.686,-3.404 -11.627,-6.885 v 0 z m -187.163,86.105 c 29.118,-2.053 55.832,-12.885 77.537,-29.863 v 0 c -1.829,-2.692 -2.893,-5.936 -2.893,-9.433 v 0 c 0,-9.303 7.539,-16.842 16.837,-16.842 v 0 c 3.575,0 6.871,1.127 9.599,3.03 v 0 c 16.798,-20.941 27.835,-46.682 30.636,-74.829 v 0 c -4.872,-0.996 -8.541,-5.308 -8.541,-10.478 v 0 c 0,-5.353 3.948,-9.753 9.084,-10.527 v 0 c -1.395,-29.697 -11.923,-57.026 -28.822,-79.273 v 0 c -3.239,2.338 -7.194,3.752 -11.495,3.752 v 0 c -10.896,0 -19.726,-8.827 -19.726,-19.723 v 0 c 0,-4.307 1.414,-8.262 3.754,-11.5 v 0 c -19.631,-14.929 -43.235,-24.866 -68.917,-27.966 v 0 c -1.225,4.317 -5.15,7.496 -9.858,7.496 v 0 c -5.074,0 -9.263,-3.666 -10.111,-8.499 v 0 c -17.982,0.352 -35.15,4.027 -50.924,10.468 v 0 c 0.52,1.568 0.865,3.208 0.865,4.944 v 0 c 0,8.751 -7.085,15.836 -15.832,15.836 v 0 c -5,0 -9.41,-2.363 -12.313,-5.982 v 0 c -32.317,22.389 -54.952,57.781 -60.311,98.553 v 0 c 6.341,1.235 11.133,6.806 11.133,13.511 v 0 c 0,7.042 -5.306,12.781 -12.125,13.609 v 0 c 1.601,27.234 10.89,52.421 25.708,73.453 v 0 c 3.251,-2.212 7.173,-3.51 11.402,-3.51 v 0 c 11.2,0 20.285,9.081 20.285,20.282 v 0 c 0,4.698 -1.659,8.962 -4.335,12.397 v 0 c 21.491,17.303 48.079,28.492 77.128,30.943 v 0 c 1.286,-4.95 5.744,-8.625 11.097,-8.625 v 0 c 5.406,0 9.913,3.745 11.138,8.776 M 551.981,306.863 c -2.824,29.28 -14.289,56.049 -31.796,77.774 v 0 c 0.417,0.485 0.855,0.943 1.214,1.471 v 0 l 56.016,-27.742 c -0.432,-1.342 -0.725,-2.738 -0.725,-4.217 v 0 c 0,-4.027 1.753,-7.616 4.509,-10.133 v 0 l -27.078,-37.847 c -0.68,0.298 -1.392,0.543 -2.14,0.694 m -337.13,44.155 c 1.405,1.796 2.276,4.028 2.276,6.488 v 0 c 0,0.609 -0.081,1.206 -0.183,1.79 v 0 l 65.599,23.016 c 0.903,-1.813 2.033,-3.486 3.415,-4.938 v 0 c -15.485,-21.835 -25.17,-48.04 -26.765,-76.392 v 0 c -0.547,-0.11 -1.06,-0.297 -1.582,-0.47 v 0 z m -55.96,25.405 37.339,-16.536 c -0.179,-0.768 -0.293,-1.558 -0.293,-2.381 v 0 c 0,-2.522 0.92,-4.807 2.39,-6.625 v 0 l -55.143,-71.382 c -2.005,1.2 -4.276,1.969 -6.711,2.243 v 0 c -0.068,2.451 -0.187,4.891 -0.187,7.36 v 0 c 0,28.932 4.64,56.789 13.118,82.934 v 0 c 0.334,-0.03 0.654,-0.101 0.993,-0.101 v 0 c 3.531,0 6.639,1.776 8.494,4.488 m 52.668,-28.191 42.113,-49.737 c -3.367,-2.514 -5.576,-6.495 -5.576,-11.014 v 0 c 0,-5.411 3.149,-10.051 7.685,-12.305 v 0 l -31.459,-51.485 c -1.294,0.502 -2.695,0.805 -4.178,0.805 v 0 c -3.388,0 -6.408,-1.484 -8.529,-3.804 v 0 l -61.704,37.861 c 0.892,2.053 1.405,4.299 1.405,6.68 v 0 c 0,4.521 -1.813,8.606 -4.736,11.619 v 0 l 55.087,71.29 c 1.46,-0.762 3.101,-1.232 4.863,-1.232 v 0 c 1.832,0 3.525,0.507 5.029,1.322 m 389.2,-3.149 58.895,-40.217 c -1.507,-2.834 -2.439,-6.018 -2.439,-9.447 v 0 c 0,-3.848 1.129,-7.408 2.994,-10.475 v 0 L 599.19,239.593 c -1.813,1.585 -4.157,2.582 -6.756,2.582 v 0 c -1.319,0 -2.569,-0.275 -3.729,-0.728 v 0 l -31.294,47.421 c 1.911,1.935 3.098,4.585 3.098,7.523 v 0 c 0,2.815 -1.11,5.355 -2.884,7.26 v 0 l 27.165,37.973 c 1.733,-0.787 3.647,-1.253 5.672,-1.253 v 0 c 4.115,0 7.772,1.847 10.297,4.712 M 522.567,203.682 c 17.635,23.075 28.584,51.507 29.954,82.402 v 0 c 0.438,0.112 0.881,0.232 1.297,0.405 v 0 l 31.283,-47.403 c -1.823,-1.857 -2.954,-4.389 -2.954,-7.199 v 0 c 0,-0.853 0.132,-1.672 0.328,-2.464 v 0 L 524.5,201.164 c -0.568,0.901 -1.228,1.725 -1.933,2.518 m 76.585,20.468 c 2.171,1.886 3.573,4.635 3.573,7.737 v 0 c 0,1.525 -0.353,2.958 -0.949,4.258 v 0 l 61.026,45.359 c 3.073,-3.244 7.198,-5.422 11.834,-6.084 v 0 c -2.064,-41.095 -13.393,-79.785 -31.92,-114.044 v 0 c -1.313,0.418 -2.685,0.705 -4.131,0.705 v 0 c -1.695,0 -3.299,-0.353 -4.798,-0.913 v 0 z M 231.506,210.791 c 0.128,0.691 0.212,1.4 0.212,2.135 v 0 c 0,3.357 -1.452,6.364 -3.743,8.476 v 0 l 32.07,52.486 c 0.045,-0.006 0.089,-0.006 0.138,-0.012 v 0 c 4.899,-38.226 24.519,-71.906 53.019,-95.12 v 0 z m -92.253,38.468 c 3.361,0.981 6.263,2.959 8.388,5.631 v 0 l 61.714,-37.872 c -0.483,-1.278 -0.785,-2.643 -0.785,-4.092 v 0 c 0,-1.557 0.323,-3.03 0.874,-4.384 v 0 L 166.85,180.868 c -1.875,1.949 -4.497,3.173 -7.413,3.173 v 0 c -0.588,0 -1.164,-0.078 -1.727,-0.173 v 0 c -8.783,20.613 -15.055,42.537 -18.457,65.391 M 524.491,180.05 c 1.956,3.059 3.12,6.675 3.12,10.57 v 0 c 0,2.349 -0.481,4.575 -1.239,6.661 v 0 l 58.007,28.282 c 1.881,-2.397 4.772,-3.965 8.055,-3.965 v 0 c 1.028,0 2.003,0.197 2.937,0.477 v 0 l 34.674,-63.043 c -2.538,-2.023 -4.358,-4.877 -4.978,-8.194 v 0 l -58.99,2.074 c -0.853,4.82 -5.037,8.481 -10.104,8.481 v 0 c -2.406,0 -4.593,-0.858 -6.346,-2.242 v 0 z m -300.929,-70.408 -1.121,91.939 c 3.151,0.633 5.821,2.565 7.478,5.196 v 0 l 92.271,-36.18 c -0.534,-1.586 -0.891,-3.263 -0.891,-5.034 v 0 c 0,-6.543 3.975,-12.153 9.638,-14.571 v 0 l -11.141,-38.499 c -0.653,0.09 -1.301,0.197 -1.977,0.197 v 0 c -7.328,0 -13.256,-5.726 -13.695,-12.943 v 0 l -62.712,-6.126 c -1.749,8.602 -8.966,15.133 -17.85,16.021 m -57.395,56.392 c 2.165,1.885 3.558,4.622 3.558,7.719 v 0 c 0,1.21 -0.248,2.355 -0.629,3.434 v 0 l 42.71,27.747 c 1.66,-1.737 3.853,-2.941 6.328,-3.382 v 0 l 1.119,-91.929 c -3.88,-0.44 -7.406,-1.949 -10.306,-4.264 v 0 c -16.898,18.079 -31.326,38.483 -42.78,60.675 m 355.658,10.629 25.053,-20.839 c -0.736,-1.42 -1.194,-3.006 -1.194,-4.719 v 0 c 0,-5.683 4.608,-10.287 10.289,-10.287 v 0 c 0.094,0 0.179,0.024 0.272,0.029 v 0 l 13.426,-55.343 c -3.486,-1.646 -5.908,-5.171 -5.908,-9.28 v 0 c 0,-1.533 0.361,-2.977 0.965,-4.289 v 0 C 551.202,62 536.738,53.28 521.467,45.973 v 0 C 517.933,51.943 511.498,56 504.057,56 v 0 c -2.8,0 -5.466,-0.567 -7.897,-1.594 v 0 l -21.63,38.559 c 3.185,2.523 5.268,6.376 5.268,10.754 v 0 c 0,4.676 -2.339,8.786 -5.897,11.279 v 0 l 27.424,57.096 c 2.06,-0.727 4.25,-1.199 6.56,-1.199 v 0 c 5.443,0 10.366,2.207 13.94,5.768 m -116.17,-149.395 8.99,110.96 c 4.462,0.663 7.963,4.157 8.629,8.62 v 0 c 26.693,3.172 51.203,13.52 71.556,29.081 v 0 c 0.821,-0.722 1.674,-1.402 2.606,-1.98 v 0 l -27.432,-57.108 c -1.268,0.387 -2.588,0.657 -3.981,0.657 v 0 c -7.608,0 -13.775,-6.169 -13.775,-13.779 v 0 c 0,-3.787 1.53,-7.21 4.005,-9.698 v 0 L 406.994,26.689 c -0.433,0.221 -0.874,0.419 -1.339,0.579 M 350.27,156.712 c 16.38,-6.722 34.23,-10.545 52.927,-10.873 v 0 c 0.039,-0.166 0.099,-0.322 0.147,-0.483 v 0 l -74.435,-38.344 c -1.3,1.778 -3.012,3.207 -4.995,4.193 v 0 l 11.205,38.726 c 0.666,-0.084 1.326,-0.196 2.017,-0.196 v 0 c 5.468,0 10.286,2.767 13.134,6.977 m 210.162,-14.839 c 2.704,1.305 4.738,3.751 5.487,6.728 v 0 l 59.07,-2.082 c 0.403,-3.095 1.775,-5.887 3.886,-7.974 v 0 C 615.202,118.337 598.819,100.128 580.324,84.329 v 0 c -1.743,1.347 -3.902,2.189 -6.272,2.189 v 0 c -0.067,0 -0.122,-0.018 -0.191,-0.018 v 0 z M 329.094,91.04 c 1.562,2.231 2.493,4.944 2.493,7.872 v 0 c 0,1.497 -0.295,2.904 -0.736,4.258 v 0 l 74.598,38.422 c 1.285,-1.461 2.967,-2.54 4.893,-3.083 v 0 L 401.369,27.8 c -1.801,-0.161 -3.483,-0.74 -4.896,-1.711 v 0 z M 238.359,78.229 c 2.142,3.177 3.388,6.995 3.439,11.098 v 0 l 62.741,6.126 c 1.351,-5.207 5.642,-9.192 11.022,-10.079 v 0 l -0.325,-43.081 c -2.8,-0.483 -5.213,-2.076 -6.748,-4.342 v 0 C 283.01,47.84 259.417,61.485 238.359,78.229 m 171.964,-54.294 49.444,67.581 c 1.877,-0.965 3.99,-1.568 6.256,-1.568 v 0 c 1.678,0 3.262,0.34 4.753,0.894 v 0 l 21.633,-38.559 c -5.213,-3.674 -8.639,-9.709 -8.639,-16.575 v 0 c 0,-1.45 0.169,-2.862 0.459,-4.228 v 0 C 461.377,24.495 437.236,20.529 412.273,19.927 v 0 c -0.347,1.491 -1.035,2.839 -1.95,4.008 m -83.105,7.497 c 0.018,0.256 0.075,0.489 0.075,0.752 v 0 c 0,4.801 -3.301,8.798 -7.748,9.937 v 0 l 0.325,43.229 c 2.314,0.35 4.426,1.257 6.213,2.605 v 0 l 67.438,-65.004 c -0.535,-0.878 -0.943,-1.837 -1.198,-2.857 v 0 c -22.541,1.102 -44.345,5.003 -65.105,11.338"
         id="path59" /></clipPath><linearGradient
       x1="0"
       y1="0"
       x2="1"
       y2="0"
       gradientUnits="userSpaceOnUse"
       gradientTransform="matrix(579.86816,0,0,-579.86816,117.91895,290.61914)"
       spreadMethod="pad"
       id="linearGradient73"><stop
         style="stop-opacity:1;stop-color:#18233e"
         offset="0"
         id="stop67" /><stop
         style="stop-opacity:1;stop-color:#18233e"
         offset="0.00107883"
         id="stop69" /><stop
         style="stop-opacity:1;stop-color:#4279bd"
         offset="1"
         id="stop71" /></linearGradient><clipPath
       clipPathUnits="userSpaceOnUse"
       id="clipPath83"><path
         d="m 413.322,562.568 c -2.562,0.075 -5.111,0.195 -7.688,0.195 v 0 c -22.351,0 -44.068,-2.753 -64.882,-7.836 v 0 c -2.034,5.062 -6.973,8.653 -12.764,8.653 v 0 c -7.61,0 -13.775,-6.168 -13.775,-13.773 v 0 c 0,-0.929 0.096,-1.837 0.272,-2.713 v 0 C 282.074,535.61 252.477,518.176 226.958,496.117 v 0 c -3.57,3.126 -8.186,5.081 -13.303,5.081 v 0 c -11.202,0 -20.282,-9.077 -20.282,-20.285 v 0 c 0,-5.119 1.957,-9.745 5.091,-13.312 v 0 c -19.217,-22.276 -34.91,-47.639 -46.212,-75.275 v 0 c -0.602,0.111 -1.219,0.185 -1.855,0.185 v 0 c -5.677,0 -10.288,-4.605 -10.288,-10.288 v 0 c 0,-3.818 2.105,-7.109 5.19,-8.887 v 0 c -8.616,-26.55 -13.325,-54.848 -13.325,-84.234 v 0 c 0,-2.487 0.123,-4.945 0.19,-7.419 v 0 c -8.051,-1.201 -14.245,-8.07 -14.245,-16.45 v 0 c 0,-9.227 7.476,-16.706 16.697,-16.706 v 0 c 0.131,0 0.25,0.042 0.381,0.042 v 0 c 3.454,-23.159 9.803,-45.382 18.696,-66.276 v 0 c -2.741,-1.855 -4.545,-4.986 -4.545,-8.54 v 0 c 0,-5.684 4.607,-10.288 10.289,-10.288 v 0 c 1.034,0 2.016,0.196 2.961,0.488 v 0 c 11.645,-22.545 26.306,-43.258 43.485,-61.624 v 0 c -2.854,-3.495 -4.634,-7.902 -4.634,-12.764 v 0 c 0,-11.201 9.078,-20.283 20.282,-20.283 v 0 c 5.453,0 10.377,2.177 14.022,5.672 v 0 c 21.419,-17.04 45.421,-30.937 71.339,-41.005 v 0 c -0.098,-0.572 -0.177,-1.157 -0.177,-1.765 v 0 c 0,-5.684 4.608,-10.289 10.289,-10.289 v 0 c 3.904,0 7.259,2.194 9.003,5.404 v 0 c 21.097,-6.43 43.257,-10.397 66.153,-11.512 v 0 c 0.864,-4.819 5.049,-8.475 10.113,-8.475 v 0 c 5.001,0 9.158,3.573 10.085,8.302 v 0 c 25.412,0.621 49.985,4.652 73.24,11.775 v 0 c 3.182,-7.045 10.231,-11.965 18.459,-11.965 v 0 c 11.204,0 20.285,9.083 20.285,20.284 v 0 c 0,2.231 -0.445,4.336 -1.11,6.341 v 0 c 15.571,7.437 30.311,16.324 44.091,26.452 v 0 c 1.808,-1.576 4.14,-2.565 6.729,-2.565 v 0 c 5.68,0 10.287,4.61 10.287,10.288 v 0 c 0,1.754 -0.476,3.369 -1.243,4.808 v 0 c 18.775,16.044 35.413,34.521 49.295,55.025 v 0 c 1.87,-0.941 3.954,-1.531 6.194,-1.531 v 0 c 7.608,0 13.774,6.171 13.774,13.776 v 0 c 0,4.617 -2.293,8.679 -5.775,11.177 v 0 c 18.79,34.783 30.274,74.077 32.362,115.804 v 0 c 10.517,0.745 18.841,9.423 18.841,20.136 v 0 c 0,11.036 -8.827,19.973 -19.8,20.236 v 0 c -5.468,56.5 -28.192,108.007 -62.815,149.215 v 0 c 3.383,3.627 5.493,8.452 5.493,13.801 v 0 c 0,11.202 -9.08,20.288 -20.287,20.288 v 0 c -5.157,0 -9.812,-1.989 -13.39,-5.156 v 0 c -40.09,35.553 -90.636,59.503 -146.394,66.651 v 0 c -0.161,7.468 -6.239,13.473 -13.742,13.473 v 0 c -6.778,0 -12.385,-4.908 -13.53,-11.359 m -80.589,-25.642 c 5.259,1.936 9.027,6.948 9.027,12.881 v 0 c 0,0.308 -0.069,0.603 -0.093,0.913 v 0 c 20.521,5.013 41.927,7.735 63.967,7.735 v 0 c 2.561,0 5.091,-0.125 7.634,-0.196 v 0 c 0.284,-2.055 0.981,-3.972 2.066,-5.637 v 0 l -68.263,-61.578 c -1.751,1.283 -3.896,2.067 -6.233,2.067 v 0 c -0.042,0 -0.085,-0.012 -0.125,-0.012 v 0 z m 102.531,12.396 c 2.226,1.726 3.877,4.106 4.713,6.871 v 0 c 54.877,-7.023 104.628,-30.582 144.094,-65.563 v 0 c -1.669,-2.263 -2.905,-4.855 -3.513,-7.703 v 0 L 478.863,492.3 c -0.599,7.056 -6.446,12.621 -13.657,12.621 v 0 c -1.658,0 -3.226,-0.343 -4.698,-0.878 v 0 z m -84.869,-71.301 c 0.648,1.369 1.034,2.885 1.034,4.498 v 0 c 0,1.946 -0.559,3.751 -1.477,5.32 v 0 l 68.315,61.624 c 2.362,-1.9 5.32,-3.085 8.585,-3.085 v 0 c 1.637,0 3.182,0.334 4.639,0.859 v 0 l 25.254,-45.299 c -3.212,-2.517 -5.314,-6.394 -5.314,-10.795 v 0 c 0,-2.753 0.832,-5.302 2.222,-7.455 v 0 l -41.286,-37.554 c -2.027,1.78 -4.651,2.901 -7.562,2.901 v 0 c -3.364,0 -6.358,-1.47 -8.46,-3.769 v 0 z m -120.499,14.944 c 25.118,21.689 54.248,38.821 86.142,50.108 v 0 c 2.365,-4.183 6.799,-7.043 11.95,-7.043 v 0 c 0.175,0 0.339,0.042 0.516,0.054 v 0 l 7.998,-43.921 c -3.071,-1.384 -5.371,-4.173 -6.048,-7.566 v 0 l -96.816,-0.677 c -0.497,3.364 -1.804,6.435 -3.742,9.045 m 242.43,-13.559 c 3.112,1.89 5.405,4.946 6.26,8.59 v 0 l 101.507,-9.354 c 0.008,-4.471 1.506,-8.559 3.957,-11.911 v 0 l -65.331,-58.808 c -2.99,2.723 -6.93,4.425 -11.295,4.425 v 0 c -1.831,0 -3.566,-0.364 -5.222,-0.912 v 0 z m -56.18,-40.296 c -0.181,1.289 -0.566,2.49 -1.126,3.603 v 0 l 41.534,37.79 c 2.374,-1.927 5.356,-3.131 8.652,-3.131 v 0 c 1.082,0 2.123,0.154 3.134,0.388 v 0 l 29.953,-68.134 c -0.679,-0.445 -1.298,-0.963 -1.905,-1.491 v 0 c -22.436,17.631 -50.089,28.87 -80.242,30.975 m -186.337,29.649 c 2.308,3.065 3.743,6.785 4.006,10.852 v 0 l 96.675,0.677 c 0.561,-2.625 2.102,-4.876 4.219,-6.385 v 0 l -27.794,-63.394 c -1.985,0.652 -4.076,1.093 -6.285,1.093 v 0 c -4.418,0 -8.47,-1.442 -11.798,-3.835 v 0 z m 117.983,5.827 46.283,-33 c -0.315,-0.829 -0.512,-1.713 -0.63,-2.631 v 0 c -30.107,-2.523 -57.653,-14.148 -79.876,-32.132 v 0 c -0.856,0.712 -1.754,1.357 -2.72,1.923 v 0 l 27.803,63.407 c 0.704,-0.147 1.434,-0.226 2.186,-0.226 v 0 c 2.675,0 5.09,1.018 6.954,2.659 m -138.744,-106.822 5.773,92.979 c 4.598,0.271 8.753,2.049 12.027,4.876 v 0 l 58.784,-60.744 c -3.256,-3.603 -5.29,-8.322 -5.29,-13.56 v 0 c 0,-1.72 0.283,-3.366 0.686,-4.967 v 0 l -65.65,-23.035 c -1.449,2.204 -3.697,3.808 -6.33,4.451 m -48.544,12.657 c 0.105,0.588 0.185,1.182 0.185,1.802 v 0 c 0,3.513 -1.769,6.602 -4.453,8.461 v 0 c 11.1,27.158 26.518,52.088 45.383,73.983 v 0 c 2.574,-1.909 5.591,-3.203 8.895,-3.722 v 0 l -5.775,-93.028 c -2.735,-0.468 -5.1,-1.982 -6.69,-4.124 v 0 z m 362.764,9.573 c 0.603,1.735 1.003,3.573 1.003,5.516 v 0 c 0,3.376 -1.021,6.507 -2.735,9.144 v 0 l 65.43,58.905 c 2.742,-2.434 6.105,-4.149 9.866,-4.817 v 0 l -6.942,-90.881 c -4.343,-0.18 -8.148,-2.35 -10.546,-5.642 v 0 z m 79.838,-41.293 c 0.725,1.67 1.131,3.509 1.131,5.448 v 0 c 0,6.309 -4.275,11.577 -10.062,13.199 v 0 l 6.964,91.111 c 4.004,0.154 7.715,1.425 10.801,3.572 v 0 c 34.023,-40.527 56.359,-91.164 61.75,-146.708 v 0 c -4.658,-0.887 -8.686,-3.404 -11.627,-6.885 v 0 z m -187.163,86.105 c 29.118,-2.053 55.832,-12.885 77.537,-29.863 v 0 c -1.829,-2.692 -2.893,-5.936 -2.893,-9.433 v 0 c 0,-9.303 7.539,-16.842 16.837,-16.842 v 0 c 3.575,0 6.871,1.127 9.599,3.03 v 0 c 16.798,-20.941 27.835,-46.682 30.636,-74.829 v 0 c -4.872,-0.996 -8.541,-5.308 -8.541,-10.478 v 0 c 0,-5.353 3.948,-9.753 9.084,-10.527 v 0 c -1.395,-29.697 -11.923,-57.026 -28.822,-79.273 v 0 c -3.239,2.338 -7.194,3.752 -11.495,3.752 v 0 c -10.896,0 -19.726,-8.827 -19.726,-19.723 v 0 c 0,-4.307 1.414,-8.262 3.754,-11.5 v 0 c -19.631,-14.929 -43.235,-24.866 -68.917,-27.966 v 0 c -1.225,4.317 -5.15,7.496 -9.858,7.496 v 0 c -5.074,0 -9.263,-3.666 -10.111,-8.499 v 0 c -17.982,0.352 -35.15,4.027 -50.924,10.468 v 0 c 0.52,1.568 0.865,3.208 0.865,4.944 v 0 c 0,8.751 -7.085,15.836 -15.832,15.836 v 0 c -5,0 -9.41,-2.363 -12.313,-5.982 v 0 c -32.317,22.389 -54.952,57.781 -60.311,98.553 v 0 c 6.341,1.235 11.133,6.806 11.133,13.511 v 0 c 0,7.042 -5.306,12.781 -12.125,13.609 v 0 c 1.601,27.234 10.89,52.421 25.708,73.453 v 0 c 3.251,-2.212 7.173,-3.51 11.402,-3.51 v 0 c 11.2,0 20.285,9.081 20.285,20.282 v 0 c 0,4.698 -1.659,8.962 -4.335,12.397 v 0 c 21.491,17.303 48.079,28.492 77.128,30.943 v 0 c 1.286,-4.95 5.744,-8.625 11.097,-8.625 v 0 c 5.406,0 9.913,3.745 11.138,8.776 M 551.981,306.863 c -2.824,29.28 -14.289,56.049 -31.796,77.774 v 0 c 0.417,0.485 0.855,0.943 1.214,1.471 v 0 l 56.016,-27.742 c -0.432,-1.342 -0.725,-2.738 -0.725,-4.217 v 0 c 0,-4.027 1.753,-7.616 4.509,-10.133 v 0 l -27.078,-37.847 c -0.68,0.298 -1.392,0.543 -2.14,0.694 m -337.13,44.155 c 1.405,1.796 2.276,4.028 2.276,6.488 v 0 c 0,0.609 -0.081,1.206 -0.183,1.79 v 0 l 65.599,23.016 c 0.903,-1.813 2.033,-3.486 3.415,-4.938 v 0 c -15.485,-21.835 -25.17,-48.04 -26.765,-76.392 v 0 c -0.547,-0.11 -1.06,-0.297 -1.582,-0.47 v 0 z m -55.96,25.405 37.339,-16.536 c -0.179,-0.768 -0.293,-1.558 -0.293,-2.381 v 0 c 0,-2.522 0.92,-4.807 2.39,-6.625 v 0 l -55.143,-71.382 c -2.005,1.2 -4.276,1.969 -6.711,2.243 v 0 c -0.068,2.451 -0.187,4.891 -0.187,7.36 v 0 c 0,28.932 4.64,56.789 13.118,82.934 v 0 c 0.334,-0.03 0.654,-0.101 0.993,-0.101 v 0 c 3.531,0 6.639,1.776 8.494,4.488 m 52.668,-28.191 42.113,-49.737 c -3.367,-2.514 -5.576,-6.495 -5.576,-11.014 v 0 c 0,-5.411 3.149,-10.051 7.685,-12.305 v 0 l -31.459,-51.485 c -1.294,0.502 -2.695,0.805 -4.178,0.805 v 0 c -3.388,0 -6.408,-1.484 -8.529,-3.804 v 0 l -61.704,37.861 c 0.892,2.053 1.405,4.299 1.405,6.68 v 0 c 0,4.521 -1.813,8.606 -4.736,11.619 v 0 l 55.087,71.29 c 1.46,-0.762 3.101,-1.232 4.863,-1.232 v 0 c 1.832,0 3.525,0.507 5.029,1.322 m 389.2,-3.149 58.895,-40.217 c -1.507,-2.834 -2.439,-6.018 -2.439,-9.447 v 0 c 0,-3.848 1.129,-7.408 2.994,-10.475 v 0 L 599.19,239.593 c -1.813,1.585 -4.157,2.582 -6.756,2.582 v 0 c -1.319,0 -2.569,-0.275 -3.729,-0.728 v 0 l -31.294,47.421 c 1.911,1.935 3.098,4.585 3.098,7.523 v 0 c 0,2.815 -1.11,5.355 -2.884,7.26 v 0 l 27.165,37.973 c 1.733,-0.787 3.647,-1.253 5.672,-1.253 v 0 c 4.115,0 7.772,1.847 10.297,4.712 M 522.567,203.682 c 17.635,23.075 28.584,51.507 29.954,82.402 v 0 c 0.438,0.112 0.881,0.232 1.297,0.405 v 0 l 31.283,-47.403 c -1.823,-1.857 -2.954,-4.389 -2.954,-7.199 v 0 c 0,-0.853 0.132,-1.672 0.328,-2.464 v 0 L 524.5,201.164 c -0.568,0.901 -1.228,1.725 -1.933,2.518 m 76.585,20.468 c 2.171,1.886 3.573,4.635 3.573,7.737 v 0 c 0,1.525 -0.353,2.958 -0.949,4.258 v 0 l 61.026,45.359 c 3.073,-3.244 7.198,-5.422 11.834,-6.084 v 0 c -2.064,-41.095 -13.393,-79.785 -31.92,-114.044 v 0 c -1.313,0.418 -2.685,0.705 -4.131,0.705 v 0 c -1.695,0 -3.299,-0.353 -4.798,-0.913 v 0 z M 231.506,210.791 c 0.128,0.691 0.212,1.4 0.212,2.135 v 0 c 0,3.357 -1.452,6.364 -3.743,8.476 v 0 l 32.07,52.486 c 0.045,-0.006 0.089,-0.006 0.138,-0.012 v 0 c 4.899,-38.226 24.519,-71.906 53.019,-95.12 v 0 z m -92.253,38.468 c 3.361,0.981 6.263,2.959 8.388,5.631 v 0 l 61.714,-37.872 c -0.483,-1.278 -0.785,-2.643 -0.785,-4.092 v 0 c 0,-1.557 0.323,-3.03 0.874,-4.384 v 0 L 166.85,180.868 c -1.875,1.949 -4.497,3.173 -7.413,3.173 v 0 c -0.588,0 -1.164,-0.078 -1.727,-0.173 v 0 c -8.783,20.613 -15.055,42.537 -18.457,65.391 M 524.491,180.05 c 1.956,3.059 3.12,6.675 3.12,10.57 v 0 c 0,2.349 -0.481,4.575 -1.239,6.661 v 0 l 58.007,28.282 c 1.881,-2.397 4.772,-3.965 8.055,-3.965 v 0 c 1.028,0 2.003,0.197 2.937,0.477 v 0 l 34.674,-63.043 c -2.538,-2.023 -4.358,-4.877 -4.978,-8.194 v 0 l -58.99,2.074 c -0.853,4.82 -5.037,8.481 -10.104,8.481 v 0 c -2.406,0 -4.593,-0.858 -6.346,-2.242 v 0 z m -300.929,-70.408 -1.121,91.939 c 3.151,0.633 5.821,2.565 7.478,5.196 v 0 l 92.271,-36.18 c -0.534,-1.586 -0.891,-3.263 -0.891,-5.034 v 0 c 0,-6.543 3.975,-12.153 9.638,-14.571 v 0 l -11.141,-38.499 c -0.653,0.09 -1.301,0.197 -1.977,0.197 v 0 c -7.328,0 -13.256,-5.726 -13.695,-12.943 v 0 l -62.712,-6.126 c -1.749,8.602 -8.966,15.133 -17.85,16.021 m -57.395,56.392 c 2.165,1.885 3.558,4.622 3.558,7.719 v 0 c 0,1.21 -0.248,2.355 -0.629,3.434 v 0 l 42.71,27.747 c 1.66,-1.737 3.853,-2.941 6.328,-3.382 v 0 l 1.119,-91.929 c -3.88,-0.44 -7.406,-1.949 -10.306,-4.264 v 0 c -16.898,18.079 -31.326,38.483 -42.78,60.675 m 355.658,10.629 25.053,-20.839 c -0.736,-1.42 -1.194,-3.006 -1.194,-4.719 v 0 c 0,-5.683 4.608,-10.287 10.289,-10.287 v 0 c 0.094,0 0.179,0.024 0.272,0.029 v 0 l 13.426,-55.343 c -3.486,-1.646 -5.908,-5.171 -5.908,-9.28 v 0 c 0,-1.533 0.361,-2.977 0.965,-4.289 v 0 C 551.202,62 536.738,53.28 521.467,45.973 v 0 C 517.933,51.943 511.498,56 504.057,56 v 0 c -2.8,0 -5.466,-0.567 -7.897,-1.594 v 0 l -21.63,38.559 c 3.185,2.523 5.268,6.376 5.268,10.754 v 0 c 0,4.676 -2.339,8.786 -5.897,11.279 v 0 l 27.424,57.096 c 2.06,-0.727 4.25,-1.199 6.56,-1.199 v 0 c 5.443,0 10.366,2.207 13.94,5.768 m -116.17,-149.395 8.99,110.96 c 4.462,0.663 7.963,4.157 8.629,8.62 v 0 c 26.693,3.172 51.203,13.52 71.556,29.081 v 0 c 0.821,-0.722 1.674,-1.402 2.606,-1.98 v 0 l -27.432,-57.108 c -1.268,0.387 -2.588,0.657 -3.981,0.657 v 0 c -7.608,0 -13.775,-6.169 -13.775,-13.779 v 0 c 0,-3.787 1.53,-7.21 4.005,-9.698 v 0 L 406.994,26.689 c -0.433,0.221 -0.874,0.419 -1.339,0.579 M 350.27,156.712 c 16.38,-6.722 34.23,-10.545 52.927,-10.873 v 0 c 0.039,-0.166 0.099,-0.322 0.147,-0.483 v 0 l -74.435,-38.344 c -1.3,1.778 -3.012,3.207 -4.995,4.193 v 0 l 11.205,38.726 c 0.666,-0.084 1.326,-0.196 2.017,-0.196 v 0 c 5.468,0 10.286,2.767 13.134,6.977 m 210.162,-14.839 c 2.704,1.305 4.738,3.751 5.487,6.728 v 0 l 59.07,-2.082 c 0.403,-3.095 1.775,-5.887 3.886,-7.974 v 0 C 615.202,118.337 598.819,100.128 580.324,84.329 v 0 c -1.743,1.347 -3.902,2.189 -6.272,2.189 v 0 c -0.067,0 -0.122,-0.018 -0.191,-0.018 v 0 z M 329.094,91.04 c 1.562,2.231 2.493,4.944 2.493,7.872 v 0 c 0,1.497 -0.295,2.904 -0.736,4.258 v 0 l 74.598,38.422 c 1.285,-1.461 2.967,-2.54 4.893,-3.083 v 0 L 401.369,27.8 c -1.801,-0.161 -3.483,-0.74 -4.896,-1.711 v 0 z M 238.359,78.229 c 2.142,3.177 3.388,6.995 3.439,11.098 v 0 l 62.741,6.126 c 1.351,-5.207 5.642,-9.192 11.022,-10.079 v 0 l -0.325,-43.081 c -2.8,-0.483 -5.213,-2.076 -6.748,-4.342 v 0 C 283.01,47.84 259.417,61.485 238.359,78.229 m 171.964,-54.294 49.444,67.581 c 1.877,-0.965 3.99,-1.568 6.256,-1.568 v 0 c 1.678,0 3.262,0.34 4.753,0.894 v 0 l 21.633,-38.559 c -5.213,-3.674 -8.639,-9.709 -8.639,-16.575 v 0 c 0,-1.45 0.169,-2.862 0.459,-4.228 v 0 C 461.377,24.495 437.236,20.529 412.273,19.927 v 0 c -0.347,1.491 -1.035,2.839 -1.95,4.008 m -83.105,7.497 c 0.018,0.256 0.075,0.489 0.075,0.752 v 0 c 0,4.801 -3.301,8.798 -7.748,9.937 v 0 l 0.325,43.229 c 2.314,0.35 4.426,1.257 6.213,2.605 v 0 l 67.438,-65.004 c -0.535,-0.878 -0.943,-1.837 -1.198,-2.857 v 0 c -22.541,1.102 -44.345,5.003 -65.105,11.338"
         id="path81" /></clipPath><linearGradient
       x1="0"
       y1="0"
       x2="1"
       y2="0"
       gradientUnits="userSpaceOnUse"
       gradientTransform="matrix(404.15579,-404.15579,404.15579,404.15579,201.25,497.08984)"
       spreadMethod="pad"
       id="linearGradient95"><stop
         style="stop-opacity:1;stop-color:#18233e"
         offset="0"
         id="stop89" /><stop
         style="stop-opacity:1;stop-color:#18233e"
         offset="0.00107883"
         id="stop91" /><stop
         style="stop-opacity:1;stop-color:#4279bd"
         offset="1"
         id="stop93" /></linearGradient></defs><g
     inkscape:label="Layer 1"
     inkscape:groupmode="layer"
     id="layer1"
     transform="translate(-3.5619367,-16.021333)"><g
       id="g15"
       inkscape:label="PSDI_Logo_CMYK_282c"
       transform="matrix(0.0912564,0,0,-0.0912564,-7.1989267,68.395845)"><g
         id="g17"><g
           id="g19"
           clip-path="url(#clipPath23)"><g
             id="g25"><g
               id="g27"
               clip-path="url(#clipPath31)"><g
                 id="g33"><g
                   id="g35"
                   clip-path="url(#clipPath39)"><g
                     id="g41"><g
                       id="g43"><path
                         d="M 105.683,961.747 293.402,774.027 105.683,586.308 -82.037,774.027 Z"
                         style="fill:url(#linearGradient51);stroke:none"
                         id="path53" /></g></g></g></g></g></g></g></g><g
         id="g55"><g
           id="g57"
           clip-path="url(#clipPath61)"><g
             id="g63"><g
               id="g65"><path
                 d="m 413.322,562.568 c -2.562,0.075 -5.111,0.195 -7.688,0.195 v 0 c -22.351,0 -44.068,-2.753 -64.882,-7.836 v 0 c -2.034,5.062 -6.973,8.653 -12.764,8.653 v 0 c -7.61,0 -13.775,-6.168 -13.775,-13.773 v 0 c 0,-0.929 0.096,-1.837 0.272,-2.713 v 0 C 282.074,535.61 252.477,518.176 226.958,496.117 v 0 c -3.57,3.126 -8.186,5.081 -13.303,5.081 v 0 c -11.202,0 -20.282,-9.077 -20.282,-20.285 v 0 c 0,-5.119 1.957,-9.745 5.091,-13.312 v 0 c -19.217,-22.276 -34.91,-47.639 -46.212,-75.275 v 0 c -0.602,0.111 -1.219,0.185 -1.855,0.185 v 0 c -5.677,0 -10.288,-4.605 -10.288,-10.288 v 0 c 0,-3.818 2.105,-7.109 5.19,-8.887 v 0 c -8.616,-26.55 -13.325,-54.848 -13.325,-84.234 v 0 c 0,-2.487 0.123,-4.945 0.19,-7.419 v 0 c -8.051,-1.201 -14.245,-8.07 -14.245,-16.45 v 0 c 0,-9.227 7.476,-16.706 16.697,-16.706 v 0 c 0.131,0 0.25,0.042 0.381,0.042 v 0 c 3.454,-23.159 9.803,-45.382 18.696,-66.276 v 0 c -2.741,-1.855 -4.545,-4.986 -4.545,-8.54 v 0 c 0,-5.684 4.607,-10.288 10.289,-10.288 v 0 c 1.034,0 2.016,0.196 2.961,0.488 v 0 c 11.645,-22.545 26.306,-43.258 43.485,-61.624 v 0 c -2.854,-3.495 -4.634,-7.902 -4.634,-12.764 v 0 c 0,-11.201 9.078,-20.283 20.282,-20.283 v 0 c 5.453,0 10.377,2.177 14.022,5.672 v 0 c 21.419,-17.04 45.421,-30.937 71.339,-41.005 v 0 c -0.098,-0.572 -0.177,-1.157 -0.177,-1.765 v 0 c 0,-5.684 4.608,-10.289 10.289,-10.289 v 0 c 3.904,0 7.259,2.194 9.003,5.404 v 0 c 21.097,-6.43 43.257,-10.397 66.153,-11.512 v 0 c 0.864,-4.819 5.049,-8.475 10.113,-8.475 v 0 c 5.001,0 9.158,3.573 10.085,8.302 v 0 c 25.412,0.621 49.985,4.652 73.24,11.775 v 0 c 3.182,-7.045 10.231,-11.965 18.459,-11.965 v 0 c 11.204,0 20.285,9.083 20.285,20.284 v 0 c 0,2.231 -0.445,4.336 -1.11,6.341 v 0 c 15.571,7.437 30.311,16.324 44.091,26.452 v 0 c 1.808,-1.576 4.14,-2.565 6.729,-2.565 v 0 c 5.68,0 10.287,4.61 10.287,10.288 v 0 c 0,1.754 -0.476,3.369 -1.243,4.808 v 0 c 18.775,16.044 35.413,34.521 49.295,55.025 v 0 c 1.87,-0.941 3.954,-1.531 6.194,-1.531 v 0 c 7.608,0 13.774,6.171 13.774,13.776 v 0 c 0,4.617 -2.293,8.679 -5.775,11.177 v 0 c 18.79,34.783 30.274,74.077 32.362,115.804 v 0 c 10.517,0.745 18.841,9.423 18.841,20.136 v 0 c 0,11.036 -8.827,19.973 -19.8,20.236 v 0 c -5.468,56.5 -28.192,108.007 -62.815,149.215 v 0 c 3.383,3.627 5.493,8.452 5.493,13.801 v 0 c 0,11.202 -9.08,20.288 -20.287,20.288 v 0 c -5.157,0 -9.812,-1.989 -13.39,-5.156 v 0 c -40.09,35.553 -90.636,59.503 -146.394,66.651 v 0 c -0.161,7.468 -6.239,13.473 -13.742,13.473 v 0 c -6.778,0 -12.385,-4.908 -13.53,-11.359 m -80.589,-25.642 c 5.259,1.936 9.027,6.948 9.027,12.881 v 0 c 0,0.308 -0.069,0.603 -0.093,0.913 v 0 c 20.521,5.013 41.927,7.735 63.967,7.735 v 0 c 2.561,0 5.091,-0.125 7.634,-0.196 v 0 c 0.284,-2.055 0.981,-3.972 2.066,-5.637 v 0 l -68.263,-61.578 c -1.751,1.283 -3.896,2.067 -6.233,2.067 v 0 c -0.042,0 -0.085,-0.012 -0.125,-0.012 v 0 z m 102.531,12.396 c 2.226,1.726 3.877,4.106 4.713,6.871 v 0 c 54.877,-7.023 104.628,-30.582 144.094,-65.563 v 0 c -1.669,-2.263 -2.905,-4.855 -3.513,-7.703 v 0 L 478.863,492.3 c -0.599,7.056 -6.446,12.621 -13.657,12.621 v 0 c -1.658,0 -3.226,-0.343 -4.698,-0.878 v 0 z m -84.869,-71.301 c 0.648,1.369 1.034,2.885 1.034,4.498 v 0 c 0,1.946 -0.559,3.751 -1.477,5.32 v 0 l 68.315,61.624 c 2.362,-1.9 5.32,-3.085 8.585,-3.085 v 0 c 1.637,0 3.182,0.334 4.639,0.859 v 0 l 25.254,-45.299 c -3.212,-2.517 -5.314,-6.394 -5.314,-10.795 v 0 c 0,-2.753 0.832,-5.302 2.222,-7.455 v 0 l -41.286,-37.554 c -2.027,1.78 -4.651,2.901 -7.562,2.901 v 0 c -3.364,0 -6.358,-1.47 -8.46,-3.769 v 0 z m -120.499,14.944 c 25.118,21.689 54.248,38.821 86.142,50.108 v 0 c 2.365,-4.183 6.799,-7.043 11.95,-7.043 v 0 c 0.175,0 0.339,0.042 0.516,0.054 v 0 l 7.998,-43.921 c -3.071,-1.384 -5.371,-4.173 -6.048,-7.566 v 0 l -96.816,-0.677 c -0.497,3.364 -1.804,6.435 -3.742,9.045 m 242.43,-13.559 c 3.112,1.89 5.405,4.946 6.26,8.59 v 0 l 101.507,-9.354 c 0.008,-4.471 1.506,-8.559 3.957,-11.911 v 0 l -65.331,-58.808 c -2.99,2.723 -6.93,4.425 -11.295,4.425 v 0 c -1.831,0 -3.566,-0.364 -5.222,-0.912 v 0 z m -56.18,-40.296 c -0.181,1.289 -0.566,2.49 -1.126,3.603 v 0 l 41.534,37.79 c 2.374,-1.927 5.356,-3.131 8.652,-3.131 v 0 c 1.082,0 2.123,0.154 3.134,0.388 v 0 l 29.953,-68.134 c -0.679,-0.445 -1.298,-0.963 -1.905,-1.491 v 0 c -22.436,17.631 -50.089,28.87 -80.242,30.975 m -186.337,29.649 c 2.308,3.065 3.743,6.785 4.006,10.852 v 0 l 96.675,0.677 c 0.561,-2.625 2.102,-4.876 4.219,-6.385 v 0 l -27.794,-63.394 c -1.985,0.652 -4.076,1.093 -6.285,1.093 v 0 c -4.418,0 -8.47,-1.442 -11.798,-3.835 v 0 z m 117.983,5.827 46.283,-33 c -0.315,-0.829 -0.512,-1.713 -0.63,-2.631 v 0 c -30.107,-2.523 -57.653,-14.148 -79.876,-32.132 v 0 c -0.856,0.712 -1.754,1.357 -2.72,1.923 v 0 l 27.803,63.407 c 0.704,-0.147 1.434,-0.226 2.186,-0.226 v 0 c 2.675,0 5.09,1.018 6.954,2.659 m -138.744,-106.822 5.773,92.979 c 4.598,0.271 8.753,2.049 12.027,4.876 v 0 l 58.784,-60.744 c -3.256,-3.603 -5.29,-8.322 -5.29,-13.56 v 0 c 0,-1.72 0.283,-3.366 0.686,-4.967 v 0 l -65.65,-23.035 c -1.449,2.204 -3.697,3.808 -6.33,4.451 m -48.544,12.657 c 0.105,0.588 0.185,1.182 0.185,1.802 v 0 c 0,3.513 -1.769,6.602 -4.453,8.461 v 0 c 11.1,27.158 26.518,52.088 45.383,73.983 v 0 c 2.574,-1.909 5.591,-3.203 8.895,-3.722 v 0 l -5.775,-93.028 c -2.735,-0.468 -5.1,-1.982 -6.69,-4.124 v 0 z m 362.764,9.573 c 0.603,1.735 1.003,3.573 1.003,5.516 v 0 c 0,3.376 -1.021,6.507 -2.735,9.144 v 0 l 65.43,58.905 c 2.742,-2.434 6.105,-4.149 9.866,-4.817 v 0 l -6.942,-90.881 c -4.343,-0.18 -8.148,-2.35 -10.546,-5.642 v 0 z m 79.838,-41.293 c 0.725,1.67 1.131,3.509 1.131,5.448 v 0 c 0,6.309 -4.275,11.577 -10.062,13.199 v 0 l 6.964,91.111 c 4.004,0.154 7.715,1.425 10.801,3.572 v 0 c 34.023,-40.527 56.359,-91.164 61.75,-146.708 v 0 c -4.658,-0.887 -8.686,-3.404 -11.627,-6.885 v 0 z m -187.163,86.105 c 29.118,-2.053 55.832,-12.885 77.537,-29.863 v 0 c -1.829,-2.692 -2.893,-5.936 -2.893,-9.433 v 0 c 0,-9.303 7.539,-16.842 16.837,-16.842 v 0 c 3.575,0 6.871,1.127 9.599,3.03 v 0 c 16.798,-20.941 27.835,-46.682 30.636,-74.829 v 0 c -4.872,-0.996 -8.541,-5.308 -8.541,-10.478 v 0 c 0,-5.353 3.948,-9.753 9.084,-10.527 v 0 c -1.395,-29.697 -11.923,-57.026 -28.822,-79.273 v 0 c -3.239,2.338 -7.194,3.752 -11.495,3.752 v 0 c -10.896,0 -19.726,-8.827 -19.726,-19.723 v 0 c 0,-4.307 1.414,-8.262 3.754,-11.5 v 0 c -19.631,-14.929 -43.235,-24.866 -68.917,-27.966 v 0 c -1.225,4.317 -5.15,7.496 -9.858,7.496 v 0 c -5.074,0 -9.263,-3.666 -10.111,-8.499 v 0 c -17.982,0.352 -35.15,4.027 -50.924,10.468 v 0 c 0.52,1.568 0.865,3.208 0.865,4.944 v 0 c 0,8.751 -7.085,15.836 -15.832,15.836 v 0 c -5,0 -9.41,-2.363 -12.313,-5.982 v 0 c -32.317,22.389 -54.952,57.781 -60.311,98.553 v 0 c 6.341,1.235 11.133,6.806 11.133,13.511 v 0 c 0,7.042 -5.306,12.781 -12.125,13.609 v 0 c 1.601,27.234 10.89,52.421 25.708,73.453 v 0 c 3.251,-2.212 7.173,-3.51 11.402,-3.51 v 0 c 11.2,0 20.285,9.081 20.285,20.282 v 0 c 0,4.698 -1.659,8.962 -4.335,12.397 v 0 c 21.491,17.303 48.079,28.492 77.128,30.943 v 0 c 1.286,-4.95 5.744,-8.625 11.097,-8.625 v 0 c 5.406,0 9.913,3.745 11.138,8.776 M 551.981,306.863 c -2.824,29.28 -14.289,56.049 -31.796,77.774 v 0 c 0.417,0.485 0.855,0.943 1.214,1.471 v 0 l 56.016,-27.742 c -0.432,-1.342 -0.725,-2.738 -0.725,-4.217 v 0 c 0,-4.027 1.753,-7.616 4.509,-10.133 v 0 l -27.078,-37.847 c -0.68,0.298 -1.392,0.543 -2.14,0.694 m -337.13,44.155 c 1.405,1.796 2.276,4.028 2.276,6.488 v 0 c 0,0.609 -0.081,1.206 -0.183,1.79 v 0 l 65.599,23.016 c 0.903,-1.813 2.033,-3.486 3.415,-4.938 v 0 c -15.485,-21.835 -25.17,-48.04 -26.765,-76.392 v 0 c -0.547,-0.11 -1.06,-0.297 -1.582,-0.47 v 0 z m -55.96,25.405 37.339,-16.536 c -0.179,-0.768 -0.293,-1.558 -0.293,-2.381 v 0 c 0,-2.522 0.92,-4.807 2.39,-6.625 v 0 l -55.143,-71.382 c -2.005,1.2 -4.276,1.969 -6.711,2.243 v 0 c -0.068,2.451 -0.187,4.891 -0.187,7.36 v 0 c 0,28.932 4.64,56.789 13.118,82.934 v 0 c 0.334,-0.03 0.654,-0.101 0.993,-0.101 v 0 c 3.531,0 6.639,1.776 8.494,4.488 m 52.668,-28.191 42.113,-49.737 c -3.367,-2.514 -5.576,-6.495 -5.576,-11.014 v 0 c 0,-5.411 3.149,-10.051 7.685,-12.305 v 0 l -31.459,-51.485 c -1.294,0.502 -2.695,0.805 -4.178,0.805 v 0 c -3.388,0 -6.408,-1.484 -8.529,-3.804 v 0 l -61.704,37.861 c 0.892,2.053 1.405,4.299 1.405,6.68 v 0 c 0,4.521 -1.813,8.606 -4.736,11.619 v 0 l 55.087,71.29 c 1.46,-0.762 3.101,-1.232 4.863,-1.232 v 0 c 1.832,0 3.525,0.507 5.029,1.322 m 389.2,-3.149 58.895,-40.217 c -1.507,-2.834 -2.439,-6.018 -2.439,-9.447 v 0 c 0,-3.848 1.129,-7.408 2.994,-10.475 v 0 L 599.19,239.593 c -1.813,1.585 -4.157,2.582 -6.756,2.582 v 0 c -1.319,0 -2.569,-0.275 -3.729,-0.728 v 0 l -31.294,47.421 c 1.911,1.935 3.098,4.585 3.098,7.523 v 0 c 0,2.815 -1.11,5.355 -2.884,7.26 v 0 l 27.165,37.973 c 1.733,-0.787 3.647,-1.253 5.672,-1.253 v 0 c 4.115,0 7.772,1.847 10.297,4.712 M 522.567,203.682 c 17.635,23.075 28.584,51.507 29.954,82.402 v 0 c 0.438,0.112 0.881,0.232 1.297,0.405 v 0 l 31.283,-47.403 c -1.823,-1.857 -2.954,-4.389 -2.954,-7.199 v 0 c 0,-0.853 0.132,-1.672 0.328,-2.464 v 0 L 524.5,201.164 c -0.568,0.901 -1.228,1.725 -1.933,2.518 m 76.585,20.468 c 2.171,1.886 3.573,4.635 3.573,7.737 v 0 c 0,1.525 -0.353,2.958 -0.949,4.258 v 0 l 61.026,45.359 c 3.073,-3.244 7.198,-5.422 11.834,-6.084 v 0 c -2.064,-41.095 -13.393,-79.785 -31.92,-114.044 v 0 c -1.313,0.418 -2.685,0.705 -4.131,0.705 v 0 c -1.695,0 -3.299,-0.353 -4.798,-0.913 v 0 z M 231.506,210.791 c 0.128,0.691 0.212,1.4 0.212,2.135 v 0 c 0,3.357 -1.452,6.364 -3.743,8.476 v 0 l 32.07,52.486 c 0.045,-0.006 0.089,-0.006 0.138,-0.012 v 0 c 4.899,-38.226 24.519,-71.906 53.019,-95.12 v 0 z m -92.253,38.468 c 3.361,0.981 6.263,2.959 8.388,5.631 v 0 l 61.714,-37.872 c -0.483,-1.278 -0.785,-2.643 -0.785,-4.092 v 0 c 0,-1.557 0.323,-3.03 0.874,-4.384 v 0 L 166.85,180.868 c -1.875,1.949 -4.497,3.173 -7.413,3.173 v 0 c -0.588,0 -1.164,-0.078 -1.727,-0.173 v 0 c -8.783,20.613 -15.055,42.537 -18.457,65.391 M 524.491,180.05 c 1.956,3.059 3.12,6.675 3.12,10.57 v 0 c 0,2.349 -0.481,4.575 -1.239,6.661 v 0 l 58.007,28.282 c 1.881,-2.397 4.772,-3.965 8.055,-3.965 v 0 c 1.028,0 2.003,0.197 2.937,0.477 v 0 l 34.674,-63.043 c -2.538,-2.023 -4.358,-4.877 -4.978,-8.194 v 0 l -58.99,2.074 c -0.853,4.82 -5.037,8.481 -10.104,8.481 v 0 c -2.406,0 -4.593,-0.858 -6.346,-2.242 v 0 z m -300.929,-70.408 -1.121,91.939 c 3.151,0.633 5.821,2.565 7.478,5.196 v 0 l 92.271,-36.18 c -0.534,-1.586 -0.891,-3.263 -0.891,-5.034 v 0 c 0,-6.543 3.975,-12.153 9.638,-14.571 v 0 l -11.141,-38.499 c -0.653,0.09 -1.301,0.197 -1.977,0.197 v 0 c -7.328,0 -13.256,-5.726 -13.695,-12.943 v 0 l -62.712,-6.126 c -1.749,8.602 -8.966,15.133 -17.85,16.021 m -57.395,56.392 c 2.165,1.885 3.558,4.622 3.558,7.719 v 0 c 0,1.21 -0.248,2.355 -0.629,3.434 v 0 l 42.71,27.747 c 1.66,-1.737 3.853,-2.941 6.328,-3.382 v 0 l 1.119,-91.929 c -3.88,-0.44 -7.406,-1.949 -10.306,-4.264 v 0 c -16.898,18.079 -31.326,38.483 -42.78,60.675 m 355.658,10.629 25.053,-20.839 c -0.736,-1.42 -1.194,-3.006 -1.194,-4.719 v 0 c 0,-5.683 4.608,-10.287 10.289,-10.287 v 0 c 0.094,0 0.179,0.024 0.272,0.029 v 0 l 13.426,-55.343 c -3.486,-1.646 -5.908,-5.171 -5.908,-9.28 v 0 c 0,-1.533 0.361,-2.977 0.965,-4.289 v 0 C 551.202,62 536.738,53.28 521.467,45.973 v 0 C 517.933,51.943 511.498,56 504.057,56 v 0 c -2.8,0 -5.466,-0.567 -7.897,-1.594 v 0 l -21.63,38.559 c 3.185,2.523 5.268,6.376 5.268,10.754 v 0 c 0,4.676 -2.339,8.786 -5.897,11.279 v 0 l 27.424,57.096 c 2.06,-0.727 4.25,-1.199 6.56,-1.199 v 0 c 5.443,0 10.366,2.207 13.94,5.768 m -116.17,-149.395 8.99,110.96 c 4.462,0.663 7.963,4.157 8.629,8.62 v 0 c 26.693,3.172 51.203,13.52 71.556,29.081 v 0 c 0.821,-0.722 1.674,-1.402 2.606,-1.98 v 0 l -27.432,-57.108 c -1.268,0.387 -2.588,0.657 -3.981,0.657 v 0 c -7.608,0 -13.775,-6.169 -13.775,-13.779 v 0 c 0,-3.787 1.53,-7.21 4.005,-9.698 v 0 L 406.994,26.689 c -0.433,0.221 -0.874,0.419 -1.339,0.579 M 350.27,156.712 c 16.38,-6.722 34.23,-10.545 52.927,-10.873 v 0 c 0.039,-0.166 0.099,-0.322 0.147,-0.483 v 0 l -74.435,-38.344 c -1.3,1.778 -3.012,3.207 -4.995,4.193 v 0 l 11.205,38.726 c 0.666,-0.084 1.326,-0.196 2.017,-0.196 v 0 c 5.468,0 10.286,2.767 13.134,6.977 m 210.162,-14.839 c 2.704,1.305 4.738,3.751 5.487,6.728 v 0 l 59.07,-2.082 c 0.403,-3.095 1.775,-5.887 3.886,-7.974 v 0 C 615.202,118.337 598.819,100.128 580.324,84.329 v 0 c -1.743,1.347 -3.902,2.189 -6.272,2.189 v 0 c -0.067,0 -0.122,-0.018 -0.191,-0.018 v 0 z M 329.094,91.04 c 1.562,2.231 2.493,4.944 2.493,7.872 v 0 c 0,1.497 -0.295,2.904 -0.736,4.258 v 0 l 74.598,38.422 c 1.285,-1.461 2.967,-2.54 4.893,-3.083 v 0 L 401.369,27.8 c -1.801,-0.161 -3.483,-0.74 -4.896,-1.711 v 0 z M 238.359,78.229 c 2.142,3.177 3.388,6.995 3.439,11.098 v 0 l 62.741,6.126 c 1.351,-5.207 5.642,-9.192 11.022,-10.079 v 0 l -0.325,-43.081 c -2.8,-0.483 -5.213,-2.076 -6.748,-4.342 v 0 C 283.01,47.84 259.417,61.485 238.359,78.229 m 171.964,-54.294 49.444,67.581 c 1.877,-0.965 3.99,-1.568 6.256,-1.568 v 0 c 1.678,0 3.262,0.34 4.753,0.894 v 0 l 21.633,-38.559 c -5.213,-3.674 -8.639,-9.709 -8.639,-16.575 v 0 c 0,-1.45 0.169,-2.862 0.459,-4.228 v 0 C 461.377,24.495 437.236,20.529 412.273,19.927 v 0 c -0.347,1.491 -1.035,2.839 -1.95,4.008 m -83.105,7.497 c 0.018,0.256 0.075,0.489 0.075,0.752 v 0 c 0,4.801 -3.301,8.798 -7.748,9.937 v 0 l 0.325,43.229 c 2.314,0.35 4.426,1.257 6.213,2.605 v 0 l 67.438,-65.004 c -0.535,-0.878 -0.943,-1.837 -1.198,-2.857 v 0 c -22.541,1.102 -44.345,5.003 -65.105,11.338"
                 style="fill:url(#linearGradient73);stroke:none"
                 id="path75" /></g></g></g></g><g
         id="g77"><g
           id="g79"
           clip-path="url(#clipPath83)"><g
             id="g85"><g
               id="g87"><path
                 d="m 413.322,562.568 c -2.562,0.075 -5.111,0.195 -7.688,0.195 v 0 c -22.351,0 -44.068,-2.753 -64.882,-7.836 v 0 c -2.034,5.062 -6.973,8.653 -12.764,8.653 v 0 c -7.61,0 -13.775,-6.168 -13.775,-13.773 v 0 c 0,-0.929 0.096,-1.837 0.272,-2.713 v 0 C 282.074,535.61 252.477,518.176 226.958,496.117 v 0 c -3.57,3.126 -8.186,5.081 -13.303,5.081 v 0 c -11.202,0 -20.282,-9.077 -20.282,-20.285 v 0 c 0,-5.119 1.957,-9.745 5.091,-13.312 v 0 c -19.217,-22.276 -34.91,-47.639 -46.212,-75.275 v 0 c -0.602,0.111 -1.219,0.185 -1.855,0.185 v 0 c -5.677,0 -10.288,-4.605 -10.288,-10.288 v 0 c 0,-3.818 2.105,-7.109 5.19,-8.887 v 0 c -8.616,-26.55 -13.325,-54.848 -13.325,-84.234 v 0 c 0,-2.487 0.123,-4.945 0.19,-7.419 v 0 c -8.051,-1.201 -14.245,-8.07 -14.245,-16.45 v 0 c 0,-9.227 7.476,-16.706 16.697,-16.706 v 0 c 0.131,0 0.25,0.042 0.381,0.042 v 0 c 3.454,-23.159 9.803,-45.382 18.696,-66.276 v 0 c -2.741,-1.855 -4.545,-4.986 -4.545,-8.54 v 0 c 0,-5.684 4.607,-10.288 10.289,-10.288 v 0 c 1.034,0 2.016,0.196 2.961,0.488 v 0 c 11.645,-22.545 26.306,-43.258 43.485,-61.624 v 0 c -2.854,-3.495 -4.634,-7.902 -4.634,-12.764 v 0 c 0,-11.201 9.078,-20.283 20.282,-20.283 v 0 c 5.453,0 10.377,2.177 14.022,5.672 v 0 c 21.419,-17.04 45.421,-30.937 71.339,-41.005 v 0 c -0.098,-0.572 -0.177,-1.157 -0.177,-1.765 v 0 c 0,-5.684 4.608,-10.289 10.289,-10.289 v 0 c 3.904,0 7.259,2.194 9.003,5.404 v 0 c 21.097,-6.43 43.257,-10.397 66.153,-11.512 v 0 c 0.864,-4.819 5.049,-8.475 10.113,-8.475 v 0 c 5.001,0 9.158,3.573 10.085,8.302 v 0 c 25.412,0.621 49.985,4.652 73.24,11.775 v 0 c 3.182,-7.045 10.231,-11.965 18.459,-11.965 v 0 c 11.204,0 20.285,9.083 20.285,20.284 v 0 c 0,2.231 -0.445,4.336 -1.11,6.341 v 0 c 15.571,7.437 30.311,16.324 44.091,26.452 v 0 c 1.808,-1.576 4.14,-2.565 6.729,-2.565 v 0 c 5.68,0 10.287,4.61 10.287,10.288 v 0 c 0,1.754 -0.476,3.369 -1.243,4.808 v 0 c 18.775,16.044 35.413,34.521 49.295,55.025 v 0 c 1.87,-0.941 3.954,-1.531 6.194,-1.531 v 0 c 7.608,0 13.774,6.171 13.774,13.776 v 0 c 0,4.617 -2.293,8.679 -5.775,11.177 v 0 c 18.79,34.783 30.274,74.077 32.362,115.804 v 0 c 10.517,0.745 18.841,9.423 18.841,20.136 v 0 c 0,11.036 -8.827,19.973 -19.8,20.236 v 0 c -5.468,56.5 -28.192,108.007 -62.815,149.215 v 0 c 3.383,3.627 5.493,8.452 5.493,13.801 v 0 c 0,11.202 -9.08,20.288 -20.287,20.288 v 0 c -5.157,0 -9.812,-1.989 -13.39,-5.156 v 0 c -40.09,35.553 -90.636,59.503 -146.394,66.651 v 0 c -0.161,7.468 -6.239,13.473 -13.742,13.473 v 0 c -6.778,0 -12.385,-4.908 -13.53,-11.359 m -80.589,-25.642 c 5.259,1.936 9.027,6.948 9.027,12.881 v 0 c 0,0.308 -0.069,0.603 -0.093,0.913 v 0 c 20.521,5.013 41.927,7.735 63.967,7.735 v 0 c 2.561,0 5.091,-0.125 7.634,-0.196 v 0 c 0.284,-2.055 0.981,-3.972 2.066,-5.637 v 0 l -68.263,-61.578 c -1.751,1.283 -3.896,2.067 -6.233,2.067 v 0 c -0.042,0 -0.085,-0.012 -0.125,-0.012 v 0 z m 102.531,12.396 c 2.226,1.726 3.877,4.106 4.713,6.871 v 0 c 54.877,-7.023 104.628,-30.582 144.094,-65.563 v 0 c -1.669,-2.263 -2.905,-4.855 -3.513,-7.703 v 0 L 478.863,492.3 c -0.599,7.056 -6.446,12.621 -13.657,12.621 v 0 c -1.658,0 -3.226,-0.343 -4.698,-0.878 v 0 z m -84.869,-71.301 c 0.648,1.369 1.034,2.885 1.034,4.498 v 0 c 0,1.946 -0.559,3.751 -1.477,5.32 v 0 l 68.315,61.624 c 2.362,-1.9 5.32,-3.085 8.585,-3.085 v 0 c 1.637,0 3.182,0.334 4.639,0.859 v 0 l 25.254,-45.299 c -3.212,-2.517 -5.314,-6.394 -5.314,-10.795 v 0 c 0,-2.753 0.832,-5.302 2.222,-7.455 v 0 l -41.286,-37.554 c -2.027,1.78 -4.651,2.901 -7.562,2.901 v 0 c -3.364,0 -6.358,-1.47 -8.46,-3.769 v 0 z m -120.499,14.944 c 25.118,21.689 54.248,38.821 86.142,50.108 v 0 c 2.365,-4.183 6.799,-7.043 11.95,-7.043 v 0 c 0.175,0 0.339,0.042 0.516,0.054 v 0 l 7.998,-43.921 c -3.071,-1.384 -5.371,-4.173 -6.048,-7.566 v 0 l -96.816,-0.677 c -0.497,3.364 -1.804,6.435 -3.742,9.045 m 242.43,-13.559 c 3.112,1.89 5.405,4.946 6.26,8.59 v 0 l 101.507,-9.354 c 0.008,-4.471 1.506,-8.559 3.957,-11.911 v 0 l -65.331,-58.808 c -2.99,2.723 -6.93,4.425 -11.295,4.425 v 0 c -1.831,0 -3.566,-0.364 -5.222,-0.912 v 0 z m -56.18,-40.296 c -0.181,1.289 -0.566,2.49 -1.126,3.603 v 0 l 41.534,37.79 c 2.374,-1.927 5.356,-3.131 8.652,-3.131 v 0 c 1.082,0 2.123,0.154 3.134,0.388 v 0 l 29.953,-68.134 c -0.679,-0.445 -1.298,-0.963 -1.905,-1.491 v 0 c -22.436,17.631 -50.089,28.87 -80.242,30.975 m -186.337,29.649 c 2.308,3.065 3.743,6.785 4.006,10.852 v 0 l 96.675,0.677 c 0.561,-2.625 2.102,-4.876 4.219,-6.385 v 0 l -27.794,-63.394 c -1.985,0.652 -4.076,1.093 -6.285,1.093 v 0 c -4.418,0 -8.47,-1.442 -11.798,-3.835 v 0 z m 117.983,5.827 46.283,-33 c -0.315,-0.829 -0.512,-1.713 -0.63,-2.631 v 0 c -30.107,-2.523 -57.653,-14.148 -79.876,-32.132 v 0 c -0.856,0.712 -1.754,1.357 -2.72,1.923 v 0 l 27.803,63.407 c 0.704,-0.147 1.434,-0.226 2.186,-0.226 v 0 c 2.675,0 5.09,1.018 6.954,2.659 m -138.744,-106.822 5.773,92.979 c 4.598,0.271 8.753,2.049 12.027,4.876 v 0 l 58.784,-60.744 c -3.256,-3.603 -5.29,-8.322 -5.29,-13.56 v 0 c 0,-1.72 0.283,-3.366 0.686,-4.967 v 0 l -65.65,-23.035 c -1.449,2.204 -3.697,3.808 -6.33,4.451 m -48.544,12.657 c 0.105,0.588 0.185,1.182 0.185,1.802 v 0 c 0,3.513 -1.769,6.602 -4.453,8.461 v 0 c 11.1,27.158 26.518,52.088 45.383,73.983 v 0 c 2.574,-1.909 5.591,-3.203 8.895,-3.722 v 0 l -5.775,-93.028 c -2.735,-0.468 -5.1,-1.982 -6.69,-4.124 v 0 z m 362.764,9.573 c 0.603,1.735 1.003,3.573 1.003,5.516 v 0 c 0,3.376 -1.021,6.507 -2.735,9.144 v 0 l 65.43,58.905 c 2.742,-2.434 6.105,-4.149 9.866,-4.817 v 0 l -6.942,-90.881 c -4.343,-0.18 -8.148,-2.35 -10.546,-5.642 v 0 z m 79.838,-41.293 c 0.725,1.67 1.131,3.509 1.131,5.448 v 0 c 0,6.309 -4.275,11.577 -10.062,13.199 v 0 l 6.964,91.111 c 4.004,0.154 7.715,1.425 10.801,3.572 v 0 c 34.023,-40.527 56.359,-91.164 61.75,-146.708 v 0 c -4.658,-0.887 -8.686,-3.404 -11.627,-6.885 v 0 z m -187.163,86.105 c 29.118,-2.053 55.832,-12.885 77.537,-29.863 v 0 c -1.829,-2.692 -2.893,-5.936 -2.893,-9.433 v 0 c 0,-9.303 7.539,-16.842 16.837,-16.842 v 0 c 3.575,0 6.871,1.127 9.599,3.03 v 0 c 16.798,-20.941 27.835,-46.682 30.636,-74.829 v 0 c -4.872,-0.996 -8.541,-5.308 -8.541,-10.478 v 0 c 0,-5.353 3.948,-9.753 9.084,-10.527 v 0 c -1.395,-29.697 -11.923,-57.026 -28.822,-79.273 v 0 c -3.239,2.338 -7.194,3.752 -11.495,3.752 v 0 c -10.896,0 -19.726,-8.827 -19.726,-19.723 v 0 c 0,-4.307 1.414,-8.262 3.754,-11.5 v 0 c -19.631,-14.929 -43.235,-24.866 -68.917,-27.966 v 0 c -1.225,4.317 -5.15,7.496 -9.858,7.496 v 0 c -5.074,0 -9.263,-3.666 -10.111,-8.499 v 0 c -17.982,0.352 -35.15,4.027 -50.924,10.468 v 0 c 0.52,1.568 0.865,3.208 0.865,4.944 v 0 c 0,8.751 -7.085,15.836 -15.832,15.836 v 0 c -5,0 -9.41,-2.363 -12.313,-5.982 v 0 c -32.317,22.389 -54.952,57.781 -60.311,98.553 v 0 c 6.341,1.235 11.133,6.806 11.133,13.511 v 0 c 0,7.042 -5.306,12.781 -12.125,13.609 v 0 c 1.601,27.234 10.89,52.421 25.708,73.453 v 0 c 3.251,-2.212 7.173,-3.51 11.402,-3.51 v 0 c 11.2,0 20.285,9.081 20.285,20.282 v 0 c 0,4.698 -1.659,8.962 -4.335,12.397 v 0 c 21.491,17.303 48.079,28.492 77.128,30.943 v 0 c 1.286,-4.95 5.744,-8.625 11.097,-8.625 v 0 c 5.406,0 9.913,3.745 11.138,8.776 M 551.981,306.863 c -2.824,29.28 -14.289,56.049 -31.796,77.774 v 0 c 0.417,0.485 0.855,0.943 1.214,1.471 v 0 l 56.016,-27.742 c -0.432,-1.342 -0.725,-2.738 -0.725,-4.217 v 0 c 0,-4.027 1.753,-7.616 4.509,-10.133 v 0 l -27.078,-37.847 c -0.68,0.298 -1.392,0.543 -2.14,0.694 m -337.13,44.155 c 1.405,1.796 2.276,4.028 2.276,6.488 v 0 c 0,0.609 -0.081,1.206 -0.183,1.79 v 0 l 65.599,23.016 c 0.903,-1.813 2.033,-3.486 3.415,-4.938 v 0 c -15.485,-21.835 -25.17,-48.04 -26.765,-76.392 v 0 c -0.547,-0.11 -1.06,-0.297 -1.582,-0.47 v 0 z m -55.96,25.405 37.339,-16.536 c -0.179,-0.768 -0.293,-1.558 -0.293,-2.381 v 0 c 0,-2.522 0.92,-4.807 2.39,-6.625 v 0 l -55.143,-71.382 c -2.005,1.2 -4.276,1.969 -6.711,2.243 v 0 c -0.068,2.451 -0.187,4.891 -0.187,7.36 v 0 c 0,28.932 4.64,56.789 13.118,82.934 v 0 c 0.334,-0.03 0.654,-0.101 0.993,-0.101 v 0 c 3.531,0 6.639,1.776 8.494,4.488 m 52.668,-28.191 42.113,-49.737 c -3.367,-2.514 -5.576,-6.495 -5.576,-11.014 v 0 c 0,-5.411 3.149,-10.051 7.685,-12.305 v 0 l -31.459,-51.485 c -1.294,0.502 -2.695,0.805 -4.178,0.805 v 0 c -3.388,0 -6.408,-1.484 -8.529,-3.804 v 0 l -61.704,37.861 c 0.892,2.053 1.405,4.299 1.405,6.68 v 0 c 0,4.521 -1.813,8.606 -4.736,11.619 v 0 l 55.087,71.29 c 1.46,-0.762 3.101,-1.232 4.863,-1.232 v 0 c 1.832,0 3.525,0.507 5.029,1.322 m 389.2,-3.149 58.895,-40.217 c -1.507,-2.834 -2.439,-6.018 -2.439,-9.447 v 0 c 0,-3.848 1.129,-7.408 2.994,-10.475 v 0 L 599.19,239.593 c -1.813,1.585 -4.157,2.582 -6.756,2.582 v 0 c -1.319,0 -2.569,-0.275 -3.729,-0.728 v 0 l -31.294,47.421 c 1.911,1.935 3.098,4.585 3.098,7.523 v 0 c 0,2.815 -1.11,5.355 -2.884,7.26 v 0 l 27.165,37.973 c 1.733,-0.787 3.647,-1.253 5.672,-1.253 v 0 c 4.115,0 7.772,1.847 10.297,4.712 M 522.567,203.682 c 17.635,23.075 28.584,51.507 29.954,82.402 v 0 c 0.438,0.112 0.881,0.232 1.297,0.405 v 0 l 31.283,-47.403 c -1.823,-1.857 -2.954,-4.389 -2.954,-7.199 v 0 c 0,-0.853 0.132,-1.672 0.328,-2.464 v 0 L 524.5,201.164 c -0.568,0.901 -1.228,1.725 -1.933,2.518 m 76.585,20.468 c 2.171,1.886 3.573,4.635 3.573,7.737 v 0 c 0,1.525 -0.353,2.958 -0.949,4.258 v 0 l 61.026,45.359 c 3.073,-3.244 7.198,-5.422 11.834,-6.084 v 0 c -2.064,-41.095 -13.393,-79.785 -31.92,-114.044 v 0 c -1.313,0.418 -2.685,0.705 -4.131,0.705 v 0 c -1.695,0 -3.299,-0.353 -4.798,-0.913 v 0 z M 231.506,210.791 c 0.128,0.691 0.212,1.4 0.212,2.135 v 0 c 0,3.357 -1.452,6.364 -3.743,8.476 v 0 l 32.07,52.486 c 0.045,-0.006 0.089,-0.006 0.138,-0.012 v 0 c 4.899,-38.226 24.519,-71.906 53.019,-95.12 v 0 z m -92.253,38.468 c 3.361,0.981 6.263,2.959 8.388,5.631 v 0 l 61.714,-37.872 c -0.483,-1.278 -0.785,-2.643 -0.785,-4.092 v 0 c 0,-1.557 0.323,-3.03 0.874,-4.384 v 0 L 166.85,180.868 c -1.875,1.949 -4.497,3.173 -7.413,3.173 v 0 c -0.588,0 -1.164,-0.078 -1.727,-0.173 v 0 c -8.783,20.613 -15.055,42.537 -18.457,65.391 M 524.491,180.05 c 1.956,3.059 3.12,6.675 3.12,10.57 v 0 c 0,2.349 -0.481,4.575 -1.239,6.661 v 0 l 58.007,28.282 c 1.881,-2.397 4.772,-3.965 8.055,-3.965 v 0 c 1.028,0 2.003,0.197 2.937,0.477 v 0 l 34.674,-63.043 c -2.538,-2.023 -4.358,-4.877 -4.978,-8.194 v 0 l -58.99,2.074 c -0.853,4.82 -5.037,8.481 -10.104,8.481 v 0 c -2.406,0 -4.593,-0.858 -6.346,-2.242 v 0 z m -300.929,-70.408 -1.121,91.939 c 3.151,0.633 5.821,2.565 7.478,5.196 v 0 l 92.271,-36.18 c -0.534,-1.586 -0.891,-3.263 -0.891,-5.034 v 0 c 0,-6.543 3.975,-12.153 9.638,-14.571 v 0 l -11.141,-38.499 c -0.653,0.09 -1.301,0.197 -1.977,0.197 v 0 c -7.328,0 -13.256,-5.726 -13.695,-12.943 v 0 l -62.712,-6.126 c -1.749,8.602 -8.966,15.133 -17.85,16.021 m -57.395,56.392 c 2.165,1.885 3.558,4.622 3.558,7.719 v 0 c 0,1.21 -0.248,2.355 -0.629,3.434 v 0 l 42.71,27.747 c 1.66,-1.737 3.853,-2.941 6.328,-3.382 v 0 l 1.119,-91.929 c -3.88,-0.44 -7.406,-1.949 -10.306,-4.264 v 0 c -16.898,18.079 -31.326,38.483 -42.78,60.675 m 355.658,10.629 25.053,-20.839 c -0.736,-1.42 -1.194,-3.006 -1.194,-4.719 v 0 c 0,-5.683 4.608,-10.287 10.289,-10.287 v 0 c 0.094,0 0.179,0.024 0.272,0.029 v 0 l 13.426,-55.343 c -3.486,-1.646 -5.908,-5.171 -5.908,-9.28 v 0 c 0,-1.533 0.361,-2.977 0.965,-4.289 v 0 C 551.202,62 536.738,53.28 521.467,45.973 v 0 C 517.933,51.943 511.498,56 504.057,56 v 0 c -2.8,0 -5.466,-0.567 -7.897,-1.594 v 0 l -21.63,38.559 c 3.185,2.523 5.268,6.376 5.268,10.754 v 0 c 0,4.676 -2.339,8.786 -5.897,11.279 v 0 l 27.424,57.096 c 2.06,-0.727 4.25,-1.199 6.56,-1.199 v 0 c 5.443,0 10.366,2.207 13.94,5.768 m -116.17,-149.395 8.99,110.96 c 4.462,0.663 7.963,4.157 8.629,8.62 v 0 c 26.693,3.172 51.203,13.52 71.556,29.081 v 0 c 0.821,-0.722 1.674,-1.402 2.606,-1.98 v 0 l -27.432,-57.108 c -1.268,0.387 -2.588,0.657 -3.981,0.657 v 0 c -7.608,0 -13.775,-6.169 -13.775,-13.779 v 0 c 0,-3.787 1.53,-7.21 4.005,-9.698 v 0 L 406.994,26.689 c -0.433,0.221 -0.874,0.419 -1.339,0.579 M 350.27,156.712 c 16.38,-6.722 34.23,-10.545 52.927,-10.873 v 0 c 0.039,-0.166 0.099,-0.322 0.147,-0.483 v 0 l -74.435,-38.344 c -1.3,1.778 -3.012,3.207 -4.995,4.193 v 0 l 11.205,38.726 c 0.666,-0.084 1.326,-0.196 2.017,-0.196 v 0 c 5.468,0 10.286,2.767 13.134,6.977 m 210.162,-14.839 c 2.704,1.305 4.738,3.751 5.487,6.728 v 0 l 59.07,-2.082 c 0.403,-3.095 1.775,-5.887 3.886,-7.974 v 0 C 615.202,118.337 598.819,100.128 580.324,84.329 v 0 c -1.743,1.347 -3.902,2.189 -6.272,2.189 v 0 c -0.067,0 -0.122,-0.018 -0.191,-0.018 v 0 z M 329.094,91.04 c 1.562,2.231 2.493,4.944 2.493,7.872 v 0 c 0,1.497 -0.295,2.904 -0.736,4.258 v 0 l 74.598,38.422 c 1.285,-1.461 2.967,-2.54 4.893,-3.083 v 0 L 401.369,27.8 c -1.801,-0.161 -3.483,-0.74 -4.896,-1.711 v 0 z M 238.359,78.229 c 2.142,3.177 3.388,6.995 3.439,11.098 v 0 l 62.741,6.126 c 1.351,-5.207 5.642,-9.192 11.022,-10.079 v 0 l -0.325,-43.081 c -2.8,-0.483 -5.213,-2.076 -6.748,-4.342 v 0 C 283.01,47.84 259.417,61.485 238.359,78.229 m 171.964,-54.294 49.444,67.581 c 1.877,-0.965 3.99,-1.568 6.256,-1.568 v 0 c 1.678,0 3.262,0.34 4.753,0.894 v 0 l 21.633,-38.559 c -5.213,-3.674 -8.639,-9.709 -8.639,-16.575 v 0 c 0,-1.45 0.169,-2.862 0.459,-4.228 v 0 C 461.377,24.495 437.236,20.529 412.273,19.927 v 0 c -0.347,1.491 -1.035,2.839 -1.95,4.008 m -83.105,7.497 c 0.018,0.256 0.075,0.489 0.075,0.752 v 0 c 0,4.801 -3.301,8.798 -7.748,9.937 v 0 l 0.325,43.229 c 2.314,0.35 4.426,1.257 6.213,2.605 v 0 l 67.438,-65.004 c -0.535,-0.878 -0.943,-1.837 -1.198,-2.857 v 0 c -22.541,1.102 -44.345,5.003 -65.105,11.338"
                 style="fill:url(#linearGradient95);stroke:none"
                 id="path97" /></g></g></g></g></g></g></svg>
