<svg width="263" height="100" viewBox="0 0 263 100" fill="none" xmlns="http://www.w3.org/2000/svg">
<rect width="82" height="100" rx="6" fill="#EDF5FF"/>
<path d="M45.041 53H42.849L41.953 50.152H37.985L37.105 53H34.961L38.705 41.832H41.329L45.041 53ZM41.441 48.344L40.001 43.752H39.921L38.497 48.344H41.441Z" fill="#161616"/>
<rect x="92" width="171" height="22" rx="8" fill="#EDF5FF"/>
<rect x="92.5" y="32.5" width="170" height="21" rx="7.5" fill="#EDF5FF" stroke="#4589FF"/>
<rect x="92" y="78" width="171" height="22" rx="8" fill="#EDF5FF"/>
<path d="M110.416 16H109.36L108.52 13.528H105.136L104.296 16H103.276L106.204 7.624H107.488L110.416 16ZM108.268 12.64L106.852 8.56H106.792L105.376 12.64H108.268ZM112.987 16H112.027V9.808H112.987V10.816H113.035C113.335 10.12 113.863 9.664 114.788 9.664C116.06 9.664 116.864 10.528 116.864 12.028V16H115.903V12.196C115.903 11.092 115.424 10.528 114.499 10.528C113.731 10.528 112.987 10.912 112.987 11.704V16ZM121.028 16.144C119.888 16.144 119.132 15.664 118.58 14.932L119.264 14.38C119.744 14.98 120.32 15.328 121.1 15.328C121.916 15.328 122.396 14.956 122.396 14.32C122.396 13.84 122.132 13.468 121.316 13.348L120.824 13.276C119.684 13.108 118.832 12.64 118.832 11.488C118.832 10.264 119.78 9.664 121.04 9.664C122.036 9.664 122.696 10.036 123.2 10.66L122.564 11.236C122.288 10.852 121.76 10.48 120.968 10.48C120.176 10.48 119.756 10.852 119.756 11.44C119.756 12.04 120.176 12.28 120.944 12.4L121.424 12.472C122.792 12.676 123.32 13.276 123.32 14.212C123.32 15.412 122.444 16.144 121.028 16.144ZM126.238 16L124.582 9.808H125.518L126.178 12.484L126.838 15.196H126.862L127.618 12.484L128.398 9.808H129.25L130.054 12.484L130.822 15.196H130.846L131.482 12.484L132.154 9.808H133.054L131.41 16H130.222L129.358 13.024L128.818 11.14H128.794L128.266 13.024L127.402 16H126.238ZM137.03 16.144C135.35 16.144 134.246 14.872 134.246 12.904C134.246 10.936 135.35 9.664 137.03 9.664C138.686 9.664 139.706 10.936 139.706 12.688V13.144H135.254V13.432C135.254 14.5 135.938 15.304 137.09 15.304C137.87 15.304 138.47 14.92 138.794 14.236L139.478 14.728C139.082 15.568 138.194 16.144 137.03 16.144ZM137.03 10.468C135.986 10.468 135.254 11.26 135.254 12.34V12.424H138.674V12.292C138.674 11.2 138.014 10.468 137.03 10.468ZM142.568 16H141.608V9.808H142.568V10.948H142.628C142.844 10.36 143.408 9.808 144.416 9.808H144.788V10.768H144.224C143.192 10.768 142.568 11.212 142.568 11.8V16ZM155.034 16H149.526V15.112H151.866V8.368H151.782L149.67 10.336L149.082 9.7L151.302 7.624H152.874V15.112H155.034V16Z" fill="#525252"/>
<path d="M110.416 48H109.36L108.52 45.528H105.136L104.296 48H103.276L106.204 39.624H107.488L110.416 48ZM108.268 44.64L106.852 40.56H106.792L105.376 44.64H108.268ZM112.987 48H112.027V41.808H112.987V42.816H113.035C113.335 42.12 113.863 41.664 114.788 41.664C116.06 41.664 116.864 42.528 116.864 44.028V48H115.903V44.196C115.903 43.092 115.424 42.528 114.499 42.528C113.731 42.528 112.987 42.912 112.987 43.704V48ZM121.028 48.144C119.888 48.144 119.132 47.664 118.58 46.932L119.264 46.38C119.744 46.98 120.32 47.328 121.1 47.328C121.916 47.328 122.396 46.956 122.396 46.32C122.396 45.84 122.132 45.468 121.316 45.348L120.824 45.276C119.684 45.108 118.832 44.64 118.832 43.488C118.832 42.264 119.78 41.664 121.04 41.664C122.036 41.664 122.696 42.036 123.2 42.66L122.564 43.236C122.288 42.852 121.76 42.48 120.968 42.48C120.176 42.48 119.756 42.852 119.756 43.44C119.756 44.04 120.176 44.28 120.944 44.4L121.424 44.472C122.792 44.676 123.32 45.276 123.32 46.212C123.32 47.412 122.444 48.144 121.028 48.144ZM126.238 48L124.582 41.808H125.518L126.178 44.484L126.838 47.196H126.862L127.618 44.484L128.398 41.808H129.25L130.054 44.484L130.822 47.196H130.846L131.482 44.484L132.154 41.808H133.054L131.41 48H130.222L129.358 45.024L128.818 43.14H128.794L128.266 45.024L127.402 48H126.238ZM137.03 48.144C135.35 48.144 134.246 46.872 134.246 44.904C134.246 42.936 135.35 41.664 137.03 41.664C138.686 41.664 139.706 42.936 139.706 44.688V45.144H135.254V45.432C135.254 46.5 135.938 47.304 137.09 47.304C137.87 47.304 138.47 46.92 138.794 46.236L139.478 46.728C139.082 47.568 138.194 48.144 137.03 48.144ZM137.03 42.468C135.986 42.468 135.254 43.26 135.254 44.34V44.424H138.674V44.292C138.674 43.2 138.014 42.468 137.03 42.468ZM142.568 48H141.608V41.808H142.568V42.948H142.628C142.844 42.36 143.408 41.808 144.416 41.808H144.788V42.768H144.224C143.192 42.768 142.568 43.212 142.568 43.8V48ZM154.866 47.112V48H149.37V46.968L152.106 44.448C152.886 43.728 153.486 42.888 153.486 42.084V41.94C153.486 41.016 152.97 40.38 151.938 40.38C150.906 40.38 150.426 41.004 150.198 41.796L149.298 41.448C149.622 40.464 150.366 39.48 151.986 39.48C153.618 39.48 154.554 40.488 154.554 41.916C154.554 43.212 153.786 44.124 152.718 45.084L150.462 47.112H154.866Z" fill="#525252"/>
<path d="M104.632 70.144C104.128 70.144 103.9 69.856 103.9 69.448V69.292C103.9 68.884 104.128 68.596 104.632 68.596C105.136 68.596 105.364 68.884 105.364 69.292V69.448C105.364 69.856 105.136 70.144 104.632 70.144ZM108.222 70.144C107.718 70.144 107.49 69.856 107.49 69.448V69.292C107.49 68.884 107.718 68.596 108.222 68.596C108.726 68.596 108.954 68.884 108.954 69.292V69.448C108.954 69.856 108.726 70.144 108.222 70.144ZM111.811 70.144C111.307 70.144 111.079 69.856 111.079 69.448V69.292C111.079 68.884 111.307 68.596 111.811 68.596C112.315 68.596 112.543 68.884 112.543 69.292V69.448C112.543 69.856 112.315 70.144 111.811 70.144ZM115.401 70.144C114.897 70.144 114.669 69.856 114.669 69.448V69.292C114.669 68.884 114.897 68.596 115.401 68.596C115.905 68.596 116.133 68.884 116.133 69.292V69.448C116.133 69.856 115.905 70.144 115.401 70.144Z" fill="black"/>
<path d="M110.416 94H109.36L108.52 91.528H105.136L104.296 94H103.276L106.204 85.624H107.488L110.416 94ZM108.268 90.64L106.852 86.56H106.792L105.376 90.64H108.268ZM112.987 94H112.027V87.808H112.987V88.816H113.035C113.335 88.12 113.863 87.664 114.788 87.664C116.06 87.664 116.864 88.528 116.864 90.028V94H115.903V90.196C115.903 89.092 115.424 88.528 114.499 88.528C113.731 88.528 112.987 88.912 112.987 89.704V94ZM121.028 94.144C119.888 94.144 119.132 93.664 118.58 92.932L119.264 92.38C119.744 92.98 120.32 93.328 121.1 93.328C121.916 93.328 122.396 92.956 122.396 92.32C122.396 91.84 122.132 91.468 121.316 91.348L120.824 91.276C119.684 91.108 118.832 90.64 118.832 89.488C118.832 88.264 119.78 87.664 121.04 87.664C122.036 87.664 122.696 88.036 123.2 88.66L122.564 89.236C122.288 88.852 121.76 88.48 120.968 88.48C120.176 88.48 119.756 88.852 119.756 89.44C119.756 90.04 120.176 90.28 120.944 90.4L121.424 90.472C122.792 90.676 123.32 91.276 123.32 92.212C123.32 93.412 122.444 94.144 121.028 94.144ZM126.238 94L124.582 87.808H125.518L126.178 90.484L126.838 93.196H126.862L127.618 90.484L128.398 87.808H129.25L130.054 90.484L130.822 93.196H130.846L131.482 90.484L132.154 87.808H133.054L131.41 94H130.222L129.358 91.024L128.818 89.14H128.794L128.266 91.024L127.402 94H126.238ZM137.03 94.144C135.35 94.144 134.246 92.872 134.246 90.904C134.246 88.936 135.35 87.664 137.03 87.664C138.686 87.664 139.706 88.936 139.706 90.688V91.144H135.254V91.432C135.254 92.5 135.938 93.304 137.09 93.304C137.87 93.304 138.47 92.92 138.794 92.236L139.478 92.728C139.082 93.568 138.194 94.144 137.03 94.144ZM137.03 88.468C135.986 88.468 135.254 89.26 135.254 90.34V90.424H138.674V90.292C138.674 89.2 138.014 88.468 137.03 88.468ZM142.568 94H141.608V87.808H142.568V88.948H142.628C142.844 88.36 143.408 87.808 144.416 87.808H144.788V88.768H144.224C143.192 88.768 142.568 89.212 142.568 89.8V94ZM154.674 94L151.614 88.888L150.606 87.028H150.57V94H149.586V85.624H150.75L153.81 90.736L154.818 92.596H154.854V85.624H155.838V94H154.674Z" fill="#525252"/>
<rect width="16" height="16" transform="translate(238 35)" fill="white" fill-opacity="0.01" style="mix-blend-mode:multiply"/>
<path d="M244.5 47L240 42.5L240.707 41.793L244.5 45.5855L251.293 38.793L252 39.5L244.5 47Z" fill="#0F62FE"/>
</svg>
