<?xml version="1.0" encoding="UTF-8" standalone="no"?>
<!-- Generator: Adobe Illustrator 22.1.0, SVG Export Plug-In . SVG Version: 6.00 Build 0)  -->

<svg
   version="1.1"
   id="Livello_1"
   x="0px"
   y="0px"
   viewBox="0 0 88.100002 26.602287"
   xml:space="preserve"
   width="88.099998"
   height="26.602287"
   xmlns="http://www.w3.org/2000/svg"
   xmlns:svg="http://www.w3.org/2000/svg"><defs
   id="defs19" />
<style
   type="text/css"
   id="style2">
	.st0{fill:#2D32AA;}
</style>
<title
   id="title4">logo double</title>
<desc
   id="desc6">Created with Sketch.</desc>
<g
   id="Symbols"
   transform="translate(-0.2,-3.222222)">
	<g
   id="logo-dark"
   transform="translate(0,-5)">
		<g
   id="logo-double"
   transform="translate(0,5)">
			<g
   id="nexi"
   transform="translate(0,3.222222)">
				<polygon
   id="Fill-36"
   class="st0"
   points="88.3,0.8 81.9,0.8 81.9,25.9 88.3,25.9 " />
				<path
   id="Fill-37"
   class="st0"
   d="M 12.5,0.1 C 6.5,0.1 0.2,2.2 0.2,2.2 V 26 H 6.8 V 6.6 c 0,0 2.3,-1 5.8,-1 4.3,0 6,2.3 6,5.9 v 14.4 h 6.5 c 0,-0.4 0,-14 0,-14.4 C 25.1,3.8 21.5,0.1 12.5,0.1" />
				<path
   id="Fill-38"
   class="st0"
   d="M 80.1,0.8 H 72.2 L 66.2,8.2 63,4 C 61.4,1.9 58.7,0.7 56.1,0.7 h -3.9 l 9.9,12.5 -10.2,12.7 h 7.8 l 6.4,-7.8 3.7,4.6 c 1.6,2.1 4.3,3.2 6.9,3.2 h 3.8 L 70.2,13 Z" />
				<path
   id="Fill-39"
   class="st0"
   d="m 40.6,5.5 c 2.9,0 5.3,1.3 6.2,3.6 l -13,2.3 C 34.5,7.6 37.2,5.5 40.6,5.5 M 53,21.1 48.7,17.6 c -1.4,1.6 -3.7,3.5 -7.5,3.5 -3,0 -5.7,-1.6 -6.9,-4.4 L 53.6,13.3 C 53.6,11.4 53.2,9.6 52.5,8 50.5,3.3 46,0 40.4,0 33,0 27.3,5.3 27.3,13.3 c 0,7.8 5.6,13.3 13.8,13.3 6.3,0.1 10,-3.1 11.9,-5.5" />
			</g>
		</g>
	</g>
</g>
</svg>
