<svg width="199" height="96" viewBox="0 0 199 96" fill="none" xmlns="http://www.w3.org/2000/svg">
<g opacity="0.9">
<rect x="0.588867" width="61.8305" height="96" rx="6" fill="#A6C8FF"/>
<path d="M35.7906 52.168H33.5985L32.7026 49.32H28.7345L27.8545 52.168H25.7105L29.4546 41H32.0786L35.7906 52.168ZM32.1906 47.512L30.7506 42.92H30.6706L29.2466 47.512H32.1906Z" fill="#0043CE"/>
<rect x="69.96" width="128.939" height="20.9109" rx="8" fill="#A6C8FF"/>
<rect x="70.56" y="31.9662" width="127.739" height="19.7109" rx="7.4" fill="#A6C8FF" stroke="white" stroke-width="1.2"/>
<rect x="69.96" y="75.0889" width="128.939" height="20.9109" rx="8" fill="#A6C8FF"/>
<path d="M85.6709 15.8506H84.6149L83.7749 13.3786H80.3909L79.5509 15.8506H78.5309L81.4589 7.47459H82.7429L85.6709 15.8506ZM83.5229 12.4906L82.1069 8.41059H82.0469L80.6309 12.4906H83.5229ZM88.2424 15.8506H87.2824V9.65859H88.2424V10.6666H88.2904C88.5904 9.97059 89.1184 9.51459 90.0424 9.51459C91.3144 9.51459 92.1184 10.3786 92.1184 11.8786V15.8506H91.1584V12.0466C91.1584 10.9426 90.6784 10.3786 89.7544 10.3786C88.9864 10.3786 88.2424 10.7626 88.2424 11.5546V15.8506ZM96.2827 15.9946C95.1427 15.9946 94.3867 15.5146 93.8347 14.7826L94.5187 14.2306C94.9987 14.8306 95.5747 15.1786 96.3547 15.1786C97.1707 15.1786 97.6507 14.8066 97.6507 14.1706C97.6507 13.6906 97.3867 13.3186 96.5707 13.1986L96.0787 13.1266C94.9387 12.9586 94.0867 12.4906 94.0867 11.3386C94.0867 10.1146 95.0347 9.51459 96.2947 9.51459C97.2907 9.51459 97.9507 9.88659 98.4547 10.5106L97.8187 11.0866C97.5427 10.7026 97.0147 10.3306 96.2227 10.3306C95.4307 10.3306 95.0107 10.7026 95.0107 11.2906C95.0107 11.8906 95.4307 12.1306 96.1987 12.2506L96.6787 12.3226C98.0467 12.5266 98.5747 13.1266 98.5747 14.0626C98.5747 15.2626 97.6987 15.9946 96.2827 15.9946ZM101.493 15.8506L99.8369 9.65859H100.773L101.433 12.3346L102.093 15.0466H102.117L102.873 12.3346L103.653 9.65859H104.505L105.309 12.3346L106.077 15.0466H106.101L106.737 12.3346L107.409 9.65859H108.309L106.665 15.8506H105.477L104.613 12.8746L104.073 10.9906H104.049L103.521 12.8746L102.657 15.8506H101.493ZM112.285 15.9946C110.605 15.9946 109.501 14.7226 109.501 12.7546C109.501 10.7866 110.605 9.51459 112.285 9.51459C113.941 9.51459 114.961 10.7866 114.961 12.5386V12.9946H110.509V13.2826C110.509 14.3506 111.193 15.1546 112.345 15.1546C113.125 15.1546 113.725 14.7706 114.049 14.0866L114.733 14.5786C114.337 15.4186 113.449 15.9946 112.285 15.9946ZM112.285 10.3186C111.241 10.3186 110.509 11.1106 110.509 12.1906V12.2746H113.929V12.1426C113.929 11.0506 113.269 10.3186 112.285 10.3186ZM117.823 15.8506H116.863V9.65859H117.823V10.7986H117.883C118.099 10.2106 118.663 9.65859 119.671 9.65859H120.043V10.6186H119.479C118.447 10.6186 117.823 11.0626 117.823 11.6506V15.8506ZM130.289 15.8506H124.781V14.9626H127.121V8.21859H127.037L124.925 10.1866L124.337 9.55059L126.557 7.47459H128.129V14.9626H130.289V15.8506Z" fill="#0043CE"/>
<path d="M85.6709 46.2676H84.6149L83.7749 43.7956H80.3909L79.5509 46.2676H78.5309L81.4589 37.8916H82.7429L85.6709 46.2676ZM83.5229 42.9076L82.1069 38.8276H82.0469L80.6309 42.9076H83.5229ZM88.2424 46.2676H87.2824V40.0756H88.2424V41.0836H88.2904C88.5904 40.3876 89.1184 39.9316 90.0424 39.9316C91.3144 39.9316 92.1184 40.7956 92.1184 42.2956V46.2676H91.1584V42.4636C91.1584 41.3596 90.6784 40.7956 89.7544 40.7956C88.9864 40.7956 88.2424 41.1796 88.2424 41.9716V46.2676ZM96.2827 46.4116C95.1427 46.4116 94.3867 45.9316 93.8347 45.1996L94.5187 44.6476C94.9987 45.2476 95.5747 45.5956 96.3547 45.5956C97.1707 45.5956 97.6507 45.2236 97.6507 44.5876C97.6507 44.1076 97.3867 43.7356 96.5707 43.6156L96.0787 43.5436C94.9387 43.3756 94.0867 42.9076 94.0867 41.7556C94.0867 40.5316 95.0347 39.9316 96.2947 39.9316C97.2907 39.9316 97.9507 40.3036 98.4547 40.9276L97.8187 41.5036C97.5427 41.1196 97.0147 40.7476 96.2227 40.7476C95.4307 40.7476 95.0107 41.1196 95.0107 41.7076C95.0107 42.3076 95.4307 42.5476 96.1987 42.6676L96.6787 42.7396C98.0467 42.9436 98.5747 43.5436 98.5747 44.4796C98.5747 45.6796 97.6987 46.4116 96.2827 46.4116ZM101.493 46.2676L99.8369 40.0756H100.773L101.433 42.7516L102.093 45.4636H102.117L102.873 42.7516L103.653 40.0756H104.505L105.309 42.7516L106.077 45.4636H106.101L106.737 42.7516L107.409 40.0756H108.309L106.665 46.2676H105.477L104.613 43.2916L104.073 41.4076H104.049L103.521 43.2916L102.657 46.2676H101.493ZM112.285 46.4116C110.605 46.4116 109.501 45.1396 109.501 43.1716C109.501 41.2036 110.605 39.9316 112.285 39.9316C113.941 39.9316 114.961 41.2036 114.961 42.9556V43.4116H110.509V43.6996C110.509 44.7676 111.193 45.5716 112.345 45.5716C113.125 45.5716 113.725 45.1876 114.049 44.5036L114.733 44.9956C114.337 45.8356 113.449 46.4116 112.285 46.4116ZM112.285 40.7356C111.241 40.7356 110.509 41.5276 110.509 42.6076V42.6916H113.929V42.5596C113.929 41.4676 113.269 40.7356 112.285 40.7356ZM117.823 46.2676H116.863V40.0756H117.823V41.2156H117.883C118.099 40.6276 118.663 40.0756 119.671 40.0756H120.043V41.0356H119.479C118.447 41.0356 117.823 41.4796 117.823 42.0676V46.2676ZM130.121 45.3796V46.2676H124.625V45.2356L127.361 42.7156C128.141 41.9956 128.741 41.1556 128.741 40.3516V40.2076C128.741 39.2836 128.225 38.6476 127.193 38.6476C126.161 38.6476 125.681 39.2716 125.453 40.0636L124.553 39.7156C124.877 38.7316 125.621 37.7476 127.241 37.7476C128.873 37.7476 129.809 38.7556 129.809 40.1836C129.809 41.4796 129.041 42.3916 127.973 43.3516L125.717 45.3796H130.121Z" fill="#0043CE"/>
<path d="M79.8869 68.2729C79.3829 68.2729 79.1549 67.9849 79.1549 67.5769V67.4209C79.1549 67.0129 79.3829 66.7249 79.8869 66.7249C80.3909 66.7249 80.6189 67.0129 80.6189 67.4209V67.5769C80.6189 67.9849 80.3909 68.2729 79.8869 68.2729ZM83.4764 68.2729C82.9724 68.2729 82.7444 67.9849 82.7444 67.5769V67.4209C82.7444 67.0129 82.9724 66.7249 83.4764 66.7249C83.9804 66.7249 84.2084 67.0129 84.2084 67.4209V67.5769C84.2084 67.9849 83.9804 68.2729 83.4764 68.2729ZM87.0659 68.2729C86.5619 68.2729 86.3339 67.9849 86.3339 67.5769V67.4209C86.3339 67.0129 86.5619 66.7249 87.0659 66.7249C87.5699 66.7249 87.7979 67.0129 87.7979 67.4209V67.5769C87.7979 67.9849 87.5699 68.2729 87.0659 68.2729ZM90.6555 68.2729C90.1515 68.2729 89.9235 67.9849 89.9235 67.5769V67.4209C89.9235 67.0129 90.1515 66.7249 90.6555 66.7249C91.1595 66.7249 91.3875 67.0129 91.3875 67.4209V67.5769C91.3875 67.9849 91.1595 68.2729 90.6555 68.2729Z" fill="white"/>
<path d="M85.6709 90.9414H84.6149L83.7749 88.4694H80.3909L79.5509 90.9414H78.5309L81.4589 82.5654H82.7429L85.6709 90.9414ZM83.5229 87.5814L82.1069 83.5014H82.0469L80.6309 87.5814H83.5229ZM88.2424 90.9414H87.2824V84.7494H88.2424V85.7574H88.2904C88.5904 85.0614 89.1184 84.6054 90.0424 84.6054C91.3144 84.6054 92.1184 85.4694 92.1184 86.9694V90.9414H91.1584V87.1374C91.1584 86.0334 90.6784 85.4694 89.7544 85.4694C88.9864 85.4694 88.2424 85.8534 88.2424 86.6454V90.9414ZM96.2827 91.0854C95.1427 91.0854 94.3867 90.6054 93.8347 89.8734L94.5187 89.3214C94.9987 89.9214 95.5747 90.2694 96.3547 90.2694C97.1707 90.2694 97.6507 89.8974 97.6507 89.2614C97.6507 88.7814 97.3867 88.4094 96.5707 88.2894L96.0787 88.2174C94.9387 88.0494 94.0867 87.5814 94.0867 86.4294C94.0867 85.2054 95.0347 84.6054 96.2947 84.6054C97.2907 84.6054 97.9507 84.9774 98.4547 85.6014L97.8187 86.1774C97.5427 85.7934 97.0147 85.4214 96.2227 85.4214C95.4307 85.4214 95.0107 85.7934 95.0107 86.3814C95.0107 86.9814 95.4307 87.2214 96.1987 87.3414L96.6787 87.4134C98.0467 87.6174 98.5747 88.2174 98.5747 89.1534C98.5747 90.3534 97.6987 91.0854 96.2827 91.0854ZM101.493 90.9414L99.8369 84.7494H100.773L101.433 87.4254L102.093 90.1374H102.117L102.873 87.4254L103.653 84.7494H104.505L105.309 87.4254L106.077 90.1374H106.101L106.737 87.4254L107.409 84.7494H108.309L106.665 90.9414H105.477L104.613 87.9654L104.073 86.0814H104.049L103.521 87.9654L102.657 90.9414H101.493ZM112.285 91.0854C110.605 91.0854 109.501 89.8134 109.501 87.8454C109.501 85.8774 110.605 84.6054 112.285 84.6054C113.941 84.6054 114.961 85.8774 114.961 87.6294V88.0854H110.509V88.3734C110.509 89.4414 111.193 90.2454 112.345 90.2454C113.125 90.2454 113.725 89.8614 114.049 89.1774L114.733 89.6694C114.337 90.5094 113.449 91.0854 112.285 91.0854ZM112.285 85.4094C111.241 85.4094 110.509 86.2014 110.509 87.2814V87.3654H113.929V87.2334C113.929 86.1414 113.269 85.4094 112.285 85.4094ZM117.823 90.9414H116.863V84.7494H117.823V85.8894H117.883C118.099 85.3014 118.663 84.7494 119.671 84.7494H120.043V85.7094H119.479C118.447 85.7094 117.823 86.1534 117.823 86.7414V90.9414ZM129.929 90.9414L126.869 85.8294L125.861 83.9694H125.825V90.9414H124.841V82.5654H126.005L129.065 87.6774L130.073 89.5374H130.109V82.5654H131.093V90.9414H129.929Z" fill="#0043CE"/>
<rect width="16.1708" height="15.2079" transform="translate(175.018 34.2178)" fill="white" fill-opacity="0.01" style="mix-blend-mode:multiply"/>
<path d="M181.587 45.624L177.039 41.3467L177.754 40.6747L181.587 44.2795L188.453 37.8232L189.167 38.4952L181.587 45.624Z" fill="white"/>
</g>
</svg>
