<svg width="195" height="96" viewBox="0 0 195 96" fill="none" xmlns="http://www.w3.org/2000/svg">
<g opacity="0.9">
<rect width="195" height="43.1022" rx="12" fill="#A6C8FF"/>
<rect x="0.6" y="53.4975" width="193.8" height="41.9022" rx="11.4" fill="#A6C8FF" stroke="white" stroke-width="1.2"/>
<path d="M102.541 27.7754H100.349L99.453 24.9274H95.485L94.605 27.7754H92.461L96.205 16.6074H98.829L102.541 27.7754ZM98.941 23.1194L97.501 18.5274H97.421L95.997 23.1194H98.941Z" fill="#0F62FE"/>
<path d="M93.5073 81.6533V70.4853H98.6753C100.515 70.4853 101.635 71.6213 101.635 73.3493C101.635 75.0453 100.659 75.6853 99.6353 75.7493V75.8453C100.611 75.8613 102.051 76.5493 102.051 78.4533C102.051 80.2453 100.819 81.6533 99.1713 81.6533H93.5073ZM95.6193 76.8693V79.8613H98.5633C99.3633 79.8613 99.8433 79.4293 99.8433 78.6453V78.1013C99.8433 77.3173 99.3633 76.8693 98.5633 76.8693H95.6193ZM95.6193 72.2773V75.1413H98.2273C98.9953 75.1413 99.4433 74.6933 99.4433 73.9573V73.4613C99.4433 72.7093 98.9953 72.2773 98.2273 72.2773H95.6193Z" fill="#0F62FE"/>
<rect width="16" height="15.6735" transform="translate(167 67.5928)" fill="white" fill-opacity="0.01" style="mix-blend-mode:multiply"/>
<path d="M170.5 75.4299H168V82.287H170.5V75.4299Z" fill="white"/>
<path d="M178.5 82.287H171.5V75.0367L173.021 72.8015L173.444 69.9036C173.479 69.6706 173.598 69.4576 173.779 69.3032C173.961 69.1489 174.193 69.0635 174.434 69.0625H174.5C174.898 69.0629 175.279 69.2179 175.56 69.4933C175.841 69.7688 176 70.1423 176 70.5319V73.4707H180C180.53 73.4713 181.039 73.6779 181.414 74.0452C181.788 74.4124 181.999 74.9104 182 75.4299V78.8584C181.999 79.7675 181.63 80.6389 180.974 81.2817C180.318 81.9245 179.428 82.286 178.5 82.287Z" fill="white"/>
</g>
</svg>
