<svg width="261" height="90" viewBox="0 0 261 90" fill="none" xmlns="http://www.w3.org/2000/svg">
<rect width="261" height="37" rx="12" fill="#EDF5FF"/>
<rect x="0.5" y="53.5" width="260" height="36" rx="11.5" fill="#EDF5FF" stroke="#0F62FE"/>
<path d="M135.541 24H133.349L132.453 21.152H128.485L127.605 24H125.461L129.205 12.832H131.829L135.541 24ZM131.941 19.344L130.501 14.752H130.421L128.997 19.344H131.941Z" fill="#525252"/>
<path d="M126.507 78V66.832H131.675C133.515 66.832 134.635 67.968 134.635 69.696C134.635 71.392 133.659 72.032 132.635 72.096V72.192C133.611 72.208 135.051 72.896 135.051 74.8C135.051 76.592 133.819 78 132.171 78H126.507ZM128.619 73.216V76.208H131.563C132.363 76.208 132.843 75.776 132.843 74.992V74.448C132.843 73.664 132.363 73.216 131.563 73.216H128.619ZM128.619 68.624V71.488H131.227C131.995 71.488 132.443 71.04 132.443 70.304V69.808C132.443 69.056 131.995 68.624 131.227 68.624H128.619Z" fill="#525252"/>
<rect width="16" height="16" transform="translate(229 64)" fill="white" fill-opacity="0.01" style="mix-blend-mode:multiply"/>
<path d="M232.5 72H230V79H232.5V72Z" fill="#4589FF"/>
<path d="M240.5 79H233.5V71.5986L235.021 69.3169L235.444 66.3586C235.479 66.1208 235.598 65.9033 235.779 65.7457C235.961 65.5882 236.193 65.501 236.434 65.5H236.5C236.898 65.5004 237.279 65.6586 237.56 65.9398C237.841 66.221 238 66.6023 238 67V70H242C242.53 70.0006 243.039 70.2115 243.414 70.5864C243.788 70.9614 243.999 71.4697 244 72V75.5C243.999 76.4279 243.63 77.3176 242.974 77.9737C242.318 78.6299 241.428 78.999 240.5 79Z" fill="#4589FF"/>
</svg>
