<?xml version="1.0" standalone="no"?>
<!DOCTYPE svg PUBLIC "-//W3C//DTD SVG 20010904//EN"
 "http://www.w3.org/TR/2001/REC-SVG-20010904/DTD/svg10.dtd">
<svg version="1.0" xmlns="http://www.w3.org/2000/svg"
 width="628.000000pt" height="610.000000pt" viewBox="0 0 628.000000 610.000000"
 preserveAspectRatio="xMidYMid meet">

<g transform="translate(0.000000,610.000000) scale(0.100000,-0.100000)"
fill="#000000" stroke="none">
<path d="M2260 6085 c0 -3 66 -123 146 -268 81 -144 223 -401 317 -572 93
-170 200 -364 237 -430 37 -66 127 -228 199 -359 l131 -239 0 -784 0 -783 175
0 175 0 2 460 3 460 114 -203 c63 -111 151 -267 195 -347 147 -268 185 -335
198 -353 12 -16 31 -17 201 -15 l187 3 -121 220 c-66 121 -141 258 -166 305
-25 47 -50 90 -55 97 -7 9 -3 14 14 17 109 23 140 32 190 59 158 82 238 258
210 461 -23 173 -117 287 -291 353 -105 40 -214 53 -441 53 l-205 1 -105 191
c-58 106 -188 341 -289 523 -101 181 -280 506 -398 720 -118 215 -221 400
-229 413 -14 22 -18 22 -204 22 -105 0 -190 -2 -190 -5z m1860 -2192 c85 -38
124 -115 101 -201 -17 -63 -101 -123 -171 -122 -9 1 -51 67 -105 166 -49 91
-92 170 -94 176 -7 20 217 5 269 -19z"/>
<path d="M650 3435 l0 -785 175 0 175 0 0 305 0 305 325 0 325 0 0 160 0 160
-325 0 -325 0 0 160 0 160 350 0 350 0 0 160 0 160 -525 0 -525 0 0 -785z"/>
<path d="M1970 3435 l0 -785 540 0 540 0 0 160 0 160 -365 0 -365 0 0 160 0
160 325 0 325 0 0 160 0 160 -325 0 -325 0 0 145 0 145 355 0 355 0 0 160 0
160 -530 0 -530 0 0 -785z"/>
<path d="M4810 3435 l0 -785 170 0 170 0 2 555 c2 335 7 555 12 556 5 1 141
-248 301 -553 l291 -553 227 -3 227 -2 0 785 0 785 -170 0 -170 0 0 -540 c0
-297 -3 -540 -7 -540 -5 0 -134 243 -288 540 l-280 539 -242 1 -243 0 0 -785z"/>
<path d="M4623 2478 c-4 -7 -157 -283 -339 -613 l-331 -600 -156 -3 -157 -3 0
601 0 600 -175 0 -175 0 0 -760 0 -760 436 2 435 3 94 170 93 170 285 5 285 5
-60 108 c-35 62 -57 112 -52 117 5 5 72 34 149 64 77 30 139 59 138 64 -1 6
-63 120 -137 253 -73 134 -177 322 -229 417 -65 118 -98 169 -104 160z m137
-917 c0 -7 -45 -11 -130 -11 -71 0 -130 3 -130 7 0 6 33 67 102 191 l30 53 64
-115 c35 -63 64 -120 64 -125z"/>
<path d="M5208 1953 l-3 -508 140 -255 141 -255 181 -3 c130 -2 202 2 252 12
147 31 256 109 313 224 32 64 33 70 33 192 0 117 -2 129 -29 187 -43 93 -160
192 -228 193 -30 0 -20 16 22 35 51 23 124 101 153 162 17 39 21 66 22 148 0
87 -4 107 -26 155 -34 73 -76 120 -137 153 -101 55 -139 60 -499 65 l-332 4
-3 -509z m612 225 c65 -34 85 -67 85 -141 0 -49 -5 -69 -23 -95 -41 -57 -71
-66 -229 -70 l-143 -4 0 166 0 166 133 0 c118 0 138 -3 177 -22z m-27 -608
c120 -19 177 -72 177 -162 0 -62 -19 -107 -59 -141 -47 -39 -90 -47 -253 -47
l-148 0 0 180 0 180 113 0 c61 0 138 -4 170 -10z"/>
<path d="M2850 2175 c0 -24 3 -25 60 -25 33 0 60 -3 60 -6 0 -3 -29 -41 -65
-84 -43 -52 -65 -87 -65 -104 l0 -26 105 0 c105 0 105 0 105 25 0 23 -3 24
-66 27 l-67 3 67 81 c44 55 66 90 66 108 l0 26 -100 0 -100 0 0 -25z"/>
<path d="M820 2055 l0 -135 30 0 30 0 0 60 0 60 55 0 55 0 0 -60 0 -60 30 0
30 0 0 135 0 135 -30 0 c-29 0 -30 -1 -30 -50 l0 -50 -55 0 -55 0 0 50 c0 49
-1 50 -30 50 l-30 0 0 -135z"/>
<path d="M1100 2055 l0 -135 95 0 c95 0 95 0 95 25 0 24 -2 25 -65 25 l-65 0
0 30 c0 30 0 30 59 30 57 0 58 1 53 25 -4 23 -9 25 -58 25 -53 0 -54 0 -54 30
l0 30 60 0 c57 0 60 1 60 25 0 25 -1 25 -90 25 l-90 0 0 -135z"/>
<path d="M1340 2055 l0 -135 85 0 c84 0 85 0 85 25 0 24 -3 25 -55 25 l-55 0
0 110 0 110 -30 0 -30 0 0 -135z"/>
<path d="M1540 2055 l0 -135 30 0 30 0 1 93 1 92 31 -92 c27 -80 34 -93 53
-93 19 0 27 14 57 103 l35 102 1 -102 1 -103 30 0 30 0 0 136 0 135 -47 -3
-46 -3 -26 -77 c-14 -42 -28 -79 -31 -82 -3 -3 -19 33 -34 80 l-29 84 -43 0
-44 0 0 -135z"/>
<path d="M1890 2055 l0 -135 30 0 30 0 0 60 0 60 55 0 55 0 0 -60 0 -60 30 0
30 0 0 135 0 135 -30 0 c-29 0 -30 -1 -30 -50 l0 -50 -55 0 -55 0 0 50 c0 49
-1 50 -30 50 l-30 0 0 -135z"/>
<path d="M2209 2167 c-41 -28 -63 -85 -53 -140 25 -154 264 -148 281 7 7 55
-9 98 -49 131 -41 34 -130 35 -179 2z m141 -45 c13 -10 23 -33 27 -59 5 -35 2
-45 -20 -67 -46 -46 -117 -32 -136 27 -28 83 63 152 129 99z"/>
<path d="M2490 2055 l0 -135 85 0 c84 0 85 0 85 25 0 24 -3 25 -55 25 l-55 0
0 110 0 110 -30 0 -30 0 0 -135z"/>
<path d="M2620 2165 c0 -22 4 -25 40 -25 l40 0 0 -110 0 -110 30 0 30 0 0 110
0 110 35 0 c31 0 35 3 35 25 l0 25 -105 0 -105 0 0 -25z"/>
<path d="M2800 1575 l0 -135 30 0 29 0 3 91 3 91 55 -91 c54 -89 56 -91 93
-91 l37 0 0 135 0 135 -30 0 -30 0 0 -92 0 -93 -57 93 c-55 90 -57 92 -94 92
l-39 0 0 -135z"/>
<path d="M660 1565 l0 -135 30 0 30 0 0 135 0 135 -30 0 -30 0 0 -135z"/>
<path d="M760 1565 l0 -135 30 0 29 0 3 91 3 91 55 -91 c54 -89 56 -91 93 -91
l37 0 0 135 0 135 -30 0 -30 0 0 -92 0 -93 -57 93 c-55 90 -57 92 -94 92 l-39
0 0 -135z"/>
<path d="M1070 1565 l0 -135 30 0 29 0 3 91 3 91 55 -91 c54 -89 56 -91 93
-91 l37 0 0 135 0 135 -30 0 -30 0 0 -92 0 -93 -57 93 c-55 90 -57 92 -94 92
l-39 0 0 -135z"/>
<path d="M1409 1677 c-41 -28 -63 -85 -53 -140 25 -154 264 -148 281 7 7 55
-9 98 -49 131 -41 34 -130 35 -179 2z m141 -45 c13 -10 23 -33 27 -59 5 -35 2
-45 -20 -67 -46 -46 -117 -32 -136 27 -28 83 63 152 129 99z"/>
<path d="M1677 1658 c86 -217 89 -223 114 -226 23 -3 28 5 72 115 25 65 49
126 53 136 5 14 1 17 -23 17 -28 0 -32 -5 -63 -85 -18 -47 -34 -85 -36 -85 -1
0 -17 38 -35 85 -31 83 -32 85 -65 85 l-34 0 17 -42z"/>
<path d="M1971 1598 c-24 -57 -50 -118 -57 -135 l-14 -33 33 0 c27 0 35 5 44
30 11 28 15 30 63 30 48 0 52 -2 63 -30 10 -25 17 -30 45 -30 19 0 32 4 30 8
-1 5 -28 66 -58 135 -50 115 -57 127 -80 127 -23 0 -30 -11 -69 -102z m87 -28
c11 -29 10 -30 -19 -30 -16 0 -29 2 -29 4 0 1 5 17 11 34 13 37 23 34 37 -8z"/>
<path d="M2140 1675 c0 -22 4 -25 40 -25 l40 0 0 -110 0 -110 30 0 30 0 0 110
0 110 35 0 c31 0 35 3 35 25 l0 25 -105 0 -105 0 0 -25z"/>
<path d="M2380 1565 l0 -135 30 0 30 0 0 135 0 135 -30 0 -30 0 0 -135z"/>
<path d="M2529 1677 c-41 -28 -63 -85 -53 -140 25 -154 264 -148 281 7 7 55
-9 98 -49 131 -41 34 -130 35 -179 2z m141 -45 c13 -10 23 -33 27 -59 5 -35 2
-45 -20 -67 -46 -46 -117 -32 -136 27 -28 83 63 152 129 99z"/>
<path d="M2360 1085 l0 -135 85 0 c84 0 85 0 85 25 0 24 -3 25 -55 25 l-55 0
0 110 0 110 -30 0 -30 0 0 -135z"/>
<path d="M2621 1118 c-24 -57 -50 -118 -57 -135 l-14 -33 33 0 c27 0 35 5 44
30 11 28 15 30 63 30 48 0 52 -2 63 -30 10 -25 17 -30 45 -30 19 0 32 4 30 8
-1 5 -28 66 -58 135 -50 115 -57 127 -80 127 -23 0 -30 -11 -69 -102z m87 -28
c11 -29 10 -30 -19 -30 -16 0 -29 2 -29 4 0 1 5 17 11 34 13 37 23 34 37 -8z"/>
<path d="M2850 1085 l0 -135 65 0 c81 0 132 20 141 54 8 33 -3 64 -27 77 -19
10 -19 10 1 36 26 33 25 49 -5 78 -21 22 -33 25 -100 25 l-75 0 0 -135z m131
69 c11 -14 10 -18 -6 -30 -10 -8 -29 -14 -42 -14 -19 0 -23 5 -23 30 0 26 3
30 29 30 16 0 35 -7 42 -16z m15 -109 c10 -24 -15 -45 -52 -45 -31 0 -34 3
-34 30 0 28 2 30 40 30 27 0 43 -5 46 -15z"/>
</g>
</svg>
