<svg width="24" height="24" viewBox="0 0 24 24" fill="none" xmlns="http://www.w3.org/2000/svg">
<rect x="1" y="1" width="22" height="22" rx="11" fill="#8D9095"/>
<path d="M4 12C4 10.8954 4.89543 10 6 10V10C7.10457 10 8 10.8954 8 12V12C8 13.1046 7.10457 14 6 14V14C4.89543 14 4 13.1046 4 12V12Z" fill="white"/>
<path d="M10 12C10 10.8954 10.8954 10 12 10V10C13.1046 10 14 10.8954 14 12V12C14 13.1046 13.1046 14 12 14V14C10.8954 14 10 13.1046 10 12V12Z" fill="white"/>
<path d="M16 12C16 10.8954 16.8954 10 18 10V10C19.1046 10 20 10.8954 20 12V12C20 13.1046 19.1046 14 18 14V14C16.8954 14 16 13.1046 16 12V12Z" fill="white"/>
</svg>
