<?xml version="1.0" encoding="UTF-8"?>
<svg id="Layer_1" data-name="Layer 1" xmlns="http://www.w3.org/2000/svg" viewBox="0 0 196 196">
  <defs>
    <style>
      .cls-1 {
        fill: #fff;
      }

      .cls-2 {
        fill: #4588c7;
      }
    </style>
  </defs>
  <rect width="196" height="196"/>
  <g id="termux">
    <path class="cls-1" d="M35.96,156.99l39.15-52.32-39.15-52.31h19.57l39.14,51.77c.32.59.04,1.14-.37,1.61l-38.55,51.25h-19.8Z"/>
    <rect class="cls-1" x="108.29" y="144.16" width="58.83" height="12.83"/>
  </g>
  <g id="icon">
    <g id="icon-2">
      <path class="cls-2" d="M124.32,73.84v-10.74h-16.03v-10.74h37.43v10.74h-11.69c-2.66,0-5.09,1.5-6.28,3.88-1.14,2.29-2.29,4.57-3.43,6.86h0Z"/>
      <path class="cls-1" d="M124.32,73.84c0-5.95,2.09-11.01,6.28-15.2,4.18-4.18,9.25-6.28,15.2-6.28h21.33v10.74h-21.33c-3.02,0-5.57,1.06-7.64,3.18-2.07,2.12-3.1,4.64-3.1,7.56v21.48h-10.74v-21.48h0Z"/>
    </g>
  </g>
</svg>