<?xml version="1.0" encoding="UTF-8"?>
<svg id="Layer_2" data-name="Layer 2" xmlns="http://www.w3.org/2000/svg" viewBox="0 0 1280 640">
  <defs>
    <linearGradient id='a' gradientUnits='objectBoundingBox' x1='0' y1='0' x2='1' y2='1'>
      <stop offset='0' stop-color='#ff00ff'>
        <animate attributeName="stop-color"
          values="#ff00ff;#af00ff;#5f00ff;#0090ff;#00ffff;#00ff00;#99ff00;#ffff00;#ff8800;#ff0000;#ff00ff;"
          dur="20s" repeatCount="indefinite">
        </animate>
      </stop>
      <stop offset='10' stop-color='#af00ff'>
        <animate attributeName="stop-color"
          values="#af00ff;#5f00ff;#0088ff;#00ffff;#00ff00;#99ff00;#ffff00;#ff8800;#ff0000;#ff00ff;#af00ff;"
          dur="20s" repeatCount="indefinite">
        </animate>
      </stop>
      <stop offset='20' stop-color='#5f00ff'>
        <animate attributeName="stop-color"
          values="#5f00ff;#0090ff;#00ffff;#00ff00;#99ff00;#ffff00;#ff8800;#ff0000;#ff00ff;#af00ff;#5f00ff;"
          dur="20s" repeatCount="indefinite">
        </animate>
      </stop>
      <animateTransform attributeName="gradientTransform" type="rotate" from="0 .5 .5"
        to="360 .5 .5"
        dur="20s" repeatCount="indefinite" />
    </linearGradient>
    <linearGradient id='b' gradientUnits='objectBoundingBox' x1='0' y1='1' x2='1' y2='1'>
      <stop offset='0' stop-color='#ff00ff'>
        <animate attributeName="stop-color"
          values="#ff00ff;#af00ff;#5f00ff;#0090ff;#00ffff;#00ff00;#99ff00;#ffff00;#ff8800;#ff0000;#ff00ff;"
          dur="20s" repeatCount="indefinite">
        </animate>
      </stop>
      <stop offset='20' stop-color='#af00ff' stop-opacity="10">
        <animate attributeName="stop-color"
          values="#af00ff;#5f00ff;#0088ff;#00ffff;#00ff00;#99ff00;#ffff00;#ff8800;#ff0000;#ff00ff;#af00ff;"
          dur="20s" repeatCount="indefinite">
        </animate>
      </stop>
      <animateTransform attributeName="gradientTransform" type="rotate"
        values="360 .5 .5;0 .5 .5" class="ignore"
        dur="20s" repeatCount="indefinite" />
    </linearGradient>
    <style>
      .dark-brown{
      fill: #512c08;
      }

      .brass-lock {
      fill: #ffcb37;
      }

      .light-brown {
      fill: #925711;
      }

      .yellow {
      fill: #fae742;
      }

      .grey {
      fill: #8d8d8d;
      }
    </style>
  </defs>
  <path id="brown-light" class="light-brown"
    d="M138.71,315.43c-5.86,2.21-11.92,3.85-18.09,4.87l-.75-9.03c3.13.83,6.33,1.37,9.57,1.56,3.65.2,7.27.86,10.76,1.95-.46.23-.97.44-1.48.65h0ZM179.13,324.88c.04.15.18.26.33.25,5.47.42,9.82.43,15.11.43l.41-4.88c-6.33.21-11.07,1.38-15.55,3.79-.16.08-.33.18-.28.4h0ZM134.84,300.97h9.84v-4.92h-26.09l.41,4.92h15.84ZM175.87,314.55c-.1,2.56-1.46,4.91-3.64,6.26-3.87,2.53-8.32,4.04-12.94,4.39-1,.12-2.01.24-3.01.35-3.21.24-6.38.81-9.47,1.69-1.69.55-5.32,2.01-7.53,4.88h51.71c1.7,0,3.12-1.31,3.27-3l.03-.27c-5.24,0-9.58-.03-15.04-.44-1.98-.1-3.5-1.79-3.4-3.77.06-1.28.81-2.43,1.94-3.01,5.1-2.75,10.39-4.04,17.45-4.23l.41-4.93c-6.64.09-13.25.74-19.78,1.97v.12h0ZM196.61,300.97l.41-4.92h-26.09v9.84c0,2.72-2.21,4.92-4.92,4.92h-16.4c-2.72,0-4.92-2.21-4.92-4.92v-1.64h-25.41l.25,2.93c.05.2.1.41.14.63,3.29.97,6.67,1.56,10.09,1.75,4.58.19,9.09,1.17,13.35,2.87,1.17.35,1.84,1.58,1.5,2.75-.13.44-.4.84-.77,1.13-1.17.94-2.48,1.67-3.9,2.17-6.17,2.34-12.55,4.05-19.05,5.1l.46,5.55c.15,1.69,1.57,2.99,3.27,3h10.82c1.8-3.53,5.5-6.41,10.37-8,3.3-.96,6.7-1.58,10.14-1.83.98-.11,1.97-.22,2.95-.35,4.06-.27,7.98-1.58,11.4-3.77.72-.53,2.37-1.93,2.32-3.52v-.17c-.27-1.54.78-2.99,2.32-3.24.11-.02.22-.03.33-.04,6.82-1.28,13.73-1.96,20.67-2.04l.41-4.93h-22.13v-3.28h22.41,0ZM188.96,259.97h6.41c.04-.06.07-.12.1-.19-.04-.51-.08-.99-.13-1.45-3.24,0-4.34-.05-7.97-.2l-.45-.02c-1.16,0-2.3-.16-3.43-.45-.56-.14-1.05-.49-1.36-.97-.24-.43-.31-.95-.2-1.44.19-.61.63-1.12,1.2-1.4.3-.17.61-.31.92-.45h-19.68v6.56h24.6ZM185.77,250.15c.66-.04,1.31.02,1.96.17,1.33.19,2.29,1.35,2.24,2.68-.14.8-.64,1.5-1.35,1.9,2.51.11,3.69.14,6.07.16-1.15-3.85-3.23-5.45-4.66-6.1-.97-.43-1.74-1.19-2.2-2.1h-23.47v3.28c6.48,0,15.27,0,21.13,0h.28,0ZM130.1,253.72c-.65-.51-1.08-1.25-1.2-2.06-.04-1.34.83-2.53,2.12-2.91.67-.2,1.37-.28,2.08-.25h.28c5.35,0,11.98,0,17.85,0v-1.64h-23.47c-.47.91-1.23,1.67-2.2,2.1-1.42.65-3.51,2.24-4.65,6.1,3.81-.02,7.03-.08,10.69-.27-.53-.3-1.04-.66-1.51-1.05h0ZM151.24,251.77c-5.87,0-12.5,0-17.84.02h-.39c.33.2.69.4,1.05.6.65.34,1.28.72,1.87,1.13.95.55,1.34,1.72.91,2.72-.27.54-.74.96-1.31,1.16-1.13.4-2.33.61-3.54.62-4.03.22-7.5.28-11.74.29-.06.52-.12,1.06-.14,1.64h31.12v-8.2h0ZM161.09,246.85h-6.56v13.12h6.56v-13.12h0Z" />
  <path id="brown-dark" class="dark-brown"
    d="M113.53,291.41c.06.78.27,1.36.27,1.36h-2.88l2.74-2.74s-.19.59-.13,1.36h0ZM205.6,263.27s0,0-.02,0h-95.68l10.1,16.41h5.29c-.9-2.56.43-5.37,2.99-6.28.12-.04.23-.08.35-.11-1-2.53.24-5.39,2.76-6.39.58-.23,1.19-.35,1.82-.35h6.56c2.72,0,4.92,2.21,4.92,4.92,0,.51-.08,1.01-.23,1.49h0c.61-.63,1.37-1.08,2.21-1.31-.23-.58-.35-1.2-.35-1.82,0-2.72,2.21-4.92,4.92-4.92h6.56c2.72,0,4.92,2.21,4.92,4.92,0,.56-.1,1.12-.28,1.64h8.48c1.68,0,3.25.86,4.15,2.28.74-.42,1.57-.64,2.41-.64h13.12c2.72,0,4.92,2.21,4.92,4.92,0,.56-.1,1.12-.28,1.64h.36l10.04-16.33s-.04-.04-.05-.06h.03Z" />
  <path id="grey" class="grey"
    d="M200.44,296.05h-.05s-.05.07-.08.12l-2.76,33.22c-.3,3.39-3.14,6-6.55,6.02h-66.38c-3.4-.02-6.24-2.62-6.54-6.02l-2.77-33.19c-.05-.05-.11-.1-.16-.15h-6.36l3.85,38.54c.41,4.2,3.94,7.39,8.16,7.38h74.02c4.22,0,7.75-3.18,8.16-7.38l3.86-38.54h-6.41ZM113.53,302.62h-3.28v-3.28h3.28v3.28ZM120.08,338.69h-3.28v-3.28h3.28v3.28ZM198.8,338.69h-3.28v-3.28h3.28v3.28ZM202.08,300.97v-3.28h3.28v3.28h-3.28ZM108.66,259.97c.64-9.45,6.74-16.4,14.71-16.4h.41c.68,0,1.24.56,1.24,1.25,0,.51-.32.96-.79,1.15-2.62,1.2-6.93,4.58-7.38,14.01h-8.19,0ZM206.95,259.97h-8.19c-.45-9.43-4.76-12.81-7.38-14.01-.47-.19-.77-.65-.78-1.15,0-.68.56-1.24,1.24-1.24h.4c7.96,0,14.07,6.95,14.71,16.4h0ZM195.46,259.68c-.15-.43-.26-.89-.33-1.35h.21c.05.43.09.88.12,1.35h0ZM125.03,249.24c-.12.12-.24.25-.38.37-.26.23-.62.46-1.04.7.49-.47.97-.82,1.41-1.07h0Z" />
  <path id="brass-lock" class="brass-lock"
    d="M169.18,303.31l-1.54-2.11-.19-.26c-.66-.9-1.01-1.98-1.01-3.09v-1.19c0-1.26.46-2.41,1.2-3.31.15-.19.32-.36.49-.52,0,0,0,0,.02,0,.17-.15.35-.3.53-.43.04-.03.09-.05.13-.09,0,0,.02,0,.03-.02.12-.08.23-.15.35-.21-.07.74-.22,1.61-.51,2.27-.08.17-.17.33-.26.49.14-.07.29-.16.43-.24-.22,1.99.6,6.19.34,8.74h0ZM162.67,296.66v1.19c0,.3.02.59.04.89v3.88h-9.84v-9.84h9.84v2.96c-.04.3-.04.61-.04.93ZM159.45,294.41h-3.28v6.56h3.28v-6.56ZM164.36,305.89h-13.12c-.9,0-1.64-.74-1.64-1.64v-13.12c0-.9.74-1.64,1.64-1.64h13.12c.49,0,.92.22,1.22.56.56-.51,1.18-.97,1.85-1.34-.27-.51-.82-.86-1.44-.86h-16.4c-.9,0-1.64.74-1.64,1.64v16.4c0,.9.74,1.64,1.64,1.64h16.4c.48,0,.9-.21,1.2-.54l-1.42-1.95c-.28.51-.81.85-1.43.85Z" />
  <path id="Yellow" class="yellow"
    d="M130.95,318.95c0-.44.37-.82.82-.82h3.78c1.69,0,3.38.29,4.96.85l.36,2.98c.46,3.73,3.38,6.73,7.11,7.31l2.06.32c.26,1.09.39,2.22.39,3.37v.89h-8.65v-3.88c0-3.1-1.39-6-3.81-7.95l-.18-.14c-1.7-1.37-3.85-2.13-6.03-2.13-.45,0-.82-.36-.82-.82h0ZM133.21,358.58l-.04-.03c-.86-.79-1.35-1.91-1.35-3.07,0-2.08,1.56-3.87,3.63-4.16l5.01-.69c1.75-.24,3.54.36,4.79,1.6,1.57,1.57,2.08,3.92,1.29,6.01l-.13.33h33.97c2.05-4.16,5.86-7.19,10.46-8.21l.16-.04s0-.05-.02-.08h0c-.22-.08-.45-.15-.69-.19-.25-.04-.5-.07-.75-.07h-38.27s-.05.02-.08.02c-.25.04-.64.03-1.1-.02h-19.74c-2.37,0-4.3,1.93-4.3,4.3s1.92,4.3,4.3,4.3h2.84ZM177.53,346.22h3.05c2.37,0,4.31-1.92,4.31-4.3s-1.93-4.3-4.31-4.3h-25.09l-.64,1.03c-2.06,3.32-5.63,5.17-9.31,5.17-1.77,0-3.57-.43-5.23-1.33l-4.75-2.58c-.32.59-.51,1.28-.51,2.01,0,2.37,1.93,4.3,4.31,4.3h21.92c.42-2.8,2.36-5.2,5.09-6.16,2.13-.74,4.48-.54,6.44.58l1.01.58c1.9,1.09,3.23,2.92,3.71,5.01h0ZM167.46,300.94c-.66-.9-1.01-1.98-1.01-3.09v-1.19c0-2.29,1.49-4.25,3.55-4.96v1.53c0,.74.6,1.35,1.35,1.35s1.35-.6,1.35-1.35v-1.83h1.31v3.48c0,.74.6,1.35,1.35,1.35s1.35-.6,1.35-1.35v-3.48h1.31v1.83c0,.74.6,1.35,1.35,1.35s1.35-.6,1.35-1.35v-1.53c2.06.72,3.55,2.67,3.55,4.96v1.19c0,1.12-.35,2.19-1.01,3.09l-3.61,4.93c-.99,1.36-2.6,2.17-4.28,2.17s-3.29-.82-4.28-2.17l-3.61-4.93h-.02ZM177.75,299.48c0,.84.69,1.53,1.54,1.53s1.54-.69,1.54-1.53-.69-1.53-1.54-1.53-1.54.69-1.54,1.53ZM169.25,299.42c0,.84.69,1.53,1.54,1.53s1.54-.69,1.54-1.53-.69-1.53-1.54-1.53-1.54.69-1.54,1.53ZM174,315.74v-4.04c-1.05-.16-2.06-.5-2.98-.99v23.15h8.65v-23.15c-.92.5-1.92.84-2.98.99v4.04l1.75,1.98c.49.56.44,1.4-.12,1.9-.26.23-.58.35-.89.35-.37,0-.74-.16-1.01-.45l-1.09-1.22-1.09,1.22c-.27.29-.64.45-1.01.45-.32,0-.64-.12-.89-.35-.56-.49-.6-1.34-.11-1.9l1.75-1.98h0Z" />
  <path id="black"
    d="M316.59,265.79h0c0-.31.02-.6.04-.89.2-2.68,1.27-4.99,3.19-6.87,1.47-1.43,3.22-2.35,5.2-2.78.88-.19,1.8-.3,2.77-.3s1.87.11,2.74.28c2.06.43,3.85,1.37,5.32,2.83,1.95,1.94,2.99,4.33,3.12,7.11,0,.21.03.43.03.64s-.02.42-.03.63c-.06,1.18-.28,2.29-.67,3.31-.53,1.41-1.35,2.69-2.47,3.82-1.67,1.69-3.77,2.7-6.21,3.05-.61.09-1.23.14-1.88.14-.51,0-1.02-.04-1.51-.1-2.54-.29-4.72-1.32-6.49-3.09-.27-.27-.51-.53-.74-.82-1.28-1.56-2.06-3.38-2.3-5.4-.06-.51-.11-1.04-.11-1.57ZM179.29,297.95c-.85,0-1.54.69-1.54,1.53s.69,1.53,1.54,1.53,1.54-.69,1.54-1.53-.69-1.53-1.54-1.53ZM156.16,300.97h3.28v-6.56h-3.28v6.56ZM170.79,297.89c-.85,0-1.54.69-1.54,1.53s.69,1.53,1.54,1.53,1.54-.69,1.54-1.53-.69-1.53-1.54-1.53ZM480.06,287.16c-1.95-2.21-4.49-3.76-7.56-4.65-.14-.04-.27-.11-.43-.14-1.97-.52-4.14-.79-6.52-.79-3.75,0-7.44.82-10.99,2.45-.43.2-.87.43-1.29.66-.79.42-1.57.86-2.31,1.36l.12-27.63-2.01.21-16.65,1.79-.36,86.67h18.65l.07-16.27.12-27.06c.76-1,1.64-1.98,2.61-2.88,1.18-1.08,2.46-1.98,3.83-2.66,1.23-.61,2.46-.89,3.78-.89s3.07.19,3.88,1.14c.17.2.46.64.71,1.47.06.2.12.43.17.69h0c.07.36.13.76.18,1.22.06.57.09,1.2.09,1.94l-.07,16.28-.12,27.01h18.65l.07-17.1.12-28.07h0c.02-3.43-.48-6.46-1.44-9.11-.79-2.15-1.88-4.06-3.3-5.67ZM205.36,297.69h-3.28v3.28h3.28v-3.28ZM209.97,262.59l-10.5,17.06h.98c2.72,0,4.92,2.21,4.92,4.93,0,1.13-.41,2.23-1.13,3.11l5.53,5.53h0c.32.3.52.72.52,1.19v.17l-4.03,40.34c-.58,5.87-5.53,10.36-11.43,10.33h-6.9c-.15.34-.33.66-.52.97h2.17c4.45,0,8.06,3.62,8.06,8.06s-3.5,7.94-7.85,8.05l-.32.22v-.21h-59.08c-4.45,0-8.06-3.61-8.06-8.06s3.61-8.06,8.06-8.06h2.17c-.19-.31-.37-.63-.52-.97h-11.23c-5.9.02-10.85-4.46-11.42-10.33l-4.03-40.34c-.05-.51.14-.98.48-1.32l11.58-11.58-11.82-19.2c-.15-.26-.25-.54-.25-.86,0-12.16,7.75-21.32,18.04-21.32h.4c2.06,0,3.8,1.39,4.34,3.28h59.4c.54-1.89,2.28-3.28,4.34-3.28h.4c10.29,0,18.04,9.17,18.04,21.32,0,.36-.12.7-.33.97ZM164.37,250.13c6.48,0,15.26,0,21.12,0h.28c.66-.04,1.31.02,1.96.17,1.33.19,2.29,1.35,2.24,2.68-.14.8-.64,1.5-1.35,1.9,2.51.11,3.69.14,6.07.16-1.15-3.85-3.23-5.45-4.66-6.1-.97-.43-1.74-1.19-2.2-2.1h-23.47v3.28ZM164.36,259.97h31.12c-.03-.58-.08-1.12-.14-1.64-3.24,0-4.34-.05-7.97-.2l-.45-.02c-1.16,0-2.3-.16-3.43-.45-.56-.14-1.05-.49-1.36-.97-.24-.43-.31-.95-.2-1.44.19-.61.63-1.12,1.2-1.4.3-.17.61-.31.92-.45h-19.68v6.56h0ZM154.52,259.97h6.56v-13.12h-6.56v13.12ZM125.58,248.96h0c-1.42.64-3.51,2.23-4.65,6.09,3.81-.02,7.03-.08,10.69-.27-.53-.3-1.04-.66-1.51-1.05-.65-.51-1.08-1.25-1.2-2.06-.04-1.34.83-2.53,2.12-2.91.67-.2,1.37-.28,2.08-.25h.28c5.35,0,11.98,0,17.85,0v-1.64h-23.47c-.47.91-1.23,1.67-2.2,2.1ZM136.85,256.25c-.27.54-.74.96-1.31,1.16-1.13.4-2.33.61-3.54.62-4.03.22-7.5.28-11.74.29-.06.52-.12,1.06-.14,1.64h31.12v-8.2c-5.87,0-12.5,0-17.84.02h-.39c.33.2.69.4,1.05.6.65.34,1.28.72,1.87,1.13.95.55,1.34,1.72.91,2.72h0ZM108.66,259.97h8.19c.45-9.43,4.76-12.81,7.38-14.01.47-.19.77-.65.79-1.15,0-.68-.55-1.24-1.24-1.25h-.41c-7.96,0-14.07,6.95-14.71,16.4h0ZM194.56,325.57h0s.41-4.88.41-4.88c-4.49.15-8.18.8-11.54,2.01v2.68c3.76.18,7.19.19,11.14.19ZM180.58,346.21h0c1.02,0,1.94-.36,2.68-.96.23-.19.43-.39.62-.61,0,0,.02-.02.03-.03,0-.02.03-.04.04-.04.13-.17.25-.35.36-.53.04-.05.06-.12.1-.17.02-.04.04-.07.05-.11.05-.11.1-.2.13-.31.07-.18.13-.37.18-.56.02-.08.04-.17.04-.25.03-.15.04-.3.04-.46,0-.09.03-.17.03-.27,0-2.37-1.93-4.3-4.31-4.3h-24.35l-1.3,1.85c-2.14,3.05-5.66,4.87-9.4,4.87-1.9,0-3.8-.48-5.48-1.4l-4.71-2.56c-.19.48-.28.99-.28,1.53,0,.09.02.18.03.27,0,.15.02.31.04.46.02.08.03.17.04.25.04.19.11.38.18.56.04.11.09.21.13.31.02.04.04.07.05.11.03.05.06.12.1.17.11.19.23.36.36.53.02.03.04.05.06.07.19.22.39.43.62.61.74.59,1.67.97,2.68.97h21.35v-.03l.19-.82c.67-2.71,2.65-4.88,5.28-5.81.89-.31,1.83-.47,2.76-.47,1.44,0,2.86.38,4.11,1.09l1.02.58c1.68.96,2.99,2.51,3.66,4.35l.4,1.1h2.43ZM180.8,304.24v.02l.69-.95,1.28-1.75.46-.63c.66-.9,1.01-1.98,1.01-3.09v-1.19c0-.2-.03-.41-.05-.61-.15-1.3-.78-2.45-1.71-3.28-.52-.47-1.13-.84-1.8-1.07v1.53c0,.74-.6,1.35-1.35,1.35s-1.35-.6-1.35-1.35v-1.83h-1.31v3.48c0,.24-.07.47-.19.66,0,0,0,.03-.02.04-.12.19-.29.36-.5.47-.19.11-.41.18-.65.18s-.45-.06-.65-.18c-.2-.12-.37-.27-.5-.47v-.02c-.05-.09-.09-.18-.12-.27,0-.02,0-.04-.02-.05-.04-.12-.05-.23-.05-.35v-3.48h-1.31v1.83c0,.74-.6,1.35-1.35,1.35s-1.35-.6-1.35-1.35v-1.53c-.24.08-.47.19-.7.3-.16.08-.3.18-.45.27,0,0-.02,0-.03.02-.04.03-.09.05-.13.09-.19.13-.36.27-.53.43,0,0,0,0-.02,0-.18.16-.34.34-.49.52-.74.9-1.2,2.06-1.2,3.31v1.19c0,1.12.35,2.19,1.01,3.09l.19.26,3.28,4.48.14.19c.99,1.36,2.59,2.17,4.28,2.17s3.28-.82,4.28-2.17l1.19-1.62ZM172.23,317.71h0l1.75-1.98v-4.04c-1.05-.16-2.06-.5-2.98-.99v23.15h8.65v-23.15c-.92.5-1.92.84-2.98.99v4.04l1.75,1.98c.49.56.44,1.4-.12,1.9-.26.23-.58.35-.89.35-.37,0-.74-.16-1.01-.45l-1.09-1.22-1.09,1.22c-.27.29-.64.45-1.01.45-.32,0-.64-.12-.89-.35-.56-.49-.6-1.34-.11-1.9ZM147.96,305.89c0,.9.74,1.64,1.64,1.64h16.4c.48,0,.9-.21,1.2-.54l-1.42-1.95c-.28.51-.81.85-1.43.85h-13.12c-.9,0-1.64-.74-1.64-1.64v-13.12c0-.9.74-1.64,1.64-1.64h13.12c.49,0,.92.22,1.22.56.56-.51,1.18-.97,1.85-1.34-.27-.51-.82-.86-1.44-.86h-16.4c-.9,0-1.64.74-1.64,1.64v16.4ZM162.67,297.84v-1.19c0-.31.02-.62.04-.93v-2.96h-9.84v9.84h9.84v-3.88c-.03-.29-.04-.58-.04-.89ZM118.59,296.05l.41,4.92h25.68v-4.92h-26.09ZM119.28,304.26l.29,3.54c3.31.97,6.72,1.59,10.18,1.77,4.58.19,9.09,1.17,13.35,2.87,1.17.35,1.84,1.58,1.5,2.75-.13.44-.4.84-.77,1.13,0,0,0,0-.02,0,.36.18.7.39,1.05.59v-.49l.66.85c.61.38,1.19.79,1.75,1.23,1.57,1.27,2.9,2.76,3.97,4.39,1.55-.27,3.12-.48,4.7-.59.98-.11,1.97-.22,2.95-.35,2.91-.19,5.73-.93,8.36-2.13v-9.18c-.4.11-.82.17-1.24.17h-16.4c-2.72,0-4.92-2.21-4.92-4.92v-1.64h-25.42ZM167.25,332.12v-8.75c-2.53,1-5.21,1.63-7.95,1.83-1,.12-2.01.24-3.01.35-1.16.09-2.31.22-3.46.39.61,1.5,1.02,3.08,1.22,4.71v.02c.06.48.11.97.12,1.45h13.07ZM138.9,318.53c-.08-.02-.16-.04-.25-.05-.12-.03-.23-.05-.35-.07-.17-.04-.34-.06-.51-.09-.23-.04-.46-.06-.69-.09-.14-.02-.27-.04-.42-.04-.37-.03-.75-.05-1.13-.05h-3.78c-.45,0-.82.36-.82.82s.37.82.82.82c.27,0,.52,0,.78.04.21.02.43.04.63.08h.02c.54.08,1.07.2,1.59.38,1.09.36,2.12.9,3.01,1.63l.18.14c1.64,1.32,2.79,3.08,3.38,5.04v.03c.26.86.4,1.76.42,2.68,0,.07,0,.13,0,.2v3.88h8.65v-.89c0-.27,0-.55-.03-.82-.04-.68-.13-1.35-.27-2.01l-1.81-.26c-.49-.06-1.13-.51-2.06-1.04-.54-.2-1.05-.46-1.53-.76-.03-.02-.04-.04-.07-.04-.58-.27-1.12-.56-1.62-1.1l-.45-.6c-2.12-2.12-2.26-3.73-2.36-4.97-.02-.17-.03-.32-.04-.47l-.32-2.07c-.16-.04-.31-.1-.47-.14l.02-.03c-.18-.04-.35-.08-.52-.12ZM139.96,314.89c.07-.04.15-.06.21-.1h0c-.27-.1-.56-.16-.84-.24l.62.34ZM119.86,311.27l.75,9.03c2.21-.36,4.4-.82,6.57-1.34v-.02c0-2.53,2.06-4.58,4.59-4.58h3.78c1.25,0,2.5.14,3.71.39l-.04-.25c-3.2-.92-6.48-1.51-9.8-1.68-3.23-.19-6.44-.73-9.57-1.56h0ZM120.88,323.58l.46,5.55c.15,1.69,1.57,2.99,3.27,3h10.82c.61-1.2,1.45-2.32,2.48-3.35-.28-1.5-1.07-2.85-2.29-3.83l-.17-.14c-1.04-.83-2.35-1.29-3.68-1.29s-2.53-.58-3.38-1.49c-2.48.61-4.99,1.13-7.51,1.54h0ZM187.32,332.14h0s3.67,0,3.67,0c1.7,0,3.12-1.31,3.27-3l.03-.27c-3.84,0-7.19-.02-10.86-.19v3.47h3.9ZM195.24,317.4l.41-4.93c-4.08.05-8.17.33-12.23.82v5.95c3.49-1.13,7.29-1.7,11.82-1.83ZM195.92,309.19l.41-4.93h-10.87l-2.04,2.79v2.94c4.15-.49,8.32-.75,12.5-.8ZM196.61,300.98h0s.41-4.93.41-4.93h-9.05c.02.2.04.41.04.61v1.19c0,1.08-.19,2.14-.57,3.13h9.17ZM110.92,292.77h2.88c-.18-.51-.28-1.06-.28-1.64,0-.38.05-.74.14-1.1l-2.74,2.74ZM131.29,341.92c0-1.45.39-2.8,1.07-3.97l-.45-.25.82-.35c.52-.75,1.16-1.4,1.9-1.94h-10.01c-3.4-.02-6.24-2.62-6.54-6.02l-2.78-33.34h-6.51l3.85,38.54c.41,4.2,3.94,7.39,8.16,7.38h10.51v-.05h0ZM130.38,349.98c-2.37,0-4.3,1.93-4.3,4.3s1.92,4.3,4.3,4.3h2.09c-.75-.86-1.17-1.97-1.17-3.1,0-2.35,1.75-4.35,4.09-4.68l5.01-.69c.28-.04.57-.05.84-.05,1.64,0,3.24.66,4.39,1.81,1.73,1.73,2.29,4.31,1.42,6.58l-.05.14h33.18l-.17-.57.79-1.23c2.14-3.36,5.42-5.72,9.27-6.75-.17-.02-.34-.05-.51-.05h-59.18ZM206.84,296.05h-6.52l-2.77,33.34c-.3,3.39-3.14,6-6.55,6.02h-5.68c2.01,1.46,3.33,3.84,3.33,6.5v.05h6.18c4.22,0,7.75-3.18,8.16-7.38l3.86-38.54h0ZM205.66,263.25h-95.79l10.1,16.41h.03s.06,0,.09,0h5.2c-.9-2.56.43-5.37,2.99-6.28.12-.04.23-.08.35-.11-1-2.53.24-5.39,2.76-6.39.58-.23,1.19-.35,1.82-.35h6.56c2.72,0,4.92,2.21,4.92,4.92,0,.51-.08,1.01-.23,1.49.61-.63,1.37-1.08,2.21-1.31-.23-.58-.35-1.2-.35-1.82,0-2.72,2.21-4.92,4.92-4.92h6.56c2.72,0,4.92,2.21,4.92,4.92,0,.56-.1,1.12-.28,1.64h8.48c1.68,0,3.25.86,4.15,2.28.74-.42,1.57-.64,2.41-.64h13.12c2.72,0,4.92,2.21,4.92,4.92,0,.56-.1,1.12-.28,1.64h.36l10.08-16.4ZM206.95,259.97c-.64-9.45-6.74-16.4-14.71-16.4h-.4c-.68,0-1.24.56-1.24,1.24,0,.51.32.96.78,1.15,2.62,1.2,6.92,4.58,7.38,14.01h8.19ZM289.79,283.28c-1.43-.46-2.88-.84-4.33-1.13-.03,0-.08-.02-.08-.02-.04,0-.07-.02-.11-.02-1-.2-2.09-.33-3.24-.4-.61-.04-1.23-.06-1.88-.06-1.09,0-2.14.07-3.16.18-4.35.46-8.1,1.89-11.14,4.3-.3.23-.58.48-.88.74-.66.58-1.29,1.2-1.91,1.87-.51.55-1.01,1.12-1.49,1.73l-1.2-7.34h-23.71l-.06,15.11h8.44l-.14,33.72h-8.44l-.06,15.17h38.71l.03-5.74.04-9.43h-11.62l.07-17.65c1.59-5,3.71-8.89,6.31-11.54,1.45-1.49,3.07-2.53,4.81-3.12l-.04,11.13h14.86l2.72-26.69-2.48-.8h0ZM110.25,302.62h3.28v-3.28h-3.28v3.28ZM195.52,338.69h3.28v-3.28h-3.28v3.28ZM116.8,338.69h3.28v-3.28h-3.28v3.28ZM339.2,331.74l.2-48.61h-35.32l-.06,15.38h16.67l-.14,33.23h-17.22l-.06,15.38h51.52l.06-15.38h-15.65ZM1022.62,294.27c2.22,4.7,3.35,10.39,3.35,16.89,0,1.04-.03,2.1-.09,3.14-.06,1.03-.13,1.94-.21,2.71l-.22,2.25h-38.69c.37,2.44,1.03,4.5,1.97,6.15,1.22,2.14,2.75,3.66,4.69,4.63,2.01,1.01,4.26,1.52,6.69,1.52,2.61,0,5.03-.4,7.21-1.19,2.27-.83,4.6-2.02,6.93-3.55l2-1.31,8.22,11.36-1.84,1.49c-2.97,2.41-6.47,4.35-10.41,5.78-3.95,1.44-8.24,2.17-12.73,2.17-6.56,0-12.23-1.44-16.85-4.29-4.64-2.86-8.21-6.89-10.61-11.98-2.35-4.98-3.54-10.78-3.54-17.25s1.17-11.98,3.48-16.98c2.35-5.08,5.77-9.17,10.16-12.16,4.44-3.02,9.77-4.55,15.85-4.55,5.72,0,10.74,1.34,14.91,3.97,4.18,2.64,7.45,6.41,9.72,11.21ZM1008.68,305.69c-.35-3.77-1.33-6.72-2.91-8.82-1.78-2.35-4.28-3.49-7.67-3.49s-5.79,1.11-7.87,3.39c-1.78,1.95-2.96,4.94-3.53,8.92h21.97ZM1095.09,280.66h-19.91l-10.66,18.35-10.66-18.35h-20.59l20.56,30.44-22.93,33.7h20.03l13.04-21.78,13.09,21.78h20.83l-22.96-34.19,20.17-29.94ZM1153.82,327.48l-2.19,1.21c-1.33.73-2.83,1.33-4.47,1.8-1.59.46-3.38.69-5.3.69-2.89,0-4.99-.56-6.07-1.61-1.08-1.05-1.63-2.83-1.63-5.29v-29.48h18.18l2.17-14.13h-20.35v-15.05l-17.54,2.11v12.93h-13.16v14.13h13.16v29.59c0,6.49,2.05,11.82,6.08,15.85,4.03,4.04,9.89,6.08,17.42,6.08,3.5,0,6.91-.47,10.15-1.38,3.24-.92,6.08-2.15,8.45-3.66l1.97-1.26-6.86-12.54ZM501.18,314.89h51.26v-15.3h-51.26v15.3ZM612,326.31c-1.99,1.41-4.12,2.57-6.31,3.44-2.08.83-4.37,1.25-6.8,1.25-2.65,0-4.91-.56-6.94-1.72-1.94-1.11-3.44-2.88-4.59-5.41-1.21-2.66-1.82-6.32-1.82-10.87,0-6.7,1.29-11.6,3.84-14.55,2.49-2.88,5.62-4.29,9.56-4.29,2.25,0,4.47.38,6.6,1.12,2.18.76,4.36,1.89,6.48,3.36l2,1.39,8.59-11.76-1.81-1.5c-3.05-2.53-6.45-4.46-10.12-5.75-3.65-1.28-7.68-1.93-11.97-1.93-6.54,0-12.25,1.52-16.96,4.5-4.71,2.98-8.36,7.09-10.85,12.22-2.45,5.04-3.7,10.83-3.7,17.19s1.24,12.33,3.67,17.29c2.48,5.05,6.12,9.03,10.82,11.82,4.67,2.78,10.32,4.19,16.79,4.19,4.2,0,8.33-.74,12.26-2.2,3.94-1.46,7.35-3.41,10.14-5.79l1.75-1.5-8.62-11.94-2.02,1.43ZM821.56,295.26c2.17,4.93,3.26,10.77,3.26,17.36s-1.12,12.41-3.32,17.39c-2.26,5.11-5.62,9.15-9.99,12-4.37,2.85-9.72,4.3-15.9,4.3s-11.5-1.4-15.87-4.17c-4.38-2.78-7.75-6.77-10.02-11.88-2.21-4.97-3.32-10.87-3.32-17.53s1.12-12.29,3.32-17.25c2.26-5.09,5.63-9.14,10.01-12.02,4.39-2.89,9.75-4.36,15.94-4.36s11.63,1.44,15.98,4.27c4.35,2.83,7.69,6.84,9.91,11.9ZM806.66,312.62c0-6.75-1-11.71-2.96-14.74-1.76-2.72-4.39-4.04-8.04-4.04s-6.31,1.33-8.11,4.06c-1.99,3.02-3,8.01-3,14.84s1,11.78,2.98,14.82c1.78,2.74,4.42,4.07,8.07,4.07s6.29-1.33,8.07-4.07c1.98-3.04,2.98-8.07,2.98-14.93ZM748.17,329.38c-1.35.52-2.75.96-4.17,1.3-1.33.32-2.77.49-4.28.49-2.13,0-3.83-.43-5.06-1.27-.35-.24-1.4-.96-1.4-3.73v-69.25h-35.41v14.24h17.86v53.89c0,6.48,1.91,11.7,5.68,15.51,3.78,3.82,9.04,5.75,15.64,5.75,3.48,0,6.64-.37,9.4-1.09,2.72-.71,5.06-1.57,6.97-2.54l1.97-1.01-4.82-13.2-2.37.91ZM687.16,295.26c2.17,4.93,3.26,10.77,3.26,17.36s-1.12,12.41-3.32,17.39c-2.26,5.11-5.62,9.15-9.99,12-4.37,2.85-9.72,4.3-15.9,4.3s-11.5-1.4-15.87-4.17c-4.38-2.78-7.75-6.77-10.02-11.88-2.21-4.97-3.32-10.87-3.32-17.53s1.12-12.29,3.32-17.25c2.26-5.09,5.63-9.13,10.01-12.02,4.39-2.89,9.75-4.36,15.94-4.36s11.63,1.44,15.98,4.27c4.35,2.83,7.69,6.84,9.91,11.9ZM672.26,312.62c0-6.75-1-11.71-2.96-14.74-1.76-2.72-4.39-4.04-8.04-4.04s-6.3,1.33-8.11,4.06c-1.99,3.02-3,8.01-3,14.84s1,11.78,2.98,14.82c1.78,2.74,4.42,4.07,8.07,4.07s6.29-1.33,8.07-4.07c1.98-3.04,2.98-8.07,2.98-14.93ZM886.34,279.62c-1.55-.31-3.31-.47-5.22-.47-5.71,0-10.48,1.49-14.18,4.43-1.96,1.56-3.76,3.51-5.36,5.83l-1.47-8.76h-22.87v13.9h8.68v36.27h-8.68v13.96h38.15v-13.96h-11.93v-19.08c1.66-5.32,3.9-9.45,6.66-12.3,1.88-1.93,3.96-3.16,6.32-3.71v11.69h13.73l2.54-26.04-1.91-.62c-1.47-.48-2.97-.87-4.45-1.16ZM421.28,339.17l.56-.48-3.17-4.42-6.05-8.43-2.61,1.84c-.08.06-.16.11-.24.16-1.83,1.27-3.76,2.31-5.76,3.11-1.94.77-4.08,1.16-6.34,1.16-2.39,0-4.53-.53-6.34-1.57-1.42-.82-2.57-2.05-3.52-3.74-.21-.36-.41-.74-.59-1.16-.12-.28-.24-.58-.35-.88-.62-1.67-1.01-3.69-1.2-6.04-.08-1.05-.12-2.14-.12-3.32,0-.45,0-.89.03-1.32.1-2.68.43-5.05.98-7.07.6-2.19,1.48-3.97,2.6-5.26,1.28-1.47,2.75-2.51,4.42-3.15,1.31-.51,2.74-.76,4.31-.76,1.87,0,3.72.29,5.51.85.21.07.43.12.64.19.94.33,1.88.74,2.81,1.2,1.11.57,2.21,1.21,3.3,1.97l2.58,1.79,9.29-12.66h.03s-1.83-1.52-1.83-1.52l-.51-.42c-3.04-2.53-6.42-4.46-10.07-5.74-3.01-1.06-6.28-1.67-9.75-1.86-.72-.04-1.44-.06-2.16-.06-6.31,0-11.84,1.44-16.48,4.24-.15.09-.31.17-.46.27-4.31,2.72-7.72,6.39-10.19,10.89-.24.43-.48.87-.7,1.32-.2.42-.39.84-.58,1.27-1.51,3.43-2.5,7.17-2.92,11.18-.16,1.51-.25,3.05-.25,4.62-.03,6.47,1.18,12.24,3.59,17.18,2.46,5.05,6.1,9.03,10.78,11.84,4.65,2.78,10.29,4.19,16.74,4.19,4.18,0,8.29-.74,12.22-2.19,3.89-1.44,7.27-3.36,10.05-5.72h2.83l-1.07-1.5ZM904.38,314.89h51.26v-15.3h-51.26v15.3Z" />
  <path id="gradient-a" fill='url(#a)'
    d="M257.63,286.34h-.03s.03,0,.03,0ZM199.8,286.33c.19-.08.42-.13.64-.13.9,0,1.64-.74,1.64-1.64s-.74-1.64-1.64-1.64h-9.84c-.9,0-1.64-.74-1.64-1.64h0c0-.89.74-1.63,1.64-1.63.12,0,.22,0,.33-.04.74-.15,1.31-.82,1.31-1.6s-.56-1.45-1.31-1.6c-.11-.02-.22-.04-.33-.04h-13.12c-.58,0-1.12.31-1.41.82-.29.51-.83.82-1.42.82h-.45c-.9,0-1.64-.74-1.64-1.64s-.74-1.64-1.64-1.64h-13.12c-.9,0-1.64-.74-1.64-1.64s.74-1.64,1.64-1.64,1.64-.74,1.64-1.64-.74-1.64-1.64-1.64h-6.56c-.9,0-1.64.74-1.64,1.64s.74,1.64,1.64,1.64,1.64.74,1.64,1.64-.74,1.64-1.64,1.64h-3.28c-.69,0-1.31.45-1.54,1.11-.3.85-1.23,1.3-2.09,1-.13-.04-.26-.11-.37-.19-.27-.19-.59-.28-.92-.28h-3.28c-.9,0-1.64-.74-1.64-1.64s.74-1.64,1.64-1.64,1.64-.74,1.64-1.64-.74-1.64-1.64-1.64h-6.56c-.9,0-1.64.74-1.64,1.64s.74,1.64,1.64,1.64,1.64.74,1.64,1.64-.74,1.64-1.64,1.64h-3.28c-.9,0-1.64.74-1.64,1.64s.74,1.64,1.64,1.64,1.64.74,1.64,1.64-.74,1.64-1.64,1.64h-8.2c-.9,0-1.64.74-1.64,1.64s.74,1.64,1.64,1.64,1.64.74,1.64,1.64-.74,1.64-1.64,1.64h-3.28c-.9,0-1.64.74-1.64,1.64s.74,1.64,1.64,1.64h6.56c.14,0,.27-.03.41-.06.27-.07.55-.07.82,0,.13.04.27.06.41.06h13.12c.9,0,1.64-.74,1.64-1.64s-.74-1.64-1.64-1.64h-4.92v-3.28h4.92c2.72,0,4.92,2.21,4.92,4.92v-1.64c0-2.72,2.21-4.92,4.92-4.92h16.43c.22,0,.44.03.66.05.43.06.86.18,1.25.35.12.05.24.12.36.18.03,0,.04.02.07.04.07.04.13.08.19.12.07.04.14.08.21.12.27.18.51.38.74.61.11.11.2.21.3.33.09.11.17.22.25.34,0,.02.02.03.03.04,0,0,.04.06.05.09.06.1.13.2.19.31.03.04.04.1.07.14.04.1.1.19.13.28.02.04.04.09.04.13.37-.04.75-.08,1.14-.08h3.93c.44-.44.97-.8,1.56-1.04.02,0,.04,0,.05-.02.13-.05.27-.11.4-.14.04,0,.07-.02.11-.03.12-.04.24-.07.35-.09.07-.02.15-.03.22-.04.09-.02.18-.03.27-.04.17-.02.33-.03.51-.03v1.44c3.52.07,6.55,2.14,7.98,5.13h13.33c.9,0,1.64-.74,1.64-1.64s-.74-1.64-1.64-1.64c-.23,0-.44-.04-.64-.13-.58-.25-1-.83-1-1.52s.42-1.26,1-1.52ZM140.84,353.3l-5.01.69c-.74.11-1.31.74-1.31,1.49,0,.42.18.82.49,1.1l2.17,2h0s6.39,0,6.39,0l.49-1.28c.42-1.09.14-2.33-.68-3.15-.66-.66-1.61-.97-2.53-.84ZM280.13,284.87c-5,0-9.13,1.28-12.31,3.78-1.74,1.37-3.34,3.12-4.78,5.19l-3.4,4.91-2.03-12.41h-17.74l-.04,8.66h8.44l-.17,40.16h-8.44l-.04,8.73h32.26l.04-8.73h-11.62l.09-21.37.11-.35c1.75-5.55,4.14-9.9,7.11-12.94,2.16-2.21,4.64-3.66,7.38-4.29l2.97-.68-.05,12.01h8.72l2.16-21.2c-1.34-.43-2.7-.79-4.06-1.06-1.35-.27-2.9-.41-4.6-.41ZM335.97,334.95l.2-48.61h-28.88l-.04,8.94h16.67l-.17,39.67h-17.22l-.04,8.94h45.08l.04-8.94h-15.65ZM192.47,352.76l-1.02.22s-.03,0-.04,0c-.4.09-.8.19-1.18.32-.24.08-.46.18-.69.27-.16.06-.32.12-.48.19-.31.13-.6.29-.89.45-.07.04-.14.07-.21.11-.34.19-.66.4-.98.62-.02,0-.04.03-.05.04-1.35.94-2.49,2.14-3.38,3.53,0,.02.02.04.02.06h6.02c.59,0,1.16-.12,1.67-.34.26-.11.51-.24.73-.4h0c1.14-.76,1.9-2.07,1.9-3.55,0-.62-.13-1.2-.37-1.74l-1.02.22ZM144.4,292.77h.28v-1.64c0,.58-.11,1.13-.28,1.64ZM143.55,321.64c.15,1.2.69,2.3,1.48,3.16.49.53,1.06.97,1.71,1.28.52.25,1.07.44,1.67.53l.43.06.22.04c-.33-.71-.6-1.28-.89-1.79-.1-.17-.21-.35-.34-.53-.02-.02-.03-.04-.04-.06-.13-.19-.27-.39-.43-.58h0c-.39-.45-.86-.91-1.52-1.44-.48-.39-1.92-1.6-2.45-1.92l.15,1.25ZM327.72,273.53c2.35,0,4.31-.73,5.81-2.23,1.5-1.5,2.22-3.3,2.23-5.5,0-2.2-.71-3.98-2.19-5.45-1.48-1.46-3.38-2.18-5.79-2.18s-4.23.71-5.73,2.18c-1.52,1.47-2.25,3.25-2.26,5.45,0,2.21.72,4,2.21,5.5,1.5,1.51,3.37,2.23,5.71,2.23ZM397.89,294.62c2.45,0,4.88.42,7.21,1.22,2.33.82,4.65,2.01,6.88,3.56l5.64-7.69c-2.74-2.28-5.79-4.01-9.08-5.17-3.29-1.15-6.94-1.74-10.84-1.74-5.89,0-11.01,1.35-15.22,4s-7.48,6.33-9.72,10.9c-2.24,4.58-3.39,9.85-3.42,15.67-.03,5.96,1.07,11.26,3.26,15.75,2.19,4.48,5.4,8.01,9.54,10.49s9.22,3.74,15.08,3.74c3.8,0,7.53-.67,11.09-1.98,3.57-1.32,6.64-3.07,9.15-5.21h.02l-5.63-7.85c-2.1,1.48-4.34,2.7-6.66,3.62s-4.86,1.39-7.53,1.39c-2.96,0-5.63-.67-7.95-1.98-2.34-1.34-4.13-3.43-5.45-6.38-1.31-2.91-1.97-6.8-1.95-11.58.03-7.12,1.51-12.42,4.4-15.75,2.89-3.32,6.64-5.01,11.17-5.01ZM172.49,343.56h0s-1.01-.59-1.01-.59c-1.28-.74-2.82-.87-4.21-.37-.2.07-.4.16-.59.26-.1.05-.19.11-.28.16-.09.05-.18.1-.27.16-.13.09-.26.19-.37.28-.04.04-.08.06-.12.1-.14.12-.27.26-.4.39,0,.02-.03.03-.04.04-.55.61-.95,1.36-1.15,2.17,0,.03.02.04.03.07h10.67c-.41-1.11-1.18-2.06-2.24-2.67ZM137.65,337.98l3.94,2.14c3.7,2.02,8.3.9,10.7-2.5h-12.94c-.61,0-1.19.13-1.71.35ZM465.55,284.83c-3.29,0-6.53.73-9.65,2.15-1.52.69-2.95,1.57-4.29,2.6l-3.91,3.01.12-30.55-12.22,1.31-.34,80.55h12.21l.17-41.17.47-.64c.91-1.24,1.98-2.44,3.17-3.54,1.4-1.29,2.94-2.37,4.59-3.19,1.67-.82,3.38-1.22,5.21-1.22,2.9,0,5.01.76,6.32,2.26h0c1.29,1.51,1.95,4,1.93,7.44l-.17,40.06h12.21l.18-41.96c.03-5.39-1.3-9.64-3.93-12.63-2.62-2.98-6.69-4.49-12.08-4.49ZM906.88,312.39h46.26v-10.3h-46.26v10.3ZM881.12,281.65c-5.15,0-9.36,1.3-12.63,3.89-3.27,2.6-6,6.38-8.2,11.34l-2.3-13.72h-18.26v8.9h8.68v41.27h-8.68v8.96h33.15v-8.96h-11.93v-21.95c1.79-5.9,4.25-10.45,7.36-13.66,2.99-3.08,6.53-4.67,10.61-4.79v12.02h8.96l2.13-21.78c-1.38-.45-2.77-.81-4.17-1.09-1.4-.28-2.98-.42-4.73-.42ZM1020.36,295.34c2.07,4.39,3.11,9.66,3.11,15.82,0,1.01-.03,2.01-.08,3-.06.99-.12,1.86-.2,2.6h-39.2c.26,4.03,1.12,7.33,2.58,9.88s3.37,4.43,5.74,5.63c2.37,1.2,4.97,1.79,7.81,1.79s5.6-.45,8.06-1.34c2.46-.9,4.95-2.16,7.45-3.81l5.43,7.5c-2.76,2.24-5.99,4.03-9.69,5.38-3.7,1.34-7.65,2.02-11.87,2.02-6.12,0-11.3-1.31-15.54-3.92-4.24-2.61-7.46-6.25-9.66-10.92-2.2-4.67-3.3-10.06-3.3-16.18s1.08-11.25,3.25-15.93c2.17-4.69,5.26-8.4,9.3-11.14,4.03-2.74,8.85-4.12,14.45-4.12,5.26,0,9.79,1.2,13.58,3.58,3.79,2.39,6.72,5.78,8.79,10.16ZM1011.32,308.19c-.11-5.56-1.3-9.84-3.56-12.82-2.26-2.99-5.48-4.48-9.66-4.48-3.92,0-7.16,1.4-9.72,4.2-2.56,2.8-4.04,7.17-4.45,13.1h27.38ZM1152.83,330.87c-1.49.82-3.16,1.49-4.98,2.02-1.83.52-3.83.78-5.99.78-3.62,0-6.23-.77-7.81-2.32-1.59-1.55-2.38-3.91-2.38-7.08v-31.98h18.54l1.4-9.13h-19.94v-14.73l-12.54,1.51v13.22h-13.16v9.13h13.16v32.09c0,5.82,1.78,10.52,5.35,14.08,3.56,3.57,8.78,5.35,15.65,5.35,3.28,0,6.44-.43,9.46-1.29,3.02-.86,5.62-1.98,7.78-3.36l-4.54-8.29ZM1090.39,283.16h-13.78l-12.1,20.83-12.1-20.83h-14.45l18.87,27.94-21.22,31.19h13.89l14.45-24.14,14.5,24.14h14.73l-21.28-31.7,18.48-27.44ZM606.61,332.08c-2.39.95-4.97,1.43-7.73,1.43-3.06,0-5.79-.68-8.18-2.04-2.39-1.36-4.27-3.55-5.63-6.55-1.36-3-2.04-6.97-2.04-11.9,0-7.35,1.48-12.75,4.45-16.18,2.97-3.43,6.78-5.15,11.45-5.15,2.54,0,5.01.42,7.42,1.26,2.41.84,4.77,2.06,7.08,3.67l5.77-7.9c-2.84-2.35-5.96-4.12-9.35-5.32-3.4-1.19-7.11-1.79-11.14-1.79-6.09,0-11.29,1.37-15.62,4.12-4.33,2.74-7.64,6.48-9.94,11.2-2.3,4.72-3.44,10.09-3.44,16.1s1.14,11.56,3.42,16.18c2.28,4.63,5.56,8.22,9.86,10.78,4.29,2.56,9.46,3.84,15.51,3.84,3.92,0,7.72-.68,11.4-2.04,3.68-1.36,6.8-3.14,9.38-5.35l-5.82-8.06c-2.17,1.53-4.44,2.77-6.83,3.72ZM503.68,312.39h46.26v-10.3h-46.26v10.3ZM819.27,296.27c2.03,4.63,3.05,10.08,3.05,16.35s-1.04,11.7-3.11,16.38c-2.07,4.69-5.1,8.33-9.07,10.92-3.98,2.59-8.82,3.89-14.53,3.89s-10.56-1.26-14.53-3.78c-3.98-2.52-7-6.11-9.07-10.78-2.07-4.67-3.11-10.17-3.11-16.52s1.04-11.57,3.11-16.24c2.07-4.67,5.1-8.32,9.1-10.95,4-2.63,8.85-3.95,14.56-3.95s10.66,1.29,14.62,3.86c3.96,2.58,6.95,6.18,8.99,10.81ZM809.16,312.62c0-7.28-1.12-12.65-3.36-16.1-2.24-3.45-5.62-5.18-10.14-5.18s-7.92,1.73-10.19,5.18c-2.28,3.45-3.42,8.86-3.42,16.21s1.13,12.71,3.39,16.18,5.65,5.21,10.16,5.21,7.91-1.74,10.16-5.21,3.39-8.9,3.39-16.3ZM744.59,333.11c-1.53.37-3.16.56-4.87.56-2.65,0-4.81-.57-6.47-1.71-1.66-1.14-2.49-3.07-2.49-5.8v-66.75h-30.41v9.24h17.86v56.39c0,5.82,1.65,10.41,4.96,13.75,3.3,3.34,7.92,5.01,13.86,5.01,3.29,0,6.21-.34,8.76-1.01,2.56-.67,4.71-1.46,6.47-2.35l-3.19-8.74c-1.46.56-2.95,1.03-4.48,1.4ZM684.87,296.27c2.03,4.63,3.05,10.08,3.05,16.35s-1.04,11.7-3.11,16.38c-2.07,4.69-5.1,8.33-9.07,10.92-3.98,2.59-8.82,3.89-14.53,3.89s-10.56-1.26-14.53-3.78c-3.98-2.52-7-6.11-9.07-10.78-2.07-4.67-3.11-10.17-3.11-16.52s1.04-11.57,3.11-16.24c2.07-4.67,5.1-8.32,9.1-10.95,4-2.63,8.85-3.95,14.56-3.95s10.66,1.29,14.62,3.86c3.96,2.58,6.95,6.18,8.99,10.81ZM674.76,312.62c0-7.28-1.12-12.65-3.36-16.1-2.24-3.45-5.62-5.18-10.14-5.18s-7.92,1.73-10.19,5.18c-2.28,3.45-3.42,8.86-3.42,16.21s1.13,12.71,3.39,16.18,5.65,5.21,10.16,5.21,7.91-1.74,10.16-5.21,3.39-8.9,3.39-16.3Z" />
  <path id="gradient-b" fill='url(#b)'
    d="M257.63,286.34h-.03s.03,0,.03,0ZM199.8,286.33c.19-.08.42-.13.64-.13.9,0,1.64-.74,1.64-1.64s-.74-1.64-1.64-1.64h-9.84c-.9,0-1.64-.74-1.64-1.64h0c0-.89.74-1.63,1.64-1.63.12,0,.22,0,.33-.04.74-.15,1.31-.82,1.31-1.6s-.56-1.45-1.31-1.6c-.11-.02-.22-.04-.33-.04h-13.12c-.58,0-1.12.31-1.41.82-.29.51-.83.82-1.42.82h-.45c-.9,0-1.64-.74-1.64-1.64s-.74-1.64-1.64-1.64h-13.12c-.9,0-1.64-.74-1.64-1.64s.74-1.64,1.64-1.64,1.64-.74,1.64-1.64-.74-1.64-1.64-1.64h-6.56c-.9,0-1.64.74-1.64,1.64s.74,1.64,1.64,1.64,1.64.74,1.64,1.64-.74,1.64-1.64,1.64h-3.28c-.69,0-1.31.45-1.54,1.11-.3.85-1.23,1.3-2.09,1-.13-.04-.26-.11-.37-.19-.27-.19-.59-.28-.92-.28h-3.28c-.9,0-1.64-.74-1.64-1.64s.74-1.64,1.64-1.64,1.64-.74,1.64-1.64-.74-1.64-1.64-1.64h-6.56c-.9,0-1.64.74-1.64,1.64s.74,1.64,1.64,1.64,1.64.74,1.64,1.64-.74,1.64-1.64,1.64h-3.28c-.9,0-1.64.74-1.64,1.64s.74,1.64,1.64,1.64,1.64.74,1.64,1.64-.74,1.64-1.64,1.64h-8.2c-.9,0-1.64.74-1.64,1.64s.74,1.64,1.64,1.64,1.64.74,1.64,1.64-.74,1.64-1.64,1.64h-3.28c-.9,0-1.64.74-1.64,1.64s.74,1.64,1.64,1.64h6.56c.14,0,.27-.03.41-.06.27-.07.55-.07.82,0,.13.04.27.06.41.06h13.12c.9,0,1.64-.74,1.64-1.64s-.74-1.64-1.64-1.64h-4.92v-3.28h4.92c2.72,0,4.92,2.21,4.92,4.92v-1.64c0-2.72,2.21-4.92,4.92-4.92h16.43c.22,0,.44.03.66.05.43.06.86.18,1.25.35.12.05.24.12.36.18.03,0,.04.02.07.04.07.04.13.08.19.12.07.04.14.08.21.12.27.18.51.38.74.61.11.11.2.21.3.33.09.11.17.22.25.34,0,.02.02.03.03.04,0,0,.04.06.05.09.06.1.13.2.19.31.03.04.04.1.07.14.04.1.1.19.13.28.02.04.04.09.04.13.37-.04.75-.08,1.14-.08h3.93c.44-.44.97-.8,1.56-1.04.02,0,.04,0,.05-.02.13-.05.27-.11.4-.14.04,0,.07-.02.11-.03.12-.04.24-.07.35-.09.07-.02.15-.03.22-.04.09-.02.18-.03.27-.04.17-.02.33-.03.51-.03v1.44c3.52.07,6.55,2.14,7.98,5.13h13.33c.9,0,1.64-.74,1.64-1.64s-.74-1.64-1.64-1.64c-.23,0-.44-.04-.64-.13-.58-.25-1-.83-1-1.52s.42-1.26,1-1.52ZM140.84,353.3l-5.01.69c-.74.11-1.31.74-1.31,1.49,0,.42.18.82.49,1.1l2.17,2h0s6.39,0,6.39,0l.49-1.28c.42-1.09.14-2.33-.68-3.15-.66-.66-1.61-.97-2.53-.84ZM280.13,284.87c-5,0-9.13,1.28-12.31,3.78-1.74,1.37-3.34,3.12-4.78,5.19l-3.4,4.91-2.03-12.41h-17.74l-.04,8.66h8.44l-.17,40.16h-8.44l-.04,8.73h32.26l.04-8.73h-11.62l.09-21.37.11-.35c1.75-5.55,4.14-9.9,7.11-12.94,2.16-2.21,4.64-3.66,7.38-4.29l2.97-.68-.05,12.01h8.72l2.16-21.2c-1.34-.43-2.7-.79-4.06-1.06-1.35-.27-2.9-.41-4.6-.41ZM335.97,334.95l.2-48.61h-28.88l-.04,8.94h16.67l-.17,39.67h-17.22l-.04,8.94h45.08l.04-8.94h-15.65ZM192.47,352.76l-1.02.22s-.03,0-.04,0c-.4.09-.8.19-1.18.32-.24.08-.46.18-.69.27-.16.06-.32.12-.48.19-.31.13-.6.29-.89.45-.07.04-.14.07-.21.11-.34.19-.66.4-.98.62-.02,0-.04.03-.05.04-1.35.94-2.49,2.14-3.38,3.53,0,.02.02.04.02.06h6.02c.59,0,1.16-.12,1.67-.34.26-.11.51-.24.73-.4h0c1.14-.76,1.9-2.07,1.9-3.55,0-.62-.13-1.2-.37-1.74l-1.02.22ZM144.4,292.77h.28v-1.64c0,.58-.11,1.13-.28,1.64ZM143.55,321.64c.15,1.2.69,2.3,1.48,3.16.49.53,1.06.97,1.71,1.28.52.25,1.07.44,1.67.53l.43.06.22.04c-.33-.71-.6-1.28-.89-1.79-.1-.17-.21-.35-.34-.53-.02-.02-.03-.04-.04-.06-.13-.19-.27-.39-.43-.58h0c-.39-.45-.86-.91-1.52-1.44-.48-.39-1.92-1.6-2.45-1.92l.15,1.25ZM327.72,273.53c2.35,0,4.31-.73,5.81-2.23,1.5-1.5,2.22-3.3,2.23-5.5,0-2.2-.71-3.98-2.19-5.45-1.48-1.46-3.38-2.18-5.79-2.18s-4.23.71-5.73,2.18c-1.52,1.47-2.25,3.25-2.26,5.45,0,2.21.72,4,2.21,5.5,1.5,1.51,3.37,2.23,5.71,2.23ZM397.89,294.62c2.45,0,4.88.42,7.21,1.22,2.33.82,4.65,2.01,6.88,3.56l5.64-7.69c-2.74-2.28-5.79-4.01-9.08-5.17-3.29-1.15-6.94-1.74-10.84-1.74-5.89,0-11.01,1.35-15.22,4s-7.48,6.33-9.72,10.9c-2.24,4.58-3.39,9.85-3.42,15.67-.03,5.96,1.07,11.26,3.26,15.75,2.19,4.48,5.4,8.01,9.54,10.49s9.22,3.74,15.08,3.74c3.8,0,7.53-.67,11.09-1.98,3.57-1.32,6.64-3.07,9.15-5.21h.02l-5.63-7.85c-2.1,1.48-4.34,2.7-6.66,3.62s-4.86,1.39-7.53,1.39c-2.96,0-5.63-.67-7.95-1.98-2.34-1.34-4.13-3.43-5.45-6.38-1.31-2.91-1.97-6.8-1.95-11.58.03-7.12,1.51-12.42,4.4-15.75,2.89-3.32,6.64-5.01,11.17-5.01ZM172.49,343.56h0s-1.01-.59-1.01-.59c-1.28-.74-2.82-.87-4.21-.37-.2.07-.4.16-.59.26-.1.05-.19.11-.28.16-.09.05-.18.1-.27.16-.13.09-.26.19-.37.28-.04.04-.08.06-.12.1-.14.12-.27.26-.4.39,0,.02-.03.03-.04.04-.55.61-.95,1.36-1.15,2.17,0,.03.02.04.03.07h10.67c-.41-1.11-1.18-2.06-2.24-2.67ZM137.65,337.98l3.94,2.14c3.7,2.02,8.3.9,10.7-2.5h-12.94c-.61,0-1.19.13-1.71.35ZM465.55,284.83c-3.29,0-6.53.73-9.65,2.15-1.52.69-2.95,1.57-4.29,2.6l-3.91,3.01.12-30.55-12.22,1.31-.34,80.55h12.21l.17-41.17.47-.64c.91-1.24,1.98-2.44,3.17-3.54,1.4-1.29,2.94-2.37,4.59-3.19,1.67-.82,3.38-1.22,5.21-1.22,2.9,0,5.01.76,6.32,2.26h0c1.29,1.51,1.95,4,1.93,7.44l-.17,40.06h12.21l.18-41.96c.03-5.39-1.3-9.64-3.93-12.63-2.62-2.98-6.69-4.49-12.08-4.49ZM906.88,312.39h46.26v-10.3h-46.26v10.3ZM881.12,281.65c-5.15,0-9.36,1.3-12.63,3.89-3.27,2.6-6,6.38-8.2,11.34l-2.3-13.72h-18.26v8.9h8.68v41.27h-8.68v8.96h33.15v-8.96h-11.93v-21.95c1.79-5.9,4.25-10.45,7.36-13.66,2.99-3.08,6.53-4.67,10.61-4.79v12.02h8.96l2.13-21.78c-1.38-.45-2.77-.81-4.17-1.09-1.4-.28-2.98-.42-4.73-.42ZM1020.36,295.34c2.07,4.39,3.11,9.66,3.11,15.82,0,1.01-.03,2.01-.08,3-.06.99-.12,1.86-.2,2.6h-39.2c.26,4.03,1.12,7.33,2.58,9.88s3.37,4.43,5.74,5.63c2.37,1.2,4.97,1.79,7.81,1.79s5.6-.45,8.06-1.34c2.46-.9,4.95-2.16,7.45-3.81l5.43,7.5c-2.76,2.24-5.99,4.03-9.69,5.38-3.7,1.34-7.65,2.02-11.87,2.02-6.12,0-11.3-1.31-15.54-3.92-4.24-2.61-7.46-6.25-9.66-10.92-2.2-4.67-3.3-10.06-3.3-16.18s1.08-11.25,3.25-15.93c2.17-4.69,5.26-8.4,9.3-11.14,4.03-2.74,8.85-4.12,14.45-4.12,5.26,0,9.79,1.2,13.58,3.58,3.79,2.39,6.72,5.78,8.79,10.16ZM1011.32,308.19c-.11-5.56-1.3-9.84-3.56-12.82-2.26-2.99-5.48-4.48-9.66-4.48-3.92,0-7.16,1.4-9.72,4.2-2.56,2.8-4.04,7.17-4.45,13.1h27.38ZM1152.83,330.87c-1.49.82-3.16,1.49-4.98,2.02-1.83.52-3.83.78-5.99.78-3.62,0-6.23-.77-7.81-2.32-1.59-1.55-2.38-3.91-2.38-7.08v-31.98h18.54l1.4-9.13h-19.94v-14.73l-12.54,1.51v13.22h-13.16v9.13h13.16v32.09c0,5.82,1.78,10.52,5.35,14.08,3.56,3.57,8.78,5.35,15.65,5.35,3.28,0,6.44-.43,9.46-1.29,3.02-.86,5.62-1.98,7.78-3.36l-4.54-8.29ZM1090.39,283.16h-13.78l-12.1,20.83-12.1-20.83h-14.45l18.87,27.94-21.22,31.19h13.89l14.45-24.14,14.5,24.14h14.73l-21.28-31.7,18.48-27.44ZM606.61,332.08c-2.39.95-4.97,1.43-7.73,1.43-3.06,0-5.79-.68-8.18-2.04-2.39-1.36-4.27-3.55-5.63-6.55-1.36-3-2.04-6.97-2.04-11.9,0-7.35,1.48-12.75,4.45-16.18,2.97-3.43,6.78-5.15,11.45-5.15,2.54,0,5.01.42,7.42,1.26,2.41.84,4.77,2.06,7.08,3.67l5.77-7.9c-2.84-2.35-5.96-4.12-9.35-5.32-3.4-1.19-7.11-1.79-11.14-1.79-6.09,0-11.29,1.37-15.62,4.12-4.33,2.74-7.64,6.48-9.94,11.2-2.3,4.72-3.44,10.09-3.44,16.1s1.14,11.56,3.42,16.18c2.28,4.63,5.56,8.22,9.86,10.78,4.29,2.56,9.46,3.84,15.51,3.84,3.92,0,7.72-.68,11.4-2.04,3.68-1.36,6.8-3.14,9.38-5.35l-5.82-8.06c-2.17,1.53-4.44,2.77-6.83,3.72ZM503.68,312.39h46.26v-10.3h-46.26v10.3ZM819.27,296.27c2.03,4.63,3.05,10.08,3.05,16.35s-1.04,11.7-3.11,16.38c-2.07,4.69-5.1,8.33-9.07,10.92-3.98,2.59-8.82,3.89-14.53,3.89s-10.56-1.26-14.53-3.78c-3.98-2.52-7-6.11-9.07-10.78-2.07-4.67-3.11-10.17-3.11-16.52s1.04-11.57,3.11-16.24c2.07-4.67,5.1-8.32,9.1-10.95,4-2.63,8.85-3.95,14.56-3.95s10.66,1.29,14.62,3.86c3.96,2.58,6.95,6.18,8.99,10.81ZM809.16,312.62c0-7.28-1.12-12.65-3.36-16.1-2.24-3.45-5.62-5.18-10.14-5.18s-7.92,1.73-10.19,5.18c-2.28,3.45-3.42,8.86-3.42,16.21s1.13,12.71,3.39,16.18,5.65,5.21,10.16,5.21,7.91-1.74,10.16-5.21,3.39-8.9,3.39-16.3ZM744.59,333.11c-1.53.37-3.16.56-4.87.56-2.65,0-4.81-.57-6.47-1.71-1.66-1.14-2.49-3.07-2.49-5.8v-66.75h-30.41v9.24h17.86v56.39c0,5.82,1.65,10.41,4.96,13.75,3.3,3.34,7.92,5.01,13.86,5.01,3.29,0,6.21-.34,8.76-1.01,2.56-.67,4.71-1.46,6.47-2.35l-3.19-8.74c-1.46.56-2.95,1.03-4.48,1.4ZM684.87,296.27c2.03,4.63,3.05,10.08,3.05,16.35s-1.04,11.7-3.11,16.38c-2.07,4.69-5.1,8.33-9.07,10.92-3.98,2.59-8.82,3.89-14.53,3.89s-10.56-1.26-14.53-3.78c-3.98-2.52-7-6.11-9.07-10.78-2.07-4.67-3.11-10.17-3.11-16.52s1.04-11.57,3.11-16.24c2.07-4.67,5.1-8.32,9.1-10.95,4-2.63,8.85-3.95,14.56-3.95s10.66,1.29,14.62,3.86c3.96,2.58,6.95,6.18,8.99,10.81ZM674.76,312.62c0-7.28-1.12-12.65-3.36-16.1-2.24-3.45-5.62-5.18-10.14-5.18s-7.92,1.73-10.19,5.18c-2.28,3.45-3.42,8.86-3.42,16.21s1.13,12.71,3.39,16.18,5.65,5.21,10.16,5.21,7.91-1.74,10.16-5.21,3.39-8.9,3.39-16.3Z" />
</svg>
