<?xml version="1.0" encoding="UTF-8" standalone="no"?>
<!-- Created with Inkscape (http://www.inkscape.org/) -->

<svg
   width="139.09967mm"
   height="132.91667mm"
   viewBox="0 0 139.09967 132.91667"
   version="1.1"
   id="svg1"
   xml:space="preserve"
   xmlns="http://www.w3.org/2000/svg"
   xmlns:svg="http://www.w3.org/2000/svg"><defs
     id="defs1" /><g
     id="layer1"
     transform="translate(-7.401587,-8.774538)"><path
       id="path24"
       style="display:inline;fill:none;fill-opacity:1;stroke:#ffffff;stroke-width:6.53865;stroke-linejoin:round;stroke-opacity:1"
       d="m 115.41879,12.043709 -41.001627,23.672457 -0.306958,0.966866 -0.337447,0.116272 -3.732589,11.818917 0.282154,5.17e-4 -0.763778,2.405538 -9.995256,-17.93844 -12.996622,-8.355046 -28.754318,-4.666898 -7.141682,4.357873 43.445926,34.126599 -0.448034,0.279053 -2.022616,4.193542 -9.371521,7.79384 2.362647,0.985986 7.961271,-4.92373 2.475818,0.932759 9.22476,29.187883 -14.028601,6.129343 3.318143,4.2664 5.372282,-1.89652 -1.105875,-3.00188 8.216552,-3.634408 2.370398,4.108278 4.582149,-1.73788 -2.768823,-2.228804 19.018994,3.401344 4.259172,21.12687 13.401761,4.3217 0.65991,1.45935 26.14776,7.3303 -1.6583,-1.6645 11.14764,3.44475 -3.90415,-14.95671 -31.8487,-18.55287 -24.246584,-26.351364 19.963124,-0.295589 18.25728,-48.73811 z" /><path
       style="display:inline;fill:#f07802;fill-opacity:1;stroke:none;stroke-width:6.53865;stroke-linejoin:round"
       d="M 108.20921,128.26296 93.533208,123.5303 87.424564,93.229805 97.886674,101.63522 Z"
       id="path5" /><path
       style="display:inline;fill:#121274;fill-opacity:1;stroke:none;stroke-width:6.53865;stroke-linejoin:round"
       d="M 133.74284,136.64183 107.59479,129.31161 91.945911,94.690121 Z"
       id="path13" /><path
       style="display:inline;fill:#9c9c9c;fill-opacity:1;stroke:none;stroke-width:6.53865;stroke-linejoin:round"
       d="M 108.30142,105.80614 64.613424,97.993605 53.684019,63.411901 67.299686,61.245772 Z"
       id="path6" /><path
       style="display:inline;fill:#f07802;fill-opacity:1;stroke:none;stroke-width:6.53865;stroke-linejoin:round"
       d="M 143.23233,138.42206 130.45337,134.47346 100.88081,104.21213 87.424564,93.229805 139.32782,123.46529 Z"
       id="path14" /><path
       style="display:inline;fill:#121274;fill-opacity:1;stroke:none;stroke-width:6.53865;stroke-linejoin:round"
       d="M 61.884363,64.64969 10.670876,24.421572 17.812466,20.063904 46.566734,24.731018 59.56351,33.08609 76.892546,64.18552 Z"
       id="path9" /><path
       style="display:inline;fill:#f07802;fill-opacity:1;stroke:none;stroke-width:6.53865;stroke-linejoin:round"
       d="M 31.558553,37.882518 42.85337,46.701761 61.729639,40.512818 48.113969,29.218002 32.332171,29.991621 Z"
       id="path10" /><path
       style="display:inline;fill:#121274;fill-opacity:1;stroke:none;stroke-width:6.53865;stroke-linejoin:round"
       d="M 66.216623,61.555219 74.41697,35.716392 115.4187,12.04369 l 6.03423,17.483759 -18.25738,48.737907 -20.887679,0.309451 z"
       id="path7" /><path
       style="display:inline;fill:#f07802;fill-opacity:1;stroke:none;stroke-width:6.53865;stroke-linejoin:round"
       d="m 73.772881,36.799454 26.482919,-9.128687 11.60427,7.581452 -3.71337,13.460947 -38.106351,-0.09475 z"
       id="path8" /><path
       style="display:inline;fill:#000000;fill-opacity:1;stroke:none;stroke-width:6.53865;stroke-linejoin:round"
       d="m 66.852218,59.397303 -10.020107,-2.540308 -3.163596,1.970638 -2.022536,4.193447 -9.371809,7.793862 2.362802,0.985841 7.96129,-4.92368 9.737851,3.66933 5.927387,-2.11692 z"
       id="path11" /><path
       style="display:inline;fill:#000000;fill-opacity:1;stroke:none;stroke-width:9.44355;stroke-linejoin:round"
       d="m 66.545448,96.01647 -16.275136,7.11051 3.318231,4.26632 5.372376,-1.89614 -1.106079,-3.00222 8.216575,-3.63426 2.370165,4.10829 4.58232,-1.73813 z"
       id="path12" /></g></svg>
