<svg xmlns="http://www.w3.org/2000/svg" id="Layer_1" data-name="Layer 1" viewBox="70.76 379.83 858.48 240.37"><defs><style>.cls-1{fill:#045770;}.cls-2{fill:#f53921;}</style></defs><title>Diptune - Logo 2</title><path class="cls-1" d="M413.94,458.47V444.09H528v14.38Zm60.42,114.75q-18,0-27.77-9.75t-9.75-27.53V415.83h17.3V535q0,11.21,5.72,17.29t16.45,6.09q11.44,0,19-6.57l6.09,12.42A31.85,31.85,0,0,1,489.1,571,50.32,50.32,0,0,1,474.36,573.22Z"/><path class="cls-1" d="M571.08,573.22q-16.32,0-28.5-6.1a43.06,43.06,0,0,1-18.89-18.27Q517,536.67,517,518.4V444.09h17.3v72.36q0,20.46,10.11,30.82t28.39,10.35q13.4,0,23.26-5.48a36.37,36.37,0,0,0,15.11-16q5.24-10.47,5.24-25.09V458a13.89,13.89,0,0,1,13.89-13.89h3.41V572H617.13V536.91l2.68,6.34a47.39,47.39,0,0,1-18.88,22Q588.14,573.22,571.08,573.22Z"/><path class="cls-1" d="M732.61,442.87q15.58,0,27.41,6A42.92,42.92,0,0,1,778.53,467q6.71,12.19,6.7,30.7V572h-3.4a13.89,13.89,0,0,1-13.89-13.9V499.4q0-20.22-10.12-30.58t-28.38-10.35q-13.65,0-23.75,5.48a37.55,37.55,0,0,0-15.59,15.83q-5.49,10.37-5.49,25V572h-17.3V444.09h16.57v35.08l-2.68-6.57a46.56,46.56,0,0,1,19.49-21.81Q714.09,442.87,732.61,442.87Z"/><path class="cls-1" d="M921.18,473.93a58.12,58.12,0,0,0-22-22.89q-14-8.18-32-8.17a61.8,61.8,0,0,0-32,8.41,60.46,60.46,0,0,0-22.42,23,61.44,61.44,0,0,0-4.92,11.54h17.19a43,43,0,0,1,18.55-22,46.17,46.17,0,0,1,23.63-6.1,45.33,45.33,0,0,1,23.64,6.1,43.92,43.92,0,0,1,16.2,16.93,48.65,48.65,0,0,1,5.73,19.61H804.85c-.23,2.47-.37,5-.37,7.56q0,19,8.53,33.75a61,61,0,0,0,23.63,23.14q15.11,8.4,35.08,8.41a72.11,72.11,0,0,0,28.14-5.36,54.83,54.83,0,0,0,21.32-15.6l-9.74-11.2A45.28,45.28,0,0,1,894,553.72a56.85,56.85,0,0,1-21.81,4.15,55,55,0,0,1-26.43-6.21,45.11,45.11,0,0,1-18-17.3,48.51,48.51,0,0,1-6.27-21.08H929c0-1,0-1.9.12-2.8s.12-1.74.12-2.56Q929.22,488.67,921.18,473.93Z"/><path class="cls-1" d="M282.21,620.17V444h16.66V482.7l-1.71,25.73,2.45,26v68.37a17.4,17.4,0,0,1-17.4,17.4Zm66.41-46.32a59.5,59.5,0,0,1-30.14-7.72A55.78,55.78,0,0,1,297,543.83q-7.95-14.57-8-35.65t7.84-35.65a54.27,54.27,0,0,1,21.32-22.18,60.85,60.85,0,0,1,30.39-7.6q18.38,0,33,8.21a59.25,59.25,0,0,1,22.91,23q8.33,14.83,8.33,34.19,0,19.6-8.33,34.31a60.27,60.27,0,0,1-22.91,23Q367,573.86,348.62,573.85Zm-1.23-15.43a48,48,0,0,0,24.51-6.25,45.71,45.71,0,0,0,17.15-17.65q6.38-11.38,6.37-26.34T389.05,482a46.36,46.36,0,0,0-41.66-24,47.82,47.82,0,0,0-24.62,6.37A45.68,45.68,0,0,0,305.61,482q-6.24,11.28-6.25,26.22t6.25,26.34a44.58,44.58,0,0,0,17.16,17.65A48.64,48.64,0,0,0,347.39,558.42Z"/><path class="cls-1" d="M201.39,415.48V574.27H184.73V535.55l1.71-25.73-2.45-26V398.08h0A17.4,17.4,0,0,1,201.39,415.48ZM135,444.4a59.5,59.5,0,0,1,30.14,7.72,55.69,55.69,0,0,1,21.44,22.3q8,14.56,8,35.65t-7.84,35.65a54.27,54.27,0,0,1-21.32,22.18A60.88,60.88,0,0,1,135,575.5q-18.37,0-33-8.21a59.18,59.18,0,0,1-22.91-23q-8.33-14.84-8.33-34.19,0-19.6,8.33-34.31a60.2,60.2,0,0,1,22.91-23Q116.6,444.39,135,444.4Zm1.23,15.43a48,48,0,0,0-24.51,6.25,45.71,45.71,0,0,0-17.15,17.65q-6.37,11.38-6.37,26.34t6.37,26.22a46.36,46.36,0,0,0,41.66,24,47.82,47.82,0,0,0,24.62-6.37A45.75,45.75,0,0,0,178,536.29q6.24-11.28,6.24-26.22T178,483.73a44.64,44.64,0,0,0-17.16-17.65A48.64,48.64,0,0,0,136.21,459.83Z"/><path class="cls-2" d="M296.93,389.6c-6-11.25-24.6-13.05-41.53-4-13.1,7-21.33,18.38-21.63,28.4h-.05V574.27h10.21V429.78c8.59,3.89,21.3,2.92,33.2-3.43C294.08,417.31,302.93,400.87,296.93,389.6Z"/></svg>