<?xml version="1.0" encoding="utf-8"?>
<svg viewBox="0 0 512.0 512.0" xmlns="http://www.w3.org/2000/svg">
 <svg height="100.0%" version="1.1" viewBox="0 0 512 512" width="100.0%" x="0.0%" xmlns="http://www.w3.org/2000/svg" y="0.0%">
  <defs color-interpolation-filters="sRGB">
   <linearGradient gradientUnits="userSpaceOnUse" id="night-gradient" x2="512" y1="512">
    <stop offset="0%" stop-color="#051636"/>
    <stop offset="30%" stop-color="#001953"/>
    <stop offset="65%" stop-color="#001A69"/>
    <stop offset="100%" stop-color="#011256"/>
   </linearGradient>
  </defs>
  <rect class="background" fill="url(#night-gradient)" height="100%" width="100%"/>
 </svg>
 <svg filter="url(#emblematic-compose-shadow)" height="63.0%" preserveAspectRatio="xMidYMid meet" viewBox="0 0 512 512" width="63.0%" x="18.5%" xmlns="http://www.w3.org/2000/svg" y="18.5%">
  <!--! Font Awesome Pro 6.7.2 by @fontawesome - https://fontawesome.com License - https://fontawesome.com/license (Commercial License) Copyright 2024 Fonticons, Inc. -->
  <path d="M384 80c-11.5 0-22.5 2.4-32.4 6.8C347 38.1 305.9 0 256 0s-91 38.1-95.6 86.8C150.5 82.4 139.5 80 128 80c-44.2 0-80 35.8-80 80c0 14.4 3.8 27.9 10.5 39.6C24.1 214.2 0 248.3 0 288c0 53 43 96 96 96l128 0 0 96c0 17.7 14.3 32 32 32s32-14.3 32-32l0-96 128 0c53 0 96-43 96-96c0-39.7-24.1-73.8-58.5-88.4c6.7-11.7 10.5-25.2 10.5-39.6c0-44.2-35.8-80-80-80z" fill="#85C3FF"/>
  <defs>
   <filter color-interpolation-filters="sRGB" id="emblematic-compose-shadow">
    <feFlood flood-color="#010828" flood-opacity="0.5" in="SourceGraphic" result="flood"/>
    <feGaussianBlur in="SourceGraphic" result="blur" stdDeviation="24.0"/>
    <feOffset dx="-4.0" dy="8.0" in="blur" result="offset"/>
    <feComposite in="flood" in2="offset" operator="in" result="shadow"/>
    <feComposite in="SourceGraphic" in2="shadow" operator="over" result="image"/>
   </filter>
  </defs>
 </svg>
</svg>
