<svg width="103" height="100" viewBox="0 0 103 100" fill="none" xmlns="http://www.w3.org/2000/svg">
<rect x="2" width="100" height="100" rx="50" fill="white"/>
<path d="M70.4748 23.9935L70.5098 24.001C70.6027 24.1022 70.5975 24.137 70.5952 24.3129C70.5692 26.317 70.5771 28.3294 70.5782 30.333L70.5867 44.1314C71.368 44.5629 72.9464 46.0908 73.5668 46.7762C76.7003 50.2372 78.3157 54.9506 77.993 59.6167C77.666 64.3439 75.3711 68.5048 71.8712 71.6103C69.5882 73.632 66.8043 75.004 63.8102 75.5828C63.465 75.6479 61.6552 75.9309 61.4638 75.7105L61.4786 75.5252C61.5347 72.8799 61.5138 70.0401 61.4858 67.3882C65.8695 66.2202 69.134 62.9575 70.2485 58.5473C70.6898 56.8009 70.6374 55.1254 70.6249 53.3453L70.6121 49.8068L70.602 46.3378C70.6023 45.649 70.6274 44.894 70.5917 44.215C69.4442 43.4962 68.0631 42.6892 66.9936 41.9036C64.6283 40.1664 63.2216 37.753 62.8225 34.8432C62.4701 32.158 63.1936 29.4425 64.8349 27.2885C66.2398 25.4547 68.1794 24.2902 70.4748 23.9935Z" fill="#63A0EF"/>
<path d="M35.0766 44.1841C35.1839 44.295 35.1311 46.4242 35.1313 46.7424L35.1318 52.6749C35.1327 54.0366 35.1103 55.8991 35.31 57.2283C35.5252 58.7427 36.027 60.2022 36.7884 61.5288C38.4701 64.4549 40.9085 66.4851 44.176 67.3729C44.2633 69.6943 44.1699 72.0575 44.1845 74.3828C44.1874 74.8441 44.1461 75.3891 44.2024 75.8417C42.0764 75.6634 40.5854 75.2852 38.6201 74.5071C35.7411 73.2827 33.247 71.3024 31.4018 68.7761C28.5224 64.8641 27.4622 60.2232 28.2102 55.4326C28.9209 50.9225 31.3899 46.8777 35.0766 44.1841Z" fill="#63A0EF"/>
<path d="M35.174 24.0092C40.6449 24.6593 44.0064 30.4221 42.9494 35.587C42.5093 37.7377 41.5362 39.4453 40.0085 40.9956C38.929 42.0549 36.564 43.3464 35.1746 44.0356C35.2318 39.3706 35.098 34.6663 35.1357 29.998C35.1513 28.0772 35.0664 25.9099 35.174 24.0092Z" fill="#63A0EF"/>
<path d="M56.8427 24.1261L58.9523 24.118C58.9274 24.473 58.9513 25.0198 58.949 25.3904L58.9497 28.5156L58.9537 36.2398L58.9163 58.5769C58.9236 59.6805 59.0534 67.7378 58.9073 68.0849C58.8463 68.2301 58.7129 68.2686 58.578 68.323C57.9433 68.4965 57.4748 68.619 56.8218 68.6741C56.8971 67.3954 56.8513 65.6132 56.8505 64.3138L56.8308 55.8709L56.8467 35.6366C56.8102 31.7998 56.8088 27.9628 56.8427 24.1261Z" fill="#63A0EF"/>
<path d="M46.7939 24.1242C47.5016 24.1096 48.2093 24.1033 48.9171 24.1056C48.8809 25.7817 48.9089 27.5534 48.9101 29.2373L48.9116 38.3245L48.9013 68.6717C48.0947 68.5657 47.5983 68.4482 46.8298 68.1852C46.8901 66.7339 46.8372 64.8679 46.8361 63.3889L46.8302 54.1411L46.7939 24.1242Z" fill="#63A0EF"/>
<path d="M48.9942 68.7391C51.5266 68.6994 54.2091 68.7416 56.7607 68.7299C56.7617 69.452 56.8046 75.6532 56.7145 75.7795L56.5278 75.7899C54.8896 75.7852 53.2515 75.79 51.6133 75.8041C50.8933 75.8069 49.6521 75.7596 48.9786 75.8271C49.0269 73.5355 49.0059 71.0441 48.9942 68.7391Z" fill="#63A0EF"/>
<path d="M67.4748 23.9935L67.5098 24.001C67.6027 24.1022 67.5975 24.137 67.5952 24.3129C67.5692 26.317 67.5771 28.3294 67.5782 30.333L67.5867 44.1314C68.368 44.5629 69.9464 46.0908 70.5668 46.7762C73.7003 50.2372 75.3157 54.9506 74.993 59.6167C74.666 64.3439 72.3711 68.5048 68.8712 71.6103C66.5882 73.632 63.8043 75.004 60.8102 75.5828C60.465 75.6479 58.6552 75.9309 58.4638 75.7105L58.4786 75.5252C58.5347 72.8799 58.5138 70.0401 58.4858 67.3882C62.8695 66.2202 66.134 62.9575 67.2485 58.5473C67.6898 56.8009 67.6374 55.1254 67.6249 53.3453L67.6121 49.8068L67.602 46.3378C67.6023 45.649 67.6274 44.894 67.5917 44.215C66.4442 43.4962 65.0631 42.6892 63.9936 41.9036C61.6283 40.1664 60.2216 37.753 59.8225 34.8432C59.4701 32.158 60.1936 29.4425 61.8349 27.2885C63.2398 25.4547 65.1794 24.2902 67.4748 23.9935Z" fill="#1E1E1E"/>
<path d="M32.0766 44.1841C32.1839 44.295 32.1311 46.4242 32.1313 46.7424L32.1318 52.6749C32.1327 54.0366 32.1103 55.8991 32.31 57.2283C32.5252 58.7427 33.027 60.2022 33.7884 61.5288C35.4701 64.4549 37.9085 66.4851 41.176 67.3729C41.2633 69.6943 41.1699 72.0575 41.1845 74.3828C41.1874 74.8441 41.1461 75.3891 41.2024 75.8417C39.0764 75.6634 37.5854 75.2852 35.6201 74.5071C32.7411 73.2827 30.247 71.3024 28.4018 68.7761C25.5224 64.8641 24.4622 60.2232 25.2102 55.4326C25.9209 50.9225 28.3899 46.8777 32.0766 44.1841Z" fill="#1E1E1E"/>
<path d="M32.174 24.0092C37.6449 24.6593 41.0064 30.4221 39.9494 35.587C39.5093 37.7377 38.5362 39.4453 37.0085 40.9956C35.929 42.0549 33.564 43.3464 32.1746 44.0356C32.2318 39.3706 32.098 34.6663 32.1357 29.998C32.1513 28.0772 32.0664 25.9099 32.174 24.0092Z" fill="#1E1E1E"/>
<path d="M53.8427 24.1261L55.9523 24.118C55.9274 24.473 55.9513 25.0198 55.949 25.3904L55.9497 28.5156L55.9537 36.2398L55.9163 58.5769C55.9236 59.6805 56.0534 67.7378 55.9073 68.0849C55.8463 68.2301 55.7129 68.2686 55.578 68.323C54.9433 68.4965 54.4748 68.619 53.8218 68.6741C53.8971 67.3954 53.8513 65.6132 53.8505 64.3138L53.8308 55.8709L53.8467 35.6366C53.8102 31.7998 53.8088 27.9628 53.8427 24.1261Z" fill="#1E1E1E"/>
<path d="M43.7939 24.1242C44.5016 24.1096 45.2093 24.1033 45.9171 24.1056C45.8809 25.7817 45.9089 27.5534 45.9101 29.2373L45.9116 38.3245L45.9013 68.6717C45.0947 68.5657 44.5983 68.4482 43.8298 68.1852C43.8901 66.7339 43.8372 64.8679 43.8361 63.3889L43.8302 54.1411L43.7939 24.1242Z" fill="#1E1E1E"/>
<path d="M45.9942 68.7391C48.5266 68.6994 51.2091 68.7416 53.7607 68.7299C53.7617 69.452 53.8046 75.6532 53.7145 75.7795L53.5278 75.7899C51.8896 75.7852 50.2515 75.79 48.6133 75.8041C47.8933 75.8069 46.6521 75.7596 45.9786 75.8271C46.0269 73.5355 46.0059 71.0441 45.9942 68.7391Z" fill="#1E1E1E"/>
</svg>
