<svg width="306" height="408" viewBox="0 0 306 408" fill="none" xmlns="http://www.w3.org/2000/svg">
<rect x="0.5" y="0.5" width="305" height="407" fill="#F9FAFB"/>
<rect x="0.5" y="0.5" width="305" height="407" stroke="white"/>
<g filter="url(#filter0_d_1107_3536)">
<path d="M109.464 185V150.091H123.441C126.009 150.091 128.151 150.472 129.867 151.233C131.583 151.994 132.873 153.051 133.737 154.403C134.6 155.744 135.032 157.29 135.032 159.04C135.032 160.403 134.759 161.602 134.214 162.636C133.668 163.659 132.918 164.5 131.964 165.159C131.021 165.807 129.941 166.267 128.725 166.54V166.881C130.055 166.937 131.299 167.312 132.458 168.006C133.629 168.699 134.577 169.67 135.305 170.92C136.032 172.159 136.396 173.636 136.396 175.352C136.396 177.205 135.935 178.858 135.015 180.312C134.106 181.756 132.759 182.898 130.975 183.739C129.191 184.58 126.992 185 124.379 185H109.464ZM116.844 178.966H122.862C124.918 178.966 126.418 178.574 127.362 177.79C128.305 176.994 128.776 175.937 128.776 174.619C128.776 173.653 128.543 172.801 128.077 172.062C127.612 171.324 126.947 170.744 126.083 170.324C125.231 169.903 124.214 169.693 123.032 169.693H116.844V178.966ZM116.844 164.699H122.316C123.327 164.699 124.225 164.523 125.009 164.17C125.805 163.807 126.43 163.295 126.884 162.636C127.35 161.977 127.583 161.188 127.583 160.267C127.583 159.006 127.134 157.989 126.237 157.216C125.35 156.443 124.089 156.057 122.452 156.057H116.844V164.699ZM141.198 185V150.091H164.721V156.176H148.579V164.494H163.511V170.58H148.579V178.915H164.789V185H141.198ZM170.214 185V180.619L187.634 156.176H170.18V150.091H196.907V154.472L179.469 178.915H196.941V185H170.214ZM45.1044 257V222.091H58.8771C61.5249 222.091 63.7805 222.597 65.6442 223.608C67.5078 224.608 68.9283 226 69.9055 227.784C70.8942 229.557 71.3885 231.602 71.3885 233.92C71.3885 236.239 70.8885 238.284 69.8885 240.057C68.8885 241.83 67.4396 243.21 65.5419 244.199C63.6555 245.187 61.3714 245.682 58.6896 245.682H49.9112V239.767H57.4964C58.9169 239.767 60.0874 239.523 61.0078 239.034C61.9396 238.534 62.6328 237.847 63.0874 236.972C63.5533 236.085 63.7862 235.068 63.7862 233.92C63.7862 232.761 63.5533 231.75 63.0874 230.886C62.6328 230.011 61.9396 229.335 61.0078 228.858C60.076 228.369 58.8942 228.125 57.4624 228.125H52.4851V257H45.1044ZM76.1825 257V222.091H89.9553C92.5916 222.091 94.8416 222.562 96.7053 223.506C98.5803 224.437 100.006 225.761 100.984 227.477C101.972 229.182 102.467 231.187 102.467 233.494C102.467 235.812 101.967 237.807 100.967 239.477C99.9666 241.136 98.5178 242.409 96.62 243.295C94.7337 244.182 92.4496 244.625 89.7678 244.625H80.5462V238.693H88.5746C89.9837 238.693 91.1541 238.5 92.0859 238.114C93.0178 237.727 93.7109 237.148 94.1655 236.375C94.6314 235.602 94.8643 234.642 94.8643 233.494C94.8643 232.335 94.6314 231.358 94.1655 230.562C93.7109 229.767 93.0121 229.165 92.0689 228.756C91.1371 228.335 89.9609 228.125 88.5405 228.125H83.5632V257H76.1825ZM95.0348 241.114L103.711 257H95.5632L87.0746 241.114H95.0348ZM85.2678 211.216L88.6939 215.375L92.12 211.216H98.3075V211.455L91.3871 218.955H85.9837L79.0803 211.455V211.216H85.2678ZM107.683 257V222.091H131.205V228.176H115.063V236.494H129.995V242.58H115.063V250.915H131.273V257H107.683ZM137.073 257V222.091H151.05C153.619 222.091 155.761 222.472 157.477 223.233C159.192 223.994 160.482 225.051 161.346 226.403C162.21 227.744 162.641 229.29 162.641 231.04C162.641 232.403 162.369 233.602 161.823 234.636C161.278 235.659 160.528 236.5 159.573 237.159C158.63 237.807 157.55 238.267 156.335 238.54V238.881C157.664 238.937 158.908 239.312 160.067 240.006C161.238 240.699 162.187 241.67 162.914 242.92C163.641 244.159 164.005 245.636 164.005 247.352C164.005 249.205 163.545 250.858 162.624 252.312C161.715 253.756 160.369 254.898 158.585 255.739C156.8 256.58 154.602 257 151.988 257H137.073ZM144.454 250.966H150.471C152.528 250.966 154.028 250.574 154.971 249.79C155.914 248.994 156.386 247.937 156.386 246.619C156.386 245.653 156.153 244.801 155.687 244.062C155.221 243.324 154.556 242.744 153.692 242.324C152.84 241.903 151.823 241.693 150.641 241.693H144.454V250.966ZM144.454 236.699H149.925C150.937 236.699 151.835 236.523 152.619 236.17C153.414 235.807 154.039 235.295 154.494 234.636C154.96 233.977 155.192 233.188 155.192 232.267C155.192 231.006 154.744 229.989 153.846 229.216C152.96 228.443 151.698 228.057 150.062 228.057H144.454V236.699ZM174.825 257H166.915L178.967 222.091H188.478L200.512 257H192.603L183.859 230.068H183.586L174.825 257ZM174.33 243.278H193.012V249.04H174.33V243.278ZM204.714 257V222.091H212.094V250.915H227.06V257H204.714ZM253.511 222.091H260.891V244.761C260.891 247.307 260.283 249.534 259.067 251.443C257.863 253.352 256.175 254.841 254.005 255.909C251.835 256.966 249.306 257.494 246.42 257.494C243.522 257.494 240.988 256.966 238.817 255.909C236.647 254.841 234.96 253.352 233.755 251.443C232.55 249.534 231.948 247.307 231.948 244.761V222.091H239.329V244.131C239.329 245.46 239.619 246.642 240.198 247.676C240.789 248.71 241.619 249.523 242.687 250.114C243.755 250.705 244.999 251 246.42 251C247.852 251 249.096 250.705 250.153 250.114C251.221 249.523 252.045 248.71 252.624 247.676C253.215 246.642 253.511 245.46 253.511 244.131V222.091Z" fill="white"/>
</g>
<defs>
<filter id="filter0_d_1107_3536" x="39.1045" y="146.091" width="227.787" height="119.403" filterUnits="userSpaceOnUse" color-interpolation-filters="sRGB">
<feFlood flood-opacity="0" result="BackgroundImageFix"/>
<feColorMatrix in="SourceAlpha" type="matrix" values="0 0 0 0 0 0 0 0 0 0 0 0 0 0 0 0 0 0 127 0" result="hardAlpha"/>
<feOffset dy="2"/>
<feGaussianBlur stdDeviation="3"/>
<feComposite in2="hardAlpha" operator="out"/>
<feColorMatrix type="matrix" values="0 0 0 0 0 0 0 0 0 0 0 0 0 0 0 0 0 0 0.5 0"/>
<feBlend mode="normal" in2="BackgroundImageFix" result="effect1_dropShadow_1107_3536"/>
<feBlend mode="normal" in="SourceGraphic" in2="effect1_dropShadow_1107_3536" result="shape"/>
</filter>
</defs>
</svg>
