ply
format ascii 1.0
comment VCGLIB generated
element vertex 327
property double x
property double y
property double z
property double nx
property double ny
property double nz
property uchar red
property uchar green
property uchar blue
property uchar alpha
element face 648
property list uchar int vertex_indices
end_header
-1.080726834648175e-15 -6.840400695800781 17.64960861206055 -2.967061691151727 -1.070397401814074 2.940898629897233 255 0 0 255 
-1.135976884495344e-15 -3.472969055175781 18.55191040039062 -2.967060754131462 -0.5434585554696485 3.082091391358222 255 0 0 255 
7.006457429600591e-17 0 -1.144241333007812 -6.283185307179599 -1.734425228684207e-33 -3.847341387443586e-16 255 0 0 255 
-1.154582341642767e-15 0 18.85576057434082 -2.967056821393167 2.984702696488275e-07 3.129637547087487 255 0 0 255 
-1.135976884495344e-15 3.47296142578125 18.55191040039062 -2.96706151127933 0.5434579945415435 3.082091595520152 255 0 0 255 
-7.171231436454558e-16 -15.32089042663574 11.71150970458984 -2.967060206278898 -2.397441326231047 2.011693108805047 255 0 0 255 
-8.680695135487534e-16 -12.85574913024902 14.17665100097656 -2.967060071922456 -2.011692935925832 2.397441447282469 255 0 0 255 
-9.905108351795085e-16 -10 16.17626953125 -2.967057754485436 -1.564817093524671 2.710346737882229 255 0 0 255 
-1.425929803862559e-16 -19.69615936279297 2.328720092773438 -2.967056672273885 -3.082091109203597 0.5434569375054586 255 0 0 255 
-3.487891665538818e-16 -18.79384994506836 5.696159362792969 -2.967063238608809 -2.940898000772874 1.070399749727834 255 0 0 255 
-5.422588252776707e-16 -17.32051086425781 8.855758666992188 -2.967057620128994 -2.710346616830816 1.564817266403891 255 0 0 255 
4.889180815630538e-16 -18.79384994506836 -7.984638214111328 -2.967063701043515 -2.940898307757636 -1.070399091393677 255 0 0 255 
2.827218953954279e-16 -19.69615936279297 -4.617198944091797 -2.967056767640207 -3.082091096147707 -0.5434570867364971 255 0 0 255 
7.006457429600591e-17 -20 -1.144241333007812 -2.967061985565749 -3.129638254084281 -1.492310454653811e-07 255 0 0 255 
1.008198662140765e-15 -12.85574913024902 -16.46513366699219 -2.967061619380678 -2.01169121713056 -2.397443166075067 255 0 0 255 
8.572527594031472e-16 -15.32089042663574 -14 -2.967057403586012 -2.397440738366524 -2.011693212460652 255 0 0 255 
6.823879738696825e-16 -17.32051086425781 -11.14424133300781 -2.967058412928951 -2.710348054746305 -1.564814992932729 255 0 0 255 
1.276106033087355e-15 -3.472969055175781 -20.84039306640625 -2.967063379916327 -0.5434528916149735 -3.082092755069069 255 0 0 255 
1.220856683988707e-15 -6.840400695800781 -19.93810272216797 -2.967055545245695 -1.070396826246368 -2.940897943983126 255 0 0 255 
1.13063998377152e-15 -10 -18.46475219726562 -2.967060729580203 -1.564821328944067 -2.710344762874461 255 0 0 255 
1.220856683988707e-15 6.840400695800781 -19.93810272216797 -2.967054978841964 1.070395966856699 -2.94089817425299 255 0 0 255 
1.276106033087355e-15 3.47296142578125 -20.84039306640625 -2.967064137056795 0.5434523306937509 -3.082092959226081 255 0 0 255 
1.294711373443359e-15 0 -21.14424133300781 -2.967057911447144 2.98468438991728e-07 -3.129637696322181 255 0 0 255 
8.572527594031472e-16 15.32088851928711 -14 -2.967058625479543 2.397441193980127 -2.01169292972893 255 0 0 255 
1.008198662140765e-15 12.85575103759766 -16.46513366699219 -2.967060531842899 2.011691672742944 -2.397442589413136 255 0 0 255 
1.13063998377152e-15 10 -18.46475219726562 -2.96706104338947 1.564820925159127 -2.710345045607792 255 0 0 255 
2.827218953954279e-16 19.69615936279297 -4.617198944091797 -2.967056767640207 3.082091096147716 -0.5434570867364962 255 0 0 255 
4.889180815630538e-16 18.79384994506836 -7.984638214111328 -2.967063701043515 2.940898307757616 -1.07039909139367 255 0 0 255 
6.823879738696825e-16 17.32051086425781 -11.14424133300781 -2.967057964763933 2.710347650962597 -1.5648155695963 255 0 0 255 
-3.487891665538818e-16 18.79384994506836 5.696159362792969 -2.967063238608809 2.940898000772845 1.070399749727822 255 0 0 255 
-1.425929803862559e-16 19.69615936279297 2.328720092773438 -2.967056672273885 3.082091109203568 0.5434569375054531 255 0 0 255 
7.006457429600591e-17 20 -1.144241333007812 -2.967061985565749 3.129638254084274 -1.492310427453347e-07 255 0 0 255 
-8.680695135487534e-16 12.85575103759766 14.17665100097656 -2.967058984384677 2.011693391536865 2.397440870619191 255 0 0 255 
-7.171231436454558e-16 15.32088851928711 11.71150970458984 -2.967061428172838 2.397441781842202 2.011692826071994 255 0 0 255 
-5.422588252776707e-16 17.32051086425781 8.855758666992188 -2.967057171963566 2.710346213046 1.564817843067473 255 0 0 255 
-1.080726834648175e-15 6.840400695800781 17.64960861206055 -2.967061124741774 1.070396542415702 2.940898860172371 255 0 0 255 
-9.905108351795085e-16 10 16.17626953125 -2.967058068294702 1.564816689739743 2.710347020615593 255 0 0 255 
850.718017578125 13.68080902099609 36.44346046447759 -2.168480949200156 1.019336239548308 2.800604840519954 255 0 0 255 
850.718017578125 6.945930480957031 38.24806976318364 -2.168479012831694 0.5175314321034312 2.935062239532153 255 0 0 255 
1000 0 -1.144241333007751 0.4189023799654425 3.559893413038195e-09 -3.236283949159535e-09 255 0 0 255 
850.718017578125 20 33.49678039550786 -2.168478237333624 1.490169497848852 2.581050587154182 255 0 0 255 
850.718017578125 25.71150207519531 29.49753952026373 -2.168479650657978 1.91572704486105 2.283072617753752 255 0 0 255 
850.718017578125 30.64177703857422 24.56726074218755 -2.168479331483656 2.283074364437216 1.915724752197792 255 0 0 255 
850.718017578125 34.64100646972656 18.85576057434087 -2.16848209338158 2.581050720958924 1.49017239435882 255 0 0 255 
850.718017578125 37.58770751953125 12.5365715026856 -2.168477423799434 2.80060253045944 1.019338384481351 255 0 0 255 
850.718017578125 39.39231109619141 5.801689147949271 -2.168479731773401 2.935062803394903 0.517529934385027 255 0 0 255 
850.718017578125 40 -1.14424133300776 -2.168479783669795 2.980340753233184 -2.101722672842588e-07 255 0 0 255 
850.718017578125 39.39231109619141 -8.090160369872995 -2.16847989714091 2.935062832745841 -0.5175301409823903 255 0 0 255 
850.718017578125 37.58770751953125 -14.82504272460932 -2.168478016432628 2.800603047678205 -1.019337656962678 255 0 0 255 
850.718017578125 34.64100646972656 -21.14424133300776 -2.168481731497273 2.581051131734847 -1.490171382674945 255 0 0 255 
850.718017578125 30.64177703857422 -26.85574340820307 -2.168478144578526 2.28307304320585 -1.915725568549286 255 0 0 255 
850.718017578125 25.71150207519531 -31.78601074218745 -2.168482068439687 1.915727887052507 -2.283073189103698 255 0 0 255 
850.718017578125 20 -35.78526306152339 -2.16847680275803 1.49017059855425 -2.581049271445002 255 0 0 255 
850.718017578125 13.68080902099609 -38.73194122314448 -2.16848144350879 1.019336331164691 -2.800605020179857 255 0 0 255 
850.718017578125 6.945930480957031 -40.53655242919917 -2.168478652039052 0.517531591545065 -2.935062060979612 255 0 0 255 
850.718017578125 0 -41.14424133300776 -2.168479912541287 0 -2.980340806151876 255 0 0 255 
850.718017578125 -6.945930480957031 -40.53655242919917 -2.168478715822385 -0.5175314936513762 -2.935062104836496 255 0 0 255 
850.718017578125 -13.68081092834473 -38.73194122314448 -2.168481263595204 -1.019336369874636 -2.80060492856297 255 0 0 255 
850.718017578125 -20 -35.78526306152339 -2.16847747231483 -1.490170084558157 -2.581049885677421 255 0 0 255 
850.718017578125 -25.71150970458984 -31.78601074218745 -2.168480803060973 -1.915727618299643 -2.283072746387711 255 0 0 255 
850.718017578125 -30.64177799224854 -26.85574340820307 -2.168479750425041 -2.28307313089326 -1.915726491698165 255 0 0 255 
850.718017578125 -34.64101696014404 -21.14424133300776 -2.16847927103274 -2.581050496037745 -1.490170491620818 255 0 0 255 
850.718017578125 -37.58770704269409 -14.82504272460932 -2.168479480014032 -2.800604232620292 -1.019336156490699 255 0 0 255 
850.718017578125 -39.39231199026108 -8.090160369872995 -2.168479594798965 -2.935062696009689 -0.5175302094670803 255 0 0 255 
850.718017578125 -40 -1.14424133300776 -2.168480013827578 -2.980340847743191 -2.10171973741291e-07 255 0 0 255 
850.718017578125 -39.39231199026108 5.801689147949271 -2.168479429431646 -2.935062666658737 0.5175300028700557 255 0 0 255 
850.718017578125 -37.58770704269409 12.5365715026856 -2.168478887381882 -2.800603715403665 1.019336884008426 255 0 0 255 
850.718017578125 -34.64101696014404 18.85576057434087 -2.16847963291549 -2.581050085263318 1.490171503302754 255 0 0 255 
850.718017578125 -30.64177799224854 24.56726074218755 -2.168480937330621 -2.283074452123792 1.915725675345749 255 0 0 255 
850.718017578125 -25.71150970458984 29.49753952026373 -2.168478385280504 -1.915726776107607 2.283072175035568 255 0 0 255 
850.718017578125 -20 33.49678039550786 -2.168478906890225 -1.490168983852493 2.58105120138517 255 0 0 255 
850.718017578125 -13.68081092834473 36.44346046447759 -2.168480769286607 -1.019336278258386 2.800604748902954 255 0 0 255 
850.718017578125 -6.945930480957031 38.24806976318364 -2.168479076614974 -0.5175313342098163 2.935062283388974 255 0 0 255 
850.718017578125 0 38.85575962066655 -2.168479649525485 0 2.980340699648924 255 0 0 255 
850.718017578125 6.840400695800781 -19.93810272216792 -3.316130328337623 1.070395966856685 -2.940898174252967 255 0 0 255 
850.718017578125 3.47296142578125 -20.8403930664062 -3.316121170122791 0.5434523306937459 -3.082092959226055 255 0 0 255 
850.718017578125 0 -21.14424133300776 -3.316127395732443 2.984684403517512e-07 -3.129637696322183 255 0 0 255 
850.718017578125 -3.472969055175781 -20.8403930664062 -3.316121927263259 -0.5434528916149716 -3.082092755069066 255 0 0 255 
850.718017578125 -6.840400695800781 -19.93810272216792 -3.316129761933891 -1.070396826246366 -2.940897943983126 255 0 0 255 
850.718017578125 -10 -18.46475219726557 -3.316124577599384 -1.564821328944077 -2.710344762874478 255 0 0 255 
850.718017578125 -12.85574913024902 -16.46513366699213 -3.316123687798909 -2.011691217130568 -2.397443166075074 255 0 0 255 
850.718017578125 -15.32089042663574 -13.99999999999995 -3.316127903593575 -2.39744073836651 -2.011693212460638 255 0 0 255 
850.718017578125 -17.32051086425781 -11.14424133300776 -3.316126894250636 -2.710348054746309 -1.56481499293273 255 0 0 255 
850.718017578125 -18.79384994506836 -7.984638214111276 -3.316121606136071 -2.940898307757616 -1.07039909139367 255 0 0 255 
850.718017578125 -19.69615936279297 -4.617198944091744 -3.316128539539379 -3.082091096147742 -0.5434570867365031 255 0 0 255 
850.718017578125 -20 -1.14424133300776 -3.316123321613837 -3.129638254084274 -1.492310424955345e-07 255 0 0 255 
850.718017578125 -19.69615936279297 2.328720092773489 -3.316128634905701 -3.082091109203568 0.5434569375054533 255 0 0 255 
850.718017578125 -18.79384994506836 5.696159362793021 -3.316122068570778 -2.940898000772871 1.07039974972783 255 0 0 255 
850.718017578125 -17.32051086425781 8.855758666992239 -3.316127687050593 -2.710346616830823 1.564817266403892 255 0 0 255 
850.718017578125 -15.32089042663574 11.7115097045899 -3.316125100900688 -2.39744132623106 2.011693108805056 255 0 0 255 
850.718017578125 -12.85574913024902 14.17665100097661 -3.316125235257131 -2.011692935925839 2.397441447282478 255 0 0 255 
850.718017578125 -10 16.17626953125005 -3.316127552694151 -1.564817093524668 2.710346737882226 255 0 0 255 
850.718017578125 -6.840400695800781 17.6496086120606 -3.31612361602786 -1.070397401814072 2.940898629897228 255 0 0 255 
850.718017578125 -3.472969055175781 18.55191040039068 -3.316124553048125 -0.5434585554696498 3.082091391358234 255 0 0 255 
850.718017578125 0 18.85576057434087 -3.316128485786419 2.984702714148302e-07 3.129637547087485 255 0 0 255 
850.718017578125 3.47296142578125 18.55191040039068 -3.316123795900256 0.5434579945415492 3.082091595520166 255 0 0 255 
850.718017578125 6.840400695800781 17.6496086120606 -3.316124182437813 1.070396542415697 2.940898860172352 255 0 0 255 
850.718017578125 10 16.17626953125005 -3.316127238884884 1.564816689739744 2.710347020615592 255 0 0 255 
850.718017578125 12.85575103759766 14.17665100097661 -3.31612632279491 2.011693391536878 2.397440870619202 255 0 0 255 
850.718017578125 15.32088851928711 11.7115097045899 -3.316123879006748 2.397441781842203 2.011692826071991 255 0 0 255 
850.718017578125 17.32051086425781 8.855758666992239 -3.316128135216021 2.710346213045989 1.564817843067465 255 0 0 255 
850.718017578125 18.79384994506836 5.696159362793021 -3.316122068570778 2.94089800077285 1.070399749727823 255 0 0 255 
850.718017578125 19.69615936279297 2.328720092773489 -3.316128634905702 3.082091109203571 0.5434569375054519 255 0 0 255 
850.718017578125 20 -1.14424133300776 -3.316123321613837 3.129638254084281 -1.492310452433365e-07 255 0 0 255 
850.718017578125 19.69615936279297 -4.617198944091744 -3.316128539539379 3.082091096147707 -0.543457086736497 255 0 0 255 
850.718017578125 18.79384994506836 -7.984638214111276 -3.316121606136071 2.94089830775761 -1.070399091393669 255 0 0 255 
850.718017578125 17.32051086425781 -11.14424133300776 -3.316127342415654 2.7103476509626 -1.564815569596302 255 0 0 255 
850.718017578125 15.32088851928711 -13.99999999999995 -3.316126681700044 2.397441193980111 -2.011692929728917 255 0 0 255 
850.718017578125 12.85575103759766 -16.46513366699213 -3.316124775336688 2.011691672742955 -2.397442589413149 255 0 0 255 
850.718017578125 10 -18.46475219726557 -3.316124263790116 1.564820925159143 -2.710345045607828 255 0 0 255 
-17.64960861206055 1.256561222549663e-15 6.840400695800781 -2.940898629897233 -2.967061691151724 1.070397401814073 0 255 0 255 
-18.55191040039062 6.379740655438242e-16 3.472969055175781 -3.08209139135825 -2.967060754131465 0.5434585554696498 0 255 0 255 
1.144241333007812 0 0 -1.982205235111491e-33 -6.283185307179594 -6.283185307179592 0 255 0 255 
-18.85576057434082 0 0 -6.259275094174974 -2.967056522922895 -2.967057119863434 0 255 0 255 
-18.55191040039062 -6.379726640467854e-16 -3.47296142578125 -3.082091595520178 -2.967061511279333 -0.5434579945415485 0 255 0 255 
-11.71150970458984 2.814401913160018e-15 15.32089042663574 -2.011693108805066 -2.967060206278898 2.397441326231067 0 255 0 255 
-14.17665100097656 2.361562803450125e-15 12.85574913024902 -2.397441447282469 -2.967060071922456 2.011692935925834 0 255 0 255 
-16.17626953125 1.83697019872103e-15 10 -2.710346737882253 -2.967057754485436 1.564817093524685 0 255 0 255 
-2.328720092773438 3.618125777871087e-15 19.69615936279297 -0.5434569375054519 -2.967056672273884 3.082091109203571 0 255 0 255 
-5.696159362792969 3.452374226832544e-15 18.79384994506836 -1.070399749727824 -2.967063238608807 2.94089800077285 0 255 0 255 
-8.855758666992188 3.181726228426542e-15 17.32051086425781 -1.564817266403893 -2.967057620128993 2.710346616830816 0 255 0 255 
7.984638214111328 3.452374226832544e-15 18.79384994506836 1.070399091393671 -2.967063701043513 2.940898307757609 0 255 0 255 
4.617198944091797 3.618125777871087e-15 19.69615936279297 0.543457086736497 -2.967056767640206 3.082091096147707 0 255 0 255 
1.144241333007812 3.67394039744206e-15 20 1.492310452433365e-07 -2.967061985565748 3.129638254084282 0 255 0 255 
16.46513366699219 2.361562803450125e-15 12.85574913024902 2.397443166075067 -2.967061619380677 2.01169121713056 0 255 0 255 
14 2.814401913160018e-15 15.32089042663574 2.01169321246065 -2.967057403586011 2.397440738366526 0 255 0 255 
11.14424133300781 3.181726228426542e-15 17.32051086425781 1.564814992932729 -2.967058412928952 2.710348054746305 0 255 0 255 
20.84039306640625 6.379740655438242e-16 3.472969055175781 3.082092755069043 -2.967063379916326 0.5434528916149655 0 255 0 255 
19.93810272216797 1.256561222549663e-15 6.840400695800781 2.940897943983125 -2.967055545245694 1.07039682624637 0 255 0 255 
18.46475219726562 1.83697019872103e-15 10 2.710344762874461 -2.967060729580205 1.564821328944067 0 255 0 255 
19.93810272216797 -1.256561222549663e-15 -6.840400695800781 2.94089817425299 -2.967054978841963 -1.0703959668567 0 255 0 255 
20.84039306640625 -6.379726640467854e-16 -3.47296142578125 3.08209295922608 -2.967064137056794 -0.5434523306937488 0 255 0 255 
21.14424133300781 0 0 6.259275392644362 -2.967057612978707 -2.967058209915584 0 255 0 255 
14 -2.814401562785758e-15 -15.32088851928711 2.011692929728927 -2.967058625479544 -2.397441193980129 0 255 0 255 
16.46513366699219 -2.361563153824386e-15 -12.85575103759766 2.397442589413137 -2.967060531842896 -2.011691672742942 0 255 0 255 
18.46475219726562 -1.83697019872103e-15 -10 2.710345045607843 -2.967061043389473 -1.564820925159148 0 255 0 255 
4.617198944091797 -3.618125777871087e-15 -19.69615936279297 0.543457086736496 -2.967056767640208 -3.082091096147716 0 255 0 255 
7.984638214111328 -3.452374226832544e-15 -18.79384994506836 1.070399091393672 -2.967063701043514 -2.940898307757614 0 255 0 255 
11.14424133300781 -3.181726228426542e-15 -17.32051086425781 1.564815569596299 -2.967057964763936 -2.710347650962597 0 255 0 255 
-5.696159362792969 -3.452374226832544e-15 -18.79384994506836 -1.070399749727824 -2.967063238608809 -2.940898000772844 0 255 0 255 
-2.328720092773438 -3.618125777871087e-15 -19.69615936279297 -0.5434569375054533 -2.967056672273886 -3.082091109203567 0 255 0 255 
1.144241333007812 -3.67394039744206e-15 -20 1.492310425510457e-07 -2.96706198556575 -3.129638254084274 0 255 0 255 
-14.17665100097656 -2.361563153824386e-15 -12.85575103759766 -2.397440870619209 -2.967058984384676 -2.011693391536884 0 255 0 255 
-11.71150970458984 -2.814401562785758e-15 -15.32088851928711 -2.011692826071993 -2.967061428172839 -2.397441781842203 0 255 0 255 
-8.855758666992188 -3.181726228426542e-15 -17.32051086425781 -1.564817843067475 -2.967057171963568 -2.710346213045999 0 255 0 255 
-17.64960861206055 -1.256561222549663e-15 -6.840400695800781 -2.940898860172396 -2.967061124741771 -1.070396542415711 0 255 0 255 
-16.17626953125 -1.83697019872103e-15 -10 -2.710347020615592 -2.967058068294703 -1.564816689739744 0 255 0 255 
-36.44346046447754 850.718017578125 -13.68080902099624 -2.800604840519954 -2.168480949200157 -1.019336239548306 0 255 0 255 
-38.24806976318359 850.718017578125 -6.945930480957188 -2.935062239532153 -2.168479012831694 -0.51753143210343 0 255 0 255 
1.144241333007812 1000 -1.83697019872103e-13 3.236307374865355e-09 0.4189023799654444 -3.559904229039068e-09 0 255 0 255 
-33.49678039550781 850.718017578125 -20.00000000000016 -2.581050587154181 -2.168478237333622 -1.490169497848853 0 255 0 255 
-29.49753952026367 850.718017578125 -25.71150207519547 -2.283072617753752 -2.168479650657979 -1.915727044861051 0 255 0 255 
-24.5672607421875 850.718017578125 -30.64177703857438 -1.915724752197792 -2.168479331483653 -2.283074364437216 0 255 0 255 
-18.85576057434082 850.718017578125 -34.64100646972671 -1.49017239435882 -2.168482093381583 -2.581050720958925 0 255 0 255 
-12.53657150268555 850.718017578125 -37.5877075195314 -1.019338384481352 -2.168477423799434 -2.80060253045944 0 255 0 255 
-5.801689147949219 850.718017578125 -39.39231109619156 -0.5175299343850267 -2.168479731773399 -2.935062803394902 0 255 0 255 
1.144241333007812 850.718017578125 -40.00000000000015 2.101722672842588e-07 -2.168479783669798 -2.980340753233185 0 255 0 255 
8.090160369873047 850.718017578125 -39.39231109619156 0.5175301409823898 -2.16847989714091 -2.935062832745841 0 255 0 255 
14.82504272460938 850.718017578125 -37.5877075195314 1.01933765696268 -2.168478016432629 -2.800603047678205 0 255 0 255 
21.14424133300781 850.718017578125 -34.64100646972671 1.490171382674944 -2.168481731497275 -2.581051131734849 0 255 0 255 
26.85574340820312 850.718017578125 -30.64177703857438 1.915725568549285 -2.168478144578526 -2.283073043205851 0 255 0 255 
31.7860107421875 850.718017578125 -25.71150207519547 2.283073189103699 -2.168482068439688 -1.915727887052507 0 255 0 255 
35.78526306152344 850.718017578125 -20.00000000000016 2.581049271445003 -2.16847680275803 -1.490170598554249 0 255 0 255 
38.73194122314453 850.718017578125 -13.68080902099624 2.800605020179858 -2.168481443508791 -1.019336331164691 0 255 0 255 
40.53655242919922 850.718017578125 -6.945930480957188 2.935062060979612 -2.168478652039052 -0.5175315915450653 0 255 0 255 
41.14424133300781 850.718017578125 -1.562743645806049e-13 2.980340806151876 -2.168479912541287 8.326672684688674e-17 0 255 0 255 
40.53655242919922 850.718017578125 6.945930480956874 2.935062104836496 -2.168478715822385 0.517531493651376 0 255 0 255 
38.73194122314453 850.718017578125 13.68081092834458 2.80060492856297 -2.168481263595203 1.019336369874636 0 255 0 255 
35.78526306152344 850.718017578125 19.99999999999984 2.581049885677421 -2.168477472314831 1.490170084558158 0 255 0 255 
31.7860107421875 850.718017578125 25.71150970458968 2.283072746387712 -2.168480803060975 1.915727618299643 0 255 0 255 
26.85574340820312 850.718017578125 30.64177799224838 1.915726491698166 -2.16847975042504 2.283073130893259 0 255 0 255 
21.14424133300781 850.718017578125 34.64101696014389 1.49017049162082 -2.168479271032738 2.581050496037745 0 255 0 255 
14.82504272460938 850.718017578125 37.58770704269394 1.0193361564907 -2.168479480014031 2.800604232620291 0 255 0 255 
8.090160369873047 850.718017578125 39.39231199026093 0.5175302094670799 -2.168479594798965 2.935062696009688 0 255 0 255 
1.144241333007812 850.718017578125 39.99999999999985 2.10171973741291e-07 -2.168480013827578 2.98034084774319 0 255 0 255 
-5.801689147949219 850.718017578125 39.39231199026093 -0.5175300028700555 -2.168479429431646 2.935062666658737 0 255 0 255 
-12.53657150268555 850.718017578125 37.58770704269394 -1.019336884008426 -2.16847888738188 2.800603715403664 0 255 0 255 
-18.85576057434082 850.718017578125 34.64101696014389 -1.490171503302755 -2.168479632915489 2.581050085263317 0 255 0 255 
-24.5672607421875 850.718017578125 30.64177799224838 -1.915725675345751 -2.168480937330621 2.28307445212379 0 255 0 255 
-29.49753952026367 850.718017578125 25.71150970458968 -2.283072175035569 -2.168478385280507 1.915726776107608 0 255 0 255 
-33.49678039550781 850.718017578125 19.99999999999984 -2.581051201385169 -2.168478906890223 1.490168983852495 0 255 0 255 
-36.44346046447754 850.718017578125 13.68081092834458 -2.800604748902953 -2.168480769286604 1.019336278258385 0 255 0 255 
-38.24806976318359 850.718017578125 6.945930480956874 -2.935062283388975 -2.168479076614976 0.5175313342098148 0 255 0 255 
-38.8557596206665 850.718017578125 -1.562743645806049e-13 -2.980340699648924 -2.168479649525485 8.326672684688674e-17 0 255 0 255 
19.93810272216797 850.718017578125 -6.840400695800938 2.940898174253015 -3.316130328337624 -1.070395966856709 0 255 0 255 
20.84039306640625 850.718017578125 -3.472961425781406 3.082092959226055 -3.316121170122792 -0.5434523306937442 0 255 0 255 
21.14424133300781 850.718017578125 -1.562743645806049e-13 3.129637696322183 -3.316127395732441 -2.984684403795068e-07 0 255 0 255 
20.84039306640625 850.718017578125 3.472969055175625 3.082092755069067 -3.31612192726326 0.54345289161497 0 255 0 255 
19.93810272216797 850.718017578125 6.840400695800624 2.940897943983099 -3.316129761933892 1.07039682624636 0 255 0 255 
18.46475219726562 850.718017578125 9.999999999999845 2.710344762874479 -3.316124577599382 1.564821328944077 0 255 0 255 
16.46513366699219 850.718017578125 12.85574913024887 2.397443166075074 -3.31612368779891 2.011691217130568 0 255 0 255 
14 850.718017578125 15.32089042663559 2.011693212460635 -3.316127903593575 2.397440738366512 0 255 0 255 
11.14424133300781 850.718017578125 17.32051086425765 1.564814992932729 -3.316126894250631 2.71034805474631 0 255 0 255 
7.984638214111328 850.718017578125 18.7938499450682 1.070399091393672 -3.316121606136072 2.940898307757614 0 255 0 255 
4.617198944091797 850.718017578125 19.69615936279281 0.543457086736496 -3.316128539539379 3.082091096147716 0 255 0 255 
1.144241333007812 850.718017578125 19.99999999999984 1.492310425510457e-07 -3.316123321613836 3.129638254084274 0 255 0 255 
-2.328720092773438 850.718017578125 19.69615936279281 -0.5434569375054533 -3.3161286349057 3.082091109203568 0 255 0 255 
-5.696159362792969 850.718017578125 18.7938499450682 -1.070399749727824 -3.316122068570778 2.940898000772845 0 255 0 255 
-8.855758666992188 850.718017578125 17.32051086425765 -1.56481726640388 -3.31612768705059 2.710346616830799 0 255 0 255 
-11.71150970458984 850.718017578125 15.32089042663559 -2.011693108805054 -3.316125100900689 2.397441326231061 0 255 0 255 
-14.17665100097656 850.718017578125 12.85574913024887 -2.397441447282496 -3.31612523525713 2.011692935925858 0 255 0 255 
-16.17626953125 850.718017578125 9.999999999999845 -2.710346737882225 -3.316127552694152 1.56481709352467 0 255 0 255 
-17.64960861206055 850.718017578125 6.840400695800624 -2.940898629897252 -3.316123616027862 1.070397401814081 0 255 0 255 
-18.55191040039062 850.718017578125 3.472969055175625 -3.082091391358235 -3.316124553048121 0.5434585554696485 0 255 0 255 
-18.85576057434082 850.718017578125 -1.562743645806049e-13 -3.129637547087512 -3.316128485786422 -2.984702690833618e-07 0 255 0 255 
-18.55191040039062 850.718017578125 -3.472961425781406 -3.082091595520167 -3.316123795900253 -0.5434579945415476 0 255 0 255 
-17.64960861206055 850.718017578125 -6.840400695800938 -2.940898860172378 -3.316124182437816 -1.070396542415703 0 255 0 255 
-16.17626953125 850.718017578125 -10.00000000000015 -2.710347020615616 -3.316127238884883 -1.564816689739756 0 255 0 255 
-14.17665100097656 850.718017578125 -12.85575103759781 -2.397440870619201 -3.31612632279491 -2.011693391536878 0 255 0 255 
-11.71150970458984 850.718017578125 -15.32088851928726 -2.011692826072011 -3.316123879006747 -2.397441781842223 0 255 0 255 
-8.855758666992188 850.718017578125 -17.32051086425797 -1.564817843067467 -3.316128135216021 -2.710346213045987 0 255 0 255 
-5.696159362792969 850.718017578125 -18.79384994506852 -1.070399749727824 -3.316122068570779 -2.940898000772849 0 255 0 255 
-2.328720092773438 850.718017578125 -19.69615936279313 -0.5434569375054519 -3.316128634905702 -3.082091109203571 0 255 0 255 
1.144241333007812 850.718017578125 -20.00000000000016 1.492310452433365e-07 -3.316123321613838 -3.129638254084281 0 255 0 255 
4.617198944091797 850.718017578125 -19.69615936279313 0.543457086736497 -3.316128539539381 -3.082091096147707 0 255 0 255 
7.984638214111328 850.718017578125 -18.79384994506852 1.070399091393671 -3.316121606136074 -2.940898307757609 0 255 0 255 
11.14424133300781 850.718017578125 -17.32051086425797 1.564815569596304 -3.316127342415653 -2.710347650962598 0 255 0 255 
14 850.718017578125 -15.32088851928726 2.011692929728914 -3.316126681700043 -2.397441193980113 0 255 0 255 
16.46513366699219 850.718017578125 -12.85575103759781 2.397442589413149 -3.316124775336691 -2.011691672742954 0 255 0 255 
18.46475219726562 850.718017578125 -10.00000000000015 2.71034504560783 -3.316124263790114 -1.564820925159142 0 255 0 255 
-17.64960861206055 -6.840400695800781 0 -2.940898629897233 -1.070397401814072 -2.967061691151724 0 0 255 255 
-18.55191040039062 -3.472969055175781 0 -3.082091391358222 -0.5434585554696469 -2.967060754131465 0 0 255 255 
-18.55191040039062 3.47296142578125 0 -3.082091595520178 0.5434579945415492 -2.967061511279333 0 0 255 255 
-11.71150970458984 -15.32089042663574 0 -2.011693108805047 -2.397441326231047 -2.967060206278898 0 0 255 255 
-14.17665100097656 -12.85574913024902 0 -2.397441447282469 -2.011692935925833 -2.967060071922456 0 0 255 255 
-16.17626953125 -10 0 -2.710346737882253 -1.564817093524685 -2.967057754485436 0 0 255 255 
-2.328720092773438 -19.69615936279297 0 -0.543456937505459 -3.082091109203597 -2.967056672273885 0 0 255 255 
-5.696159362792969 -18.79384994506836 0 -1.070399749727836 -2.940898000772874 -2.967063238608808 0 0 255 255 
-8.855758666992188 -17.32051086425781 0 -1.564817266403893 -2.710346616830816 -2.967057620128994 0 0 255 255 
7.984638214111328 -18.79384994506836 0 1.070399091393678 -2.940898307757635 -2.967063701043513 0 0 255 255 
4.617198944091797 -19.69615936279297 0 0.543457086736497 -3.082091096147707 -2.967056767640207 0 0 255 255 
1.144241333007812 -20 0 1.492310452433365e-07 -3.129638254084281 -2.967061985565749 0 0 255 255 
16.46513366699219 -12.85574913024902 0 2.397443166075106 -2.011691217130597 -2.967061619380677 0 0 255 255 
14 -15.32089042663574 0 2.01169321246065 -2.397440738366525 -2.967057403586012 0 0 255 255 
11.14424133300781 -17.32051086425781 0 1.564814992932729 -2.710348054746305 -2.967058412928953 0 0 255 255 
20.84039306640625 -3.472969055175781 0 3.082092755069069 -0.5434528916149719 -2.967063379916326 0 0 255 255 
19.93810272216797 -6.840400695800781 0 2.940897943983125 -1.070396826246369 -2.967055545245694 0 0 255 255 
18.46475219726562 -10 0 2.710344762874461 -1.564821328944067 -2.967060729580205 0 0 255 255 
19.93810272216797 6.840400695800781 0 2.94089817425299 1.0703959668567 -2.967054978841963 0 0 255 255 
20.84039306640625 3.47296142578125 0 3.08209295922608 0.5434523306937493 -2.967064137056794 0 0 255 255 
14 15.32088851928711 0 2.011692929728927 2.39744119398013 -2.967058625479543 0 0 255 255 
16.46513366699219 12.85575103759766 0 2.397442589413137 2.011691672742942 -2.967060531842896 0 0 255 255 
18.46475219726562 10 0 2.710345045607843 1.564820925159148 -2.967061043389473 0 0 255 255 
4.617198944091797 19.69615936279297 0 0.5434570867365029 3.082091096147742 -2.967056767640207 0 0 255 255 
7.984638214111328 18.79384994506836 0 1.070399091393672 2.940898307757614 -2.967063701043513 0 0 255 255 
11.14424133300781 17.32051086425781 0 1.564815569596299 2.710347650962597 -2.967057964763935 0 0 255 255 
-5.696159362792969 18.79384994506836 0 -1.070399749727831 2.94089800077287 -2.967063238608808 0 0 255 255 
-2.328720092773438 19.69615936279297 0 -0.5434569375054533 3.082091109203568 -2.967056672273885 0 0 255 255 
1.144241333007812 20 0 1.492310425510457e-07 3.129638254084274 -2.967061985565749 0 0 255 255 
-14.17665100097656 12.85575103759766 0 -2.397440870619209 2.011693391536885 -2.967058984384676 0 0 255 255 
-11.71150970458984 15.32088851928711 0 -2.011692826071993 2.397441781842203 -2.967061428172839 0 0 255 255 
-8.855758666992188 17.32051086425781 0 -1.564817843067486 2.710346213046024 -2.967057171963567 0 0 255 255 
-17.64960861206055 6.840400695800781 0 -2.940898860172396 1.070396542415712 -2.967061124741771 0 0 255 255 
-16.17626953125 10 0 -2.710347020615592 1.564816689739744 -2.967058068294703 0 0 255 255 
-36.44346046447754 13.68080902099609 850.718017578125 -2.800604840519954 1.019336239548306 -2.168480949200157 0 0 255 255 
-38.24806976318359 6.945930480957031 850.718017578125 -2.935062239532153 0.5175314321034299 -2.168479012831694 0 0 255 255 
1.144241333007812 0 1000 3.23630082454951e-09 3.559897578109261e-09 0.418902379965445 0 0 255 255 
-33.49678039550781 20 850.718017578125 -2.58105058715418 1.490169497848853 -2.168478237333623 0 0 255 255 
-29.49753952026367 25.71150207519531 850.718017578125 -2.283072617753752 1.915727044861051 -2.168479650657978 0 0 255 255 
-24.5672607421875 30.64177703857422 850.718017578125 -1.915724752197793 2.283074364437216 -2.168479331483655 0 0 255 255 
-18.85576057434082 34.64100646972656 850.718017578125 -1.490172394358821 2.581050720958923 -2.168482093381582 0 0 255 255 
-12.53657150268555 37.58770751953125 850.718017578125 -1.019338384481352 2.80060253045944 -2.168477423799433 0 0 255 255 
-5.801689147949219 39.39231109619141 850.718017578125 -0.5175299343850267 2.935062803394902 -2.168479731773399 0 0 255 255 
1.144241333007812 40 850.718017578125 2.101722672842588e-07 2.980340753233185 -2.168479783669797 0 0 255 255 
8.090160369873047 39.39231109619141 850.718017578125 0.5175301409823898 2.935062832745841 -2.168479897140909 0 0 255 255 
14.82504272460938 37.58770751953125 850.718017578125 1.01933765696268 2.800603047678205 -2.168478016432628 0 0 255 255 
21.14424133300781 34.64100646972656 850.718017578125 1.490171382674945 2.581051131734847 -2.168481731497273 0 0 255 255 
26.85574340820312 30.64177703857422 850.718017578125 1.915725568549286 2.28307304320585 -2.168478144578526 0 0 255 255 
31.7860107421875 25.71150207519531 850.718017578125 2.283073189103699 1.915727887052507 -2.168482068439687 0 0 255 255 
35.78526306152344 20 850.718017578125 2.581049271445003 1.49017059855425 -2.168476802758029 0 0 255 255 
38.73194122314453 13.68080902099609 850.718017578125 2.800605020179857 1.019336331164691 -2.16848144350879 0 0 255 255 
40.53655242919922 6.945930480957031 850.718017578125 2.935062060979612 0.5175315915450653 -2.168478652039052 0 0 255 255 
41.14424133300781 0 850.718017578125 2.980340806151876 0 -2.168479912541287 0 0 255 255 
40.53655242919922 -6.945930480957031 850.718017578125 2.935062104836496 -0.517531493651376 -2.168478715822385 0 0 255 255 
38.73194122314453 -13.68081092834473 850.718017578125 2.80060492856297 -1.019336369874636 -2.168481263595204 0 0 255 255 
35.78526306152344 -20 850.718017578125 2.581049885677421 -1.490170084558157 -2.168477472314829 0 0 255 255 
31.7860107421875 -25.71150970458984 850.718017578125 2.283072746387712 -1.915727618299643 -2.168480803060974 0 0 255 255 
26.85574340820312 -30.64177799224854 850.718017578125 1.915726491698164 -2.283073130893259 -2.16847975042504 0 0 255 255 
21.14424133300781 -34.64101696014404 850.718017578125 1.490170491620819 -2.581050496037746 -2.168479271032742 0 0 255 255 
14.82504272460938 -37.58770704269409 850.718017578125 1.0193361564907 -2.800604232620292 -2.168479480014032 0 0 255 255 
8.090160369873047 -39.39231199026108 850.718017578125 0.5175302094670801 -2.935062696009689 -2.168479594798965 0 0 255 255 
1.144241333007812 -40 850.718017578125 2.101719737690466e-07 -2.980340847743191 -2.168480013827578 0 0 255 255 
-5.801689147949219 -39.39231199026108 850.718017578125 -0.5175300028700555 -2.935062666658737 -2.168479429431647 0 0 255 255 
-12.53657150268555 -37.58770704269409 850.718017578125 -1.019336884008426 -2.800603715403664 -2.168478887381881 0 0 255 255 
-18.85576057434082 -34.64101696014404 850.718017578125 -1.490171503302754 -2.581050085263318 -2.168479632915491 0 0 255 255 
-24.5672607421875 -30.64177799224854 850.718017578125 -1.915725675345749 -2.283074452123791 -2.168480937330619 0 0 255 255 
-29.49753952026367 -25.71150970458984 850.718017578125 -2.283072175035568 -1.915726776107607 -2.168478385280507 0 0 255 255 
-33.49678039550781 -20 850.718017578125 -2.581051201385169 -1.490168983852494 -2.168478906890225 0 0 255 255 
-36.44346046447754 -13.68081092834473 850.718017578125 -2.800604748902954 -1.019336278258385 -2.168480769286604 0 0 255 255 
-38.24806976318359 -6.945930480957031 850.718017578125 -2.935062283388975 -0.5175313342098149 -2.168479076614975 0 0 255 255 
-38.8557596206665 0 850.718017578125 -2.980340699648924 0 -2.168479649525485 0 0 255 255 
19.93810272216797 6.840400695800781 850.718017578125 2.940898174253015 1.070395966856709 -3.316130328337623 0 0 255 255 
20.84039306640625 3.47296142578125 850.718017578125 3.082092959226055 0.5434523306937442 -3.316121170122793 0 0 255 255 
21.14424133300781 0 850.718017578125 3.129637696322183 2.984684403239957e-07 -3.316127395732441 0 0 255 255 
20.84039306640625 -3.472969055175781 850.718017578125 3.082092755069067 -0.54345289161497 -3.31612192726326 0 0 255 255 
19.93810272216797 -6.840400695800781 850.718017578125 2.940897943983125 -1.070396826246367 -3.316129761933892 0 0 255 255 
18.46475219726562 -10 850.718017578125 2.710344762874479 -1.564821328944077 -3.316124577599381 0 0 255 255 
16.46513366699219 -12.85574913024902 850.718017578125 2.397443166075074 -2.011691217130567 -3.31612368779891 0 0 255 255 
14 -15.32089042663574 850.718017578125 2.011693212460675 -2.39744073836655 -3.316127903593575 0 0 255 255 
11.14424133300781 -17.32051086425781 850.718017578125 1.564814992932731 -2.710348054746309 -3.316126894250633 0 0 255 255 
7.984638214111328 -18.79384994506836 850.718017578125 1.070399091393672 -2.940898307757614 -3.316121606136073 0 0 255 255 
4.617198944091797 -19.69615936279297 850.718017578125 0.5434570867365029 -3.082091096147742 -3.31612853953938 0 0 255 255 
1.144241333007812 -20 850.718017578125 1.492310425510457e-07 -3.129638254084274 -3.316123321613837 0 0 255 255 
-2.328720092773438 -19.69615936279297 850.718017578125 -0.5434569375054533 -3.082091109203568 -3.316128634905701 0 0 255 255 
-5.696159362792969 -18.79384994506836 850.718017578125 -1.070399749727831 -2.94089800077287 -3.316122068570779 0 0 255 255 
-8.855758666992188 -17.32051086425781 850.718017578125 -1.564817266403893 -2.710346616830822 -3.316127687050592 0 0 255 255 
-11.71150970458984 -15.32089042663574 850.718017578125 -2.011693108805056 -2.39744132623106 -3.316125100900688 0 0 255 255 
-14.17665100097656 -12.85574913024902 850.718017578125 -2.397441447282477 -2.011692935925839 -3.31612523525713 0 0 255 255 
-16.17626953125 -10 850.718017578125 -2.710346737882225 -1.56481709352467 -3.316127552694152 0 0 255 255 
-17.64960861206055 -6.840400695800781 850.718017578125 -2.940898629897252 -1.070397401814081 -3.316123616027863 0 0 255 255 
-18.55191040039062 -3.472969055175781 850.718017578125 -3.082091391358235 -0.5434585554696483 -3.316124553048121 0 0 255 255 
-18.85576057434082 0 850.718017578125 -3.129637547087485 2.984702713870746e-07 -3.316128485786422 0 0 255 255 
-18.55191040039062 3.47296142578125 850.718017578125 -3.082091595520167 0.5434579945415478 -3.316123795900253 0 0 255 255 
-17.64960861206055 6.840400695800781 850.718017578125 -2.940898860172378 1.070396542415703 -3.316124182437815 0 0 255 255 
-16.17626953125 10 850.718017578125 -2.710347020615616 1.564816689739756 -3.316127238884884 0 0 255 255 
-14.17665100097656 12.85575103759766 850.718017578125 -2.397440870619201 2.011693391536878 -3.316126322794911 0 0 255 255 
-11.71150970458984 15.32088851928711 850.718017578125 -2.011692826072009 2.397441781842224 -3.316123879006748 0 0 255 255 
-8.855758666992188 17.32051086425781 850.718017578125 -1.564817843067465 2.710346213045988 -3.316128135216019 0 0 255 255 
-5.696159362792969 18.79384994506836 850.718017578125 -1.070399749727836 2.940898000772874 -3.316122068570778 0 0 255 255 
-2.328720092773438 19.69615936279297 850.718017578125 -0.543456937505459 3.082091109203597 -3.316128634905701 0 0 255 255 
1.144241333007812 20 850.718017578125 1.492310452433365e-07 3.129638254084281 -3.316123321613837 0 0 255 255 
4.617198944091797 19.69615936279297 850.718017578125 0.543457086736497 3.082091096147707 -3.31612853953938 0 0 255 255 
7.984638214111328 18.79384994506836 850.718017578125 1.070399091393678 2.940898307757635 -3.316121606136072 0 0 255 255 
11.14424133300781 17.32051086425781 850.718017578125 1.564815569596302 2.7103476509626 -3.316127342415651 0 0 255 255 
14 15.32088851928711 850.718017578125 2.011692929728913 2.397441193980114 -3.316126681700044 0 0 255 255 
16.46513366699219 12.85575103759766 850.718017578125 2.397442589413149 2.011691672742954 -3.316124775336691 0 0 255 255 
18.46475219726562 10 850.718017578125 2.71034504560783 1.564820925159141 -3.316124263790114 0 0 255 255 
3 0 1 2 
3 2 1 3 
3 2 3 4 
3 5 6 2 
3 2 6 7 
3 2 7 0 
3 8 9 2 
3 2 9 10 
3 2 10 5 
3 11 12 2 
3 2 12 13 
3 2 13 8 
3 14 15 2 
3 2 15 16 
3 2 16 11 
3 17 18 2 
3 2 18 19 
3 2 19 14 
3 20 21 2 
3 2 21 22 
3 2 22 17 
3 23 24 2 
3 2 24 25 
3 2 25 20 
3 26 27 2 
3 2 27 28 
3 2 28 23 
3 29 30 2 
3 2 30 31 
3 2 31 26 
3 32 33 2 
3 2 33 34 
3 2 34 29 
3 4 35 2 
3 2 35 36 
3 2 36 32 
3 37 38 39 
3 37 39 40 
3 41 40 39 
3 42 41 39 
3 43 42 39 
3 44 43 39 
3 45 44 39 
3 46 45 39 
3 47 46 39 
3 48 47 39 
3 49 48 39 
3 50 49 39 
3 51 50 39 
3 52 51 39 
3 53 52 39 
3 54 53 39 
3 55 54 39 
3 56 55 39 
3 57 56 39 
3 58 57 39 
3 59 58 39 
3 60 59 39 
3 61 60 39 
3 62 61 39 
3 63 62 39 
3 64 63 39 
3 65 64 39 
3 66 65 39 
3 67 66 39 
3 68 67 39 
3 69 68 39 
3 70 69 39 
3 71 70 39 
3 72 71 39 
3 73 72 39 
3 38 73 39 
3 74 53 75 
3 75 53 54 
3 75 54 76 
3 76 54 55 
3 76 55 77 
3 77 55 56 
3 77 56 78 
3 78 56 57 
3 78 57 79 
3 79 57 58 
3 79 58 80 
3 80 58 59 
3 80 59 81 
3 81 59 60 
3 81 60 82 
3 82 60 61 
3 82 61 83 
3 83 61 62 
3 83 62 84 
3 84 62 63 
3 84 63 85 
3 85 63 64 
3 85 64 86 
3 86 64 65 
3 86 65 87 
3 87 65 66 
3 87 66 88 
3 88 66 67 
3 88 67 89 
3 89 67 68 
3 89 68 90 
3 90 68 69 
3 90 69 91 
3 91 69 70 
3 91 70 92 
3 92 70 71 
3 92 71 93 
3 93 71 72 
3 93 72 94 
3 94 72 73 
3 94 73 95 
3 95 73 38 
3 95 38 96 
3 96 38 37 
3 96 37 97 
3 97 37 40 
3 97 40 98 
3 98 40 41 
3 98 41 99 
3 99 41 42 
3 99 42 100 
3 100 42 43 
3 100 43 101 
3 101 43 44 
3 101 44 102 
3 102 44 45 
3 102 45 103 
3 103 45 46 
3 103 46 104 
3 104 46 47 
3 104 47 105 
3 105 47 48 
3 105 48 106 
3 106 48 49 
3 106 49 107 
3 107 49 50 
3 107 50 108 
3 108 50 51 
3 108 51 109 
3 109 51 52 
3 109 52 74 
3 74 52 53 
3 3 95 4 
3 4 95 96 
3 4 96 35 
3 35 96 97 
3 35 97 36 
3 36 97 98 
3 36 98 32 
3 32 98 99 
3 32 99 33 
3 33 99 100 
3 33 100 34 
3 34 100 101 
3 34 101 29 
3 29 101 102 
3 29 102 30 
3 30 102 103 
3 30 103 31 
3 31 103 104 
3 31 104 26 
3 26 104 105 
3 26 105 27 
3 27 105 106 
3 27 106 28 
3 28 106 107 
3 28 107 23 
3 23 107 108 
3 23 108 24 
3 24 108 109 
3 24 109 25 
3 25 109 74 
3 25 74 20 
3 20 74 75 
3 20 75 21 
3 21 75 76 
3 21 76 22 
3 22 76 77 
3 22 77 17 
3 17 77 78 
3 17 78 18 
3 18 78 79 
3 18 79 19 
3 19 79 80 
3 19 80 14 
3 14 80 81 
3 14 81 15 
3 15 81 82 
3 15 82 16 
3 16 82 83 
3 16 83 11 
3 11 83 84 
3 11 84 12 
3 12 84 85 
3 12 85 13 
3 13 85 86 
3 13 86 8 
3 8 86 87 
3 8 87 9 
3 9 87 88 
3 9 88 10 
3 10 88 89 
3 10 89 5 
3 5 89 90 
3 5 90 6 
3 6 90 91 
3 6 91 7 
3 7 91 92 
3 7 92 0 
3 0 92 93 
3 0 93 1 
3 1 93 94 
3 1 94 3 
3 3 94 95 
3 110 111 112 
3 112 111 113 
3 112 113 114 
3 115 116 112 
3 112 116 117 
3 112 117 110 
3 118 119 112 
3 112 119 120 
3 112 120 115 
3 121 122 112 
3 112 122 123 
3 112 123 118 
3 124 125 112 
3 112 125 126 
3 112 126 121 
3 127 128 112 
3 112 128 129 
3 112 129 124 
3 130 131 112 
3 112 131 132 
3 112 132 127 
3 133 134 112 
3 112 134 135 
3 112 135 130 
3 136 137 112 
3 112 137 138 
3 112 138 133 
3 139 140 112 
3 112 140 141 
3 112 141 136 
3 142 143 112 
3 112 143 144 
3 112 144 139 
3 114 145 112 
3 112 145 146 
3 112 146 142 
3 147 148 149 
3 147 149 150 
3 151 150 149 
3 152 151 149 
3 153 152 149 
3 154 153 149 
3 155 154 149 
3 156 155 149 
3 157 156 149 
3 158 157 149 
3 159 158 149 
3 160 159 149 
3 161 160 149 
3 162 161 149 
3 163 162 149 
3 164 163 149 
3 165 164 149 
3 166 165 149 
3 167 166 149 
3 168 167 149 
3 169 168 149 
3 170 169 149 
3 171 170 149 
3 172 171 149 
3 173 172 149 
3 174 173 149 
3 175 174 149 
3 176 175 149 
3 177 176 149 
3 178 177 149 
3 179 178 149 
3 180 179 149 
3 181 180 149 
3 182 181 149 
3 183 182 149 
3 148 183 149 
3 184 163 185 
3 185 163 164 
3 185 164 186 
3 186 164 165 
3 186 165 187 
3 187 165 166 
3 187 166 188 
3 188 166 167 
3 188 167 189 
3 189 167 168 
3 189 168 190 
3 190 168 169 
3 190 169 191 
3 191 169 170 
3 191 170 192 
3 192 170 171 
3 192 171 193 
3 193 171 172 
3 193 172 194 
3 194 172 173 
3 194 173 195 
3 195 173 174 
3 195 174 196 
3 196 174 175 
3 196 175 197 
3 197 175 176 
3 197 176 198 
3 198 176 177 
3 198 177 199 
3 199 177 178 
3 199 178 200 
3 200 178 179 
3 200 179 201 
3 201 179 180 
3 201 180 202 
3 202 180 181 
3 202 181 203 
3 203 181 182 
3 203 182 204 
3 204 182 183 
3 204 183 205 
3 205 183 148 
3 205 148 206 
3 206 148 147 
3 206 147 207 
3 207 147 150 
3 207 150 208 
3 208 150 151 
3 208 151 209 
3 209 151 152 
3 209 152 210 
3 210 152 153 
3 210 153 211 
3 211 153 154 
3 211 154 212 
3 212 154 155 
3 212 155 213 
3 213 155 156 
3 213 156 214 
3 214 156 157 
3 214 157 215 
3 215 157 158 
3 215 158 216 
3 216 158 159 
3 216 159 217 
3 217 159 160 
3 217 160 218 
3 218 160 161 
3 218 161 219 
3 219 161 162 
3 219 162 184 
3 184 162 163 
3 113 205 114 
3 114 205 206 
3 114 206 145 
3 145 206 207 
3 145 207 146 
3 146 207 208 
3 146 208 142 
3 142 208 209 
3 142 209 143 
3 143 209 210 
3 143 210 144 
3 144 210 211 
3 144 211 139 
3 139 211 212 
3 139 212 140 
3 140 212 213 
3 140 213 141 
3 141 213 214 
3 141 214 136 
3 136 214 215 
3 136 215 137 
3 137 215 216 
3 137 216 138 
3 138 216 217 
3 138 217 133 
3 133 217 218 
3 133 218 134 
3 134 218 219 
3 134 219 135 
3 135 219 184 
3 135 184 130 
3 130 184 185 
3 130 185 131 
3 131 185 186 
3 131 186 132 
3 132 186 187 
3 132 187 127 
3 127 187 188 
3 127 188 128 
3 128 188 189 
3 128 189 129 
3 129 189 190 
3 129 190 124 
3 124 190 191 
3 124 191 125 
3 125 191 192 
3 125 192 126 
3 126 192 193 
3 126 193 121 
3 121 193 194 
3 121 194 122 
3 122 194 195 
3 122 195 123 
3 123 195 196 
3 123 196 118 
3 118 196 197 
3 118 197 119 
3 119 197 198 
3 119 198 120 
3 120 198 199 
3 120 199 115 
3 115 199 200 
3 115 200 116 
3 116 200 201 
3 116 201 117 
3 117 201 202 
3 117 202 110 
3 110 202 203 
3 110 203 111 
3 111 203 204 
3 111 204 113 
3 113 204 205 
3 220 221 112 
3 112 221 113 
3 112 113 222 
3 223 224 112 
3 112 224 225 
3 112 225 220 
3 226 227 112 
3 112 227 228 
3 112 228 223 
3 229 230 112 
3 112 230 231 
3 112 231 226 
3 232 233 112 
3 112 233 234 
3 112 234 229 
3 235 236 112 
3 112 236 237 
3 112 237 232 
3 238 239 112 
3 112 239 132 
3 112 132 235 
3 240 241 112 
3 112 241 242 
3 112 242 238 
3 243 244 112 
3 112 244 245 
3 112 245 240 
3 246 247 112 
3 112 247 248 
3 112 248 243 
3 249 250 112 
3 112 250 251 
3 112 251 246 
3 222 252 112 
3 112 252 253 
3 112 253 249 
3 254 255 256 
3 254 256 257 
3 258 257 256 
3 259 258 256 
3 260 259 256 
3 261 260 256 
3 262 261 256 
3 263 262 256 
3 264 263 256 
3 265 264 256 
3 266 265 256 
3 267 266 256 
3 268 267 256 
3 269 268 256 
3 270 269 256 
3 271 270 256 
3 272 271 256 
3 273 272 256 
3 274 273 256 
3 275 274 256 
3 276 275 256 
3 277 276 256 
3 278 277 256 
3 279 278 256 
3 280 279 256 
3 281 280 256 
3 282 281 256 
3 283 282 256 
3 284 283 256 
3 285 284 256 
3 286 285 256 
3 287 286 256 
3 288 287 256 
3 289 288 256 
3 290 289 256 
3 255 290 256 
3 291 270 292 
3 292 270 271 
3 292 271 293 
3 293 271 272 
3 293 272 294 
3 294 272 273 
3 294 273 295 
3 295 273 274 
3 295 274 296 
3 296 274 275 
3 296 275 297 
3 297 275 276 
3 297 276 298 
3 298 276 277 
3 298 277 299 
3 299 277 278 
3 299 278 300 
3 300 278 279 
3 300 279 301 
3 301 279 280 
3 301 280 302 
3 302 280 281 
3 302 281 303 
3 303 281 282 
3 303 282 304 
3 304 282 283 
3 304 283 305 
3 305 283 284 
3 305 284 306 
3 306 284 285 
3 306 285 307 
3 307 285 286 
3 307 286 308 
3 308 286 287 
3 308 287 309 
3 309 287 288 
3 309 288 310 
3 310 288 289 
3 310 289 311 
3 311 289 290 
3 311 290 312 
3 312 290 255 
3 312 255 313 
3 313 255 254 
3 313 254 314 
3 314 254 257 
3 314 257 315 
3 315 257 258 
3 315 258 316 
3 316 258 259 
3 316 259 317 
3 317 259 260 
3 317 260 318 
3 318 260 261 
3 318 261 319 
3 319 261 262 
3 319 262 320 
3 320 262 263 
3 320 263 321 
3 321 263 264 
3 321 264 322 
3 322 264 265 
3 322 265 323 
3 323 265 266 
3 323 266 324 
3 324 266 267 
3 324 267 325 
3 325 267 268 
3 325 268 326 
3 326 268 269 
3 326 269 291 
3 291 269 270 
3 113 312 222 
3 222 312 313 
3 222 313 252 
3 252 313 314 
3 252 314 253 
3 253 314 315 
3 253 315 249 
3 249 315 316 
3 249 316 250 
3 250 316 317 
3 250 317 251 
3 251 317 318 
3 251 318 246 
3 246 318 319 
3 246 319 247 
3 247 319 320 
3 247 320 248 
3 248 320 321 
3 248 321 243 
3 243 321 322 
3 243 322 244 
3 244 322 323 
3 244 323 245 
3 245 323 324 
3 245 324 240 
3 240 324 325 
3 240 325 241 
3 241 325 326 
3 241 326 242 
3 242 326 291 
3 242 291 238 
3 238 291 292 
3 238 292 239 
3 239 292 293 
3 239 293 132 
3 132 293 294 
3 132 294 235 
3 235 294 295 
3 235 295 236 
3 236 295 296 
3 236 296 237 
3 237 296 297 
3 237 297 232 
3 232 297 298 
3 232 298 233 
3 233 298 299 
3 233 299 234 
3 234 299 300 
3 234 300 229 
3 229 300 301 
3 229 301 230 
3 230 301 302 
3 230 302 231 
3 231 302 303 
3 231 303 226 
3 226 303 304 
3 226 304 227 
3 227 304 305 
3 227 305 228 
3 228 305 306 
3 228 306 223 
3 223 306 307 
3 223 307 224 
3 224 307 308 
3 224 308 225 
3 225 308 309 
3 225 309 220 
3 220 309 310 
3 220 310 221 
3 221 310 311 
3 221 311 113 
3 113 311 312 
