<svg xmlns="http://www.w3.org/2000/svg" xmlns:xlink="http://www.w3.org/1999/xlink" version="1.1" class="marks" width="646" height="473" viewBox="0 0 646 473"><rect width="646" height="473" fill="white"/><g fill="none" stroke-miterlimit="10" transform="translate(41,36)"><g class="mark-group role-frame root" role="graphics-object" aria-roledescription="group mark container"><g transform="translate(0,0)"><path class="background" aria-hidden="true" d="M0.5,0.5h600v400h-600Z" stroke="#ddd"/><g><g class="mark-group role-axis" role="graphics-symbol" aria-roledescription="axis" aria-label="X-axis titled 'Parser' for a discrete scale with 5 values: ryaml, yaml_rs, ruamel.yaml, oyaml, PyYAML"><g transform="translate(0.5,400.5)"><path class="background" aria-hidden="true" d="M0,0h0v0h0Z" pointer-events="none"/><g><g class="mark-rule role-axis-tick" pointer-events="none"><line transform="translate(60,0)" x2="0" y2="5" stroke="#888" stroke-width="1" opacity="1"/><line transform="translate(180,0)" x2="0" y2="5" stroke="#888" stroke-width="1" opacity="1"/><line transform="translate(300,0)" x2="0" y2="5" stroke="#888" stroke-width="1" opacity="1"/><line transform="translate(420,0)" x2="0" y2="5" stroke="#888" stroke-width="1" opacity="1"/><line transform="translate(540,0)" x2="0" y2="5" stroke="#888" stroke-width="1" opacity="1"/></g><g class="mark-text role-axis-label" pointer-events="none"><text text-anchor="middle" transform="translate(59.5,15)" font-family="sans-serif" font-size="10px" fill="#000" opacity="1">ryaml</text><text text-anchor="middle" transform="translate(179.5,15)" font-family="sans-serif" font-size="10px" fill="#000" opacity="1">yaml_rs</text><text text-anchor="middle" transform="translate(299.5,15)" font-family="sans-serif" font-size="10px" fill="#000" opacity="1">ruamel.yaml</text><text text-anchor="middle" transform="translate(419.5,15)" font-family="sans-serif" font-size="10px" fill="#000" opacity="1">oyaml</text><text text-anchor="middle" transform="translate(539.5,15)" font-family="sans-serif" font-size="10px" fill="#000" opacity="1">PyYAML</text></g><g class="mark-rule role-axis-domain" pointer-events="none"><line transform="translate(0,0)" x2="600" y2="0" stroke="#888" stroke-width="1" opacity="1"/></g><g class="mark-text role-axis-title" pointer-events="none"><text text-anchor="middle" transform="translate(300,30)" font-family="sans-serif" font-size="11px" font-weight="bold" fill="#000" opacity="1">Parser</text></g></g><path class="foreground" aria-hidden="true" d="" pointer-events="none" display="none"/></g></g><g class="mark-group role-axis" role="graphics-symbol" aria-roledescription="axis" aria-label="Y-axis titled 'Execution Time (seconds, lower=better)' for a linear scale with values from 0.0 to 1.5"><g transform="translate(0.5,0.5)"><path class="background" aria-hidden="true" d="M0,0h0v0h0Z" pointer-events="none"/><g><g class="mark-rule role-axis-tick" pointer-events="none"><line transform="translate(0,400)" x2="-5" y2="0" stroke="#888" stroke-width="1" opacity="1"/><line transform="translate(0,348)" x2="-5" y2="0" stroke="#888" stroke-width="1" opacity="1"/><line transform="translate(0,296)" x2="-5" y2="0" stroke="#888" stroke-width="1" opacity="1"/><line transform="translate(0,245)" x2="-5" y2="0" stroke="#888" stroke-width="1" opacity="1"/><line transform="translate(0,193)" x2="-5" y2="0" stroke="#888" stroke-width="1" opacity="1"/><line transform="translate(0,141)" x2="-5" y2="0" stroke="#888" stroke-width="1" opacity="1"/><line transform="translate(0,89)" x2="-5" y2="0" stroke="#888" stroke-width="1" opacity="1"/><line transform="translate(0,38)" x2="-5" y2="0" stroke="#888" stroke-width="1" opacity="1"/></g><g class="mark-text role-axis-label" pointer-events="none"><text text-anchor="end" transform="translate(-7,403)" font-family="sans-serif" font-size="10px" fill="#000" opacity="1">0.0</text><text text-anchor="end" transform="translate(-7,351.2313614795514)" font-family="sans-serif" font-size="10px" fill="#000" opacity="1">0.2</text><text text-anchor="end" transform="translate(-7,299.4627229591029)" font-family="sans-serif" font-size="10px" fill="#000" opacity="1">0.4</text><text text-anchor="end" transform="translate(-7,247.6940844386544)" font-family="sans-serif" font-size="10px" fill="#000" opacity="1">0.6</text><text text-anchor="end" transform="translate(-7,195.92544591820584)" font-family="sans-serif" font-size="10px" fill="#000" opacity="1">0.8</text><text text-anchor="end" transform="translate(-7,144.15680739775735)" font-family="sans-serif" font-size="10px" fill="#000" opacity="1">1.0</text><text text-anchor="end" transform="translate(-7,92.38816887730879)" font-family="sans-serif" font-size="10px" fill="#000" opacity="1">1.2</text><text text-anchor="end" transform="translate(-7,40.619530356860274)" font-family="sans-serif" font-size="10px" fill="#000" opacity="1">1.4</text></g><g class="mark-rule role-axis-domain" pointer-events="none"><line transform="translate(0,400)" x2="0" y2="-400" stroke="#888" stroke-width="1" opacity="1"/></g><g class="mark-text role-axis-title" pointer-events="none"><text text-anchor="middle" transform="translate(-24.9013671875,200) rotate(-90) translate(0,-2)" font-family="sans-serif" font-size="11px" font-weight="bold" fill="#000" opacity="1">Execution Time (seconds, lower=better)</text></g></g><path class="foreground" aria-hidden="true" d="" pointer-events="none" display="none"/></g></g><g class="mark-group role-scope" role="graphics-object" aria-roledescription="group mark container"><g transform="translate(6,398.8312453317126)"><path class="background" aria-hidden="true" d="M0.58437733414371,0L107.41562266585629,0C107.73814929654395,0,108,0.2618507034560459,108,0.58437733414371L108,1.16875466828742C108,1.16875466828742,108,1.16875466828742,108,1.16875466828742L0,1.16875466828742C0,1.16875466828742,0,1.16875466828742,0,1.16875466828742L0,0.58437733414371C0,0.2618507034560459,0.2618507034560459,0,0.58437733414371,0Z"/><g clip-path="url(#clip8)"><g class="mark-group role-scope" role="graphics-object" aria-roledescription="group mark container"><g transform="translate(0,-398.8312453317126)"><path class="background" aria-hidden="true" d="M0,0h108v0h-108Z"/><g><g class="mark-rect role-mark layer_0_marks" role="graphics-object" aria-roledescription="rect mark container"><path aria-label="Parser: ryaml; Execution Time (seconds, lower=better): 0.00451530000282; parser: ryaml; Execution Time (s): 0.0045; Slowdown: 1.00" role="graphics-symbol" aria-roledescription="bar" d="M0,398.8312453317126h108v1.16875466828742h-108Z" fill="#e7298a"/></g></g><path class="foreground" aria-hidden="true" d="" display="none"/></g></g></g><path class="foreground" aria-hidden="true" d="" display="none"/></g><g transform="translate(126,398.77996849654403)"><path class="background" aria-hidden="true" d="M0.6100157517279854,0L107.38998424827201,0C107.72666110682869,0,108,0.2733388931713085,108,0.6100157517279854L108,1.2200315034559708C108,1.2200315034559708,108,1.2200315034559708,108,1.2200315034559708L0,1.2200315034559708C0,1.2200315034559708,0,1.2200315034559708,0,1.2200315034559708L0,0.6100157517279854C0,0.2733388931713085,0.2733388931713085,0,0.6100157517279854,0Z"/><g clip-path="url(#clip9)"><g class="mark-group role-scope" role="graphics-object" aria-roledescription="group mark container"><g transform="translate(0,-398.77996849654403)"><path class="background" aria-hidden="true" d="M0,0h108v0h-108Z"/><g><g class="mark-rect role-mark layer_0_marks" role="graphics-object" aria-roledescription="rect mark container"><path aria-label="Parser: yaml_rs; Execution Time (seconds, lower=better): 0.00471339999785; parser: yaml_rs; Execution Time (s): 0.0047; Slowdown: 1.04" role="graphics-symbol" aria-roledescription="bar" d="M0,398.77996849654403h108v1.2200315034559708h-108Z" fill="#66a61e"/></g></g><path class="foreground" aria-hidden="true" d="" display="none"/></g></g></g><path class="foreground" aria-hidden="true" d="" display="none"/></g><g transform="translate(246,372.5226044270356)"><path class="background" aria-hidden="true" d="M6,0L102,0C105.311490146964,0,108,2.688509853036,108,6L108,27.477395572964383C108,27.477395572964383,108,27.477395572964383,108,27.477395572964383L0,27.477395572964383C0,27.477395572964383,0,27.477395572964383,0,27.477395572964383L0,6C0,2.688509853036,2.688509853036,0,6,0Z"/><g clip-path="url(#clip10)"><g class="mark-group role-scope" role="graphics-object" aria-roledescription="group mark container"><g transform="translate(0,-372.5226044270356)"><path class="background" aria-hidden="true" d="M0,0h108v0h-108Z"/><g><g class="mark-rect role-mark layer_0_marks" role="graphics-object" aria-roledescription="rect mark container"><path aria-label="Parser: ruamel.yaml; Execution Time (seconds, lower=better): 0.106154599998; parser: ruamel.yaml; Execution Time (s): 0.1062; Slowdown: 23.51" role="graphics-symbol" aria-roledescription="bar" d="M0,372.5226044270356h108v27.477395572964383h-108Z" fill="#7570b3"/></g></g><path class="foreground" aria-hidden="true" d="" display="none"/></g></g></g><path class="foreground" aria-hidden="true" d="" display="none"/></g><g transform="translate(366,22.118550461663354)"><path class="background" aria-hidden="true" d="M6,0L102,0C105.311490146964,0,108,2.688509853036,108,6L108,377.88144953833665C108,377.88144953833665,108,377.88144953833665,108,377.88144953833665L0,377.88144953833665C0,377.88144953833665,0,377.88144953833665,0,377.88144953833665L0,6C0,2.688509853036,2.688509853036,0,6,0Z"/><g clip-path="url(#clip11)"><g class="mark-group role-scope" role="graphics-object" aria-roledescription="group mark container"><g transform="translate(0,-22.118550461663354)"><path class="background" aria-hidden="true" d="M0,0h108v0h-108Z"/><g><g class="mark-rect role-mark layer_0_marks" role="graphics-object" aria-roledescription="rect mark container"><path aria-label="Parser: oyaml; Execution Time (seconds, lower=better): 1.4598856; parser: oyaml; Execution Time (s): 1.4599; Slowdown: 323.32" role="graphics-symbol" aria-roledescription="bar" d="M0,22.118550461663354h108v377.88144953833665h-108Z" fill="#d95f02"/></g></g><path class="foreground" aria-hidden="true" d="" display="none"/></g></g></g><path class="foreground" aria-hidden="true" d="" display="none"/></g><g transform="translate(486,15.384615384615374)"><path class="background" aria-hidden="true" d="M6,0L102,0C105.311490146964,0,108,2.688509853036,108,6L108,384.61538461538464C108,384.61538461538464,108,384.61538461538464,108,384.61538461538464L0,384.61538461538464C0,384.61538461538464,0,384.61538461538464,0,384.61538461538464L0,6C0,2.688509853036,2.688509853036,0,6,0Z"/><g clip-path="url(#clip12)"><g class="mark-group role-scope" role="graphics-object" aria-roledescription="group mark container"><g transform="translate(0,-15.384615384615374)"><path class="background" aria-hidden="true" d="M0,0h108v0h-108Z"/><g><g class="mark-rect role-mark layer_0_marks" role="graphics-object" aria-roledescription="rect mark container"><path aria-label="Parser: PyYAML; Execution Time (seconds, lower=better): 1.4859011; parser: PyYAML; Execution Time (s): 1.4859; Slowdown: 329.08" role="graphics-symbol" aria-roledescription="bar" d="M0,15.384615384615374h108v384.61538461538464h-108Z" fill="#1b9e77"/></g></g><path class="foreground" aria-hidden="true" d="" display="none"/></g></g></g><path class="foreground" aria-hidden="true" d="" display="none"/></g></g><g class="mark-text role-mark layer_1_marks" role="graphics-object" aria-roledescription="text mark container"><text aria-label="Parser: ryaml; Execution Time (seconds, lower=better): 0.00451530000282; parser: ryaml; label: 0.0045s (x1.00); Execution Time (s): 0.0045; Slowdown: 1.00" role="graphics-symbol" aria-roledescription="text mark" text-anchor="middle" transform="translate(60,394.8312453317126)" font-family="sans-serif" font-size="9px" font-weight="bold" fill="#e7298a">0.0045s (x1.00)</text><text aria-label="Parser: yaml_rs; Execution Time (seconds, lower=better): 0.00471339999785; parser: yaml_rs; label: 0.0047s (x1.04); Execution Time (s): 0.0047; Slowdown: 1.04" role="graphics-symbol" aria-roledescription="text mark" text-anchor="middle" transform="translate(180,394.77996849654403)" font-family="sans-serif" font-size="9px" font-weight="bold" fill="#66a61e">0.0047s (x1.04)</text><text aria-label="Parser: ruamel.yaml; Execution Time (seconds, lower=better): 0.106154599998; parser: ruamel.yaml; label: 0.1062s (x23.51); Execution Time (s): 0.1062; Slowdown: 23.51" role="graphics-symbol" aria-roledescription="text mark" text-anchor="middle" transform="translate(300,368.5226044270356)" font-family="sans-serif" font-size="9px" font-weight="bold" fill="#7570b3">0.1062s (x23.51)</text><text aria-label="Parser: oyaml; Execution Time (seconds, lower=better): 1.4598856; parser: oyaml; label: 1.4599s (x323.32); Execution Time (s): 1.4599; Slowdown: 323.32" role="graphics-symbol" aria-roledescription="text mark" text-anchor="middle" transform="translate(420,18.118550461663354)" font-family="sans-serif" font-size="9px" font-weight="bold" fill="#d95f02">1.4599s (x323.32)</text><text aria-label="Parser: PyYAML; Execution Time (seconds, lower=better): 1.4859011; parser: PyYAML; label: 1.4859s (x329.08); Execution Time (s): 1.4859; Slowdown: 329.08" role="graphics-symbol" aria-roledescription="text mark" text-anchor="middle" transform="translate(540,11.384615384615374)" font-family="sans-serif" font-size="9px" font-weight="bold" fill="#1b9e77">1.4859s (x329.08)</text></g><g class="mark-group role-title"><g transform="translate(300,-31)"><path class="background" aria-hidden="true" d="M0,0h0v0h0Z" pointer-events="none"/><g><g class="mark-text role-title-text" role="graphics-symbol" aria-roledescription="title" aria-label="Title text 'YAML parsers benchmark (dumps)'" pointer-events="none"><text text-anchor="middle" transform="translate(0,10)" font-family="sans-serif" font-size="13px" font-weight="bold" fill="#000" opacity="1">YAML parsers benchmark (dumps)</text></g><g class="mark-text role-title-subtitle" role="graphics-symbol" aria-roledescription="subtitle" aria-label="Subtitle text 'Python: 3.13.8 (Windows 10) | CPU: 11th Gen Intel(R) Core(TM) i5-11300H @ 3.10GHz'" pointer-events="none"><text text-anchor="middle" transform="translate(0,25)" font-family="sans-serif" font-size="12px" fill="#000" opacity="1">Python: 3.13.8 (Windows 10) | CPU: 11th Gen Intel(R) Core(TM) i5-11300H @ 3.10GHz</text></g></g><path class="foreground" aria-hidden="true" d="" pointer-events="none" display="none"/></g></g></g><path class="foreground" aria-hidden="true" d="" display="none"/></g></g></g><defs><clipPath id="clip8"><path d="M0.58437733414371,0L107.41562266585629,0C107.73814929654395,0,108,0.2618507034560459,108,0.58437733414371L108,1.16875466828742C108,1.16875466828742,108,1.16875466828742,108,1.16875466828742L0,1.16875466828742C0,1.16875466828742,0,1.16875466828742,0,1.16875466828742L0,0.58437733414371C0,0.2618507034560459,0.2618507034560459,0,0.58437733414371,0Z"/></clipPath><clipPath id="clip9"><path d="M0.6100157517279854,0L107.38998424827201,0C107.72666110682869,0,108,0.2733388931713085,108,0.6100157517279854L108,1.2200315034559708C108,1.2200315034559708,108,1.2200315034559708,108,1.2200315034559708L0,1.2200315034559708C0,1.2200315034559708,0,1.2200315034559708,0,1.2200315034559708L0,0.6100157517279854C0,0.2733388931713085,0.2733388931713085,0,0.6100157517279854,0Z"/></clipPath><clipPath id="clip10"><path d="M6,0L102,0C105.311490146964,0,108,2.688509853036,108,6L108,27.477395572964383C108,27.477395572964383,108,27.477395572964383,108,27.477395572964383L0,27.477395572964383C0,27.477395572964383,0,27.477395572964383,0,27.477395572964383L0,6C0,2.688509853036,2.688509853036,0,6,0Z"/></clipPath><clipPath id="clip11"><path d="M6,0L102,0C105.311490146964,0,108,2.688509853036,108,6L108,377.88144953833665C108,377.88144953833665,108,377.88144953833665,108,377.88144953833665L0,377.88144953833665C0,377.88144953833665,0,377.88144953833665,0,377.88144953833665L0,6C0,2.688509853036,2.688509853036,0,6,0Z"/></clipPath><clipPath id="clip12"><path d="M6,0L102,0C105.311490146964,0,108,2.688509853036,108,6L108,384.61538461538464C108,384.61538461538464,108,384.61538461538464,108,384.61538461538464L0,384.61538461538464C0,384.61538461538464,0,384.61538461538464,0,384.61538461538464L0,6C0,2.688509853036,2.688509853036,0,6,0Z"/></clipPath></defs></svg>