<svg xmlns="http://www.w3.org/2000/svg" xmlns:xlink="http://www.w3.org/1999/xlink" version="1.1" class="marks" width="646" height="473" viewBox="0 0 646 473"><rect width="646" height="473" fill="white"/><g fill="none" stroke-miterlimit="10" transform="translate(41,36)"><g class="mark-group role-frame root" role="graphics-object" aria-roledescription="group mark container"><g transform="translate(0,0)"><path class="background" aria-hidden="true" d="M0.5,0.5h600v400h-600Z" stroke="#ddd"/><g><g class="mark-group role-axis" role="graphics-symbol" aria-roledescription="axis" aria-label="X-axis titled 'Parser' for a discrete scale with 7 values: yaml_rs (parse_dt=False), yaml_rs, ryaml, ruamel.yaml, oyaml, PyYAML, strictyaml"><g transform="translate(0.5,400.5)"><path class="background" aria-hidden="true" d="M0,0h0v0h0Z" pointer-events="none"/><g><g class="mark-rule role-axis-tick" pointer-events="none"><line transform="translate(42,0)" x2="0" y2="5" stroke="#888" stroke-width="1" opacity="1"/><line transform="translate(128,0)" x2="0" y2="5" stroke="#888" stroke-width="1" opacity="1"/><line transform="translate(214,0)" x2="0" y2="5" stroke="#888" stroke-width="1" opacity="1"/><line transform="translate(299,0)" x2="0" y2="5" stroke="#888" stroke-width="1" opacity="1"/><line transform="translate(385,0)" x2="0" y2="5" stroke="#888" stroke-width="1" opacity="1"/><line transform="translate(471,0)" x2="0" y2="5" stroke="#888" stroke-width="1" opacity="1"/><line transform="translate(557,0)" x2="0" y2="5" stroke="#888" stroke-width="1" opacity="1"/></g><g class="mark-text role-axis-label" pointer-events="none"><text text-anchor="middle" transform="translate(42.35714285714285,15)" font-family="sans-serif" font-size="10px" fill="#000" opacity="1">yaml_rs (parse_dt=False)</text><text text-anchor="middle" transform="translate(128.07142857142856,15)" font-family="sans-serif" font-size="10px" fill="#000" opacity="1">yaml_rs</text><text text-anchor="middle" transform="translate(213.78571428571428,15)" font-family="sans-serif" font-size="10px" fill="#000" opacity="1">ryaml</text><text text-anchor="middle" transform="translate(299.49999999999994,15)" font-family="sans-serif" font-size="10px" fill="#000" opacity="1">ruamel.yaml</text><text text-anchor="middle" transform="translate(385.21428571428567,15)" font-family="sans-serif" font-size="10px" fill="#000" opacity="1">oyaml</text><text text-anchor="middle" transform="translate(470.9285714285714,15)" font-family="sans-serif" font-size="10px" fill="#000" opacity="1">PyYAML</text><text text-anchor="middle" transform="translate(556.642857142857,15)" font-family="sans-serif" font-size="10px" fill="#000" opacity="1">strictyaml</text></g><g class="mark-rule role-axis-domain" pointer-events="none"><line transform="translate(0,0)" x2="600" y2="0" stroke="#888" stroke-width="1" opacity="1"/></g><g class="mark-text role-axis-title" pointer-events="none"><text text-anchor="middle" transform="translate(300,30)" font-family="sans-serif" font-size="11px" font-weight="bold" fill="#000" opacity="1">Parser</text></g></g><path class="foreground" aria-hidden="true" d="" pointer-events="none" display="none"/></g></g><g class="mark-group role-axis" role="graphics-symbol" aria-roledescription="axis" aria-label="Y-axis titled 'Execution Time (seconds, lower=better)' for a linear scale with values from 0.0 to 2.0"><g transform="translate(0.5,0.5)"><path class="background" aria-hidden="true" d="M0,0h0v0h0Z" pointer-events="none"/><g><g class="mark-rule role-axis-tick" pointer-events="none"><line transform="translate(0,400)" x2="-5" y2="0" stroke="#888" stroke-width="1" opacity="1"/><line transform="translate(0,359)" x2="-5" y2="0" stroke="#888" stroke-width="1" opacity="1"/><line transform="translate(0,318)" x2="-5" y2="0" stroke="#888" stroke-width="1" opacity="1"/><line transform="translate(0,278)" x2="-5" y2="0" stroke="#888" stroke-width="1" opacity="1"/><line transform="translate(0,237)" x2="-5" y2="0" stroke="#888" stroke-width="1" opacity="1"/><line transform="translate(0,196)" x2="-5" y2="0" stroke="#888" stroke-width="1" opacity="1"/><line transform="translate(0,155)" x2="-5" y2="0" stroke="#888" stroke-width="1" opacity="1"/><line transform="translate(0,114)" x2="-5" y2="0" stroke="#888" stroke-width="1" opacity="1"/><line transform="translate(0,74)" x2="-5" y2="0" stroke="#888" stroke-width="1" opacity="1"/><line transform="translate(0,33)" x2="-5" y2="0" stroke="#888" stroke-width="1" opacity="1"/></g><g class="mark-text role-axis-label" pointer-events="none"><text text-anchor="end" transform="translate(-7,403)" font-family="sans-serif" font-size="10px" fill="#000" opacity="1">0.0</text><text text-anchor="end" transform="translate(-7,362.19466642626946)" font-family="sans-serif" font-size="10px" fill="#000" opacity="1">0.2</text><text text-anchor="end" transform="translate(-7,321.3893328525389)" font-family="sans-serif" font-size="10px" fill="#000" opacity="1">0.4</text><text text-anchor="end" transform="translate(-7,280.5839992788084)" font-family="sans-serif" font-size="10px" fill="#000" opacity="1">0.6</text><text text-anchor="end" transform="translate(-7,239.77866570507788)" font-family="sans-serif" font-size="10px" fill="#000" opacity="1">0.8</text><text text-anchor="end" transform="translate(-7,198.97333213134735)" font-family="sans-serif" font-size="10px" fill="#000" opacity="1">1.0</text><text text-anchor="end" transform="translate(-7,158.16799855761684)" font-family="sans-serif" font-size="10px" fill="#000" opacity="1">1.2</text><text text-anchor="end" transform="translate(-7,117.3626649838863)" font-family="sans-serif" font-size="10px" fill="#000" opacity="1">1.4</text><text text-anchor="end" transform="translate(-7,76.55733141015573)" font-family="sans-serif" font-size="10px" fill="#000" opacity="1">1.6</text><text text-anchor="end" transform="translate(-7,35.75199783642524)" font-family="sans-serif" font-size="10px" fill="#000" opacity="1">1.8</text></g><g class="mark-rule role-axis-domain" pointer-events="none"><line transform="translate(0,400)" x2="0" y2="-400" stroke="#888" stroke-width="1" opacity="1"/></g><g class="mark-text role-axis-title" pointer-events="none"><text text-anchor="middle" transform="translate(-24.9013671875,200) rotate(-90) translate(0,-2)" font-family="sans-serif" font-size="11px" font-weight="bold" fill="#000" opacity="1">Execution Time (seconds, lower=better)</text></g></g><path class="foreground" aria-hidden="true" d="" pointer-events="none" display="none"/></g></g><g class="mark-group role-scope" role="graphics-object" aria-roledescription="group mark container"><g transform="translate(4.285714285714278,398.0010283196877)"><path class="background" aria-hidden="true" d="M0.9994858401561544,0L76.14337130270098,0C76.69500255465218,0,77.14285714285714,0.44785458820496427,77.14285714285714,0.9994858401561544L77.14285714285714,1.9989716803123088C77.14285714285714,1.9989716803123088,77.14285714285714,1.9989716803123088,77.14285714285714,1.9989716803123088L0,1.9989716803123088C0,1.9989716803123088,0,1.9989716803123088,0,1.9989716803123088L0,0.9994858401561544C0,0.44785458820496427,0.44785458820496427,0,0.9994858401561544,0Z"/><g clip-path="url(#clip1)"><g class="mark-group role-scope" role="graphics-object" aria-roledescription="group mark container"><g transform="translate(0,-398.0010283196877)"><path class="background" aria-hidden="true" d="M0,0h77.14285714285714v0h-77.14285714285714Z"/><g><g class="mark-rect role-mark layer_0_marks" role="graphics-object" aria-roledescription="rect mark container"><path aria-label="Parser: yaml_rs (parse_dt=False); Execution Time (seconds, lower=better): 0.00979759999609; parser: yaml_rs (parse_dt=False); Execution Time (s): 0.0098; Slowdown: 1.00" role="graphics-symbol" aria-roledescription="bar" d="M0,398.0010283196877h77.14285714285714v1.9989716803123088h-77.14285714285714Z" fill="#a6761d"/></g></g><path class="foreground" aria-hidden="true" d="" display="none"/></g></g></g><path class="foreground" aria-hidden="true" d="" display="none"/></g><g transform="translate(89.99999999999999,397.9968457723226)"><path class="background" aria-hidden="true" d="M1.0015771138386924,0L76.14128002901845,0C76.69406548633536,0,77.14285714285714,0.44879165652178066,77.14285714285714,1.0015771138386924L77.14285714285714,2.003154227677385C77.14285714285714,2.003154227677385,77.14285714285714,2.003154227677385,77.14285714285714,2.003154227677385L0,2.003154227677385C0,2.003154227677385,0,2.003154227677385,0,2.003154227677385L0,1.0015771138386924C0,0.44879165652178066,0.44879165652178066,0,1.0015771138386924,0Z"/><g clip-path="url(#clip2)"><g class="mark-group role-scope" role="graphics-object" aria-roledescription="group mark container"><g transform="translate(0,-397.9968457723226)"><path class="background" aria-hidden="true" d="M0,0h77.14285714285714v0h-77.14285714285714Z"/><g><g class="mark-rect role-mark layer_0_marks" role="graphics-object" aria-roledescription="rect mark container"><path aria-label="Parser: yaml_rs; Execution Time (seconds, lower=better): 0.00981809999939; parser: yaml_rs; Execution Time (s): 0.0098; Slowdown: 1.00" role="graphics-symbol" aria-roledescription="bar" d="M0,397.9968457723226h77.14285714285714v2.003154227677385h-77.14285714285714Z" fill="#e6ab02"/></g></g><path class="foreground" aria-hidden="true" d="" display="none"/></g></g></g><path class="foreground" aria-hidden="true" d="" display="none"/></g><g transform="translate(175.7142857142857,395.59337081903743)"><path class="background" aria-hidden="true" d="M2.203314590481284,0L74.93954255237585,0C76.15558497854931,0,77.14285714285714,0.9872721643078186,77.14285714285714,2.203314590481284L77.14285714285714,4.406629180962568C77.14285714285714,4.406629180962568,77.14285714285714,4.406629180962568,77.14285714285714,4.406629180962568L0,4.406629180962568C0,4.406629180962568,0,4.406629180962568,0,4.406629180962568L0,2.203314590481284C0,0.9872721643078186,0.9872721643078186,0,2.203314590481284,0Z"/><g clip-path="url(#clip3)"><g class="mark-group role-scope" role="graphics-object" aria-roledescription="group mark container"><g transform="translate(0,-395.59337081903743)"><path class="background" aria-hidden="true" d="M0,0h77.14285714285714v0h-77.14285714285714Z"/><g><g class="mark-rect role-mark layer_0_marks" role="graphics-object" aria-roledescription="rect mark container"><path aria-label="Parser: ryaml; Execution Time (seconds, lower=better): 0.0215983000016; parser: ryaml; Execution Time (s): 0.0216; Slowdown: 2.20" role="graphics-symbol" aria-roledescription="bar" d="M0,395.59337081903743h77.14285714285714v4.406629180962568h-77.14285714285714Z" fill="#e7298a"/></g></g><path class="foreground" aria-hidden="true" d="" display="none"/></g></g></g><path class="foreground" aria-hidden="true" d="" display="none"/></g><g transform="translate(261.4285714285714,366.76370896006307)"><path class="background" aria-hidden="true" d="M6,0L71.14285714285714,0C74.45434728982114,0,77.14285714285714,2.688509853036,77.14285714285714,6L77.14285714285714,33.23629103993693C77.14285714285714,33.23629103993693,77.14285714285714,33.23629103993693,77.14285714285714,33.23629103993693L0,33.23629103993693C0,33.23629103993693,0,33.23629103993693,0,33.23629103993693L0,6C0,2.688509853036,2.688509853036,0,6,0Z"/><g clip-path="url(#clip4)"><g class="mark-group role-scope" role="graphics-object" aria-roledescription="group mark container"><g transform="translate(0,-366.76370896006307)"><path class="background" aria-hidden="true" d="M0,0h77.14285714285714v0h-77.14285714285714Z"/><g><g class="mark-rect role-mark layer_0_marks" role="graphics-object" aria-roledescription="rect mark container"><path aria-label="Parser: ruamel.yaml; Execution Time (seconds, lower=better): 0.162901699994; parser: ruamel.yaml; Execution Time (s): 0.1629; Slowdown: 16.63" role="graphics-symbol" aria-roledescription="bar" d="M0,366.76370896006307h77.14285714285714v33.23629103993693h-77.14285714285714Z" fill="#7570b3"/></g></g><path class="foreground" aria-hidden="true" d="" display="none"/></g></g></g><path class="foreground" aria-hidden="true" d="" display="none"/></g><g transform="translate(347.1428571428571,175.25764763006907)"><path class="background" aria-hidden="true" d="M6,0L71.14285714285714,0C74.45434728982114,0,77.14285714285714,2.688509853036,77.14285714285714,6L77.14285714285714,224.74235236993093C77.14285714285714,224.74235236993093,77.14285714285714,224.74235236993093,77.14285714285714,224.74235236993093L0,224.74235236993093C0,224.74235236993093,0,224.74235236993093,0,224.74235236993093L0,6C0,2.688509853036,2.688509853036,0,6,0Z"/><g clip-path="url(#clip5)"><g class="mark-group role-scope" role="graphics-object" aria-roledescription="group mark container"><g transform="translate(0,-175.25764763006907)"><path class="background" aria-hidden="true" d="M0,0h77.14285714285714v0h-77.14285714285714Z"/><g><g class="mark-rect role-mark layer_0_marks" role="graphics-object" aria-roledescription="rect mark container"><path aria-label="Parser: oyaml; Execution Time (seconds, lower=better): 1.1015342; parser: oyaml; Execution Time (s): 1.1015; Slowdown: 112.43" role="graphics-symbol" aria-roledescription="bar" d="M0,175.25764763006907h77.14285714285714v224.74235236993093h-77.14285714285714Z" fill="#d95f02"/></g></g><path class="foreground" aria-hidden="true" d="" display="none"/></g></g></g><path class="foreground" aria-hidden="true" d="" display="none"/></g><g transform="translate(432.85714285714283,150.40534284153318)"><path class="background" aria-hidden="true" d="M6,0L71.14285714285714,0C74.45434728982114,0,77.14285714285714,2.688509853036,77.14285714285714,6L77.14285714285714,249.59465715846682C77.14285714285714,249.59465715846682,77.14285714285714,249.59465715846682,77.14285714285714,249.59465715846682L0,249.59465715846682C0,249.59465715846682,0,249.59465715846682,0,249.59465715846682L0,6C0,2.688509853036,2.688509853036,0,6,0Z"/><g clip-path="url(#clip6)"><g class="mark-group role-scope" role="graphics-object" aria-roledescription="group mark container"><g transform="translate(0,-150.40534284153318)"><path class="background" aria-hidden="true" d="M0,0h77.14285714285714v0h-77.14285714285714Z"/><g><g class="mark-rect role-mark layer_0_marks" role="graphics-object" aria-roledescription="rect mark container"><path aria-label="Parser: PyYAML; Execution Time (seconds, lower=better): 1.2233433; parser: PyYAML; Execution Time (s): 1.2233; Slowdown: 124.86" role="graphics-symbol" aria-roledescription="bar" d="M0,150.40534284153318h77.14285714285714v249.59465715846682h-77.14285714285714Z" fill="#1b9e77"/></g></g><path class="foreground" aria-hidden="true" d="" display="none"/></g></g></g><path class="foreground" aria-hidden="true" d="" display="none"/></g><g transform="translate(518.5714285714284,15.384615384615419)"><path class="background" aria-hidden="true" d="M6,0L71.14285714285714,0C74.45434728982114,0,77.14285714285714,2.688509853036,77.14285714285714,6L77.14285714285714,384.6153846153846C77.14285714285714,384.6153846153846,77.14285714285714,384.6153846153846,77.14285714285714,384.6153846153846L0,384.6153846153846C0,384.6153846153846,0,384.6153846153846,0,384.6153846153846L0,6C0,2.688509853036,2.688509853036,0,6,0Z"/><g clip-path="url(#clip7)"><g class="mark-group role-scope" role="graphics-object" aria-roledescription="group mark container"><g transform="translate(0,-15.384615384615419)"><path class="background" aria-hidden="true" d="M0,0h77.14285714285714v0h-77.14285714285714Z"/><g><g class="mark-rect role-mark layer_0_marks" role="graphics-object" aria-roledescription="rect mark container"><path aria-label="Parser: strictyaml; Execution Time (seconds, lower=better): 1.8851231; parser: strictyaml; Execution Time (s): 1.8851; Slowdown: 192.41" role="graphics-symbol" aria-roledescription="bar" d="M0,15.384615384615419h77.14285714285714v384.6153846153846h-77.14285714285714Z" fill="#66a61e"/></g></g><path class="foreground" aria-hidden="true" d="" display="none"/></g></g></g><path class="foreground" aria-hidden="true" d="" display="none"/></g></g><g class="mark-text role-mark layer_1_marks" role="graphics-object" aria-roledescription="text mark container"><text aria-label="Parser: yaml_rs (parse_dt=False); Execution Time (seconds, lower=better): 0.00979759999609; parser: yaml_rs (parse_dt=False); label: 0.0098s (x1.00); Execution Time (s): 0.0098; Slowdown: 1.00" role="graphics-symbol" aria-roledescription="text mark" text-anchor="middle" transform="translate(42.85714285714285,394.0010283196877)" font-family="sans-serif" font-size="9px" font-weight="bold" fill="#a6761d">0.0098s (x1.00)</text><text aria-label="Parser: yaml_rs; Execution Time (seconds, lower=better): 0.00981809999939; parser: yaml_rs; label: 0.0098s (x1.00); Execution Time (s): 0.0098; Slowdown: 1.00" role="graphics-symbol" aria-roledescription="text mark" text-anchor="middle" transform="translate(128.57142857142856,393.9968457723226)" font-family="sans-serif" font-size="9px" font-weight="bold" fill="#e6ab02">0.0098s (x1.00)</text><text aria-label="Parser: ryaml; Execution Time (seconds, lower=better): 0.0215983000016; parser: ryaml; label: 0.0216s (x2.20); Execution Time (s): 0.0216; Slowdown: 2.20" role="graphics-symbol" aria-roledescription="text mark" text-anchor="middle" transform="translate(214.28571428571428,391.59337081903743)" font-family="sans-serif" font-size="9px" font-weight="bold" fill="#e7298a">0.0216s (x2.20)</text><text aria-label="Parser: ruamel.yaml; Execution Time (seconds, lower=better): 0.162901699994; parser: ruamel.yaml; label: 0.1629s (x16.63); Execution Time (s): 0.1629; Slowdown: 16.63" role="graphics-symbol" aria-roledescription="text mark" text-anchor="middle" transform="translate(299.99999999999994,362.76370896006307)" font-family="sans-serif" font-size="9px" font-weight="bold" fill="#7570b3">0.1629s (x16.63)</text><text aria-label="Parser: oyaml; Execution Time (seconds, lower=better): 1.1015342; parser: oyaml; label: 1.1015s (x112.43); Execution Time (s): 1.1015; Slowdown: 112.43" role="graphics-symbol" aria-roledescription="text mark" text-anchor="middle" transform="translate(385.71428571428567,171.25764763006907)" font-family="sans-serif" font-size="9px" font-weight="bold" fill="#d95f02">1.1015s (x112.43)</text><text aria-label="Parser: PyYAML; Execution Time (seconds, lower=better): 1.2233433; parser: PyYAML; label: 1.2233s (x124.86); Execution Time (s): 1.2233; Slowdown: 124.86" role="graphics-symbol" aria-roledescription="text mark" text-anchor="middle" transform="translate(471.4285714285714,146.40534284153318)" font-family="sans-serif" font-size="9px" font-weight="bold" fill="#1b9e77">1.2233s (x124.86)</text><text aria-label="Parser: strictyaml; Execution Time (seconds, lower=better): 1.8851231; parser: strictyaml; label: 1.8851s (x192.41); Execution Time (s): 1.8851; Slowdown: 192.41" role="graphics-symbol" aria-roledescription="text mark" text-anchor="middle" transform="translate(557.142857142857,11.384615384615419)" font-family="sans-serif" font-size="9px" font-weight="bold" fill="#66a61e">1.8851s (x192.41)</text></g><g class="mark-group role-title"><g transform="translate(300,-31)"><path class="background" aria-hidden="true" d="M0,0h0v0h0Z" pointer-events="none"/><g><g class="mark-text role-title-text" role="graphics-symbol" aria-roledescription="title" aria-label="Title text 'YAML parsers benchmark (loads)'" pointer-events="none"><text text-anchor="middle" transform="translate(0,10)" font-family="sans-serif" font-size="13px" font-weight="bold" fill="#000" opacity="1">YAML parsers benchmark (loads)</text></g><g class="mark-text role-title-subtitle" role="graphics-symbol" aria-roledescription="subtitle" aria-label="Subtitle text 'Python: 3.13.8 (Windows 10) | CPU: 11th Gen Intel(R) Core(TM) i5-11300H @ 3.10GHz'" pointer-events="none"><text text-anchor="middle" transform="translate(0,25)" font-family="sans-serif" font-size="12px" fill="#000" opacity="1">Python: 3.13.8 (Windows 10) | CPU: 11th Gen Intel(R) Core(TM) i5-11300H @ 3.10GHz</text></g></g><path class="foreground" aria-hidden="true" d="" pointer-events="none" display="none"/></g></g></g><path class="foreground" aria-hidden="true" d="" display="none"/></g></g></g><defs><clipPath id="clip1"><path d="M0.9994858401561544,0L76.14337130270098,0C76.69500255465218,0,77.14285714285714,0.44785458820496427,77.14285714285714,0.9994858401561544L77.14285714285714,1.9989716803123088C77.14285714285714,1.9989716803123088,77.14285714285714,1.9989716803123088,77.14285714285714,1.9989716803123088L0,1.9989716803123088C0,1.9989716803123088,0,1.9989716803123088,0,1.9989716803123088L0,0.9994858401561544C0,0.44785458820496427,0.44785458820496427,0,0.9994858401561544,0Z"/></clipPath><clipPath id="clip2"><path d="M1.0015771138386924,0L76.14128002901845,0C76.69406548633536,0,77.14285714285714,0.44879165652178066,77.14285714285714,1.0015771138386924L77.14285714285714,2.003154227677385C77.14285714285714,2.003154227677385,77.14285714285714,2.003154227677385,77.14285714285714,2.003154227677385L0,2.003154227677385C0,2.003154227677385,0,2.003154227677385,0,2.003154227677385L0,1.0015771138386924C0,0.44879165652178066,0.44879165652178066,0,1.0015771138386924,0Z"/></clipPath><clipPath id="clip3"><path d="M2.203314590481284,0L74.93954255237585,0C76.15558497854931,0,77.14285714285714,0.9872721643078186,77.14285714285714,2.203314590481284L77.14285714285714,4.406629180962568C77.14285714285714,4.406629180962568,77.14285714285714,4.406629180962568,77.14285714285714,4.406629180962568L0,4.406629180962568C0,4.406629180962568,0,4.406629180962568,0,4.406629180962568L0,2.203314590481284C0,0.9872721643078186,0.9872721643078186,0,2.203314590481284,0Z"/></clipPath><clipPath id="clip4"><path d="M6,0L71.14285714285714,0C74.45434728982114,0,77.14285714285714,2.688509853036,77.14285714285714,6L77.14285714285714,33.23629103993693C77.14285714285714,33.23629103993693,77.14285714285714,33.23629103993693,77.14285714285714,33.23629103993693L0,33.23629103993693C0,33.23629103993693,0,33.23629103993693,0,33.23629103993693L0,6C0,2.688509853036,2.688509853036,0,6,0Z"/></clipPath><clipPath id="clip5"><path d="M6,0L71.14285714285714,0C74.45434728982114,0,77.14285714285714,2.688509853036,77.14285714285714,6L77.14285714285714,224.74235236993093C77.14285714285714,224.74235236993093,77.14285714285714,224.74235236993093,77.14285714285714,224.74235236993093L0,224.74235236993093C0,224.74235236993093,0,224.74235236993093,0,224.74235236993093L0,6C0,2.688509853036,2.688509853036,0,6,0Z"/></clipPath><clipPath id="clip6"><path d="M6,0L71.14285714285714,0C74.45434728982114,0,77.14285714285714,2.688509853036,77.14285714285714,6L77.14285714285714,249.59465715846682C77.14285714285714,249.59465715846682,77.14285714285714,249.59465715846682,77.14285714285714,249.59465715846682L0,249.59465715846682C0,249.59465715846682,0,249.59465715846682,0,249.59465715846682L0,6C0,2.688509853036,2.688509853036,0,6,0Z"/></clipPath><clipPath id="clip7"><path d="M6,0L71.14285714285714,0C74.45434728982114,0,77.14285714285714,2.688509853036,77.14285714285714,6L77.14285714285714,384.6153846153846C77.14285714285714,384.6153846153846,77.14285714285714,384.6153846153846,77.14285714285714,384.6153846153846L0,384.6153846153846C0,384.6153846153846,0,384.6153846153846,0,384.6153846153846L0,6C0,2.688509853036,2.688509853036,0,6,0Z"/></clipPath></defs></svg>