<?xml version="1.0" encoding="UTF-8"?>
<svg id="Layer_1" data-name="Layer 1" xmlns="http://www.w3.org/2000/svg" xmlns:svg="http://www.w3.org/2000/svg" version="1.1" viewBox="0 0 558.4 244.6">
  <defs>
    <style>
      .cls-1 {
        font-family: PTSans-CaptionBold, 'PT Sans Caption';
        font-size: 110px;
        font-weight: 700;
      }

      .cls-1, .cls-2 {
        fill: #5eb396;
      }

      .cls-1, .cls-3 {
        isolation: isolate;
      }

      .cls-2, .cls-4, .cls-5, .cls-6 {
        stroke-width: 0px;
      }

      .cls-4 {
        fill: #3e9276;
      }

      .cls-5 {
        fill: #28725e;
      }

      .cls-6 {
        fill: #215e52;
      }
    </style>
  </defs>
  <g>
    <g>
      <path class="cls-6" d="M221.7,217.7c0,2.1-28.2,3.3-55.9-2-5.5-1-15.6-4.1-27.5-10.3-3.4-1.8-26.3-14-26.5-25.5v-10.3c0-3.6,0-6.3-.2-7-.2-6.8-.7-11.9-.8-13.2-.7-8.8.4-16,1.1-29.6,1.1-20.6,0-31.9,1.2-32.1,1,0,1.6,6,4.5,15.3,2.5,8,5.3,13.6,10.8,24.5,5.4,10.6,9.5,18.6,16.1,28.4,3,4.3,9.1,12.9,17.9,22.3,5.2,5.5,28.8,30.5,54.9,37.8,2,.6,4.2,1.1,4.2,1.7h.2Z"/>
      <path class="cls-6" d="M5,217.5c0,2.1,28.2,3.3,56-2,5.5-1,15.6-4.1,27.5-10.3,3.4-1.8,26.4-14,26.6-25.5v-10.3c0-3.6,0-6.3.2-7,.2-6.8.7-11.9.8-13.2.7-8.8-.4-16-1.2-29.6-1.1-20.6,0-31.9-1.2-32.1-1,0-1.6,6-4.5,15.3-2.5,8-5.3,13.6-10.9,24.5-5.4,10.6-9.5,18.6-16.1,28.4-3,4.3-9.1,12.9-18,22.3-5.2,5.5-28.9,30.5-55,37.8-2,.6-4.2,1.1-4.2,1.7Z"/>
    </g>
    <rect class="cls-6" x="101.2" y="181.6" width="24.3" height="57.9"/>
    <g>
      <path class="cls-5" d="M208.5,169.4c0,1.8-24.7,2.9-49.1-1.7-4.8-.9-13.7-3.6-24.2-9-3-1.6-23.2-12.3-23.3-22.4v-9.1c0-3.2,0-5.5,0-6.2-.2-6-.6-10.5-.7-11.6-.6-7.7.4-14.1,1-26,.9-18.1,0-28,1-28.2.8,0,1.4,5.3,4,13.4,2.2,7.1,4.7,12,9.5,21.5,4.7,9.3,8.3,16.3,14.2,25,2.6,3.8,8,11.4,15.8,19.6,4.6,4.8,25.3,26.8,48.3,33.2,1.8.5,3.7.9,3.7,1.5h-.1Z"/>
      <path class="cls-5" d="M18,169.3c0,1.8,24.8,2.9,49.2-1.7,4.8-.9,13.7-3.6,24.2-9,3-1.6,23.2-12.3,23.3-22.4v-9.1c0-3.2,0-5.5,0-6.2.2-6,.6-10.5.7-11.6.6-7.7-.4-14.1-1-26-.9-18.1,0-28-1-28.2-.8,0-1.4,5.3-4,13.4-2.2,7.1-4.7,12-9.5,21.5-4.7,9.3-8.3,16.3-14.2,25-2.6,3.8-8,11.4-15.8,19.6-4.6,4.8-25.4,26.8-48.3,33.2-1.8.5-3.7.9-3.7,1.5h0Z"/>
    </g>
    <g>
      <path class="cls-4" d="M193,124.8c0,1.5-20.7,2.4-41.1-1.4-4-.8-11.5-3-20.2-7.6-2.5-1.3-19.4-10.3-19.5-18.7v-7.6c0-2.7,0-4.6,0-5.2-.2-5-.5-8.8-.6-9.7-.5-6.5.3-11.8.8-21.8.8-15.2,0-23.4.9-23.6.7,0,1.2,4.4,3.3,11.2,1.8,5.9,3.9,10,8,18,4,7.8,7,13.7,11.9,20.9,2.2,3.2,6.7,9.5,13.2,16.4,3.8,4,21.2,22.4,40.4,27.8,1.5.4,3.1.8,3.1,1.2h-.1Z"/>
      <path class="cls-4" d="M33.6,124.7c0,1.5,20.7,2.4,41.1-1.4,4-.8,11.5-3,20.2-7.6,2.5-1.3,19.4-10.3,19.5-18.7v-7.6c0-2.7,0-4.6,0-5.2.2-5,.5-8.8.6-9.7.5-6.5-.3-11.8-.8-21.8-.8-15.2,0-23.4-.9-23.6-.7,0-1.2,4.4-3.3,11.2-1.8,5.9-3.9,10-8,18-4,7.8-7,13.7-11.9,20.9-2.2,3.2-6.7,9.5-13.2,16.4-3.8,4-21.2,22.4-40.4,27.8-1.5.4-3.1.8-3.1,1.2h.1Z"/>
    </g>
    <g>
      <path class="cls-2" d="M181.3,86.5c0,1.3-17.6,2.1-35-1.2-3.4-.6-9.8-2.5-17.2-6.4-2.1-1.1-16.5-8.8-16.6-15.9v-6.4c0-2.3,0-3.9,0-4.4,0-4.3-.4-7.5-.5-8.3-.4-5.5.3-10,.7-18.5.7-12.9,0-19.9.7-20.1.6,0,1,3.7,2.8,9.6,1.6,5,3.3,8.5,6.8,15.3,3.4,6.6,5.9,11.6,10.1,17.8,1.8,2.7,5.7,8.1,11.2,14,3.2,3.4,18,19.1,34.3,23.7,1.3.4,2.6.7,2.6,1l.2-.2Z"/>
      <path class="cls-2" d="M45.3,86.5c0,1.3,17.6,2.1,35-1.2,3.4-.6,9.8-2.5,17.2-6.4,2.1-1.1,16.5-8.8,16.6-15.9v-6.4c0-2.3,0-3.9,0-4.4,0-4.3.4-7.5.5-8.3.4-5.5-.3-10-.7-18.5-.7-12.9,0-19.9-.7-20.1-.6,0-1,3.7-2.8,9.6-1.6,5-3.3,8.5-6.8,15.3-3.4,6.6-5.9,11.6-10.1,17.8-1.8,2.7-5.7,8.1-11.2,14-3.2,3.4-18.1,19.1-34.4,23.7-1.3.4-2.6.7-2.6,1v-.2Z"/>
    </g>
  </g>
  <g class="cls-3">
    <text class="cls-1" transform="translate(207.9 164.5)"><tspan x="0" y="0">PYCEA</tspan></text>
  </g>
</svg>
