<?xml version="1.0" encoding="utf-8" standalone="no"?>
<!DOCTYPE svg PUBLIC "-//W3C//DTD SVG 1.1//EN"
  "http://www.w3.org/Graphics/SVG/1.1/DTD/svg11.dtd">
<svg xmlns:xlink="http://www.w3.org/1999/xlink" width="504pt" height="360pt" viewBox="0 0 504 360" xmlns="http://www.w3.org/2000/svg" version="1.1">
 <metadata>
  <rdf:RDF xmlns:dc="http://purl.org/dc/elements/1.1/" xmlns:cc="http://creativecommons.org/ns#" xmlns:rdf="http://www.w3.org/1999/02/22-rdf-syntax-ns#">
   <cc:Work>
    <dc:type rdf:resource="http://purl.org/dc/dcmitype/StillImage"/>
    <dc:date>2025-05-23T14:26:51.308285</dc:date>
    <dc:format>image/svg+xml</dc:format>
    <dc:creator>
     <cc:Agent>
      <dc:title>Matplotlib v3.10.3, https://matplotlib.org/</dc:title>
     </cc:Agent>
    </dc:creator>
   </cc:Work>
  </rdf:RDF>
 </metadata>
 <defs>
  <style type="text/css">*{stroke-linejoin: round; stroke-linecap: butt}</style>
 </defs>
 <g id="figure_1">
  <g id="patch_1">
   <path d="M 0 360 
L 504 360 
L 504 0 
L 0 0 
z
" style="fill: #ffffff"/>
  </g>
  <g id="axes_1">
   <g id="patch_2">
    <path d="M 63 320.4 
L 453.6 320.4 
L 453.6 43.2 
L 63 43.2 
z
" style="fill: #ffffff"/>
   </g>
   <g id="EdgeCollection_1">
    <path d="M 111.964232 192.285377 
L 201.571083 279.878302 
" clip-path="url(#p81acf37066)" style="fill: #ff0000; stroke: #ff0000; stroke-width: 2"/>
    <path d="M 111.964232 171.314623 
L 201.571083 83.721698 
" clip-path="url(#p81acf37066)" style="fill: #ff0000; stroke: #ff0000; stroke-width: 2"/>
    <path d="M 203.29754 278.363679 
C 158.0157 217.987893 158.0157 145.612107 203.29754 85.236321 
C 158.0157 145.612107 158.0157 217.987893 203.29754 278.363679 
" clip-path="url(#p81acf37066)" style="fill: #ff0000; stroke: #ff0000; stroke-width: 2"/>
    <path d="M 221.29754 278.363679 
C 266.579379 217.987893 266.579379 145.612107 221.29754 85.236321 
C 266.579379 145.612107 266.579379 217.987893 221.29754 278.363679 
" clip-path="url(#p81acf37066)" style="fill: #0000ff; stroke: #0000ff; stroke-width: 2"/>
    <path d="M 223.023996 279.878302 
L 312.630847 192.285377 
" clip-path="url(#p81acf37066)" style="fill: #0000ff; stroke: #0000ff; stroke-width: 2"/>
    <path d="M 223.023996 83.721698 
L 312.630847 171.314623 
" clip-path="url(#p81acf37066)" style="fill: #0000ff; stroke: #0000ff; stroke-width: 2"/>
    <path d="M 338.357303 181.8 
L 400.362224 181.8 
" clip-path="url(#p81acf37066)" style="fill: #00ff00; stroke: #00ff00; stroke-width: 2"/>
   </g>
   <g id="VertexCollection_1">
    <path d="M 101.237776 196.8 
C 105.215822 196.8 109.031474 195.219505 111.844377 192.406602 
C 114.657281 189.593698 116.237776 185.778047 116.237776 181.8 
C 116.237776 177.821954 114.657281 174.006302 111.844377 171.193398 
C 109.031474 168.380495 105.215822 166.8 101.237776 166.8 
C 97.259729 166.8 93.444078 168.380495 90.631174 171.193398 
C 87.81827 174.006302 86.237776 177.821954 86.237776 181.8 
C 86.237776 185.778047 87.81827 189.593698 90.631174 192.406602 
C 93.444078 195.219505 97.259729 196.8 101.237776 196.8 
z
" clip-path="url(#p81acf37066)" style="fill: #4682b4; stroke: #ffffff; stroke-width: 4"/>
    <path d="M 212.29754 305.363679 
C 216.275586 305.363679 220.091238 303.783185 222.904141 300.970281 
C 225.717045 298.157377 227.29754 294.341726 227.29754 290.363679 
C 227.29754 286.385633 225.717045 282.569981 222.904141 279.757078 
C 220.091238 276.944174 216.275586 275.363679 212.29754 275.363679 
C 208.319493 275.363679 204.503841 276.944174 201.690938 279.757078 
C 198.878034 282.569981 197.29754 286.385633 197.29754 290.363679 
C 197.29754 294.341726 198.878034 298.157377 201.690938 300.970281 
C 204.503841 303.783185 208.319493 305.363679 212.29754 305.363679 
z
" clip-path="url(#p81acf37066)" style="fill: #4682b4; stroke: #ffffff; stroke-width: 4"/>
    <path d="M 212.29754 88.236321 
C 216.275586 88.236321 220.091238 86.655826 222.904141 83.842922 
C 225.717045 81.030019 227.29754 77.214367 227.29754 73.236321 
C 227.29754 69.258274 225.717045 65.442623 222.904141 62.629719 
C 220.091238 59.816815 216.275586 58.236321 212.29754 58.236321 
C 208.319493 58.236321 204.503841 59.816815 201.690938 62.629719 
C 198.878034 65.442623 197.29754 69.258274 197.29754 73.236321 
C 197.29754 77.214367 198.878034 81.030019 201.690938 83.842922 
C 204.503841 86.655826 208.319493 88.236321 212.29754 88.236321 
z
" clip-path="url(#p81acf37066)" style="fill: #4682b4; stroke: #ffffff; stroke-width: 4"/>
    <path d="M 323.357303 196.8 
C 327.33535 196.8 331.151002 195.219505 333.963905 192.406602 
C 336.776809 189.593698 338.357303 185.778046 338.357303 181.8 
C 338.357303 177.821953 336.776809 174.006302 333.963905 171.193398 
C 331.151002 168.380495 327.33535 166.8 323.357303 166.8 
C 319.379257 166.8 315.563605 168.380495 312.750702 171.193398 
C 309.937798 174.006302 308.357303 177.821953 308.357303 181.8 
C 308.357303 185.778046 309.937798 189.593698 312.750702 192.406602 
C 315.563605 195.219505 319.379257 196.8 323.357303 196.8 
z
" clip-path="url(#p81acf37066)" style="fill: #4682b4; stroke: #ffffff; stroke-width: 4"/>
    <path d="M 415.362224 196.8 
C 419.340271 196.8 423.155922 195.219505 425.968826 192.406602 
C 428.78173 189.593698 430.362224 185.778047 430.362224 181.8 
C 430.362224 177.821954 428.78173 174.006302 425.968826 171.193398 
C 423.155922 168.380495 419.340271 166.8 415.362224 166.8 
C 411.384178 166.8 407.568526 168.380495 404.755623 171.193398 
C 401.942719 174.006302 400.362224 177.821954 400.362224 181.8 
C 400.362224 185.778047 401.942719 189.593698 404.755623 192.406602 
C 407.568526 195.219505 411.384178 196.8 415.362224 196.8 
z
" clip-path="url(#p81acf37066)" style="fill: #4682b4; stroke: #ffffff; stroke-width: 4"/>
   </g>
   <g id="text_1">
    <g clip-path="url(#p81acf37066)">
     <!-- MOLDY -->
     <g transform="translate(69.441057 209.266875) scale(0.18 -0.18)">
      <defs>
       <path id="DejaVuSans-4d" d="M 628 4666 
L 1569 4666 
L 2759 1491 
L 3956 4666 
L 4897 4666 
L 4897 0 
L 4281 0 
L 4281 4097 
L 3078 897 
L 2444 897 
L 1241 4097 
L 1241 0 
L 628 0 
L 628 4666 
z
" transform="scale(0.015625)"/>
       <path id="DejaVuSans-4f" d="M 2522 4238 
Q 1834 4238 1429 3725 
Q 1025 3213 1025 2328 
Q 1025 1447 1429 934 
Q 1834 422 2522 422 
Q 3209 422 3611 934 
Q 4013 1447 4013 2328 
Q 4013 3213 3611 3725 
Q 3209 4238 2522 4238 
z
M 2522 4750 
Q 3503 4750 4090 4092 
Q 4678 3434 4678 2328 
Q 4678 1225 4090 567 
Q 3503 -91 2522 -91 
Q 1538 -91 948 565 
Q 359 1222 359 2328 
Q 359 3434 948 4092 
Q 1538 4750 2522 4750 
z
" transform="scale(0.015625)"/>
       <path id="DejaVuSans-4c" d="M 628 4666 
L 1259 4666 
L 1259 531 
L 3531 531 
L 3531 0 
L 628 0 
L 628 4666 
z
" transform="scale(0.015625)"/>
       <path id="DejaVuSans-44" d="M 1259 4147 
L 1259 519 
L 2022 519 
Q 2988 519 3436 956 
Q 3884 1394 3884 2338 
Q 3884 3275 3436 3711 
Q 2988 4147 2022 4147 
L 1259 4147 
z
M 628 4666 
L 1925 4666 
Q 3281 4666 3915 4102 
Q 4550 3538 4550 2338 
Q 4550 1131 3912 565 
Q 3275 0 1925 0 
L 628 0 
L 628 4666 
z
" transform="scale(0.015625)"/>
       <path id="DejaVuSans-59" d="M -13 4666 
L 666 4666 
L 1959 2747 
L 3244 4666 
L 3922 4666 
L 2272 2222 
L 2272 0 
L 1638 0 
L 1638 2222 
L -13 4666 
z
" transform="scale(0.015625)"/>
      </defs>
      <use xlink:href="#DejaVuSans-4d"/>
      <use xlink:href="#DejaVuSans-4f" transform="translate(86.279297 0)"/>
      <use xlink:href="#DejaVuSans-4c" transform="translate(164.990234 0)"/>
      <use xlink:href="#DejaVuSans-44" transform="translate(220.703125 0)"/>
      <use xlink:href="#DejaVuSans-59" transform="translate(292.205078 0)"/>
     </g>
    </g>
   </g>
   <g id="text_2">
    <g clip-path="url(#p81acf37066)">
     <!-- CIF -->
     <g transform="translate(198.181602 317.830554) scale(0.18 -0.18)">
      <defs>
       <path id="DejaVuSans-43" d="M 4122 4306 
L 4122 3641 
Q 3803 3938 3442 4084 
Q 3081 4231 2675 4231 
Q 1875 4231 1450 3742 
Q 1025 3253 1025 2328 
Q 1025 1406 1450 917 
Q 1875 428 2675 428 
Q 3081 428 3442 575 
Q 3803 722 4122 1019 
L 4122 359 
Q 3791 134 3420 21 
Q 3050 -91 2638 -91 
Q 1578 -91 968 557 
Q 359 1206 359 2328 
Q 359 3453 968 4101 
Q 1578 4750 2638 4750 
Q 3056 4750 3426 4639 
Q 3797 4528 4122 4306 
z
" transform="scale(0.015625)"/>
       <path id="DejaVuSans-49" d="M 628 4666 
L 1259 4666 
L 1259 0 
L 628 0 
L 628 4666 
z
" transform="scale(0.015625)"/>
       <path id="DejaVuSans-46" d="M 628 4666 
L 3309 4666 
L 3309 4134 
L 1259 4134 
L 1259 2759 
L 3109 2759 
L 3109 2228 
L 1259 2228 
L 1259 0 
L 628 0 
L 628 4666 
z
" transform="scale(0.015625)"/>
      </defs>
      <use xlink:href="#DejaVuSans-43"/>
      <use xlink:href="#DejaVuSans-49" transform="translate(69.824219 0)"/>
      <use xlink:href="#DejaVuSans-46" transform="translate(99.316406 0)"/>
     </g>
    </g>
   </g>
   <g id="text_3">
    <g clip-path="url(#p81acf37066)">
     <!-- PDB -->
     <g transform="translate(193.765977 100.703196) scale(0.18 -0.18)">
      <defs>
       <path id="DejaVuSans-50" d="M 1259 4147 
L 1259 2394 
L 2053 2394 
Q 2494 2394 2734 2622 
Q 2975 2850 2975 3272 
Q 2975 3691 2734 3919 
Q 2494 4147 2053 4147 
L 1259 4147 
z
M 628 4666 
L 2053 4666 
Q 2838 4666 3239 4311 
Q 3641 3956 3641 3272 
Q 3641 2581 3239 2228 
Q 2838 1875 2053 1875 
L 1259 1875 
L 1259 0 
L 628 0 
L 628 4666 
z
" transform="scale(0.015625)"/>
       <path id="DejaVuSans-42" d="M 1259 2228 
L 1259 519 
L 2272 519 
Q 2781 519 3026 730 
Q 3272 941 3272 1375 
Q 3272 1813 3026 2020 
Q 2781 2228 2272 2228 
L 1259 2228 
z
M 1259 4147 
L 1259 2741 
L 2194 2741 
Q 2656 2741 2882 2914 
Q 3109 3088 3109 3444 
Q 3109 3797 2882 3972 
Q 2656 4147 2194 4147 
L 1259 4147 
z
M 628 4666 
L 2241 4666 
Q 2963 4666 3353 4366 
Q 3744 4066 3744 3513 
Q 3744 3084 3544 2831 
Q 3344 2578 2956 2516 
Q 3422 2416 3680 2098 
Q 3938 1781 3938 1306 
Q 3938 681 3513 340 
Q 3088 0 2303 0 
L 628 0 
L 628 4666 
z
" transform="scale(0.015625)"/>
      </defs>
      <use xlink:href="#DejaVuSans-50"/>
      <use xlink:href="#DejaVuSans-44" transform="translate(60.302734 0)"/>
      <use xlink:href="#DejaVuSans-42" transform="translate(137.304688 0)"/>
     </g>
    </g>
   </g>
   <g id="text_4">
    <g clip-path="url(#p81acf37066)">
     <!-- InChI -->
     <g transform="translate(300.355272 209.266875) scale(0.18 -0.18)">
      <defs>
       <path id="DejaVuSans-6e" d="M 3513 2113 
L 3513 0 
L 2938 0 
L 2938 2094 
Q 2938 2591 2744 2837 
Q 2550 3084 2163 3084 
Q 1697 3084 1428 2787 
Q 1159 2491 1159 1978 
L 1159 0 
L 581 0 
L 581 3500 
L 1159 3500 
L 1159 2956 
Q 1366 3272 1645 3428 
Q 1925 3584 2291 3584 
Q 2894 3584 3203 3211 
Q 3513 2838 3513 2113 
z
" transform="scale(0.015625)"/>
       <path id="DejaVuSans-68" d="M 3513 2113 
L 3513 0 
L 2938 0 
L 2938 2094 
Q 2938 2591 2744 2837 
Q 2550 3084 2163 3084 
Q 1697 3084 1428 2787 
Q 1159 2491 1159 1978 
L 1159 0 
L 581 0 
L 581 4863 
L 1159 4863 
L 1159 2956 
Q 1366 3272 1645 3428 
Q 1925 3584 2291 3584 
Q 2894 3584 3203 3211 
Q 3513 2838 3513 2113 
z
" transform="scale(0.015625)"/>
      </defs>
      <use xlink:href="#DejaVuSans-49"/>
      <use xlink:href="#DejaVuSans-6e" transform="translate(29.492188 0)"/>
      <use xlink:href="#DejaVuSans-43" transform="translate(92.871094 0)"/>
      <use xlink:href="#DejaVuSans-68" transform="translate(162.695312 0)"/>
      <use xlink:href="#DejaVuSans-49" transform="translate(226.074219 0)"/>
     </g>
    </g>
   </g>
   <g id="text_5">
    <g clip-path="url(#p81acf37066)">
     <!-- Custom -->
     <g transform="translate(380.883787 209.266875) scale(0.18 -0.18)">
      <defs>
       <path id="DejaVuSans-75" d="M 544 1381 
L 544 3500 
L 1119 3500 
L 1119 1403 
Q 1119 906 1312 657 
Q 1506 409 1894 409 
Q 2359 409 2629 706 
Q 2900 1003 2900 1516 
L 2900 3500 
L 3475 3500 
L 3475 0 
L 2900 0 
L 2900 538 
Q 2691 219 2414 64 
Q 2138 -91 1772 -91 
Q 1169 -91 856 284 
Q 544 659 544 1381 
z
M 1991 3584 
L 1991 3584 
z
" transform="scale(0.015625)"/>
       <path id="DejaVuSans-73" d="M 2834 3397 
L 2834 2853 
Q 2591 2978 2328 3040 
Q 2066 3103 1784 3103 
Q 1356 3103 1142 2972 
Q 928 2841 928 2578 
Q 928 2378 1081 2264 
Q 1234 2150 1697 2047 
L 1894 2003 
Q 2506 1872 2764 1633 
Q 3022 1394 3022 966 
Q 3022 478 2636 193 
Q 2250 -91 1575 -91 
Q 1294 -91 989 -36 
Q 684 19 347 128 
L 347 722 
Q 666 556 975 473 
Q 1284 391 1588 391 
Q 1994 391 2212 530 
Q 2431 669 2431 922 
Q 2431 1156 2273 1281 
Q 2116 1406 1581 1522 
L 1381 1569 
Q 847 1681 609 1914 
Q 372 2147 372 2553 
Q 372 3047 722 3315 
Q 1072 3584 1716 3584 
Q 2034 3584 2315 3537 
Q 2597 3491 2834 3397 
z
" transform="scale(0.015625)"/>
       <path id="DejaVuSans-74" d="M 1172 4494 
L 1172 3500 
L 2356 3500 
L 2356 3053 
L 1172 3053 
L 1172 1153 
Q 1172 725 1289 603 
Q 1406 481 1766 481 
L 2356 481 
L 2356 0 
L 1766 0 
Q 1100 0 847 248 
Q 594 497 594 1153 
L 594 3053 
L 172 3053 
L 172 3500 
L 594 3500 
L 594 4494 
L 1172 4494 
z
" transform="scale(0.015625)"/>
       <path id="DejaVuSans-6f" d="M 1959 3097 
Q 1497 3097 1228 2736 
Q 959 2375 959 1747 
Q 959 1119 1226 758 
Q 1494 397 1959 397 
Q 2419 397 2687 759 
Q 2956 1122 2956 1747 
Q 2956 2369 2687 2733 
Q 2419 3097 1959 3097 
z
M 1959 3584 
Q 2709 3584 3137 3096 
Q 3566 2609 3566 1747 
Q 3566 888 3137 398 
Q 2709 -91 1959 -91 
Q 1206 -91 779 398 
Q 353 888 353 1747 
Q 353 2609 779 3096 
Q 1206 3584 1959 3584 
z
" transform="scale(0.015625)"/>
       <path id="DejaVuSans-6d" d="M 3328 2828 
Q 3544 3216 3844 3400 
Q 4144 3584 4550 3584 
Q 5097 3584 5394 3201 
Q 5691 2819 5691 2113 
L 5691 0 
L 5113 0 
L 5113 2094 
Q 5113 2597 4934 2840 
Q 4756 3084 4391 3084 
Q 3944 3084 3684 2787 
Q 3425 2491 3425 1978 
L 3425 0 
L 2847 0 
L 2847 2094 
Q 2847 2600 2669 2842 
Q 2491 3084 2119 3084 
Q 1678 3084 1418 2786 
Q 1159 2488 1159 1978 
L 1159 0 
L 581 0 
L 581 3500 
L 1159 3500 
L 1159 2956 
Q 1356 3278 1631 3431 
Q 1906 3584 2284 3584 
Q 2666 3584 2933 3390 
Q 3200 3197 3328 2828 
z
" transform="scale(0.015625)"/>
      </defs>
      <use xlink:href="#DejaVuSans-43"/>
      <use xlink:href="#DejaVuSans-75" transform="translate(69.824219 0)"/>
      <use xlink:href="#DejaVuSans-73" transform="translate(133.203125 0)"/>
      <use xlink:href="#DejaVuSans-74" transform="translate(185.302734 0)"/>
      <use xlink:href="#DejaVuSans-6f" transform="translate(224.511719 0)"/>
      <use xlink:href="#DejaVuSans-6d" transform="translate(285.693359 0)"/>
     </g>
    </g>
   </g>
   <g id="matplotlib.axis_1"/>
   <g id="matplotlib.axis_2"/>
  </g>
 </g>
 <defs>
  <clipPath id="p81acf37066">
   <rect x="63" y="43.2" width="390.6" height="277.2"/>
  </clipPath>
 </defs>
</svg>
