<?xml version="1.0" encoding="utf-8" standalone="no"?>
<!DOCTYPE svg PUBLIC "-//W3C//DTD SVG 1.1//EN"
  "http://www.w3.org/Graphics/SVG/1.1/DTD/svg11.dtd">
<svg xmlns:xlink="http://www.w3.org/1999/xlink" width="360pt" height="360pt" viewBox="0 0 360 360" xmlns="http://www.w3.org/2000/svg" version="1.1">
 <metadata>
  <rdf:RDF xmlns:dc="http://purl.org/dc/elements/1.1/" xmlns:cc="http://creativecommons.org/ns#" xmlns:rdf="http://www.w3.org/1999/02/22-rdf-syntax-ns#">
   <cc:Work>
    <dc:type rdf:resource="http://purl.org/dc/dcmitype/StillImage"/>
    <dc:date>2025-05-23T14:26:51.215314</dc:date>
    <dc:format>image/svg+xml</dc:format>
    <dc:creator>
     <cc:Agent>
      <dc:title>Matplotlib v3.10.3, https://matplotlib.org/</dc:title>
     </cc:Agent>
    </dc:creator>
   </cc:Work>
  </rdf:RDF>
 </metadata>
 <defs>
  <style type="text/css">*{stroke-linejoin: round; stroke-linecap: butt}</style>
 </defs>
 <g id="figure_1">
  <g id="patch_1">
   <path d="M 0 360 
L 360 360 
L 360 0 
L 0 0 
z
" style="fill: #ffffff"/>
  </g>
  <g id="axes_1">
   <g id="patch_2">
    <path d="M 45 320.4 
L 324 320.4 
L 324 43.2 
L 45 43.2 
z
" style="fill: #ffffff"/>
   </g>
   <g id="EdgeCollection_1">
    <path d="M 85.837188 192.370428 
L 173.857347 279.793252 
" clip-path="url(#p72e2586975)" style="fill: #ff0000; stroke: #ff0000; stroke-width: 2"/>
    <path d="M 85.837188 171.229572 
L 173.857347 83.806748 
" clip-path="url(#p72e2586975)" style="fill: #ff0000; stroke: #ff0000; stroke-width: 2"/>
    <path d="M 175.5 278.363679 
C 130.21816 217.987893 130.21816 145.612107 175.5 85.236321 
C 130.21816 145.612107 130.21816 217.987893 175.5 278.363679 
" clip-path="url(#p72e2586975)" style="fill: #ff0000; stroke: #ff0000; stroke-width: 2"/>
    <path d="M 193.5 278.363679 
C 238.78184 217.987893 238.78184 145.612107 193.5 85.236321 
C 238.78184 145.612107 238.78184 217.987893 193.5 278.363679 
" clip-path="url(#p72e2586975)" style="fill: #0000ff; stroke: #0000ff; stroke-width: 2"/>
    <path d="M 195.142653 279.793252 
L 283.162812 192.370428 
" clip-path="url(#p72e2586975)" style="fill: #0000ff; stroke: #0000ff; stroke-width: 2"/>
    <path d="M 195.142653 83.806748 
L 283.162812 171.229572 
" clip-path="url(#p72e2586975)" style="fill: #0000ff; stroke: #0000ff; stroke-width: 2"/>
   </g>
   <g id="VertexCollection_1">
    <path d="M 75.194535 196.8 
C 79.172581 196.8 82.988233 195.219505 85.801137 192.406602 
C 88.61404 189.593698 90.194535 185.778047 90.194535 181.8 
C 90.194535 177.821954 88.61404 174.006302 85.801137 171.193398 
C 82.988233 168.380495 79.172581 166.8 75.194535 166.8 
C 71.216488 166.8 67.400837 168.380495 64.587933 171.193398 
C 61.77503 174.006302 60.194535 177.821954 60.194535 181.8 
C 60.194535 185.778047 61.77503 189.593698 64.587933 192.406602 
C 67.400837 195.219505 71.216488 196.8 75.194535 196.8 
z
" clip-path="url(#p72e2586975)" style="fill: #4682b4; stroke: #ffffff; stroke-width: 4"/>
    <path d="M 184.5 305.363679 
C 188.478047 305.363679 192.293698 303.783185 195.106602 300.970281 
C 197.919505 298.157377 199.5 294.341726 199.5 290.363679 
C 199.5 286.385633 197.919505 282.569981 195.106602 279.757078 
C 192.293698 276.944174 188.478047 275.363679 184.5 275.363679 
C 180.521953 275.363679 176.706302 276.944174 173.893398 279.757078 
C 171.080495 282.569981 169.5 286.385633 169.5 290.363679 
C 169.5 294.341726 171.080495 298.157377 173.893398 300.970281 
C 176.706302 303.783185 180.521953 305.363679 184.5 305.363679 
z
" clip-path="url(#p72e2586975)" style="fill: #4682b4; stroke: #ffffff; stroke-width: 4"/>
    <path d="M 184.5 88.236321 
C 188.478046 88.236321 192.293698 86.655826 195.106602 83.842922 
C 197.919505 81.030019 199.5 77.214367 199.5 73.236321 
C 199.5 69.258274 197.919505 65.442623 195.106602 62.629719 
C 192.293698 59.816815 188.478046 58.236321 184.5 58.236321 
C 180.521953 58.236321 176.706302 59.816815 173.893398 62.629719 
C 171.080495 65.442623 169.5 69.258274 169.5 73.236321 
C 169.5 77.214367 171.080495 81.030019 173.893398 83.842922 
C 176.706302 86.655826 180.521953 88.236321 184.5 88.236321 
z
" clip-path="url(#p72e2586975)" style="fill: #4682b4; stroke: #ffffff; stroke-width: 4"/>
    <path d="M 293.805465 196.8 
C 297.783512 196.8 301.599163 195.219505 304.412067 192.406602 
C 307.22497 189.593698 308.805465 185.778046 308.805465 181.8 
C 308.805465 177.821953 307.22497 174.006302 304.412067 171.193398 
C 301.599163 168.380495 297.783512 166.8 293.805465 166.8 
C 289.827419 166.8 286.011767 168.380495 283.198863 171.193398 
C 280.38596 174.006302 278.805465 177.821953 278.805465 181.8 
C 278.805465 185.778046 280.38596 189.593698 283.198863 192.406602 
C 286.011767 195.219505 289.827419 196.8 293.805465 196.8 
z
" clip-path="url(#p72e2586975)" style="fill: #4682b4; stroke: #ffffff; stroke-width: 4"/>
   </g>
   <g id="text_1">
    <g clip-path="url(#p72e2586975)">
     <!-- MOLDY -->
     <g transform="translate(43.397816 209.266875) scale(0.18 -0.18)">
      <defs>
       <path id="DejaVuSans-4d" d="M 628 4666 
L 1569 4666 
L 2759 1491 
L 3956 4666 
L 4897 4666 
L 4897 0 
L 4281 0 
L 4281 4097 
L 3078 897 
L 2444 897 
L 1241 4097 
L 1241 0 
L 628 0 
L 628 4666 
z
" transform="scale(0.015625)"/>
       <path id="DejaVuSans-4f" d="M 2522 4238 
Q 1834 4238 1429 3725 
Q 1025 3213 1025 2328 
Q 1025 1447 1429 934 
Q 1834 422 2522 422 
Q 3209 422 3611 934 
Q 4013 1447 4013 2328 
Q 4013 3213 3611 3725 
Q 3209 4238 2522 4238 
z
M 2522 4750 
Q 3503 4750 4090 4092 
Q 4678 3434 4678 2328 
Q 4678 1225 4090 567 
Q 3503 -91 2522 -91 
Q 1538 -91 948 565 
Q 359 1222 359 2328 
Q 359 3434 948 4092 
Q 1538 4750 2522 4750 
z
" transform="scale(0.015625)"/>
       <path id="DejaVuSans-4c" d="M 628 4666 
L 1259 4666 
L 1259 531 
L 3531 531 
L 3531 0 
L 628 0 
L 628 4666 
z
" transform="scale(0.015625)"/>
       <path id="DejaVuSans-44" d="M 1259 4147 
L 1259 519 
L 2022 519 
Q 2988 519 3436 956 
Q 3884 1394 3884 2338 
Q 3884 3275 3436 3711 
Q 2988 4147 2022 4147 
L 1259 4147 
z
M 628 4666 
L 1925 4666 
Q 3281 4666 3915 4102 
Q 4550 3538 4550 2338 
Q 4550 1131 3912 565 
Q 3275 0 1925 0 
L 628 0 
L 628 4666 
z
" transform="scale(0.015625)"/>
       <path id="DejaVuSans-59" d="M -13 4666 
L 666 4666 
L 1959 2747 
L 3244 4666 
L 3922 4666 
L 2272 2222 
L 2272 0 
L 1638 0 
L 1638 2222 
L -13 4666 
z
" transform="scale(0.015625)"/>
      </defs>
      <use xlink:href="#DejaVuSans-4d"/>
      <use xlink:href="#DejaVuSans-4f" transform="translate(86.279297 0)"/>
      <use xlink:href="#DejaVuSans-4c" transform="translate(164.990234 0)"/>
      <use xlink:href="#DejaVuSans-44" transform="translate(220.703125 0)"/>
      <use xlink:href="#DejaVuSans-59" transform="translate(292.205078 0)"/>
     </g>
    </g>
   </g>
   <g id="text_2">
    <g clip-path="url(#p72e2586975)">
     <!-- CIF -->
     <g transform="translate(170.384062 317.830554) scale(0.18 -0.18)">
      <defs>
       <path id="DejaVuSans-43" d="M 4122 4306 
L 4122 3641 
Q 3803 3938 3442 4084 
Q 3081 4231 2675 4231 
Q 1875 4231 1450 3742 
Q 1025 3253 1025 2328 
Q 1025 1406 1450 917 
Q 1875 428 2675 428 
Q 3081 428 3442 575 
Q 3803 722 4122 1019 
L 4122 359 
Q 3791 134 3420 21 
Q 3050 -91 2638 -91 
Q 1578 -91 968 557 
Q 359 1206 359 2328 
Q 359 3453 968 4101 
Q 1578 4750 2638 4750 
Q 3056 4750 3426 4639 
Q 3797 4528 4122 4306 
z
" transform="scale(0.015625)"/>
       <path id="DejaVuSans-49" d="M 628 4666 
L 1259 4666 
L 1259 0 
L 628 0 
L 628 4666 
z
" transform="scale(0.015625)"/>
       <path id="DejaVuSans-46" d="M 628 4666 
L 3309 4666 
L 3309 4134 
L 1259 4134 
L 1259 2759 
L 3109 2759 
L 3109 2228 
L 1259 2228 
L 1259 0 
L 628 0 
L 628 4666 
z
" transform="scale(0.015625)"/>
      </defs>
      <use xlink:href="#DejaVuSans-43"/>
      <use xlink:href="#DejaVuSans-49" transform="translate(69.824219 0)"/>
      <use xlink:href="#DejaVuSans-46" transform="translate(99.316406 0)"/>
     </g>
    </g>
   </g>
   <g id="text_3">
    <g clip-path="url(#p72e2586975)">
     <!-- PDB -->
     <g transform="translate(165.968437 100.703196) scale(0.18 -0.18)">
      <defs>
       <path id="DejaVuSans-50" d="M 1259 4147 
L 1259 2394 
L 2053 2394 
Q 2494 2394 2734 2622 
Q 2975 2850 2975 3272 
Q 2975 3691 2734 3919 
Q 2494 4147 2053 4147 
L 1259 4147 
z
M 628 4666 
L 2053 4666 
Q 2838 4666 3239 4311 
Q 3641 3956 3641 3272 
Q 3641 2581 3239 2228 
Q 2838 1875 2053 1875 
L 1259 1875 
L 1259 0 
L 628 0 
L 628 4666 
z
" transform="scale(0.015625)"/>
       <path id="DejaVuSans-42" d="M 1259 2228 
L 1259 519 
L 2272 519 
Q 2781 519 3026 730 
Q 3272 941 3272 1375 
Q 3272 1813 3026 2020 
Q 2781 2228 2272 2228 
L 1259 2228 
z
M 1259 4147 
L 1259 2741 
L 2194 2741 
Q 2656 2741 2882 2914 
Q 3109 3088 3109 3444 
Q 3109 3797 2882 3972 
Q 2656 4147 2194 4147 
L 1259 4147 
z
M 628 4666 
L 2241 4666 
Q 2963 4666 3353 4366 
Q 3744 4066 3744 3513 
Q 3744 3084 3544 2831 
Q 3344 2578 2956 2516 
Q 3422 2416 3680 2098 
Q 3938 1781 3938 1306 
Q 3938 681 3513 340 
Q 3088 0 2303 0 
L 628 0 
L 628 4666 
z
" transform="scale(0.015625)"/>
      </defs>
      <use xlink:href="#DejaVuSans-50"/>
      <use xlink:href="#DejaVuSans-44" transform="translate(60.302734 0)"/>
      <use xlink:href="#DejaVuSans-42" transform="translate(137.304688 0)"/>
     </g>
    </g>
   </g>
   <g id="text_4">
    <g clip-path="url(#p72e2586975)">
     <!-- InChI -->
     <g transform="translate(270.803434 209.266875) scale(0.18 -0.18)">
      <defs>
       <path id="DejaVuSans-6e" d="M 3513 2113 
L 3513 0 
L 2938 0 
L 2938 2094 
Q 2938 2591 2744 2837 
Q 2550 3084 2163 3084 
Q 1697 3084 1428 2787 
Q 1159 2491 1159 1978 
L 1159 0 
L 581 0 
L 581 3500 
L 1159 3500 
L 1159 2956 
Q 1366 3272 1645 3428 
Q 1925 3584 2291 3584 
Q 2894 3584 3203 3211 
Q 3513 2838 3513 2113 
z
" transform="scale(0.015625)"/>
       <path id="DejaVuSans-68" d="M 3513 2113 
L 3513 0 
L 2938 0 
L 2938 2094 
Q 2938 2591 2744 2837 
Q 2550 3084 2163 3084 
Q 1697 3084 1428 2787 
Q 1159 2491 1159 1978 
L 1159 0 
L 581 0 
L 581 4863 
L 1159 4863 
L 1159 2956 
Q 1366 3272 1645 3428 
Q 1925 3584 2291 3584 
Q 2894 3584 3203 3211 
Q 3513 2838 3513 2113 
z
" transform="scale(0.015625)"/>
      </defs>
      <use xlink:href="#DejaVuSans-49"/>
      <use xlink:href="#DejaVuSans-6e" transform="translate(29.492188 0)"/>
      <use xlink:href="#DejaVuSans-43" transform="translate(92.871094 0)"/>
      <use xlink:href="#DejaVuSans-68" transform="translate(162.695312 0)"/>
      <use xlink:href="#DejaVuSans-49" transform="translate(226.074219 0)"/>
     </g>
    </g>
   </g>
   <g id="matplotlib.axis_1"/>
   <g id="matplotlib.axis_2"/>
  </g>
 </g>
 <defs>
  <clipPath id="p72e2586975">
   <rect x="45" y="43.2" width="279" height="277.2"/>
  </clipPath>
 </defs>
</svg>
