<?xml version="1.0" encoding="UTF-8" standalone="no"?>
<svg
   id="svg"
   version="1.1"
   width="261.2951"
   height="111.12714"
   viewBox="0 0 261.2951 111.12714"
   xmlns="http://www.w3.org/2000/svg"
   xmlns:svg="http://www.w3.org/2000/svg">
  <defs
     id="defs1" />
  <g
     id="g5"
     transform="translate(-69.352452,-141.67018)">
    <path
       id="path2"
       d="m 75.259171,192.22421 v 10.126 l -1.292316,1.172 c -1.669747,1.512 -1.680783,2.895 -0.03421,4.387 3.199337,2.898 7.575112,-0.326 5.2112,-3.839 -0.46903,-0.698 -1.050627,-1.269 -1.291212,-1.269 -0.277004,0 -0.438129,-2.19 -0.439233,-5.958 -0.0033,-10.259 -0.416057,-14.746 -1.357428,-14.746 -0.753759,0 -0.796799,0.54 -0.796799,10.127 m 9.915847,-5.022 v 5.104 l -1.508621,1.29 c -2.869361,2.451 -1.262519,6.47 2.585735,6.47 4.30404,0 5.658157,-5.676 1.680783,-7.046 -1.020831,-0.352 -1.034074,-0.423 -1.034074,-5.64 0,-5.022 -0.04194,-5.283 -0.861911,-5.283 -0.817768,0 -0.861912,0.261 -0.861912,5.105 m 9.052832,-3.375 c 0,1.265 -0.251621,2.014 -0.861912,2.567 -2.174092,1.97 0.412746,4.89 2.921229,3.298 1.093668,-0.694 1.23824,-1.98 0.350945,-3.128 -0.333287,-0.432 -0.679817,-1.568 -0.768105,-2.525 -0.237274,-2.571 -1.642157,-2.752 -1.642157,-0.212 m 8.988818,0.907 c -0.0353,1.45 -0.10484,4.449 -0.1545,6.664 l -0.0905,4.027 -5.449576,4.991 -5.449577,4.991 v 3.905 3.905 l -1.724927,1.255 c -3.413436,2.486 -1.812112,7.079 2.469857,7.079 4.487238,0 6.104008,-5.68 2.089115,-7.338 -1.081528,-0.446 -1.110222,-0.556 -1.110222,-4.237 v -3.778 l 5.604085,-5.199 5.605175,-5.2 v -6.233 c 0,-6.534 -0.14126,-7.469 -1.12457,-7.469 -0.44696,0 -0.61691,0.671 -0.66436,2.637 m 8.94799,-2.019 c -0.14457,0.34 -0.26156,4.045 -0.26156,8.234 v 7.616 l -2.87487,2.899 c -2.62547,2.647 -3.01835,2.899 -4.52697,2.899 -2.03063,0 -3.37592,1.09 -3.37592,2.734 0,1.586 1.35081,2.735 3.21589,2.735 2.12002,0 3.39578,-1.303 3.07684,-3.143 -0.22734,-1.312 -0.0607,-1.546 3.20044,-4.483 l 3.43993,-3.098 -0.002,-3.525 c -0.006,-10.117 -0.79128,-15.466 -1.89157,-12.868 m 9.07821,-0.357 c -0.15781,0.143 -0.28693,7.101 -0.28693,15.461 v 15.201 l -4.60643,4.461 c -3.64298,3.529 -4.84591,4.46 -5.75528,4.46 -4.97503,0 -7.12153,5.297 -2.93999,7.256 3.7997,1.78 8.21741,-2.124 5.79722,-5.123 -0.55843,-0.693 -0.22183,-1.122 4.31176,-5.501 l 4.91654,-4.749 v -15.863 c 0,-15.96 -0.0806,-16.832 -1.43689,-15.603 m 10.48972,19.244 v 19.505 l -0.97006,0.267 c -6.35784,1.747 -4.76535,10.333 1.91585,10.333 5.9782,0 7.73182,-7.687 2.29107,-10.039 l -1.51193,-0.653 v -19.459 c 0,-19.198 -0.0121,-19.459 -0.86191,-19.459 -0.85088,0 -0.86302,0.261 -0.86302,19.505 m 8.9502,-18.449 c -0.12029,0.601 -0.19092,3.157 -0.15782,5.68 l 0.0607,4.587 3.06691,2.835 3.0669,2.835 0.26376,8.398 c 0.34764,11.05 0.0552,14.606 -1.25259,15.241 -3.47413,1.684 -1.85625,6.634 2.16858,6.634 3.84825,0 5.37122,-3.61 2.58573,-6.133 l -1.50862,-1.367 v -11.573 -11.574 l -3.28983,-2.999 -3.29093,-2.999 -0.0508,-5.206 c -0.043,-4.459 -0.15009,-5.224 -0.74603,-5.329 -0.47234,-0.083 -0.76811,0.23 -0.91599,0.97 m 11.7423,2.903 c 0,3.722 -0.064,4.014 -1.07711,4.865 -1.90371,1.598 -1.29673,4.361 1.11132,5.053 3.32515,0.957 5.62947,-3.424 2.71265,-5.156 -0.96675,-0.575 -1.02193,-0.826 -1.02193,-4.664 0,-3.796 -0.0552,-4.057 -0.86191,-4.057 -0.80563,0 -0.86302,0.261 -0.86302,3.959 m 9.40378,12.126 c -0.0441,8.878 -0.10595,22.699 -0.13685,30.712 l -0.0563,14.57 -1.32101,0.729 c -3.5569,1.96 -3.63636,6.378 -0.14347,8.015 5.13064,2.404 9.82094,-3.072 6.00469,-7.011 -0.7361,-0.76 -1.60794,-1.381 -1.93792,-1.381 -0.50545,0 -0.61581,-4.804 -0.70962,-30.756 -0.10373,-28.936 -0.1545,-30.764 -0.86411,-30.888 -0.70852,-0.124 -0.76039,0.869 -0.83543,16.01 m 14.73748,-10.312 v 5.773 l -2.80204,2.517 -2.80205,2.516 v 14.818 14.817 l -1.72382,1.443 c -2.49414,2.086 -2.30763,5.162 0.39068,6.426 5.30279,2.485 9.27465,-3.64 4.40005,-6.786 l -1.34198,-0.865 v -14.675 -14.674 l 2.80204,-2.477 2.80204,-2.477 v -6.065 c 0,-5.803 -0.0375,-6.064 -0.86191,-6.064 -0.82439,0 -0.86301,0.261 -0.86301,5.773 m 9.91584,-1.618 c 0,3.929 -0.0585,4.203 -1.07821,5.059 -1.31991,1.108 -1.41151,2.814 -0.21521,3.978 0.81336,0.791 0.86192,1.378 0.86192,10.425 0,9.066 -0.0464,9.629 -0.86192,10.368 -2.6365,2.388 1.07491,6.19 3.7986,3.891 1.29673,-1.095 1.23713,-2.901 -0.13464,-4.052 l -1.07712,-0.905 v -9.146 -9.146 l 1.29232,-1.028 c 1.66754,-1.325 1.75362,-3.093 0.2163,-4.385 -1.01972,-0.856 -1.07821,-1.13 -1.07821,-5.059 0,-3.894 -0.0541,-4.155 -0.86192,-4.155 -0.80783,0 -0.86191,0.261 -0.86191,4.155 m 8.62133,-2.556 c 0,1.007 -0.31894,1.966 -0.86191,2.592 -1.54063,1.775 -0.68975,3.622 1.66864,3.622 2.03062,0 3.33839,-3.148 1.5649,-3.765 -0.45358,-0.158 -0.64671,-0.798 -0.64671,-2.136 0,-1.651 -0.11808,-1.912 -0.86301,-1.912 -0.72176,0 -0.86191,0.261 -0.86191,1.599 m 7.75941,5.654 v 7.31 l -4.13188,3.811 -4.13188,3.81 0.0541,11.398 0.053,11.398 -1.34308,1.386 c -1.51524,1.564 -1.48876,2.918 0.0828,4.123 3.0051,2.304 6.91737,-1.739 4.02924,-4.165 l -1.07821,-0.905 0.011,-11.284 0.01,-11.283 4.09105,-3.906 4.09105,-3.907 -0.11367,-7.416 c -0.10374,-6.706 -0.18651,-7.43 -0.86854,-7.549 -0.69637,-0.121 -0.75486,0.428 -0.75486,7.179 m 8.90936,-6.992 c -0.15781,0.143 -0.28693,5.026 -0.28693,10.852 v 10.592 l -2.58684,2.319 -2.58684,2.319 -0.011,15.833 -0.011,15.832 -1.67416,0.699 c -5.52904,2.308 -4.04691,9.808 2.04276,10.338 6.81142,0.593 9.26031,-7.604 3.11988,-10.443 l -1.74148,-0.805 v -15.336 -15.337 l 2.58684,-2.319 2.58573,-2.319 v -11.243 c 0,-11.229 -0.1225,-12.172 -1.43689,-10.982 m 8.16113,3.548 c -0.15672,2.095 -0.25052,9.922 -0.20748,17.393 l 0.0784,13.585 -0.99765,0.963 c -1.32211,1.274 -1.32984,3.192 -0.0165,4.155 3.23465,2.374 6.73306,-1.409 3.87143,-4.188 -0.78908,-0.766 -0.82991,-1.538 -0.83322,-15.625 -0.003,-15.923 -0.22734,-20.092 -1.08153,-20.092 -0.36198,0 -0.61802,1.202 -0.81335,3.809 m 9.2272,11.799 v 15.607 l -1.12678,1.02 c -2.65305,2.404 0.92371,6.249 3.99834,4.298 1.78563,-1.133 1.60795,-3.555 -0.35425,-4.816 -0.74824,-0.482 -0.79349,-1.404 -0.79349,-16.114 0,-15.342 -0.0144,-15.603 -0.86191,-15.603 -0.84757,0 -0.86191,0.261 -0.86191,15.608 m 8.62132,-5.733 v 9.875 l 2.76562,2.483 c 2.46434,2.213 2.74135,2.616 2.54711,3.7 -0.50324,2.812 3.03601,4.429 5.26859,2.405 2.04718,-1.854 0.79018,-4.509 -2.13326,-4.509 -1.23383,0 -1.88605,-0.39 -4.08774,-2.442 l -2.61994,-2.441 -0.008,-8.855 c -0.009,-9.143 -0.11477,-10.091 -1.13229,-10.091 -0.49772,0 -0.60036,1.695 -0.60036,9.875 m 8.62574,-1.769 0.003,8.105 4.09105,3.97 4.09215,3.969 v 10.982 10.981 l -1.02084,0.352 c -4.14622,1.429 -3.61097,7.449 0.75045,8.441 5.32156,1.21 8.17106,-5.938 3.28101,-8.229 l -1.2857,-0.603 v -11.28 -11.279 l -4.09546,-3.903 -4.09546,-3.903 v -7.854 c 0,-7.594 -0.0287,-7.855 -0.86191,-7.855 -0.83432,0 -0.86191,0.26 -0.8586,8.106 m 9.69071,-6.445 c 0.043,1.134 -0.19644,1.925 -0.75376,2.498 -1.10912,1.139 -0.84977,2.908 0.51649,3.522 2.51069,1.128 4.69913,-1.868 2.61332,-3.579 -0.61029,-0.5 -0.86191,-1.203 -0.86191,-2.404 0,-1.384 -0.14567,-1.698 -0.78797,-1.698 -0.65002,0 -0.77804,0.292 -0.72617,1.661 m 8.41164,2.568 c 0,4.006 -0.0574,4.277 -1.07822,5.146 -2.16416,1.842 -0.9204,4.818 2.01297,4.818 2.70824,0 3.85377,-2.857 1.86729,-4.658 -1.01862,-0.923 -1.07821,-1.212 -1.07821,-5.256 0,-4.018 -0.0519,-4.279 -0.86192,-4.279 -0.80894,0 -0.86191,0.261 -0.86191,4.229 m 10.34625,24.444 v 28.672 l -1.48324,0.793 c -2.91571,1.559 -2.90688,5.836 0.0155,7.043 5.49923,2.27 9.53841,-3.083 5.13174,-6.802 l -1.94013,-1.637 v -28.371 c 0,-28.11 -0.008,-28.371 -0.86192,-28.371 -0.85418,0 -0.86191,0.261 -0.86191,28.673 m 11.05918,-25.45 c -0.1523,1.772 -0.27811,4.867 -0.27921,6.877 -0.002,3.327 -0.0993,3.759 -1.08043,4.815 -1.96771,2.119 -0.72396,5.007 2.15534,5.007 3.00841,0 4.21354,-3.153 1.94012,-5.078 l -1.29341,-1.095 v -6.874 c 0,-5.515 -0.11588,-6.875 -0.58271,-6.875 -0.42047,0 -0.65995,0.9 -0.8597,3.223 m 7.85101,6.055 c -0.0309,5.102 -0.11477,11.041 -0.1854,13.198 l -0.12802,3.92 6.17464,5.864 c 5.976,5.675 6.15588,5.895 5.58974,6.822 -2.15644,3.527 1.4104,7.345 5.44737,5.83 4.02703,-1.512 2.89143,-7.414 -1.44903,-7.525 -1.48324,-0.039 -2.09684,-0.487 -7.64022,-5.585 l -6.02676,-5.543 v -13.129 c 0,-12.869 -0.0177,-13.13 -0.86192,-13.13 -0.83653,0 -0.86412,0.278 -0.9204,9.278 m 8.24831,0.401 v 9.678 l 2.96979,2.671 c 2.81749,2.533 2.95875,2.746 2.75238,4.143 -0.41385,2.799 3.2523,4.305 5.41095,2.222 1.92688,-1.858 0.60477,-4.564 -2.22928,-4.564 -1.20954,0 -1.90371,-0.425 -4.30955,-2.637 l -2.86826,-2.637 -0.007,-8.398 c -0.007,-8.833 -0.1534,-10.157 -1.12236,-10.157 -0.49221,0 -0.59705,1.699 -0.59705,9.679 m 10.34625,-7.841 c 0,1.412 -0.21962,2.066 -0.86191,2.564 -1.55387,1.206 -0.42268,3.802 1.65761,3.802 1.81983,0 2.98744,-2.845 1.59801,-3.89 -0.34322,-0.258 -0.68313,-1.289 -0.75486,-2.29 -0.19424,-2.729 -1.63885,-2.893 -1.63885,-0.186 m 9.05062,2.752 -0.003,4.59 -1.30776,0.675 c -4.11422,2.121 -2.34846,8.114 2.3915,8.114 5.30169,0 6.64588,-6.193 1.83308,-8.448 l -1.18637,-0.556 v -4.482 c 0,-4.222 -0.0508,-4.483 -0.86191,-4.483 -0.81336,0 -0.86302,0.262 -0.86523,4.59 m -166.63478,5.902 c 0.31231,0.89 -0.0695,1.881 -0.8266,2.144 -0.69527,0.242 -2.38709,-0.784 -2.38709,-1.447 0,-1.389 2.76121,-1.988 3.21369,-0.697 m 33.58806,0.1 c 1.04732,1.355 -0.36639,2.887 -1.72272,1.867 -0.73941,-0.556 -0.77472,-2.17 -0.053,-2.434 0.93144,-0.341 1.12016,-0.28 1.77569,0.567 m 78.08523,0.932 c 0,0.907 -0.21299,1.199 -0.94137,1.293 -1.23603,0.159 -2.17078,-1.266 -1.39054,-2.118 0.92592,-1.011 2.33191,-0.514 2.33191,0.825 m 58.21711,-0.018 c 2.10126,1.905 0.78135,4.901 -2.16084,4.901 -1.68299,0 -3.2479,-1.446 -3.2479,-3 0,-1.243 1.82867,-2.86 3.23355,-2.86 0.6136,0 1.59249,0.432 2.17519,0.959 m -236.721114,1.218 c 0.810042,0.734 0.893916,2.649 0.13795,3.196 -1.868395,1.356 -4.310662,0.418 -4.310662,-1.655 0,-1.903 2.680644,-2.893 4.172712,-1.541 m 199.843404,3.292 c 1.08153,0.98 1.07822,1.264 -0.0254,2.169 -1.55939,1.278 -3.47965,-0.892 -2.11119,-2.386 0.69196,-0.755 1.11133,-0.712 2.13657,0.217 m -210.346175,6.264 c 0.833219,0.404 1.101393,1.763 0.504346,2.554 -0.577183,0.763 -1.713891,0.897 -2.638708,0.31 -2.134363,-1.354 -0.174369,-3.984 2.134362,-2.864 m 27.589995,1.562 c 1.0098,0.49 1.08484,1.656 0.1512,2.357 -1.34419,1.011 -3.02828,-0.948 -1.88606,-2.194 0.61912,-0.676 0.66768,-0.681 1.73486,-0.163 m 142.36332,1.984 c 0.99655,1.435 -1.06056,2.661 -2.26349,1.348 -0.38736,-0.424 -0.39288,-0.765 -0.0232,-1.391 0.54959,-0.93 1.62449,-0.91 2.28666,0.043 m 64.44693,-0.357 c 1.42144,1.288 -0.34101,3.403 -1.87391,2.25 -1.09919,-0.826 -0.48448,-2.719 0.88288,-2.719 0.26045,0 0.70741,0.211 0.99103,0.469 m -216.660976,8.638 c 0.547385,0.781 0.37412,2.88 -0.278107,3.371 -1.65209,1.242 -4.987169,0.036 -4.987169,-1.804 0,-2.374 3.886879,-3.531 5.265276,-1.567 m 136.294606,-0.423 c 0.36198,0.521 0.3057,0.826 -0.24279,1.323 -1.29231,1.171 -3.2181,-0.359 -2.0538,-1.63 0.66989,-0.732 1.66754,-0.598 2.29659,0.307 m -9.49979,3.494 c 0.64009,0.92 0.021,1.885 -1.20954,1.885 -0.60036,0 -1.09146,-0.074 -1.09146,-0.163 0,-0.09 -0.10816,-0.419 -0.24059,-0.731 -0.56835,-1.343 1.6852,-2.222 2.54159,-0.991 m 88.86189,2.263 c 1.62229,1.624 0.4006,4.309 -1.96221,4.309 -1.1974,0 -2.98192,-1.519 -2.98192,-2.539 0,-2.019 3.45978,-3.257 4.94413,-1.77 m -175.52209,2.128 c 2.92234,2.454 1.21065,6.478 -2.75458,6.478 -2.90468,0 -4.9342,-2.699 -3.83722,-5.101 1.11795,-2.444 4.48393,-3.147 6.5918,-1.377 m -23.66118,0.451 c 1.57263,1.425 0.40281,4.074 -1.79777,4.074 -2.32528,0 -3.4046,-2.036 -2.02621,-3.819 0.7968,-1.031 2.8186,-1.166 3.82398,-0.255 m 37.93294,0.133 c 1.06277,1.065 0.73169,2.805 -0.66988,3.515 -2.51732,1.274 -4.79846,-2.152 -2.43344,-3.653 1.27355,-0.809 2.19837,-0.767 3.10332,0.138 m 46.73857,5.066 c 0.95241,0.547 0.43261,2.177 -0.74383,2.327 -1.59911,0.205 -2.24803,-1.013 -1.09587,-2.057 0.77031,-0.698 1.02855,-0.736 1.8397,-0.27 m 61.28512,1.219 c 1.18527,1.074 1.14443,3.247 -0.0817,4.282 -2.10456,1.776 -5.30059,0.448 -5.21892,-2.168 0.0817,-2.597 3.33508,-3.895 5.30059,-2.114 m -83.51163,0.845 c 1.05836,1.289 0.74273,2.786 -0.77693,3.689 -2.17299,1.29 -5.03683,-0.9 -4.09877,-3.135 0.83984,-2.002 3.44654,-2.298 4.8757,-0.554 m 103.2727,9.936 c 3.26776,2.075 0.54628,6.554 -2.91351,4.794 -2.23369,-1.136 -2.16526,-3.959 0.1225,-4.962 1.29011,-0.566 1.66975,-0.543 2.79101,0.168 m -67.07351,1.753 c 2.65195,2.573 0.74493,6.607 -3.12539,6.607 -3.66837,0 -5.67141,-3.798 -3.38916,-6.426 1.80659,-2.081 4.47841,-2.155 6.51455,-0.181 m -45.2167,2.949 c 1.46227,1.324 1.49317,2.98 0.0784,4.261 -2.1465,1.946 -5.83915,0.69 -5.83915,-1.986 0,-3.014 3.44544,-4.374 5.7608,-2.275"
       stroke="none"
       fill="#3a8bbd"
       fill-rule="evenodd"
       style="stroke-width:1.05052" />
    <path
       style="font-weight:900;font-size:48px;font-family:'.Apple SD Gothic NeoI';-inkscape-font-specification:'.Apple SD Gothic NeoI, Heavy';fill:#4d4d4d;stroke-width:1.12266"
       d="m 85.892578,177.88282 h 8.352618 v -24.46509 h 0.269439 l 7.220965,24.46509 h 7.05931 l 7.27486,-24.4112 h 0.21556 v 24.4112 h 9.96925 V 141.67018 H 112.8365 l -6.57431,21.82458 h -0.21555 L 99.472313,141.67018 H 85.892578 Z m 47.205722,0 h 8.62206 V 155.3038 h 0.21555 l 12.93309,22.57902 h 9.64592 v -36.21264 h -8.62205 v 20.26184 H 155.7312 L 144.03753,141.67018 H 133.0983 Z m 38.26033,0 h 25.48896 v -7.27487 h -15.46582 v -7.65207 h 11.69367 v -7.11319 h -11.69367 v -6.89764 h 14.98083 v -7.27487 h -25.00397 z m 31.30881,0 h 8.35262 v -24.46509 h 0.26945 l 7.22097,24.46509 h 7.05931 l 7.27486,-24.4112 h 0.21554 v 24.4112 h 9.96926 v -36.21264 h -13.41807 l -6.57433,21.82458 h -0.21555 l -6.57431,-21.82458 h -13.57975 z m 47.20574,0 h 25.48895 v -7.27487 h -15.46581 v -7.65207 h 11.69366 v -7.11319 h -11.69366 v -6.89764 h 14.98082 v -7.27487 h -25.00396 z m 29.26102,0 h 9.96925 l 6.84376,-12.34032 h 0.21556 l 6.78986,12.34032 h 11.15479 l -10.56202,-18.91464 9.80759,-17.298 h -9.96926 l -5.81988,11.47811 h -0.21556 l -6.25098,-11.47811 h -11.1548 l 9.91538,17.56745 z"
       id="text1"
       aria-label="MNEMEX" />
    <path
       d="m 40.27668,315.96477 h 15.321511 v -4.31936 H 40.27668 Z m 15.158505,0 h 15.321511 v -4.31936 H 55.435185 Z m 15.158506,0 h 15.321511 v -4.31936 H 70.593691 Z m 15.158506,0 h 15.321513 v -4.31936 H 85.752197 Z m 15.158503,0 h 15.32151 v -4.31936 H 100.9107 Z m 15.15851,0 h 15.32151 v -4.31936 h -15.32151 z m 15.1585,0 h 15.32152 v -4.31936 h -15.32152 z m 15.15851,0 h 15.32151 v -4.31936 h -15.32151 z m 15.1585,0 h 15.32151 v -4.31936 h -15.32151 z m 15.1585,0 h 15.32151 v -4.31936 h -15.32151 z"
       id="text5"
       style="font-weight:900;font-size:40.7487px;font-family:'.Apple SD Gothic NeoI';-inkscape-font-specification:'.Apple SD Gothic NeoI, Heavy';fill:#4d4d4d;stroke-width:0.848932"
       transform="scale(1.7219009,0.58075352)"
       aria-label="__________" />
  </g>
</svg>
