<svg xmlns="http://www.w3.org/2000/svg" xmlns:xlink="http://www.w3.org/1999/xlink" version="1.1" class="marks" width="638" height="473" viewBox="0 0 638 473"><rect width="638" height="473" fill="white"/><g fill="none" stroke-miterlimit="10" transform="translate(33,36)"><g class="mark-group role-frame root" role="graphics-object" aria-roledescription="group mark container"><g transform="translate(0,0)"><path class="background" aria-hidden="true" d="M0.5,0.5h600v400h-600Z" stroke="#ddd"/><g><g class="mark-group role-axis" role="graphics-symbol" aria-roledescription="axis" aria-label="X-axis titled 'Parser' for a discrete scale with 7 values: yaml_rs, yaml_rs (parse_dt=False), ryaml, ruamel.yaml, PyYAML, oyaml, strictyaml"><g transform="translate(0.5,400.5)"><path class="background" aria-hidden="true" d="M0,0h0v0h0Z" pointer-events="none"/><g><g class="mark-rule role-axis-tick" pointer-events="none"><line transform="translate(42,0)" x2="0" y2="5" stroke="#888" stroke-width="1" opacity="1"/><line transform="translate(128,0)" x2="0" y2="5" stroke="#888" stroke-width="1" opacity="1"/><line transform="translate(214,0)" x2="0" y2="5" stroke="#888" stroke-width="1" opacity="1"/><line transform="translate(299,0)" x2="0" y2="5" stroke="#888" stroke-width="1" opacity="1"/><line transform="translate(385,0)" x2="0" y2="5" stroke="#888" stroke-width="1" opacity="1"/><line transform="translate(471,0)" x2="0" y2="5" stroke="#888" stroke-width="1" opacity="1"/><line transform="translate(557,0)" x2="0" y2="5" stroke="#888" stroke-width="1" opacity="1"/></g><g class="mark-text role-axis-label" pointer-events="none"><text text-anchor="middle" transform="translate(42.35714285714285,15)" font-family="sans-serif" font-size="10px" fill="#000" opacity="1">yaml_rs</text><text text-anchor="middle" transform="translate(128.07142857142856,15)" font-family="sans-serif" font-size="10px" fill="#000" opacity="1">yaml_rs (parse_dt=False)</text><text text-anchor="middle" transform="translate(213.78571428571428,15)" font-family="sans-serif" font-size="10px" fill="#000" opacity="1">ryaml</text><text text-anchor="middle" transform="translate(299.49999999999994,15)" font-family="sans-serif" font-size="10px" fill="#000" opacity="1">ruamel.yaml</text><text text-anchor="middle" transform="translate(385.21428571428567,15)" font-family="sans-serif" font-size="10px" fill="#000" opacity="1">PyYAML</text><text text-anchor="middle" transform="translate(470.9285714285714,15)" font-family="sans-serif" font-size="10px" fill="#000" opacity="1">oyaml</text><text text-anchor="middle" transform="translate(556.642857142857,15)" font-family="sans-serif" font-size="10px" fill="#000" opacity="1">strictyaml</text></g><g class="mark-rule role-axis-domain" pointer-events="none"><line transform="translate(0,0)" x2="600" y2="0" stroke="#888" stroke-width="1" opacity="1"/></g><g class="mark-text role-axis-title" pointer-events="none"><text text-anchor="middle" transform="translate(300,30)" font-family="sans-serif" font-size="11px" font-weight="bold" fill="#000" opacity="1">Parser</text></g></g><path class="foreground" aria-hidden="true" d="" pointer-events="none" display="none"/></g></g><g class="mark-group role-axis" role="graphics-symbol" aria-roledescription="axis" aria-label="Y-axis titled 'Execution Time (seconds, lower=better)' for a linear scale with values from 0 to 10"><g transform="translate(0.5,0.5)"><path class="background" aria-hidden="true" d="M0,0h0v0h0Z" pointer-events="none"/><g><g class="mark-rule role-axis-tick" pointer-events="none"><line transform="translate(0,400)" x2="-5" y2="0" stroke="#888" stroke-width="1" opacity="1"/><line transform="translate(0,358)" x2="-5" y2="0" stroke="#888" stroke-width="1" opacity="1"/><line transform="translate(0,317)" x2="-5" y2="0" stroke="#888" stroke-width="1" opacity="1"/><line transform="translate(0,275)" x2="-5" y2="0" stroke="#888" stroke-width="1" opacity="1"/><line transform="translate(0,234)" x2="-5" y2="0" stroke="#888" stroke-width="1" opacity="1"/><line transform="translate(0,192)" x2="-5" y2="0" stroke="#888" stroke-width="1" opacity="1"/><line transform="translate(0,151)" x2="-5" y2="0" stroke="#888" stroke-width="1" opacity="1"/><line transform="translate(0,109)" x2="-5" y2="0" stroke="#888" stroke-width="1" opacity="1"/><line transform="translate(0,68)" x2="-5" y2="0" stroke="#888" stroke-width="1" opacity="1"/><line transform="translate(0,26)" x2="-5" y2="0" stroke="#888" stroke-width="1" opacity="1"/></g><g class="mark-text role-axis-label" pointer-events="none"><text text-anchor="end" transform="translate(-7,403)" font-family="sans-serif" font-size="10px" fill="#000" opacity="1">0</text><text text-anchor="end" transform="translate(-7,361.46366542093955)" font-family="sans-serif" font-size="10px" fill="#000" opacity="1">1</text><text text-anchor="end" transform="translate(-7,319.92733084187904)" font-family="sans-serif" font-size="10px" fill="#000" opacity="1">2</text><text text-anchor="end" transform="translate(-7,278.39099626281853)" font-family="sans-serif" font-size="10px" fill="#000" opacity="1">3</text><text text-anchor="end" transform="translate(-7,236.85466168375805)" font-family="sans-serif" font-size="10px" fill="#000" opacity="1">4</text><text text-anchor="end" transform="translate(-7,195.31832710469757)" font-family="sans-serif" font-size="10px" fill="#000" opacity="1">5</text><text text-anchor="end" transform="translate(-7,153.78199252563712)" font-family="sans-serif" font-size="10px" fill="#000" opacity="1">6</text><text text-anchor="end" transform="translate(-7,112.24565794657664)" font-family="sans-serif" font-size="10px" fill="#000" opacity="1">7</text><text text-anchor="end" transform="translate(-7,70.70932336751612)" font-family="sans-serif" font-size="10px" fill="#000" opacity="1">8</text><text text-anchor="end" transform="translate(-7,29.17298878845564)" font-family="sans-serif" font-size="10px" fill="#000" opacity="1">9</text></g><g class="mark-rule role-axis-domain" pointer-events="none"><line transform="translate(0,400)" x2="0" y2="-400" stroke="#888" stroke-width="1" opacity="1"/></g><g class="mark-text role-axis-title" pointer-events="none"><text text-anchor="middle" transform="translate(-16.5615234375,200) rotate(-90) translate(0,-2)" font-family="sans-serif" font-size="11px" font-weight="bold" fill="#000" opacity="1">Execution Time (seconds, lower=better)</text></g></g><path class="foreground" aria-hidden="true" d="" pointer-events="none" display="none"/></g></g><g class="mark-group role-scope" role="graphics-object" aria-roledescription="group mark container"><g transform="translate(4.285714285714278,398.37260641120236)"><path class="background" aria-hidden="true" d="M0.8136967943988225,0L76.32916034845832,0C76.77825183466963,0,77.14285714285714,0.3646053081875071,77.14285714285714,0.8136967943988225L77.14285714285714,1.627393588797645C77.14285714285714,1.627393588797645,77.14285714285714,1.627393588797645,77.14285714285714,1.627393588797645L0,1.627393588797645C0,1.627393588797645,0,1.627393588797645,0,1.627393588797645L0,0.8136967943988225C0,0.3646053081875071,0.3646053081875071,0,0.8136967943988225,0Z"/><g clip-path="url(#clip1)"><g class="mark-group role-scope" role="graphics-object" aria-roledescription="group mark container"><g transform="translate(0,-398.37260641120236)"><path class="background" aria-hidden="true" d="M0,0h77.14285714285714v0h-77.14285714285714Z"/><g><g class="mark-rect role-mark layer_0_marks" role="graphics-object" aria-roledescription="rect mark container"><path aria-label="Parser: yaml_rs; Execution Time (seconds, lower=better): 0.0391799999998; parser: yaml_rs; Execution Time (s): 0.0392; Slowdown: 1.00" role="graphics-symbol" aria-roledescription="bar" d="M0,398.37260641120236h77.14285714285714v1.627393588797645h-77.14285714285714Z" fill="#e6ab02"/></g></g><path class="foreground" aria-hidden="true" d="" display="none"/></g></g></g><path class="foreground" aria-hidden="true" d="" display="none"/></g><g transform="translate(89.99999999999999,398.365732147769)"><path class="background" aria-hidden="true" d="M0.8171339261155026,0L76.32572321674164,0C76.77671170758855,0,77.14285714285714,0.3661454352685866,77.14285714285714,0.8171339261155026L77.14285714285714,1.6342678522310052C77.14285714285714,1.6342678522310052,77.14285714285714,1.6342678522310052,77.14285714285714,1.6342678522310052L0,1.6342678522310052C0,1.6342678522310052,0,1.6342678522310052,0,1.6342678522310052L0,0.8171339261155026C0,0.3661454352685866,0.3661454352685866,0,0.8171339261155026,0Z"/><g clip-path="url(#clip2)"><g class="mark-group role-scope" role="graphics-object" aria-roledescription="group mark container"><g transform="translate(0,-398.365732147769)"><path class="background" aria-hidden="true" d="M0,0h77.14285714285714v0h-77.14285714285714Z"/><g><g class="mark-rect role-mark layer_0_marks" role="graphics-object" aria-roledescription="rect mark container"><path aria-label="Parser: yaml_rs (parse_dt=False); Execution Time (seconds, lower=better): 0.0393455000012; parser: yaml_rs (parse_dt=False); Execution Time (s): 0.0393; Slowdown: 1.00" role="graphics-symbol" aria-roledescription="bar" d="M0,398.365732147769h77.14285714285714v1.6342678522310052h-77.14285714285714Z" fill="#a6761d"/></g></g><path class="foreground" aria-hidden="true" d="" display="none"/></g></g></g><path class="foreground" aria-hidden="true" d="" display="none"/></g><g transform="translate(175.7142857142857,396.11126866951656)"><path class="background" aria-hidden="true" d="M1.944365665241719,0L75.19849147761542,0C76.2716161013726,0,77.14285714285714,0.8712410414845431,77.14285714285714,1.944365665241719L77.14285714285714,3.888731330483438C77.14285714285714,3.888731330483438,77.14285714285714,3.888731330483438,77.14285714285714,3.888731330483438L0,3.888731330483438C0,3.888731330483438,0,3.888731330483438,0,3.888731330483438L0,1.944365665241719C0,0.8712410414845431,0.8712410414845431,0,1.944365665241719,0Z"/><g clip-path="url(#clip3)"><g class="mark-group role-scope" role="graphics-object" aria-roledescription="group mark container"><g transform="translate(0,-396.11126866951656)"><path class="background" aria-hidden="true" d="M0,0h77.14285714285714v0h-77.14285714285714Z"/><g><g class="mark-rect role-mark layer_0_marks" role="graphics-object" aria-roledescription="rect mark container"><path aria-label="Parser: ryaml; Execution Time (seconds, lower=better): 0.0936223999997; parser: ryaml; Execution Time (s): 0.0936; Slowdown: 2.39" role="graphics-symbol" aria-roledescription="bar" d="M0,396.11126866951656h77.14285714285714v3.888731330483438h-77.14285714285714Z" fill="#e7298a"/></g></g><path class="foreground" aria-hidden="true" d="" display="none"/></g></g></g><path class="foreground" aria-hidden="true" d="" display="none"/></g><g transform="translate(261.4285714285714,368.19925888844864)"><path class="background" aria-hidden="true" d="M6,0L71.14285714285714,0C74.45434728982114,0,77.14285714285714,2.688509853036,77.14285714285714,6L77.14285714285714,31.80074111155136C77.14285714285714,31.80074111155136,77.14285714285714,31.80074111155136,77.14285714285714,31.80074111155136L0,31.80074111155136C0,31.80074111155136,0,31.80074111155136,0,31.80074111155136L0,6C0,2.688509853036,2.688509853036,0,6,0Z"/><g clip-path="url(#clip4)"><g class="mark-group role-scope" role="graphics-object" aria-roledescription="group mark container"><g transform="translate(0,-368.19925888844864)"><path class="background" aria-hidden="true" d="M0,0h77.14285714285714v0h-77.14285714285714Z"/><g><g class="mark-rect role-mark layer_0_marks" role="graphics-object" aria-roledescription="rect mark container"><path aria-label="Parser: ruamel.yaml; Execution Time (seconds, lower=better): 0.7656126; parser: ruamel.yaml; Execution Time (s): 0.7656; Slowdown: 19.54" role="graphics-symbol" aria-roledescription="bar" d="M0,368.19925888844864h77.14285714285714v31.80074111155136h-77.14285714285714Z" fill="#7570b3"/></g></g><path class="foreground" aria-hidden="true" d="" display="none"/></g></g></g><path class="foreground" aria-hidden="true" d="" display="none"/></g><g transform="translate(347.1428571428571,184.0662370557729)"><path class="background" aria-hidden="true" d="M6,0L71.14285714285714,0C74.45434728982114,0,77.14285714285714,2.688509853036,77.14285714285714,6L77.14285714285714,215.9337629442271C77.14285714285714,215.9337629442271,77.14285714285714,215.9337629442271,77.14285714285714,215.9337629442271L0,215.9337629442271C0,215.9337629442271,0,215.9337629442271,0,215.9337629442271L0,6C0,2.688509853036,2.688509853036,0,6,0Z"/><g clip-path="url(#clip5)"><g class="mark-group role-scope" role="graphics-object" aria-roledescription="group mark container"><g transform="translate(0,-184.0662370557729)"><path class="background" aria-hidden="true" d="M0,0h77.14285714285714v0h-77.14285714285714Z"/><g><g class="mark-rect role-mark layer_0_marks" role="graphics-object" aria-roledescription="rect mark container"><path aria-label="Parser: PyYAML; Execution Time (seconds, lower=better): 5.1986716; parser: PyYAML; Execution Time (s): 5.1987; Slowdown: 132.69" role="graphics-symbol" aria-roledescription="bar" d="M0,184.0662370557729h77.14285714285714v215.9337629442271h-77.14285714285714Z" fill="#1b9e77"/></g></g><path class="foreground" aria-hidden="true" d="" display="none"/></g></g></g><path class="foreground" aria-hidden="true" d="" display="none"/></g><g transform="translate(432.85714285714283,182.30674130836587)"><path class="background" aria-hidden="true" d="M6,0L71.14285714285714,0C74.45434728982114,0,77.14285714285714,2.688509853036,77.14285714285714,6L77.14285714285714,217.69325869163413C77.14285714285714,217.69325869163413,77.14285714285714,217.69325869163413,77.14285714285714,217.69325869163413L0,217.69325869163413C0,217.69325869163413,0,217.69325869163413,0,217.69325869163413L0,6C0,2.688509853036,2.688509853036,0,6,0Z"/><g clip-path="url(#clip6)"><g class="mark-group role-scope" role="graphics-object" aria-roledescription="group mark container"><g transform="translate(0,-182.30674130836587)"><path class="background" aria-hidden="true" d="M0,0h77.14285714285714v0h-77.14285714285714Z"/><g><g class="mark-rect role-mark layer_0_marks" role="graphics-object" aria-roledescription="rect mark container"><path aria-label="Parser: oyaml; Execution Time (seconds, lower=better): 5.241032; parser: oyaml; Execution Time (s): 5.2410; Slowdown: 133.77" role="graphics-symbol" aria-roledescription="bar" d="M0,182.30674130836587h77.14285714285714v217.69325869163413h-77.14285714285714Z" fill="#d95f02"/></g></g><path class="foreground" aria-hidden="true" d="" display="none"/></g></g></g><path class="foreground" aria-hidden="true" d="" display="none"/></g><g transform="translate(518.5714285714284,15.384615384615374)"><path class="background" aria-hidden="true" d="M6,0L71.14285714285714,0C74.45434728982114,0,77.14285714285714,2.688509853036,77.14285714285714,6L77.14285714285714,384.61538461538464C77.14285714285714,384.61538461538464,77.14285714285714,384.61538461538464,77.14285714285714,384.61538461538464L0,384.61538461538464C0,384.61538461538464,0,384.61538461538464,0,384.61538461538464L0,6C0,2.688509853036,2.688509853036,0,6,0Z"/><g clip-path="url(#clip7)"><g class="mark-group role-scope" role="graphics-object" aria-roledescription="group mark container"><g transform="translate(0,-15.384615384615374)"><path class="background" aria-hidden="true" d="M0,0h77.14285714285714v0h-77.14285714285714Z"/><g><g class="mark-rect role-mark layer_0_marks" role="graphics-object" aria-roledescription="rect mark container"><path aria-label="Parser: strictyaml; Execution Time (seconds, lower=better): 9.2597334; parser: strictyaml; Execution Time (s): 9.2597; Slowdown: 236.34" role="graphics-symbol" aria-roledescription="bar" d="M0,15.384615384615374h77.14285714285714v384.61538461538464h-77.14285714285714Z" fill="#66a61e"/></g></g><path class="foreground" aria-hidden="true" d="" display="none"/></g></g></g><path class="foreground" aria-hidden="true" d="" display="none"/></g></g><g class="mark-text role-mark layer_1_marks" role="graphics-object" aria-roledescription="text mark container"><text aria-label="Parser: yaml_rs; Execution Time (seconds, lower=better): 0.0391799999998; parser: yaml_rs; label: 0.0392s (x1.00); Execution Time (s): 0.0392; Slowdown: 1.00" role="graphics-symbol" aria-roledescription="text mark" text-anchor="middle" transform="translate(42.85714285714285,394.37260641120236)" font-family="sans-serif" font-size="9px" font-weight="bold" fill="#e6ab02">0.0392s (x1.00)</text><text aria-label="Parser: yaml_rs (parse_dt=False); Execution Time (seconds, lower=better): 0.0393455000012; parser: yaml_rs (parse_dt=False); label: 0.0393s (x1.00); Execution Time (s): 0.0393; Slowdown: 1.00" role="graphics-symbol" aria-roledescription="text mark" text-anchor="middle" transform="translate(128.57142857142856,394.365732147769)" font-family="sans-serif" font-size="9px" font-weight="bold" fill="#a6761d">0.0393s (x1.00)</text><text aria-label="Parser: ryaml; Execution Time (seconds, lower=better): 0.0936223999997; parser: ryaml; label: 0.0936s (x2.39); Execution Time (s): 0.0936; Slowdown: 2.39" role="graphics-symbol" aria-roledescription="text mark" text-anchor="middle" transform="translate(214.28571428571428,392.11126866951656)" font-family="sans-serif" font-size="9px" font-weight="bold" fill="#e7298a">0.0936s (x2.39)</text><text aria-label="Parser: ruamel.yaml; Execution Time (seconds, lower=better): 0.7656126; parser: ruamel.yaml; label: 0.7656s (x19.54); Execution Time (s): 0.7656; Slowdown: 19.54" role="graphics-symbol" aria-roledescription="text mark" text-anchor="middle" transform="translate(299.99999999999994,364.19925888844864)" font-family="sans-serif" font-size="9px" font-weight="bold" fill="#7570b3">0.7656s (x19.54)</text><text aria-label="Parser: PyYAML; Execution Time (seconds, lower=better): 5.1986716; parser: PyYAML; label: 5.1987s (x132.69); Execution Time (s): 5.1987; Slowdown: 132.69" role="graphics-symbol" aria-roledescription="text mark" text-anchor="middle" transform="translate(385.71428571428567,180.0662370557729)" font-family="sans-serif" font-size="9px" font-weight="bold" fill="#1b9e77">5.1987s (x132.69)</text><text aria-label="Parser: oyaml; Execution Time (seconds, lower=better): 5.241032; parser: oyaml; label: 5.2410s (x133.77); Execution Time (s): 5.2410; Slowdown: 133.77" role="graphics-symbol" aria-roledescription="text mark" text-anchor="middle" transform="translate(471.4285714285714,178.30674130836587)" font-family="sans-serif" font-size="9px" font-weight="bold" fill="#d95f02">5.2410s (x133.77)</text><text aria-label="Parser: strictyaml; Execution Time (seconds, lower=better): 9.2597334; parser: strictyaml; label: 9.2597s (x236.34); Execution Time (s): 9.2597; Slowdown: 236.34" role="graphics-symbol" aria-roledescription="text mark" text-anchor="middle" transform="translate(557.142857142857,11.384615384615374)" font-family="sans-serif" font-size="9px" font-weight="bold" fill="#66a61e">9.2597s (x236.34)</text></g><g class="mark-group role-title"><g transform="translate(300,-31)"><path class="background" aria-hidden="true" d="M0,0h0v0h0Z" pointer-events="none"/><g><g class="mark-text role-title-text" role="graphics-symbol" aria-roledescription="title" aria-label="Title text 'YAML parsers benchmark (loads)'" pointer-events="none"><text text-anchor="middle" transform="translate(0,10)" font-family="sans-serif" font-size="13px" font-weight="bold" fill="#000" opacity="1">YAML parsers benchmark (loads)</text></g><g class="mark-text role-title-subtitle" role="graphics-symbol" aria-roledescription="subtitle" aria-label="Subtitle text 'Python: 3.13.8 (Windows 10) | CPU: 11th Gen Intel(R) Core(TM) i5-11300H @ 3.10GHz'" pointer-events="none"><text text-anchor="middle" transform="translate(0,25)" font-family="sans-serif" font-size="12px" fill="#000" opacity="1">Python: 3.13.8 (Windows 10) | CPU: 11th Gen Intel(R) Core(TM) i5-11300H @ 3.10GHz</text></g></g><path class="foreground" aria-hidden="true" d="" pointer-events="none" display="none"/></g></g></g><path class="foreground" aria-hidden="true" d="" display="none"/></g></g></g><defs><clipPath id="clip1"><path d="M0.8136967943988225,0L76.32916034845832,0C76.77825183466963,0,77.14285714285714,0.3646053081875071,77.14285714285714,0.8136967943988225L77.14285714285714,1.627393588797645C77.14285714285714,1.627393588797645,77.14285714285714,1.627393588797645,77.14285714285714,1.627393588797645L0,1.627393588797645C0,1.627393588797645,0,1.627393588797645,0,1.627393588797645L0,0.8136967943988225C0,0.3646053081875071,0.3646053081875071,0,0.8136967943988225,0Z"/></clipPath><clipPath id="clip2"><path d="M0.8171339261155026,0L76.32572321674164,0C76.77671170758855,0,77.14285714285714,0.3661454352685866,77.14285714285714,0.8171339261155026L77.14285714285714,1.6342678522310052C77.14285714285714,1.6342678522310052,77.14285714285714,1.6342678522310052,77.14285714285714,1.6342678522310052L0,1.6342678522310052C0,1.6342678522310052,0,1.6342678522310052,0,1.6342678522310052L0,0.8171339261155026C0,0.3661454352685866,0.3661454352685866,0,0.8171339261155026,0Z"/></clipPath><clipPath id="clip3"><path d="M1.944365665241719,0L75.19849147761542,0C76.2716161013726,0,77.14285714285714,0.8712410414845431,77.14285714285714,1.944365665241719L77.14285714285714,3.888731330483438C77.14285714285714,3.888731330483438,77.14285714285714,3.888731330483438,77.14285714285714,3.888731330483438L0,3.888731330483438C0,3.888731330483438,0,3.888731330483438,0,3.888731330483438L0,1.944365665241719C0,0.8712410414845431,0.8712410414845431,0,1.944365665241719,0Z"/></clipPath><clipPath id="clip4"><path d="M6,0L71.14285714285714,0C74.45434728982114,0,77.14285714285714,2.688509853036,77.14285714285714,6L77.14285714285714,31.80074111155136C77.14285714285714,31.80074111155136,77.14285714285714,31.80074111155136,77.14285714285714,31.80074111155136L0,31.80074111155136C0,31.80074111155136,0,31.80074111155136,0,31.80074111155136L0,6C0,2.688509853036,2.688509853036,0,6,0Z"/></clipPath><clipPath id="clip5"><path d="M6,0L71.14285714285714,0C74.45434728982114,0,77.14285714285714,2.688509853036,77.14285714285714,6L77.14285714285714,215.9337629442271C77.14285714285714,215.9337629442271,77.14285714285714,215.9337629442271,77.14285714285714,215.9337629442271L0,215.9337629442271C0,215.9337629442271,0,215.9337629442271,0,215.9337629442271L0,6C0,2.688509853036,2.688509853036,0,6,0Z"/></clipPath><clipPath id="clip6"><path d="M6,0L71.14285714285714,0C74.45434728982114,0,77.14285714285714,2.688509853036,77.14285714285714,6L77.14285714285714,217.69325869163413C77.14285714285714,217.69325869163413,77.14285714285714,217.69325869163413,77.14285714285714,217.69325869163413L0,217.69325869163413C0,217.69325869163413,0,217.69325869163413,0,217.69325869163413L0,6C0,2.688509853036,2.688509853036,0,6,0Z"/></clipPath><clipPath id="clip7"><path d="M6,0L71.14285714285714,0C74.45434728982114,0,77.14285714285714,2.688509853036,77.14285714285714,6L77.14285714285714,384.61538461538464C77.14285714285714,384.61538461538464,77.14285714285714,384.61538461538464,77.14285714285714,384.61538461538464L0,384.61538461538464C0,384.61538461538464,0,384.61538461538464,0,384.61538461538464L0,6C0,2.688509853036,2.688509853036,0,6,0Z"/></clipPath></defs></svg>